<svg width="20" height="20" viewBox="0 0 20 20" fill="none" xmlns="http://www.w3.org/2000/svg">
<path d="M16.2477 4.64252C15.0651 4.10109 13.8166 3.71698 12.5342 3.5C12.3587 3.81372 12.1999 4.13649 12.0585 4.46696C10.6924 4.26112 9.30325 4.26112 7.93721 4.46696C7.79571 4.13652 7.63693 3.81375 7.46151 3.5C6.17825 3.71881 4.92895 4.10383 3.74514 4.64535C1.39498 8.12245 0.757892 11.5132 1.07644 14.8558C2.45275 15.8727 3.99324 16.646 5.63094 17.1423C5.9997 16.6463 6.326 16.1201 6.60639 15.5693C6.07383 15.3704 5.55982 15.125 5.07029 14.836C5.19913 14.7425 5.32513 14.6463 5.44689 14.5528C6.87128 15.2227 8.42593 15.57 9.99997 15.57C11.574 15.57 13.1287 15.2227 14.5531 14.5528C14.6762 14.6534 14.8022 14.7496 14.9296 14.836C14.4392 15.1255 13.9242 15.3714 13.3907 15.5708C13.6708 16.1213 13.9971 16.647 14.3662 17.1423C16.0053 16.648 17.5469 15.875 18.9235 14.8572C19.2973 10.9809 18.285 7.62128 16.2477 4.64252ZM7.00988 12.8001C6.1222 12.8001 5.38884 11.9946 5.38884 11.0035C5.38884 10.0125 6.09672 9.19985 7.00705 9.19985C7.91739 9.19985 8.64509 10.0125 8.62951 11.0035C8.61394 11.9946 7.91456 12.8001 7.00988 12.8001ZM12.9901 12.8001C12.101 12.8001 11.3704 11.9946 11.3704 11.0035C11.3704 10.0125 12.0783 9.19985 12.9901 9.19985C13.9018 9.19985 14.6238 10.0125 14.6083 11.0035C14.5927 11.9946 13.8947 12.8001 12.9901 12.8001Z" fill="white"/>
</svg>
