<svg width="32" height="32" viewBox="0 0 32 32" fill="none" xmlns="http://www.w3.org/2000/svg">
<g clip-path="url(#clip0_5970_16527)">
<path d="M1.23741 22.1682C2.1088 15.0419 5.74098 12.7562 8.99328 10.7308C12.3143 8.66182 15.1867 6.84966 14.8411 0.0410156C13.3262 0.149279 11.8347 0.474041 10.412 1.0054C10.5565 6.40896 7.9967 8.0115 5.51276 9.55896C2.88932 11.193 0.411105 12.7369 0.255859 18.8294C0.463331 19.9891 0.793139 21.1087 1.23741 22.1682Z" fill="#5CE561"/>
<path d="M4.75651 8.34322C7.07161 6.90022 8.94386 5.71978 8.98607 1.61899C4.77225 3.68441 1.59579 7.54839 0.458984 12.2043C1.62583 10.2949 3.24769 9.28257 4.75651 8.34322ZM5.17932 27.7747C5.74307 20.1798 9.0755 17.5292 12.307 14.963C15.8176 12.1757 19.135 9.5344 18.9483 0.268282C18.0645 0.103924 17.1685 0.0141807 16.2698 0C16.6403 7.62709 13.1455 9.82915 9.75014 11.9439C6.3104 14.0866 2.76049 16.3109 2.4872 24.5503C3.23999 25.738 4.14506 26.822 5.17932 27.7747ZM22.3143 19.4244C25.5208 16.851 28.5456 14.4014 28.384 5.86215C27.5195 4.80995 26.5253 3.87148 25.425 3.06915C25.3799 12.3982 21.7534 15.3143 18.2386 18.1345C14.9305 20.7894 11.8077 23.3012 11.5788 31.3804C12.898 31.7596 14.2852 31.975 15.7189 32.0007C16.0959 24.4366 19.2516 21.8833 22.3143 19.4244ZM27.6886 22.7618C25.3921 24.1611 23.4003 25.3881 23.1685 30.3088C27.572 28.096 30.8178 23.9122 31.7421 18.9193C30.7105 20.9182 29.1459 21.874 27.6886 22.7618Z" fill="#5CE561"/>
<path d="M26.9456 21.5413C29.4052 20.0418 31.7296 18.6267 31.4463 12.047L31.52 12.0441C31.1453 10.5789 30.5633 9.17461 29.7915 7.87394C29.4531 15.5075 26.2895 18.0715 23.2125 20.5412C20.2843 22.8892 17.5221 25.1263 17.1565 31.9614C18.7174 31.851 20.2534 31.5111 21.7151 30.9527C21.8024 24.6756 24.5339 23.0108 26.9456 21.5413ZM17.3454 17.0191C20.8616 14.1982 24.1841 11.5262 23.9895 2.13413C22.8565 1.4793 21.6471 0.96654 20.3888 0.607422C20.4911 10.2942 16.7852 13.236 13.1981 16.0841C9.93147 18.6775 6.84872 21.1414 6.55469 28.9058C7.66965 29.7248 8.88626 30.3955 10.174 30.9011C10.5274 22.5129 13.9886 19.7127 17.3454 17.0191Z" fill="#5CE561"/>
</g>
<defs>
<clipPath id="clip0_5970_16527">
<rect width="32" height="32" fill="white"/>
</clipPath>
</defs>
</svg>
