<svg width="32" height="32" viewBox="0 0 32 32" fill="none" xmlns="http://www.w3.org/2000/svg">
<path fill-rule="evenodd" clip-rule="evenodd" d="M20.204 16.023C20.204 18.3332 18.3312 20.206 16.021 20.206C13.7108 20.206 11.838 18.3332 11.838 16.023C11.838 13.7128 13.7108 11.84 16.021 11.84C18.3312 11.84 20.204 13.7128 20.204 16.023ZM18.9491 16.023C18.9491 17.6402 17.6382 18.9511 16.021 18.9511C14.4039 18.9511 13.0929 17.6402 13.0929 16.023C13.0929 14.4059 14.4039 13.0949 16.021 13.0949C17.6382 13.0949 18.9491 14.4059 18.9491 16.023Z" fill="#FD9800"/>
<path fill-rule="evenodd" clip-rule="evenodd" d="M16.0262 22.6165C19.6648 22.6165 22.6145 19.6668 22.6145 16.0282C22.6145 12.3897 19.6648 9.44001 16.0262 9.44001C12.3877 9.44001 9.43801 12.3897 9.43801 16.0282C9.43801 19.6668 12.3877 22.6165 16.0262 22.6165ZM16.0262 21.3616C18.9718 21.3616 21.3596 18.9738 21.3596 16.0282C21.3596 13.0827 18.9718 10.6949 16.0262 10.6949C13.0807 10.6949 10.6929 13.0827 10.6929 16.0282C10.6929 18.9738 13.0807 21.3616 16.0262 21.3616Z" fill="#FD9800"/>
<path fill-rule="evenodd" clip-rule="evenodd" d="M24.9204 15.9812C24.9204 20.9193 20.9173 24.9224 15.9792 24.9224C11.0411 24.9224 7.03801 20.9193 7.03801 15.9812C7.03801 11.0431 11.0411 7.04001 15.9792 7.04001C20.9173 7.04001 24.9204 11.0431 24.9204 15.9812ZM23.6655 15.9812C23.6655 20.2262 20.2242 23.6675 15.9792 23.6675C11.7342 23.6675 8.29291 20.2262 8.29291 15.9812C8.29291 11.7362 11.7342 8.29491 15.9792 8.29491C20.2242 8.29491 23.6655 11.7362 23.6655 15.9812Z" fill="#FD9800"/>
<path fill-rule="evenodd" clip-rule="evenodd" d="M15.9321 27.2282C22.1697 27.2282 27.2262 22.1717 27.2262 15.9341C27.2262 9.69654 22.1697 4.63999 15.9321 4.63999C9.69456 4.63999 4.63801 9.69654 4.63801 15.9341C4.63801 22.1717 9.69456 27.2282 15.9321 27.2282ZM15.9321 25.9733C21.4766 25.9733 25.9713 21.4786 25.9713 15.9341C25.9713 10.3896 21.4766 5.89489 15.9321 5.89489C10.3876 5.89489 5.89291 10.3896 5.89291 15.9341C5.89291 21.4786 10.3876 25.9733 15.9321 25.9733Z" fill="#FD9800"/>
<path fill-rule="evenodd" clip-rule="evenodd" d="M29.5876 15.9948C29.5876 23.503 23.501 29.5895 15.9928 29.5895C8.48463 29.5895 2.39805 23.503 2.39805 15.9948C2.39805 8.48659 8.48463 2.4 15.9928 2.4C23.501 2.4 29.5876 8.48659 29.5876 15.9948ZM28.3327 15.9948C28.3327 22.8099 22.8079 28.3346 15.9928 28.3346C9.1777 28.3346 3.65295 22.8099 3.65295 15.9948C3.65295 9.17965 9.1777 3.6549 15.9928 3.6549C22.8079 3.6549 28.3327 9.17965 28.3327 15.9948Z" fill="#FD9800"/>
<path fill-rule="evenodd" clip-rule="evenodd" d="M31.998 16C31.998 24.8366 24.8346 32 15.998 32C7.16149 32 -0.00195312 24.8366 -0.00195312 16C-0.00195312 7.16344 7.16149 0 15.998 0C24.8346 0 31.998 7.16344 31.998 16ZM30.7431 16C30.7431 24.1435 24.1415 30.7451 15.998 30.7451C7.85455 30.7451 1.25295 24.1435 1.25295 16C1.25295 7.85651 7.85455 1.2549 15.998 1.2549C24.1415 1.2549 30.7431 7.85651 30.7431 16Z" fill="#FD9800"/>
</svg>
