<svg width="32" height="32" viewBox="0 0 32 32" fill="none" xmlns="http://www.w3.org/2000/svg">
<g clip-path="url(#clip0_5970_16507)">
<path fill-rule="evenodd" clip-rule="evenodd" d="M0 0C0 8.83656 7.16344 16 16 16C7.16344 16 0 23.1635 0 32H1.92C1.92 24.2238 8.22382 17.92 16 17.92C23.7762 17.92 30.08 24.2238 30.08 32H32C32 23.1635 24.8365 16 16 16C24.8365 16 32 8.83656 32 0H30.08C30.08 7.77618 23.7762 14.08 16 14.08C8.22382 14.08 1.92 7.77618 1.92 0H0ZM3.84 0C3.84 6.71578 9.28422 12.16 16 12.16C22.7158 12.16 28.16 6.71578 28.16 0H26.24C26.24 5.65539 21.6554 10.24 16 10.24C10.3446 10.24 5.76 5.65539 5.76 0H3.84ZM7.68 0C7.68 4.59501 11.405 8.32 16 8.32C20.595 8.32 24.32 4.59501 24.32 0H22.4C22.4 3.53462 19.5346 6.4 16 6.4C12.4654 6.4 9.6 3.53462 9.6 0H7.68ZM16 19.84C22.7158 19.84 28.16 25.2842 28.16 32H26.24C26.24 26.3446 21.6554 21.76 16 21.76C10.3446 21.76 5.76 26.3446 5.76 32H3.84C3.84 25.2842 9.28422 19.84 16 19.84ZM16 23.68C20.595 23.68 24.32 27.405 24.32 32H22.4C22.4 28.4654 19.5346 25.6 16 25.6C12.4654 25.6 9.6 28.4654 9.6 32H7.68C7.68 27.405 11.405 23.68 16 23.68Z" fill="#34F3FF"/>
</g>
<defs>
<clipPath id="clip0_5970_16507">
<rect width="32" height="32" fill="white"/>
</clipPath>
</defs>
</svg>
