<svg width="390" height="250" viewBox="0 0 390 250" fill="none" xmlns="http://www.w3.org/2000/svg">
<g clip-path="url(#clip0_5626_18959)">
<path opacity="0.5" d="M-116 -73.8939L-116 544.525M-97.6765 -73.8939L-97.6764 544.525M-79.3529 -73.8939L-79.3529 544.525M-61.0294 -73.8939L-61.0294 544.525M-42.7059 -73.8939L-42.7059 544.525M-24.3824 -73.8939L-24.3823 544.525M-6.05883 -73.8939L-6.0588 544.525M12.2647 -73.8939L12.2647 544.525M30.5882 -73.8939L30.5883 544.525M48.9118 -73.8939L48.9118 544.525M67.2353 -73.8939L67.2353 544.525M85.5588 -73.8939L85.5588 544.525M103.882 -73.8939L103.882 544.525M122.206 -73.8939L122.206 544.525M140.529 -73.8939L140.529 544.525M158.853 -73.8939L158.853 544.525M177.176 -73.8939L177.176 544.525M195.5 -73.8939L195.5 544.525M213.824 -73.8939L213.824 544.525M232.147 -73.8939L232.147 544.525M250.471 -73.8939L250.471 544.525M268.794 -73.8939L268.794 544.525M287.118 -73.8939L287.118 544.525M305.441 -73.8939L305.441 544.525M323.765 -73.8939L323.765 544.525M342.088 -73.8939L342.088 544.525M360.412 -73.8939L360.412 544.525M378.735 -73.8939L378.735 544.525M397.059 -73.8939L397.059 544.525M415.382 -73.8939L415.382 544.525M433.706 -73.8939L433.706 544.525M452.029 -73.8939L452.029 544.525M470.353 -73.8939V544.525M488.676 -73.8939V544.525M507 -73.8939V544.525M-113.996 546.529L504.423 546.529M-113.996 528.206L504.423 528.206M-113.996 509.882L504.423 509.882M-113.996 491.559L504.423 491.559M-113.996 473.235L504.423 473.235M-113.996 454.912L504.423 454.912M-113.996 436.588L504.423 436.588M-113.996 418.265L504.423 418.265M-113.996 399.941L504.423 399.941M-113.996 381.618L504.423 381.618M-113.996 363.294L504.423 363.294M-113.996 344.97L504.423 344.97M-113.996 326.647L504.423 326.647M-113.996 308.323L504.423 308.323M-113.996 290L504.423 290M-113.996 271.676L504.423 271.676M-113.996 253.353L504.423 253.353M-113.996 235.029L504.423 235.029M-113.996 216.706L504.423 216.706M-113.996 198.382L504.423 198.382M-113.996 180.059L504.423 180.059M-113.996 161.735L504.423 161.735M-113.996 143.412L504.423 143.412M-113.996 125.088L504.423 125.088M-113.996 106.765L504.423 106.765M-113.996 88.4411L504.423 88.4411M-113.996 70.1176L504.423 70.1175M-113.996 51.7941L504.423 51.794M-113.996 33.4705L504.423 33.4705M-113.996 15.147L504.423 15.1469M-113.996 -3.17654L504.423 -3.17659M-113.996 -21.5001L504.423 -21.5001M-113.996 -39.8236L504.423 -39.8236M-113.996 -58.1471L504.423 -58.1472M-113.996 -76.4706L504.423 -76.4707" stroke="#D5C326" stroke-width="0.57261"/>
</g>
<defs>
<clipPath id="clip0_5626_18959">
<rect width="391" height="249" fill="white" transform="translate(0 0.509766)"/>
</clipPath>
</defs>
</svg>
