<svg width="60" height="60" viewBox="0 0 60 60" fill="none" xmlns="http://www.w3.org/2000/svg">
<path d="M25.3252 18.7805H14.2927M25.3252 18.7805V20.6504M25.3252 18.7805V17.1911M14.2927 18.7805V9.2439M14.2927 18.7805V20.6504M14.2927 9.2439H10.5528M14.2927 9.2439H30.374M45.3333 9.2439V18.7805M45.3333 9.2439H49.2602M45.3333 9.2439H30.374M45.3333 18.7805H34.4878M45.3333 18.7805V20.6504M34.4878 18.7805V20.6504M34.4878 18.7805V17.1911M34.4878 20.6504H45.3333M34.4878 20.6504V22.2398M45.3333 20.6504V45.5203M45.3333 45.5203H49.2602M45.3333 45.5203H41.5935M14.2927 45.5203V20.6504M14.2927 45.5203H10.5528M14.2927 45.5203H17.4715M14.2927 20.6504H25.3252M25.3252 20.6504V22.2398M27.7561 23.8293H25.3252V22.2398M27.7561 23.8293V25.8862M27.7561 23.8293H32.0569M27.7561 25.8862H32.0569M27.7561 25.8862L30 28.878L32.0569 25.8862M32.0569 25.8862V23.8293M32.0569 23.8293H34.4878V22.2398M49.2602 9.2439H50.9431V7H8.68293V9.2439H10.5528M49.2602 9.2439V45.5203M49.2602 45.5203L52.626 53M10.5528 45.5203V9.2439M10.5528 45.5203L7 53M19.7154 45.5203V43.2764M19.7154 45.5203H21.2114M19.7154 45.5203H17.4715M19.7154 43.2764H21.2114M19.7154 43.2764H15.9756V40.2846H27.3821M21.2114 43.2764V45.5203M21.2114 43.2764H43.4634M21.2114 43.2764H38.9756M21.2114 45.5203H41.5935M21.2114 45.5203H38.9756M38.9756 45.5203V43.2764M38.9756 45.5203H40.4715M38.9756 43.2764H40.4715M40.4715 43.2764V45.5203M40.4715 43.2764H43.4634M40.4715 45.5203H41.5935M43.4634 43.2764V40.2846H34.1138M17.4715 45.5203V53M17.4715 53H41.5935M17.4715 53H7M41.5935 53V45.5203M41.5935 53H52.626M52.626 53H7M30 15.6016H34.4878V17.1911M30 15.6016H25.3252V17.1911M30 15.6016C30.935 15.103 31.4959 14.2927 31.3089 12.9837C31.241 12.5083 30.9018 12.0329 30.5689 11.5665C29.9853 10.7486 29.4214 9.95836 30.374 9.2439M27.3821 40.2846V38.7886M27.3821 40.2846H31.6829M27.3821 38.7886H29.252M27.3821 38.7886V36.1707H29.252M31.6829 40.2846V38.7886H29.252M31.6829 40.2846H34.1138M34.1138 40.2846V36.1707H29.252M29.252 36.1707V38.7886M25.3252 17.1911H34.4878M34.4878 22.2398H25.3252M20.6504 47.5772V50.7561H33.5528V47.5772H20.6504ZM35.6098 47.5772V50.7561H38.7886V47.5772H35.6098Z" stroke="#189CF1" stroke-linejoin="round"/>
</svg>
