<svg width="60" height="60" viewBox="0 0 60 60" fill="none" xmlns="http://www.w3.org/2000/svg">
<path d="M21.0482 38.1027L21.0482 20.3482L27.0019 20.3482M21.0482 38.1027L32.9556 38.1027M21.0482 38.1027L24.0251 29.2254M40.9245 29.2254L46.9698 29.2254M40.9245 29.2254L40.9245 23.3225M40.9245 29.2254L40.9245 35.1283M46.9698 29.2254C46.9698 30.3374 47.872 31.2388 48.9849 31.2388C50.0978 31.2388 51 30.3374 51 29.2254C51 28.1135 50.0978 27.2121 48.9849 27.2121C47.872 27.2121 46.9698 28.1135 46.9698 29.2254ZM44.4051 47.9866C44.4051 49.0986 45.3073 50 46.4202 50C47.5331 50 48.4353 49.0986 48.4353 47.9866C48.4353 46.8746 47.5331 45.9732 46.4202 45.9732C45.3073 45.9732 44.4051 46.8746 44.4051 47.9866ZM44.4051 47.9866L38.543 47.9866L35.1997 41.0312M29.3834 45.9732C28.2705 45.9732 27.3683 46.8746 27.3683 47.9866C27.3683 49.0986 28.2705 50 29.3834 50C30.4963 50 31.3985 49.0986 31.3985 47.9866C31.3985 46.8746 30.4963 45.9732 29.3834 45.9732ZM29.3834 45.9732L29.475 41.0312M13.4457 47.9866C13.4457 46.8746 12.5436 45.9732 11.4306 45.9732C10.3177 45.9732 9.41553 46.8746 9.41553 47.9866C9.41553 49.0986 10.3177 50 11.4306 50C12.5436 50 13.4457 49.0986 13.4457 47.9866ZM13.4457 47.9866L20.5902 47.9866L23.7503 41.0312M11.9802 29.2254C11.9802 28.1135 11.078 27.2121 9.96511 27.2121C8.8522 27.2121 7.95 28.1135 7.95 29.2254C7.95 30.3374 8.8522 31.2388 9.96511 31.2388C11.078 31.2388 11.9802 30.3374 11.9802 29.2254ZM11.9802 29.2254L18.0255 29.2254M13.4457 11.0134C13.4457 9.90143 12.5436 9 11.4306 9C10.3177 9 9.41553 9.90142 9.41553 11.0134C9.41553 12.1254 10.3177 13.0268 11.4306 13.0268C12.5436 13.0268 13.4457 12.1254 13.4457 11.0134ZM13.4457 11.0134L19.6743 11.0134L23.5213 17.4196M29.017 13.0268C27.9041 13.0268 27.0019 12.1254 27.0019 11.0134C27.0019 9.90143 27.9041 9 29.017 9C30.1299 9 31.0321 9.90143 31.0321 11.0134C31.0321 12.1254 30.1299 13.0268 29.017 13.0268ZM29.017 13.0268L29.017 17.4196M44.5883 11.0134C44.5883 12.1254 45.4905 13.0268 46.6034 13.0268C47.7163 13.0268 48.6185 12.1254 48.6185 11.0134C48.6185 9.90143 47.7163 9 46.6034 9C45.4905 9 44.5883 9.90143 44.5883 11.0134ZM44.5883 11.0134L38.543 11.0134L35.9783 17.4196M35.9783 17.4196L40.9245 17.4196L40.9245 23.3225M35.9783 17.4196L29.017 17.4196M29.017 17.4196L23.5213 17.4196M29.475 41.0312L35.1997 41.0312M29.475 41.0312L23.7503 41.0312M35.1997 41.0312L40.9245 41.0312L40.9245 35.1283M23.7503 41.0312L18.0255 41.0312L18.0255 35.1283M23.5213 17.4196L18.0255 17.4196L18.0255 23.3225M18.0255 29.2254L18.0255 23.3225M18.0255 29.2254L18.0255 35.1283M44.4051 19.433C44.4051 20.545 45.3073 21.4464 46.4202 21.4464C47.5331 21.4464 48.4353 20.545 48.4353 19.433C48.4353 18.3211 47.5331 17.4196 46.4202 17.4196C45.3073 17.4196 44.4051 18.3211 44.4051 19.433ZM44.4051 19.433L40.9245 23.3225M44.4051 39.0179C44.4051 40.1298 45.3073 41.0312 46.4202 41.0312C47.5331 41.0312 48.4353 40.1298 48.4353 39.0179C48.4353 37.9059 47.5331 37.0045 46.4202 37.0045C45.3073 37.0045 44.4051 37.9059 44.4051 39.0179ZM44.4051 39.0179L40.9245 35.1283M14.3617 19.433C14.3617 18.3211 13.4595 17.4196 12.3466 17.4196C11.2337 17.4196 10.3315 18.3211 10.3315 19.433C10.3315 20.545 11.2337 21.4464 12.3466 21.4464C13.4595 21.4464 14.3617 20.545 14.3617 19.433ZM14.3617 19.433L18.0255 23.3225M14.3617 39.0179C14.3617 37.9059 13.4595 37.0045 12.3466 37.0045C11.2337 37.0045 10.3315 37.9059 10.3315 39.0179C10.3315 40.1298 11.2337 41.0312 12.3466 41.0312C13.4595 41.0312 14.3617 40.1298 14.3617 39.0179ZM14.3617 39.0179L18.0255 35.1283M27.0019 20.3482L35.1081 20.3482M27.0019 20.3482L24.0251 29.2254M27.0019 20.3482L29.9788 29.2254M32.9556 38.1027L35.1081 38.1027M32.9556 38.1027L29.9788 29.2254M35.1081 38.1027L37.9934 38.1027L37.9934 20.3482L35.1081 20.3482M35.1081 38.1027L35.1081 20.3482M24.0251 29.2254L29.9788 29.2254" stroke="#FF0059" stroke-linejoin="round"/>
</svg>
