<svg width="20" height="20" viewBox="0 0 20 20" fill="none" xmlns="http://www.w3.org/2000/svg">
<path d="M13.4788 10.8334H4.16634C3.93023 10.8334 3.73231 10.7536 3.57259 10.5938C3.41287 10.4341 3.33301 10.2362 3.33301 10.0001C3.33301 9.76398 3.41287 9.56606 3.57259 9.40634C3.73231 9.24662 3.93023 9.16676 4.16634 9.16676H13.4788L9.39551 5.08342C9.22884 4.91676 9.14898 4.72231 9.15592 4.50009C9.16287 4.27787 9.24967 4.08342 9.41634 3.91676C9.58301 3.76398 9.77745 3.68412 9.99967 3.67717C10.2219 3.67023 10.4163 3.75009 10.583 3.91676L16.083 9.41676C16.1663 9.50009 16.2254 9.59037 16.2601 9.68759C16.2948 9.78481 16.3122 9.88898 16.3122 10.0001C16.3122 10.1112 16.2948 10.2154 16.2601 10.3126C16.2254 10.4098 16.1663 10.5001 16.083 10.5834L10.583 16.0834C10.4302 16.2362 10.2393 16.3126 10.0101 16.3126C9.78092 16.3126 9.58301 16.2362 9.41634 16.0834C9.24967 15.9168 9.16634 15.7188 9.16634 15.4897C9.16634 15.2605 9.24967 15.0626 9.41634 14.8959L13.4788 10.8334Z" fill="white"/>
</svg>
