<svg width="56" height="56" viewBox="0 0 56 56" fill="none" xmlns="http://www.w3.org/2000/svg">
<path fill-rule="evenodd" clip-rule="evenodd" d="M19.0898 12.1957C19.0898 7.44174 22.9437 3.58789 27.6977 3.58789C32.4516 3.58789 36.3055 7.44174 36.3055 12.1957V19.5238C36.3055 24.2778 32.4516 28.1316 27.6977 28.1316C22.9437 28.1316 19.0898 24.2778 19.0898 19.5238V12.1957ZM27.6977 6.47539C24.5384 6.47539 21.9773 9.03646 21.9773 12.1957V19.5238C21.9773 22.6831 24.5384 25.2441 27.6977 25.2441C30.8569 25.2441 33.418 22.6831 33.418 19.5238V12.1957C33.418 9.03646 30.8569 6.47539 27.6977 6.47539Z" fill="url(#paint0_radial_7747_9991)"/>
<path fill-rule="evenodd" clip-rule="evenodd" d="M19.0898 12.1957C19.0898 7.44174 22.9437 3.58789 27.6977 3.58789C32.4516 3.58789 36.3055 7.44174 36.3055 12.1957V19.5238C36.3055 24.2778 32.4516 28.1316 27.6977 28.1316C22.9437 28.1316 19.0898 24.2778 19.0898 19.5238V12.1957ZM27.6977 6.47539C24.5384 6.47539 21.9773 9.03646 21.9773 12.1957V19.5238C21.9773 22.6831 24.5384 25.2441 27.6977 25.2441C30.8569 25.2441 33.418 22.6831 33.418 19.5238V12.1957C33.418 9.03646 30.8569 6.47539 27.6977 6.47539Z" fill="url(#paint1_radial_7747_9991)" fill-opacity="0.8"/>
<path fill-rule="evenodd" clip-rule="evenodd" d="M19.0898 12.1957C19.0898 7.44174 22.9437 3.58789 27.6977 3.58789C32.4516 3.58789 36.3055 7.44174 36.3055 12.1957V19.5238C36.3055 24.2778 32.4516 28.1316 27.6977 28.1316C22.9437 28.1316 19.0898 24.2778 19.0898 19.5238V12.1957ZM27.6977 6.47539C24.5384 6.47539 21.9773 9.03646 21.9773 12.1957V19.5238C21.9773 22.6831 24.5384 25.2441 27.6977 25.2441C30.8569 25.2441 33.418 22.6831 33.418 19.5238V12.1957C33.418 9.03646 30.8569 6.47539 27.6977 6.47539Z" fill="url(#paint2_linear_7747_9991)"/>
<path d="M8.3125 28.1641C8.3125 17.5326 16.931 8.91406 27.5625 8.91406C38.194 8.91406 46.8125 17.5326 46.8125 28.1641V45.4043C46.8125 49.2703 43.6785 52.4043 39.8125 52.4043H37.9574L27.6399 50.0215L16.8233 52.4043H15.3125C11.4465 52.4043 8.3125 49.2703 8.3125 45.4043V28.1641Z" fill="#C4C4C4" fill-opacity="0.5"/>
<path d="M8.3125 28.1641C8.3125 17.5326 16.931 8.91406 27.5625 8.91406C38.194 8.91406 46.8125 17.5326 46.8125 28.1641V45.4043C46.8125 49.2703 43.6785 52.4043 39.8125 52.4043H37.9574L27.6399 50.0215L16.8233 52.4043H15.3125C11.4465 52.4043 8.3125 49.2703 8.3125 45.4043V28.1641Z" fill="url(#paint3_radial_7747_9991)"/>
<path d="M8.3125 28.1641C8.3125 17.5326 16.931 8.91406 27.5625 8.91406C38.194 8.91406 46.8125 17.5326 46.8125 28.1641V45.4043C46.8125 49.2703 43.6785 52.4043 39.8125 52.4043H37.9574L27.6399 50.0215L16.8233 52.4043H15.3125C11.4465 52.4043 8.3125 49.2703 8.3125 45.4043V28.1641Z" fill="url(#paint4_linear_7747_9991)"/>
<path d="M8.3125 28.1641C8.3125 17.5326 16.931 8.91406 27.5625 8.91406C38.194 8.91406 46.8125 17.5326 46.8125 28.1641V45.4043C46.8125 49.2703 43.6785 52.4043 39.8125 52.4043H37.9574L27.6399 50.0215L16.8233 52.4043H15.3125C11.4465 52.4043 8.3125 49.2703 8.3125 45.4043V28.1641Z" fill="url(#paint5_linear_7747_9991)"/>
<path d="M8.3125 28.1641C8.3125 17.5326 16.931 8.91406 27.5625 8.91406C38.194 8.91406 46.8125 17.5326 46.8125 28.1641V45.4043C46.8125 49.2703 43.6785 52.4043 39.8125 52.4043H37.9574L27.6399 50.0215L16.8233 52.4043H15.3125C11.4465 52.4043 8.3125 49.2703 8.3125 45.4043V28.1641Z" fill="url(#paint6_radial_7747_9991)" fill-opacity="0.4"/>
<path d="M8.3125 28.1641C8.3125 17.5326 16.931 8.91406 27.5625 8.91406C38.194 8.91406 46.8125 17.5326 46.8125 28.1641V45.4043C46.8125 49.2703 43.6785 52.4043 39.8125 52.4043H37.9574L27.6399 50.0215L16.8233 52.4043H15.3125C11.4465 52.4043 8.3125 49.2703 8.3125 45.4043V28.1641Z" fill="url(#paint7_radial_7747_9991)"/>
<path d="M8.3125 28.1641C8.3125 17.5326 16.931 8.91406 27.5625 8.91406C38.194 8.91406 46.8125 17.5326 46.8125 28.1641V45.4043C46.8125 49.2703 43.6785 52.4043 39.8125 52.4043H37.9574L27.6399 50.0215L16.8233 52.4043H15.3125C11.4465 52.4043 8.3125 49.2703 8.3125 45.4043V28.1641Z" fill="url(#paint8_radial_7747_9991)"/>
<path d="M8.3125 28.1641C8.3125 17.5326 16.931 8.91406 27.5625 8.91406C38.194 8.91406 46.8125 17.5326 46.8125 28.1641V45.4043C46.8125 49.2703 43.6785 52.4043 39.8125 52.4043H37.9574L27.6399 50.0215L16.8233 52.4043H15.3125C11.4465 52.4043 8.3125 49.2703 8.3125 45.4043V28.1641Z" fill="url(#paint9_radial_7747_9991)"/>
<path d="M8.3125 28.1641C8.3125 17.5326 16.931 8.91406 27.5625 8.91406C38.194 8.91406 46.8125 17.5326 46.8125 28.1641V45.4043C46.8125 49.2703 43.6785 52.4043 39.8125 52.4043H37.9574L27.6399 50.0215L16.8233 52.4043H15.3125C11.4465 52.4043 8.3125 49.2703 8.3125 45.4043V28.1641Z" fill="url(#paint10_radial_7747_9991)" fill-opacity="0.6"/>
<path d="M8.3125 28.1641C8.3125 17.5326 16.931 8.91406 27.5625 8.91406C38.194 8.91406 46.8125 17.5326 46.8125 28.1641V45.4043C46.8125 49.2703 43.6785 52.4043 39.8125 52.4043H37.9574L27.6399 50.0215L16.8233 52.4043H15.3125C11.4465 52.4043 8.3125 49.2703 8.3125 45.4043V28.1641Z" fill="url(#paint11_radial_7747_9991)" fill-opacity="0.9"/>
<path d="M8.3125 28.1641C8.3125 17.5326 16.931 8.91406 27.5625 8.91406C38.194 8.91406 46.8125 17.5326 46.8125 28.1641V45.4043C46.8125 49.2703 43.6785 52.4043 39.8125 52.4043H37.9574L27.6399 50.0215L16.8233 52.4043H15.3125C11.4465 52.4043 8.3125 49.2703 8.3125 45.4043V28.1641Z" fill="url(#paint12_radial_7747_9991)" fill-opacity="0.8"/>
<path d="M8.3125 28.1641C8.3125 17.5326 16.931 8.91406 27.5625 8.91406C38.194 8.91406 46.8125 17.5326 46.8125 28.1641V45.4043C46.8125 49.2703 43.6785 52.4043 39.8125 52.4043H37.9574L27.6399 50.0215L16.8233 52.4043H15.3125C11.4465 52.4043 8.3125 49.2703 8.3125 45.4043V28.1641Z" fill="url(#paint13_radial_7747_9991)" fill-opacity="0.8"/>
<path d="M8.3125 28.1641C8.3125 17.5326 16.931 8.91406 27.5625 8.91406C38.194 8.91406 46.8125 17.5326 46.8125 28.1641V45.4043C46.8125 49.2703 43.6785 52.4043 39.8125 52.4043H37.9574L27.6399 50.0215L16.8233 52.4043H15.3125C11.4465 52.4043 8.3125 49.2703 8.3125 45.4043V28.1641Z" fill="url(#paint14_linear_7747_9991)" fill-opacity="0.2"/>
<path d="M8.3125 28.1641C8.3125 17.5326 16.931 8.91406 27.5625 8.91406C38.194 8.91406 46.8125 17.5326 46.8125 28.1641V45.4043C46.8125 49.2703 43.6785 52.4043 39.8125 52.4043H37.9574L27.6399 50.0215L16.8233 52.4043H15.3125C11.4465 52.4043 8.3125 49.2703 8.3125 45.4043V28.1641Z" fill="url(#paint15_linear_7747_9991)" fill-opacity="0.3"/>
<path d="M8.3125 28.1641C8.3125 17.5326 16.931 8.91406 27.5625 8.91406C38.194 8.91406 46.8125 17.5326 46.8125 28.1641V45.4043C46.8125 49.2703 43.6785 52.4043 39.8125 52.4043H37.9574L27.6399 50.0215L16.8233 52.4043H15.3125C11.4465 52.4043 8.3125 49.2703 8.3125 45.4043V28.1641Z" fill="url(#paint16_linear_7747_9991)" fill-opacity="0.3"/>
<path fill-rule="evenodd" clip-rule="evenodd" d="M27.5638 12.7695C21.2952 12.7695 15.8579 16.3356 13.1727 21.5538C12.9516 21.9835 12.4241 22.1526 11.9944 21.9315C11.5647 21.7104 11.3956 21.1828 11.6167 20.7531C14.59 14.9748 20.6143 11.0195 27.5638 11.0195C34.5134 11.0195 40.5376 14.9748 43.511 20.7531C43.7321 21.1828 43.563 21.7104 43.1333 21.9315C42.7036 22.1526 42.176 21.9835 41.9549 21.5538C39.2697 16.3356 33.8325 12.7695 27.5638 12.7695Z" fill="url(#paint17_linear_7747_9991)"/>
<path fill-rule="evenodd" clip-rule="evenodd" d="M27.5638 12.7695C21.2952 12.7695 15.8579 16.3356 13.1727 21.5538C12.9516 21.9835 12.4241 22.1526 11.9944 21.9315C11.5647 21.7104 11.3956 21.1828 11.6167 20.7531C14.59 14.9748 20.6143 11.0195 27.5638 11.0195C34.5134 11.0195 40.5376 14.9748 43.511 20.7531C43.7321 21.1828 43.563 21.7104 43.1333 21.9315C42.7036 22.1526 42.176 21.9835 41.9549 21.5538C39.2697 16.3356 33.8325 12.7695 27.5638 12.7695Z" fill="url(#paint18_linear_7747_9991)"/>
<path fill-rule="evenodd" clip-rule="evenodd" d="M27.5638 12.7695C21.2952 12.7695 15.8579 16.3356 13.1727 21.5538C12.9516 21.9835 12.4241 22.1526 11.9944 21.9315C11.5647 21.7104 11.3956 21.1828 11.6167 20.7531C14.59 14.9748 20.6143 11.0195 27.5638 11.0195C34.5134 11.0195 40.5376 14.9748 43.511 20.7531C43.7321 21.1828 43.563 21.7104 43.1333 21.9315C42.7036 22.1526 42.176 21.9835 41.9549 21.5538C39.2697 16.3356 33.8325 12.7695 27.5638 12.7695Z" fill="url(#paint19_radial_7747_9991)" fill-opacity="0.5"/>
<path fill-rule="evenodd" clip-rule="evenodd" d="M27.5638 12.7695C21.2952 12.7695 15.8579 16.3356 13.1727 21.5538C12.9516 21.9835 12.4241 22.1526 11.9944 21.9315C11.5647 21.7104 11.3956 21.1828 11.6167 20.7531C14.59 14.9748 20.6143 11.0195 27.5638 11.0195C34.5134 11.0195 40.5376 14.9748 43.511 20.7531C43.7321 21.1828 43.563 21.7104 43.1333 21.9315C42.7036 22.1526 42.176 21.9835 41.9549 21.5538C39.2697 16.3356 33.8325 12.7695 27.5638 12.7695Z" fill="url(#paint20_linear_7747_9991)"/>
<path fill-rule="evenodd" clip-rule="evenodd" d="M27.5638 12.7695C21.2952 12.7695 15.8579 16.3356 13.1727 21.5538C12.9516 21.9835 12.4241 22.1526 11.9944 21.9315C11.5647 21.7104 11.3956 21.1828 11.6167 20.7531C14.59 14.9748 20.6143 11.0195 27.5638 11.0195C34.5134 11.0195 40.5376 14.9748 43.511 20.7531C43.7321 21.1828 43.563 21.7104 43.1333 21.9315C42.7036 22.1526 42.176 21.9835 41.9549 21.5538C39.2697 16.3356 33.8325 12.7695 27.5638 12.7695Z" fill="url(#paint21_radial_7747_9991)"/>
<rect x="22.3945" y="15.9414" width="10.418" height="5.21202" rx="1.25" fill="#FFC442"/>
<rect x="22.3945" y="15.9414" width="10.418" height="5.21202" rx="1.25" fill="url(#paint22_radial_7747_9991)"/>
<rect x="22.3945" y="15.9414" width="10.418" height="5.21202" rx="1.25" fill="url(#paint23_linear_7747_9991)"/>
<rect x="22.3945" y="15.9414" width="10.418" height="5.21202" rx="1.25" fill="url(#paint24_linear_7747_9991)"/>
<rect x="22.3945" y="15.9414" width="10.418" height="5.21202" rx="1.25" fill="url(#paint25_linear_7747_9991)"/>
<rect x="22.3945" y="15.9414" width="10.418" height="5.21202" rx="1.25" fill="url(#paint26_linear_7747_9991)"/>
<path d="M37.7526 52.4043C39.6383 52.4043 41.45 51.4131 42.0376 49.6213C42.5278 48.1265 42.793 46.5298 42.793 44.8711C42.793 36.4595 35.9741 29.6406 27.5625 29.6406C19.1509 29.6406 12.332 36.4595 12.332 44.8711C12.332 46.5298 12.5972 48.1265 13.0874 49.6213C13.675 51.4131 15.4867 52.4043 17.3724 52.4043H37.7526Z" fill="url(#paint27_radial_7747_9991)"/>
<path d="M37.7526 52.4043C39.6383 52.4043 41.45 51.4131 42.0376 49.6213C42.5278 48.1265 42.793 46.5298 42.793 44.8711C42.793 36.4595 35.9741 29.6406 27.5625 29.6406C19.1509 29.6406 12.332 36.4595 12.332 44.8711C12.332 46.5298 12.5972 48.1265 13.0874 49.6213C13.675 51.4131 15.4867 52.4043 17.3724 52.4043H37.7526Z" fill="url(#paint28_linear_7747_9991)"/>
<path d="M37.7526 52.4043C39.6383 52.4043 41.45 51.4131 42.0376 49.6213C42.5278 48.1265 42.793 46.5298 42.793 44.8711C42.793 36.4595 35.9741 29.6406 27.5625 29.6406C19.1509 29.6406 12.332 36.4595 12.332 44.8711C12.332 46.5298 12.5972 48.1265 13.0874 49.6213C13.675 51.4131 15.4867 52.4043 17.3724 52.4043H37.7526Z" fill="url(#paint29_radial_7747_9991)"/>
<path d="M37.7526 52.4043C39.6383 52.4043 41.45 51.4131 42.0376 49.6213C42.5278 48.1265 42.793 46.5298 42.793 44.8711C42.793 36.4595 35.9741 29.6406 27.5625 29.6406C19.1509 29.6406 12.332 36.4595 12.332 44.8711C12.332 46.5298 12.5972 48.1265 13.0874 49.6213C13.675 51.4131 15.4867 52.4043 17.3724 52.4043H37.7526Z" fill="url(#paint30_radial_7747_9991)" fill-opacity="0.9"/>
<path d="M37.7526 52.4043C39.6383 52.4043 41.45 51.4131 42.0376 49.6213C42.5278 48.1265 42.793 46.5298 42.793 44.8711C42.793 36.4595 35.9741 29.6406 27.5625 29.6406C19.1509 29.6406 12.332 36.4595 12.332 44.8711C12.332 46.5298 12.5972 48.1265 13.0874 49.6213C13.675 51.4131 15.4867 52.4043 17.3724 52.4043H37.7526Z" fill="url(#paint31_radial_7747_9991)" fill-opacity="0.9"/>
<path d="M12.3496 44.1328C12.7347 36.0642 19.3985 29.6406 27.5625 29.6406C35.7265 29.6406 42.3903 36.0642 42.7754 44.1328C42.7871 43.8882 42.793 43.6421 42.793 43.3945C42.793 34.983 35.9741 28.1641 27.5625 28.1641C19.1509 28.1641 12.332 34.983 12.332 43.3945C12.332 43.6421 12.3379 43.8882 12.3496 44.1328Z" fill="url(#paint32_radial_7747_9991)"/>
<path fill-rule="evenodd" clip-rule="evenodd" d="M13.1666 39.8457C12.4301 39.8457 11.8275 40.4109 11.7808 41.1253L11.2972 44.4336C11.1969 45.1193 11.7364 45.7334 12.4392 45.7334H13.8727C14.5732 45.7334 15.1121 45.123 15.0155 44.4391L14.5547 41.1749C14.4909 40.4287 13.92 39.8457 13.1666 39.8457ZM13.14 42.0078C13.5779 42.0078 13.933 41.6527 13.933 41.2148C13.933 40.7769 13.5779 40.4218 13.14 40.4218C12.7021 40.4218 12.347 40.7769 12.347 41.2148C12.347 41.6527 12.7021 42.0078 13.14 42.0078Z" fill="url(#paint33_radial_7747_9991)"/>
<path fill-rule="evenodd" clip-rule="evenodd" d="M13.1666 39.8457C12.4301 39.8457 11.8275 40.4109 11.7808 41.1253L11.2972 44.4336C11.1969 45.1193 11.7364 45.7334 12.4392 45.7334H13.8727C14.5732 45.7334 15.1121 45.123 15.0155 44.4391L14.5547 41.1749C14.4909 40.4287 13.92 39.8457 13.1666 39.8457ZM13.14 42.0078C13.5779 42.0078 13.933 41.6527 13.933 41.2148C13.933 40.7769 13.5779 40.4218 13.14 40.4218C12.7021 40.4218 12.347 40.7769 12.347 41.2148C12.347 41.6527 12.7021 42.0078 13.14 42.0078Z" fill="url(#paint34_linear_7747_9991)" fill-opacity="0.8"/>
<defs>
<radialGradient id="paint0_radial_7747_9991" cx="0" cy="0" r="1" gradientUnits="userSpaceOnUse" gradientTransform="translate(33.7953 5.03164) rotate(141.554) scale(9.14721 15.4205)">
<stop stop-color="#CE4767"/>
<stop offset="1" stop-color="#AF3349"/>
</radialGradient>
<radialGradient id="paint1_radial_7747_9991" cx="0" cy="0" r="1" gradientUnits="userSpaceOnUse" gradientTransform="translate(27.8775 14.2238) rotate(-179.47) scale(10.9826 12.7974)">
<stop offset="0.575572" stop-color="#AF3349" stop-opacity="0"/>
<stop offset="0.6791" stop-color="#D55570" stop-opacity="0.46"/>
<stop offset="0.7213" stop-color="#D55570" stop-opacity="0.86"/>
<stop offset="0.76703" stop-color="#D2526D" stop-opacity="0.58"/>
<stop offset="0.828817" stop-color="#AF3349" stop-opacity="0"/>
</radialGradient>
<linearGradient id="paint2_linear_7747_9991" x1="38.8596" y1="14.3254" x2="16.8954" y2="14.1221" gradientUnits="userSpaceOnUse">
<stop offset="0.4377" stop-color="#AF3349" stop-opacity="0"/>
<stop offset="0.816441" stop-color="#AF3349" stop-opacity="0.78"/>
</linearGradient>
<radialGradient id="paint3_radial_7747_9991" cx="0" cy="0" r="1" gradientUnits="userSpaceOnUse" gradientTransform="translate(34.4531 18.375) rotate(112.419) scale(26.3848 24.8145)">
<stop offset="0.216088" stop-color="#FF5AAC"/>
<stop offset="1" stop-color="#E02E7A"/>
</radialGradient>
<linearGradient id="paint4_linear_7747_9991" x1="45.6094" y1="53.4844" x2="27.0156" y2="40.5781" gradientUnits="userSpaceOnUse">
<stop stop-color="#F63659"/>
<stop offset="1" stop-color="#F63659" stop-opacity="0"/>
</linearGradient>
<linearGradient id="paint5_linear_7747_9991" x1="9.40625" y1="51.7344" x2="19.9063" y2="37.0781" gradientUnits="userSpaceOnUse">
<stop offset="0.0351833" stop-color="#D64456"/>
<stop offset="1" stop-color="#D64456" stop-opacity="0"/>
</linearGradient>
<radialGradient id="paint6_radial_7747_9991" cx="0" cy="0" r="1" gradientUnits="userSpaceOnUse" gradientTransform="translate(28.4727 37.3273) rotate(161.434) scale(24.2122 29.9437)">
<stop offset="0.861031" stop-color="#BA155A" stop-opacity="0"/>
<stop offset="0.993893" stop-color="#792146"/>
<stop offset="1" stop-color="#D75189" stop-opacity="0"/>
</radialGradient>
<radialGradient id="paint7_radial_7747_9991" cx="0" cy="0" r="1" gradientUnits="userSpaceOnUse" gradientTransform="translate(27.5625 25.0244) rotate(90) scale(27.3799 33.9958)">
<stop offset="0.397256" stop-color="#F72F79" stop-opacity="0"/>
<stop offset="0.442277" stop-color="#EF246F"/>
<stop offset="0.542596" stop-color="#EE3665" stop-opacity="0"/>
</radialGradient>
<radialGradient id="paint8_radial_7747_9991" cx="0" cy="0" r="1" gradientUnits="userSpaceOnUse" gradientTransform="translate(27.5625 26.253) rotate(90) scale(9.39431 26.8794)">
<stop offset="0.630216" stop-color="#FA52A3"/>
<stop offset="0.986842" stop-color="#F850A0" stop-opacity="0"/>
</radialGradient>
<radialGradient id="paint9_radial_7747_9991" cx="0" cy="0" r="1" gradientUnits="userSpaceOnUse" gradientTransform="translate(27.5625 24.214) rotate(113.345) scale(36.5405 28.6254)">
<stop offset="0.0363277" stop-color="#FF5AAC" stop-opacity="0"/>
<stop offset="0.528166" stop-color="#E02E7A" stop-opacity="0.65"/>
<stop offset="1" stop-color="#F13561" stop-opacity="0.57"/>
</radialGradient>
<radialGradient id="paint10_radial_7747_9991" cx="0" cy="0" r="1" gradientUnits="userSpaceOnUse" gradientTransform="translate(27.8972 16.1531) rotate(0.975559) scale(9.97338 2.08813)">
<stop offset="0.138281" stop-color="#AF235E" stop-opacity="0.42"/>
<stop offset="0.494658" stop-color="#EC3D87" stop-opacity="0"/>
</radialGradient>
<radialGradient id="paint11_radial_7747_9991" cx="0" cy="0" r="1" gradientUnits="userSpaceOnUse" gradientTransform="translate(24.1293 18.8718) rotate(86.6866) scale(8.20023 6.63629)">
<stop offset="0.0986967" stop-color="#AF235E"/>
<stop offset="0.436643" stop-color="#EC3D87" stop-opacity="0"/>
</radialGradient>
<radialGradient id="paint12_radial_7747_9991" cx="0" cy="0" r="1" gradientUnits="userSpaceOnUse" gradientTransform="translate(31.3679 18.5702) rotate(92.0576) scale(7.20016 5.82696)">
<stop offset="0.0986967" stop-color="#AF235E"/>
<stop offset="0.436643" stop-color="#EC3D87" stop-opacity="0"/>
</radialGradient>
<radialGradient id="paint13_radial_7747_9991" cx="0" cy="0" r="1" gradientUnits="userSpaceOnUse" gradientTransform="translate(27.5625 21.0662) rotate(0.464495) scale(11.0013 2.9161)">
<stop offset="0.138281" stop-color="#C9276C" stop-opacity="0.42"/>
<stop offset="0.494658" stop-color="#EC3D87" stop-opacity="0"/>
</radialGradient>
<linearGradient id="paint14_linear_7747_9991" x1="40.2116" y1="37.5025" x2="47.3995" y2="37.5262" gradientUnits="userSpaceOnUse">
<stop offset="0.524102" stop-color="#BA155A" stop-opacity="0"/>
<stop offset="0.8873" stop-color="#792146" stop-opacity="0.52"/>
<stop offset="1" stop-color="#D75189" stop-opacity="0"/>
</linearGradient>
<linearGradient id="paint15_linear_7747_9991" x1="11.9782" y1="37.5262" x2="4.4275" y2="37.5262" gradientUnits="userSpaceOnUse">
<stop offset="0.188086" stop-color="#9A5B75" stop-opacity="0"/>
<stop offset="0.491634" stop-color="#792146" stop-opacity="0.72"/>
<stop offset="1" stop-color="#D75189" stop-opacity="0"/>
</linearGradient>
<linearGradient id="paint16_linear_7747_9991" x1="27.0917" y1="51.3542" x2="27.0917" y2="53.7774" gradientUnits="userSpaceOnUse">
<stop stop-color="#9A5B75" stop-opacity="0"/>
<stop offset="0.491634" stop-color="#792146" stop-opacity="0.72"/>
<stop offset="1" stop-color="#D75189" stop-opacity="0"/>
</linearGradient>
<linearGradient id="paint17_linear_7747_9991" x1="12.3947" y1="20.0703" x2="26.7982" y2="20.0703" gradientUnits="userSpaceOnUse">
<stop stop-color="#E98832"/>
<stop offset="1" stop-color="#FFC349"/>
</linearGradient>
<linearGradient id="paint18_linear_7747_9991" x1="42.7329" y1="20.6719" x2="33.0326" y2="11.8945" gradientUnits="userSpaceOnUse">
<stop stop-color="#FFC74B"/>
<stop offset="1" stop-color="#FFC24C" stop-opacity="0"/>
</linearGradient>
<radialGradient id="paint19_radial_7747_9991" cx="0" cy="0" r="1" gradientUnits="userSpaceOnUse" gradientTransform="translate(27.5638 25.2254) rotate(90) scale(19.1647 23.0077)">
<stop offset="0.649169" stop-color="#EC6926"/>
<stop offset="0.682667" stop-color="#FED75B" stop-opacity="0.56"/>
<stop offset="0.689778" stop-color="#FED75B" stop-opacity="0.97"/>
<stop offset="0.701364" stop-color="#FED75B" stop-opacity="0.4"/>
<stop offset="0.72957" stop-color="#EC6926"/>
</radialGradient>
<linearGradient id="paint20_linear_7747_9991" x1="10.24" y1="13.5264" x2="40.0051" y2="18.5797" gradientUnits="userSpaceOnUse">
<stop stop-color="#EB8835"/>
<stop offset="1" stop-color="#FFC24C" stop-opacity="0"/>
</linearGradient>
<radialGradient id="paint21_radial_7747_9991" cx="0" cy="0" r="1" gradientUnits="userSpaceOnUse" gradientTransform="translate(42.005 22.261) rotate(-13.0431) scale(5.2494 1.40739)">
<stop stop-color="#EB8835"/>
<stop offset="1" stop-color="#FFC24C" stop-opacity="0"/>
</radialGradient>
<radialGradient id="paint22_radial_7747_9991" cx="0" cy="0" r="1" gradientUnits="userSpaceOnUse" gradientTransform="translate(24.1719 18.5474) scale(8.91406 8.08539)">
<stop offset="0.791411" stop-color="#FFEB6D" stop-opacity="0"/>
<stop offset="1" stop-color="#FFEB6D"/>
</radialGradient>
<linearGradient id="paint23_linear_7747_9991" x1="27.3566" y1="18.5474" x2="27.3566" y2="22.1855" gradientUnits="userSpaceOnUse">
<stop offset="0.325736" stop-color="#FFC543" stop-opacity="0"/>
<stop offset="0.550941" stop-color="#F79F37" stop-opacity="0.64"/>
<stop offset="0.749336" stop-color="#E98B1D"/>
</linearGradient>
<linearGradient id="paint24_linear_7747_9991" x1="24.2754" y1="17.669" x2="22.3945" y2="15.9414" gradientUnits="userSpaceOnUse">
<stop offset="0.202206" stop-color="#FFC543" stop-opacity="0"/>
<stop offset="0.660642" stop-color="#E98B1D"/>
</linearGradient>
<linearGradient id="paint25_linear_7747_9991" x1="23.8612" y1="19.2401" x2="22.3945" y2="20.9467" gradientUnits="userSpaceOnUse">
<stop offset="0.0243533" stop-color="#FFC543" stop-opacity="0"/>
<stop offset="0.660642" stop-color="#E98B1D"/>
</linearGradient>
<linearGradient id="paint26_linear_7747_9991" x1="24.5723" y1="18.5474" x2="21.6637" y2="18.5474" gradientUnits="userSpaceOnUse">
<stop offset="0.258513" stop-color="#FFC543" stop-opacity="0"/>
<stop offset="0.551795" stop-color="#F79F37" stop-opacity="0.64"/>
<stop offset="0.749336" stop-color="#E98B1D"/>
</linearGradient>
<radialGradient id="paint27_radial_7747_9991" cx="0" cy="0" r="1" gradientUnits="userSpaceOnUse" gradientTransform="translate(38.2812 35.9844) rotate(131.779) scale(17.8938 18.4132)">
<stop stop-color="#FF56A6"/>
<stop offset="1" stop-color="#F02779"/>
</radialGradient>
<linearGradient id="paint28_linear_7747_9991" x1="29.2031" y1="53.2656" x2="29.2031" y2="46.4844" gradientUnits="userSpaceOnUse">
<stop stop-color="#E41863"/>
<stop offset="1" stop-color="#E41863" stop-opacity="0"/>
</linearGradient>
<radialGradient id="paint29_radial_7747_9991" cx="0" cy="0" r="1" gradientUnits="userSpaceOnUse" gradientTransform="translate(17.0625 42.7656) rotate(15.4456) scale(26.6946 27.3398)">
<stop offset="0.903867" stop-color="#F55178" stop-opacity="0"/>
<stop offset="1" stop-color="#F55178"/>
</radialGradient>
<radialGradient id="paint30_radial_7747_9991" cx="0" cy="0" r="1" gradientUnits="userSpaceOnUse" gradientTransform="translate(28.9784 44.495) rotate(165.709) scale(16.6939 15.7137)">
<stop offset="0.952048" stop-color="#F55178" stop-opacity="0"/>
<stop offset="1" stop-color="#F55178"/>
</radialGradient>
<radialGradient id="paint31_radial_7747_9991" cx="0" cy="0" r="1" gradientUnits="userSpaceOnUse" gradientTransform="translate(16.8139 53.0973) rotate(127.304) scale(1.12433 11.5494)">
<stop offset="0.071105" stop-color="#F55178"/>
<stop offset="0.552096" stop-color="#F55178" stop-opacity="0"/>
</radialGradient>
<radialGradient id="paint32_radial_7747_9991" cx="0" cy="0" r="1" gradientUnits="userSpaceOnUse" gradientTransform="translate(37.7891 30.625) rotate(127.129) scale(16.9424 32.3181)">
<stop offset="0.522193" stop-color="#CB184D"/>
<stop offset="1" stop-color="#AA2743"/>
</radialGradient>
<radialGradient id="paint33_radial_7747_9991" cx="0" cy="0" r="1" gradientUnits="userSpaceOnUse" gradientTransform="translate(13.1559 44.0244) rotate(-90) scale(2.87109 1.82456)">
<stop stop-color="#FFB54E"/>
<stop offset="1" stop-color="#FFAF4D"/>
</radialGradient>
<linearGradient id="paint34_linear_7747_9991" x1="15.3137" y1="42.4658" x2="13.4816" y2="42.7895" gradientUnits="userSpaceOnUse">
<stop offset="0.249538" stop-color="#FCD676"/>
<stop offset="0.665024" stop-color="#FFB04E" stop-opacity="0"/>
</linearGradient>
</defs>
</svg>
