<svg width="120" height="120" viewBox="0 0 120 120" fill="none" xmlns="http://www.w3.org/2000/svg">
<path d="M60 75C44.1496 75 30.054 82.6532 21.08 94.5298C19.1485 97.086 18.1828 98.3641 18.2144 100.091C18.2388 101.426 19.0768 103.109 20.1268 103.933C21.4859 105 23.3693 105 27.1361 105H92.8638C96.6306 105 98.5141 105 99.8732 103.933C100.923 103.109 101.761 101.426 101.786 100.091C101.817 98.3641 100.851 97.086 98.92 94.5298C89.946 82.6532 75.8504 75 60 75Z" fill="#DEDEDE"/>
<path d="M60 60C72.4264 60 82.5 49.9264 82.5 37.5C82.5 25.0736 72.4264 15 60 15C47.5736 15 37.5 25.0736 37.5 37.5C37.5 49.9264 47.5736 60 60 60Z" fill="#DEDEDE"/>
</svg>
