<svg width="56" height="56" viewBox="0 0 56 56" fill="none" xmlns="http://www.w3.org/2000/svg">
<path fill-rule="evenodd" clip-rule="evenodd" d="M46.1003 4.04059C47.2518 4.70417 47.6472 6.1755 46.9836 7.32691L28.0891 40.1121C27.4255 41.2635 25.9542 41.6589 24.8028 40.9954C23.6514 40.3318 23.2559 38.8605 23.9195 37.7091L42.814 4.9239C43.4776 3.77249 44.9489 3.37702 46.1003 4.04059Z" fill="#9F6261"/>
<path fill-rule="evenodd" clip-rule="evenodd" d="M46.1003 4.04059C47.2518 4.70417 47.6472 6.1755 46.9836 7.32691L28.0891 40.1121C27.4255 41.2635 25.9542 41.6589 24.8028 40.9954C23.6514 40.3318 23.2559 38.8605 23.9195 37.7091L42.814 4.9239C43.4776 3.77249 44.9489 3.37702 46.1003 4.04059Z" fill="url(#paint0_linear_7747_10051)"/>
<path fill-rule="evenodd" clip-rule="evenodd" d="M46.1003 4.04059C47.2518 4.70417 47.6472 6.1755 46.9836 7.32691L28.0891 40.1121C27.4255 41.2635 25.9542 41.6589 24.8028 40.9954C23.6514 40.3318 23.2559 38.8605 23.9195 37.7091L42.814 4.9239C43.4776 3.77249 44.9489 3.37702 46.1003 4.04059Z" fill="url(#paint1_linear_7747_10051)"/>
<path fill-rule="evenodd" clip-rule="evenodd" d="M46.1003 4.04059C47.2518 4.70417 47.6472 6.1755 46.9836 7.32691L28.0891 40.1121C27.4255 41.2635 25.9542 41.6589 24.8028 40.9954C23.6514 40.3318 23.2559 38.8605 23.9195 37.7091L42.814 4.9239C43.4776 3.77249 44.9489 3.37702 46.1003 4.04059Z" fill="url(#paint2_radial_7747_10051)"/>
<path fill-rule="evenodd" clip-rule="evenodd" d="M46.1003 4.04059C47.2518 4.70417 47.6472 6.1755 46.9836 7.32691L28.0891 40.1121C27.4255 41.2635 25.9542 41.6589 24.8028 40.9954C23.6514 40.3318 23.2559 38.8605 23.9195 37.7091L42.814 4.9239C43.4776 3.77249 44.9489 3.37702 46.1003 4.04059Z" fill="url(#paint3_radial_7747_10051)"/>
<path fill-rule="evenodd" clip-rule="evenodd" d="M46.1003 4.04059C47.2518 4.70417 47.6472 6.1755 46.9836 7.32691L28.0891 40.1121C27.4255 41.2635 25.9542 41.6589 24.8028 40.9954C23.6514 40.3318 23.2559 38.8605 23.9195 37.7091L42.814 4.9239C43.4776 3.77249 44.9489 3.37702 46.1003 4.04059Z" fill="url(#paint4_linear_7747_10051)"/>
<path d="M16.9825 40.8239L7.9871 49.2321C6.94832 50.2849 7.58946 51.8161 8.86193 51.8161H22.0147C26.2667 51.611 28.6182 49.7243 29.4858 46.5996L30.4366 42.9431C31.1339 39.5661 30.0161 37.2713 27.6613 35.9157C25.1541 34.4725 22.0444 34.9219 20.1611 37.1178L16.9825 40.8239Z" fill="url(#paint5_linear_7747_10051)"/>
<path d="M16.9825 40.8239L7.9871 49.2321C6.94832 50.2849 7.58946 51.8161 8.86193 51.8161H22.0147C26.2667 51.611 28.6182 49.7243 29.4858 46.5996L30.4366 42.9431C31.1339 39.5661 30.0161 37.2713 27.6613 35.9157C25.1541 34.4725 22.0444 34.9219 20.1611 37.1178L16.9825 40.8239Z" fill="url(#paint6_radial_7747_10051)"/>
<path d="M16.9825 40.8239L7.9871 49.2321C6.94832 50.2849 7.58946 51.8161 8.86193 51.8161H22.0147C26.2667 51.611 28.6182 49.7243 29.4858 46.5996L30.4366 42.9431C31.1339 39.5661 30.0161 37.2713 27.6613 35.9157C25.1541 34.4725 22.0444 34.9219 20.1611 37.1178L16.9825 40.8239Z" fill="url(#paint7_linear_7747_10051)"/>
<path d="M16.9825 40.8239L7.9871 49.2321C6.94832 50.2849 7.58946 51.8161 8.86193 51.8161H22.0147C26.2667 51.611 28.6182 49.7243 29.4858 46.5996L30.4366 42.9431C31.1339 39.5661 30.0161 37.2713 27.6613 35.9157C25.1541 34.4725 22.0444 34.9219 20.1611 37.1178L16.9825 40.8239Z" fill="url(#paint8_radial_7747_10051)"/>
<path d="M16.9825 40.8239L7.9871 49.2321C6.94832 50.2849 7.58946 51.8161 8.86193 51.8161H22.0147C26.2667 51.611 28.6182 49.7243 29.4858 46.5996L30.4366 42.9431C31.1339 39.5661 30.0161 37.2713 27.6613 35.9157C25.1541 34.4725 22.0444 34.9219 20.1611 37.1178L16.9825 40.8239Z" fill="url(#paint9_linear_7747_10051)"/>
<path d="M16.9825 40.8239L7.9871 49.2321C6.94832 50.2849 7.58946 51.8161 8.86193 51.8161H22.0147C26.2667 51.611 28.6182 49.7243 29.4858 46.5996L30.4366 42.9431C31.1339 39.5661 30.0161 37.2713 27.6613 35.9157C25.1541 34.4725 22.0444 34.9219 20.1611 37.1178L16.9825 40.8239Z" fill="url(#paint10_linear_7747_10051)"/>
<path fill-rule="evenodd" clip-rule="evenodd" d="M19.2512 37.4583C19.3894 37.2035 19.7081 37.109 19.963 37.2473L30.545 42.9894C30.7999 43.1277 30.8944 43.4464 30.7561 43.7013C30.6178 43.9561 30.2991 44.0506 30.0442 43.9123L19.4622 38.1701C19.2074 38.0318 19.1129 37.7131 19.2512 37.4583Z" fill="url(#paint11_linear_7747_10051)"/>
<path fill-rule="evenodd" clip-rule="evenodd" d="M19.2512 37.4583C19.3894 37.2035 19.7081 37.109 19.963 37.2473L30.545 42.9894C30.7999 43.1277 30.8944 43.4464 30.7561 43.7013C30.6178 43.9561 30.2991 44.0506 30.0442 43.9123L19.4622 38.1701C19.2074 38.0318 19.1129 37.7131 19.2512 37.4583Z" fill="url(#paint12_radial_7747_10051)"/>
<path fill-rule="evenodd" clip-rule="evenodd" d="M17.4698 39.5959C17.6119 39.3432 17.932 39.2535 18.1847 39.3956L29.9289 45.9991C30.1816 46.1412 30.2713 46.4613 30.1292 46.714C29.9871 46.9668 29.667 47.0565 29.4143 46.9144L17.6701 40.3108C17.4174 40.1687 17.3277 39.8486 17.4698 39.5959Z" fill="url(#paint13_linear_7747_10051)"/>
<path fill-rule="evenodd" clip-rule="evenodd" d="M17.4698 39.5959C17.6119 39.3432 17.932 39.2535 18.1847 39.3956L29.9289 45.9991C30.1816 46.1412 30.2713 46.4613 30.1292 46.714C29.9871 46.9668 29.667 47.0565 29.4143 46.9144L17.6701 40.3108C17.4174 40.1687 17.3277 39.8486 17.4698 39.5959Z" fill="url(#paint14_radial_7747_10051)"/>
<rect x="25.6953" y="32.6953" width="6.65488" height="2.30816" rx="1.15408" transform="rotate(30 25.6953 32.6953)" fill="url(#paint15_linear_7747_10051)"/>
<rect x="25.6953" y="32.6953" width="6.65488" height="2.30816" rx="1.15408" transform="rotate(30 25.6953 32.6953)" fill="url(#paint16_radial_7747_10051)"/>
<rect x="25.6953" y="32.6953" width="6.65488" height="2.30816" rx="1.15408" transform="rotate(30 25.6953 32.6953)" fill="url(#paint17_radial_7747_10051)"/>
<defs>
<linearGradient id="paint0_linear_7747_10051" x1="27.016" y1="31.6098" x2="31.1176" y2="34.016" gradientUnits="userSpaceOnUse">
<stop offset="0.142375" stop-color="#6E4240"/>
<stop offset="1" stop-color="#834953" stop-opacity="0"/>
</linearGradient>
<linearGradient id="paint1_linear_7747_10051" x1="33.4628" y1="21.3928" x2="37.4104" y2="23.7821" gradientUnits="userSpaceOnUse">
<stop offset="0.317725" stop-color="#96596B" stop-opacity="0"/>
<stop offset="0.623008" stop-color="#96596B"/>
<stop offset="0.905821" stop-color="#96596B" stop-opacity="0"/>
</linearGradient>
<radialGradient id="paint2_radial_7747_10051" cx="0" cy="0" r="1" gradientUnits="userSpaceOnUse" gradientTransform="translate(48.6406 3.58686) rotate(131.155) scale(5.68565 8.4209)">
<stop stop-color="#A57667"/>
<stop offset="1" stop-color="#A57667" stop-opacity="0"/>
</radialGradient>
<radialGradient id="paint3_radial_7747_10051" cx="0" cy="0" r="1" gradientUnits="userSpaceOnUse" gradientTransform="translate(46.647 5.22367) rotate(-23.2729) scale(2.12444 1.31998)">
<stop offset="0.0710945" stop-color="#BB8B86"/>
<stop offset="1" stop-color="#BB8B86" stop-opacity="0"/>
</radialGradient>
<linearGradient id="paint4_linear_7747_10051" x1="40.4178" y1="20.3755" x2="39.1098" y2="19.5054" gradientUnits="userSpaceOnUse">
<stop stop-color="#945E66"/>
<stop offset="1" stop-color="#945E66" stop-opacity="0"/>
</linearGradient>
<linearGradient id="paint5_linear_7747_10051" x1="13.0187" y1="50.8591" x2="27.7843" y2="37.1872" gradientUnits="userSpaceOnUse">
<stop stop-color="#F58C43"/>
<stop offset="1" stop-color="#FDAD47"/>
</linearGradient>
<radialGradient id="paint6_radial_7747_10051" cx="0" cy="0" r="1" gradientUnits="userSpaceOnUse" gradientTransform="translate(28.2765 39.1013) rotate(121.39) scale(3.77977 6.23402)">
<stop stop-color="#FFD46F"/>
<stop offset="1" stop-color="#FFD46F" stop-opacity="0"/>
</radialGradient>
<linearGradient id="paint7_linear_7747_10051" x1="11.2687" y1="50.9685" x2="18.5968" y2="46.8122" gradientUnits="userSpaceOnUse">
<stop stop-color="#FF8655"/>
<stop offset="1" stop-color="#FF8655" stop-opacity="0"/>
</linearGradient>
<radialGradient id="paint8_radial_7747_10051" cx="0" cy="0" r="1" gradientUnits="userSpaceOnUse" gradientTransform="translate(24.0109 45.1716) rotate(122.3) scale(5.62883 7.18549)">
<stop stop-color="#FFA565"/>
<stop offset="1" stop-color="#FFA565" stop-opacity="0"/>
</radialGradient>
<linearGradient id="paint9_linear_7747_10051" x1="15.2806" y1="42.2912" x2="20.272" y2="47.414" gradientUnits="userSpaceOnUse">
<stop stop-color="#C2834C"/>
<stop offset="0.311255" stop-color="#C2834C" stop-opacity="0"/>
</linearGradient>
<linearGradient id="paint10_linear_7747_10051" x1="19.0553" y1="35.082" x2="19.0553" y2="51.8161" gradientUnits="userSpaceOnUse">
<stop offset="0.831131" stop-color="#FF6E89" stop-opacity="0"/>
<stop offset="1" stop-color="#FF6E89"/>
</linearGradient>
<linearGradient id="paint11_linear_7747_10051" x1="26.7946" y1="42.2203" x2="18.3454" y2="37.5776" gradientUnits="userSpaceOnUse">
<stop stop-color="#FF1951"/>
<stop offset="0.718449" stop-color="#DC1E43"/>
<stop offset="1" stop-color="#B2424F"/>
</linearGradient>
<radialGradient id="paint12_radial_7747_10051" cx="0" cy="0" r="1" gradientUnits="userSpaceOnUse" gradientTransform="translate(26.4141 41.1683) rotate(118.249) scale(0.36439 5.16427)">
<stop offset="0.242816" stop-color="#FF516D"/>
<stop offset="1" stop-color="#FF516D" stop-opacity="0"/>
</radialGradient>
<linearGradient id="paint13_linear_7747_10051" x1="25.7872" y1="45.0416" x2="16.2583" y2="39.9886" gradientUnits="userSpaceOnUse">
<stop stop-color="#FF1951"/>
<stop offset="0.718449" stop-color="#DC1E43"/>
<stop offset="1" stop-color="#B2424F"/>
</linearGradient>
<radialGradient id="paint14_radial_7747_10051" cx="0" cy="0" r="1" gradientUnits="userSpaceOnUse" gradientTransform="translate(25.3649 43.8317) rotate(117.408) scale(0.415814 5.77599)">
<stop offset="0.242816" stop-color="#FF516D"/>
<stop offset="1" stop-color="#FF516D" stop-opacity="0"/>
</radialGradient>
<linearGradient id="paint15_linear_7747_10051" x1="29.0228" y1="32.6953" x2="29.0687" y2="34.7993" gradientUnits="userSpaceOnUse">
<stop stop-color="#AA9FB9"/>
<stop offset="1" stop-color="#B69BCC"/>
</linearGradient>
<radialGradient id="paint16_radial_7747_10051" cx="0" cy="0" r="1" gradientUnits="userSpaceOnUse" gradientTransform="translate(31.0849 32.6588) rotate(164.846) scale(5.77078 3.51863)">
<stop offset="0.477916" stop-color="#9B8DAC" stop-opacity="0"/>
<stop offset="0.96585" stop-color="#7E7785"/>
</radialGradient>
<radialGradient id="paint17_radial_7747_10051" cx="0" cy="0" r="1" gradientUnits="userSpaceOnUse" gradientTransform="translate(30.5166 32.9869) rotate(90.3093) scale(1.13782 3.38431)">
<stop offset="0.15196" stop-color="#C3B6D4"/>
<stop offset="1" stop-color="#C3B6D4" stop-opacity="0"/>
</radialGradient>
</defs>
</svg>
