<svg width="23" height="20" viewBox="0 0 23 20" fill="none" xmlns="http://www.w3.org/2000/svg">
<path d="M6.83301 9H3.93301C3.37296 9 3.09293 9 2.87902 9.10899C2.69086 9.20487 2.53787 9.35785 2.442 9.54601C2.33301 9.75992 2.33301 10.0399 2.33301 10.6V19M15.833 9H18.733C19.2931 9 19.5731 9 19.787 9.10899C19.9752 9.20487 20.1281 9.35785 20.224 9.54601C20.333 9.75992 20.333 10.0399 20.333 10.6V19M15.833 19V4.2C15.833 3.0799 15.833 2.51984 15.615 2.09202C15.4233 1.71569 15.1173 1.40973 14.741 1.21799C14.3132 1 13.7531 1 12.633 1H10.033C8.9129 1 8.35285 1 7.92503 1.21799C7.5487 1.40973 7.24274 1.71569 7.05099 2.09202C6.83301 2.51984 6.83301 3.0799 6.83301 4.2V19M21.333 19H1.33301M10.333 5H12.333M10.333 9H12.333M10.333 13H12.333" stroke="black" stroke-width="1.4" stroke-linecap="round" stroke-linejoin="round"/>
</svg>
