<svg width="56" height="56" viewBox="0 0 56 56" fill="none" xmlns="http://www.w3.org/2000/svg">
<rect x="6.09766" y="11.2383" width="43.8047" height="18.4844" rx="0.75" fill="url(#paint0_linear_7747_10101)"/>
<rect x="8.75" y="8.85938" width="38.5" height="23.4704" rx="2.5" fill="url(#paint1_linear_7747_10101)"/>
<rect x="8.75" y="8.85938" width="38.5" height="23.4704" rx="2.5" fill="url(#paint2_linear_7747_10101)"/>
<rect x="8.75" y="8.85938" width="38.5" height="23.4704" rx="2.5" fill="url(#paint3_radial_7747_10101)"/>
<rect x="8.75" y="8.85938" width="38.5" height="23.4704" rx="2.5" fill="url(#paint4_radial_7747_10101)"/>
<rect x="8.75" y="8.85938" width="38.5" height="23.4704" rx="2.5" fill="url(#paint5_linear_7747_10101)"/>
<rect x="8.75" y="15.8594" width="38.5" height="23.4704" rx="2.5" fill="url(#paint6_linear_7747_10101)"/>
<rect x="8.75" y="15.8594" width="38.5" height="23.4704" rx="2.5" fill="url(#paint7_linear_7747_10101)"/>
<rect x="8.75" y="15.8594" width="38.5" height="23.4704" rx="2.5" fill="url(#paint8_radial_7747_10101)"/>
<rect x="8.75" y="15.8594" width="38.5" height="23.4704" rx="2.5" fill="url(#paint9_linear_7747_10101)"/>
<rect x="8.75" y="15.8594" width="38.5" height="23.4704" rx="2.5" fill="url(#paint10_radial_7747_10101)"/>
<rect x="8.75" y="22.6406" width="38.5" height="23.4704" rx="2.5" fill="url(#paint11_linear_7747_10101)"/>
<rect x="8.75" y="22.6406" width="38.5" height="23.4704" rx="2.5" fill="url(#paint12_radial_7747_10101)"/>
<rect x="8.75" y="22.6406" width="38.5" height="23.4704" rx="2.5" fill="url(#paint13_linear_7747_10101)"/>
<rect x="8.75" y="22.6406" width="38.5" height="23.4704" rx="2.5" fill="url(#paint14_linear_7747_10101)"/>
<rect x="8.75" y="22.6406" width="38.5" height="23.4704" rx="2.5" fill="url(#paint15_radial_7747_10101)"/>
<path d="M3.44531 28.1641V48.3438C3.44531 50.5184 5.20824 52.2812 7.38281 52.2812H48.2891C50.4636 52.2812 52.2266 50.5184 52.2266 48.3438V28.1641C52.2266 30.3387 50.4636 32.1016 48.2891 32.1016H7.38281C5.20824 32.1016 3.44531 30.3387 3.44531 28.1641Z" fill="url(#paint16_linear_7747_10101)"/>
<path d="M3.44531 28.1641V48.3438C3.44531 50.5184 5.20824 52.2812 7.38281 52.2812H48.2891C50.4636 52.2812 52.2266 50.5184 52.2266 48.3438V28.1641C52.2266 30.3387 50.4636 32.1016 48.2891 32.1016H7.38281C5.20824 32.1016 3.44531 30.3387 3.44531 28.1641Z" fill="url(#paint17_linear_7747_10101)"/>
<path d="M3.44531 28.1641V48.3438C3.44531 50.5184 5.20824 52.2812 7.38281 52.2812H48.2891C50.4636 52.2812 52.2266 50.5184 52.2266 48.3438V28.1641C52.2266 30.3387 50.4636 32.1016 48.2891 32.1016H7.38281C5.20824 32.1016 3.44531 30.3387 3.44531 28.1641Z" fill="url(#paint18_linear_7747_10101)"/>
<path d="M3.44531 28.1641V48.3438C3.44531 50.5184 5.20824 52.2812 7.38281 52.2812H48.2891C50.4636 52.2812 52.2266 50.5184 52.2266 48.3438V28.1641C52.2266 30.3387 50.4636 32.1016 48.2891 32.1016H7.38281C5.20824 32.1016 3.44531 30.3387 3.44531 28.1641Z" fill="url(#paint19_radial_7747_10101)"/>
<path d="M3.44531 28.1641V48.3438C3.44531 50.5184 5.20824 52.2812 7.38281 52.2812H48.2891C50.4636 52.2812 52.2266 50.5184 52.2266 48.3438V28.1641C52.2266 30.3387 50.4636 32.1016 48.2891 32.1016H7.38281C5.20824 32.1016 3.44531 30.3387 3.44531 28.1641Z" fill="url(#paint20_radial_7747_10101)"/>
<path d="M3.44531 28.1641V48.3438C3.44531 50.5184 5.20824 52.2812 7.38281 52.2812H48.2891C50.4636 52.2812 52.2266 50.5184 52.2266 48.3438V28.1641C52.2266 30.3387 50.4636 32.1016 48.2891 32.1016H7.38281C5.20824 32.1016 3.44531 30.3387 3.44531 28.1641Z" fill="url(#paint21_radial_7747_10101)"/>
<path d="M3.44531 28.1641V48.3438C3.44531 50.5184 5.20824 52.2812 7.38281 52.2812H48.2891C50.4636 52.2812 52.2266 50.5184 52.2266 48.3438V28.1641C52.2266 30.3387 50.4636 32.1016 48.2891 32.1016H7.38281C5.20824 32.1016 3.44531 30.3387 3.44531 28.1641Z" fill="url(#paint22_radial_7747_10101)"/>
<path d="M3.44531 28.1641V48.3438C3.44531 50.5184 5.20824 52.2812 7.38281 52.2812H48.2891C50.4636 52.2812 52.2266 50.5184 52.2266 48.3438V28.1641C52.2266 30.3387 50.4636 32.1016 48.2891 32.1016H7.38281C5.20824 32.1016 3.44531 30.3387 3.44531 28.1641Z" fill="url(#paint23_radial_7747_10101)"/>
<path d="M3.44531 28.1641V48.3438C3.44531 50.5184 5.20824 52.2812 7.38281 52.2812H48.2891C50.4636 52.2812 52.2266 50.5184 52.2266 48.3438V28.1641C52.2266 30.3387 50.4636 32.1016 48.2891 32.1016H7.38281C5.20824 32.1016 3.44531 30.3387 3.44531 28.1641Z" fill="url(#paint24_radial_7747_10101)"/>
<path d="M3.44531 28.1641V48.3438C3.44531 50.5184 5.20824 52.2812 7.38281 52.2812H48.2891C50.4636 52.2812 52.2266 50.5184 52.2266 48.3438V28.1641C52.2266 30.3387 50.4636 32.1016 48.2891 32.1016H7.38281C5.20824 32.1016 3.44531 30.3387 3.44531 28.1641Z" fill="url(#paint25_radial_7747_10101)"/>
<path fill-rule="evenodd" clip-rule="evenodd" d="M23.3133 36.7773C21.9602 36.7773 20.8633 37.8742 20.8633 39.2273V44.718C20.8633 46.0711 21.9602 47.168 23.3133 47.168H32.3722C33.7253 47.168 34.8223 46.0711 34.8223 44.718V39.2273C34.8223 37.8742 33.7253 36.7773 32.3722 36.7773H23.3133ZM23.2723 38.459C22.8857 38.459 22.5723 38.7724 22.5723 39.159V44.7863C22.5723 45.1729 22.8857 45.4863 23.2723 45.4863H32.4132C32.7999 45.4863 33.1133 45.1729 33.1133 44.7863V39.159C33.1133 38.7724 32.7999 38.459 32.4132 38.459H23.2723Z" fill="url(#paint26_linear_7747_10101)"/>
<path fill-rule="evenodd" clip-rule="evenodd" d="M23.3133 36.7773C21.9602 36.7773 20.8633 37.8742 20.8633 39.2273V44.718C20.8633 46.0711 21.9602 47.168 23.3133 47.168H32.3722C33.7253 47.168 34.8223 46.0711 34.8223 44.718V39.2273C34.8223 37.8742 33.7253 36.7773 32.3722 36.7773H23.3133ZM23.2723 38.459C22.8857 38.459 22.5723 38.7724 22.5723 39.159V44.7863C22.5723 45.1729 22.8857 45.4863 23.2723 45.4863H32.4132C32.7999 45.4863 33.1133 45.1729 33.1133 44.7863V39.159C33.1133 38.7724 32.7999 38.459 32.4132 38.459H23.2723Z" fill="url(#paint27_linear_7747_10101)"/>
<path fill-rule="evenodd" clip-rule="evenodd" d="M23.3133 36.7773C21.9602 36.7773 20.8633 37.8742 20.8633 39.2273V44.718C20.8633 46.0711 21.9602 47.168 23.3133 47.168H32.3722C33.7253 47.168 34.8223 46.0711 34.8223 44.718V39.2273C34.8223 37.8742 33.7253 36.7773 32.3722 36.7773H23.3133ZM23.2723 38.459C22.8857 38.459 22.5723 38.7724 22.5723 39.159V44.7863C22.5723 45.1729 22.8857 45.4863 23.2723 45.4863H32.4132C32.7999 45.4863 33.1133 45.1729 33.1133 44.7863V39.159C33.1133 38.7724 32.7999 38.459 32.4132 38.459H23.2723Z" fill="url(#paint28_linear_7747_10101)"/>
<path fill-rule="evenodd" clip-rule="evenodd" d="M23.3133 36.7773C21.9602 36.7773 20.8633 37.8742 20.8633 39.2273V44.718C20.8633 46.0711 21.9602 47.168 23.3133 47.168H32.3722C33.7253 47.168 34.8223 46.0711 34.8223 44.718V39.2273C34.8223 37.8742 33.7253 36.7773 32.3722 36.7773H23.3133ZM23.2723 38.459C22.8857 38.459 22.5723 38.7724 22.5723 39.159V44.7863C22.5723 45.1729 22.8857 45.4863 23.2723 45.4863H32.4132C32.7999 45.4863 33.1133 45.1729 33.1133 44.7863V39.159C33.1133 38.7724 32.7999 38.459 32.4132 38.459H23.2723Z" fill="url(#paint29_linear_7747_10101)"/>
<path fill-rule="evenodd" clip-rule="evenodd" d="M23.3133 36.7773C21.9602 36.7773 20.8633 37.8742 20.8633 39.2273V44.718C20.8633 46.0711 21.9602 47.168 23.3133 47.168H32.3722C33.7253 47.168 34.8223 46.0711 34.8223 44.718V39.2273C34.8223 37.8742 33.7253 36.7773 32.3722 36.7773H23.3133ZM23.2723 38.459C22.8857 38.459 22.5723 38.7724 22.5723 39.159V44.7863C22.5723 45.1729 22.8857 45.4863 23.2723 45.4863H32.4132C32.7999 45.4863 33.1133 45.1729 33.1133 44.7863V39.159C33.1133 38.7724 32.7999 38.459 32.4132 38.459H23.2723Z" fill="url(#paint30_radial_7747_10101)"/>
<path fill-rule="evenodd" clip-rule="evenodd" d="M23.3133 36.7773C21.9602 36.7773 20.8633 37.8742 20.8633 39.2273V44.718C20.8633 46.0711 21.9602 47.168 23.3133 47.168H32.3722C33.7253 47.168 34.8223 46.0711 34.8223 44.718V39.2273C34.8223 37.8742 33.7253 36.7773 32.3722 36.7773H23.3133ZM23.2723 38.459C22.8857 38.459 22.5723 38.7724 22.5723 39.159V44.7863C22.5723 45.1729 22.8857 45.4863 23.2723 45.4863H32.4132C32.7999 45.4863 33.1133 45.1729 33.1133 44.7863V39.159C33.1133 38.7724 32.7999 38.459 32.4132 38.459H23.2723Z" fill="url(#paint31_radial_7747_10101)"/>
<path fill-rule="evenodd" clip-rule="evenodd" d="M23.3133 36.7773C21.9602 36.7773 20.8633 37.8742 20.8633 39.2273V44.718C20.8633 46.0711 21.9602 47.168 23.3133 47.168H32.3722C33.7253 47.168 34.8223 46.0711 34.8223 44.718V39.2273C34.8223 37.8742 33.7253 36.7773 32.3722 36.7773H23.3133ZM23.2723 38.459C22.8857 38.459 22.5723 38.7724 22.5723 39.159V44.7863C22.5723 45.1729 22.8857 45.4863 23.2723 45.4863H32.4132C32.7999 45.4863 33.1133 45.1729 33.1133 44.7863V39.159C33.1133 38.7724 32.7999 38.459 32.4132 38.459H23.2723Z" fill="url(#paint32_radial_7747_10101)"/>
<path fill-rule="evenodd" clip-rule="evenodd" d="M23.3133 36.7773C21.9602 36.7773 20.8633 37.8742 20.8633 39.2273V44.718C20.8633 46.0711 21.9602 47.168 23.3133 47.168H32.3722C33.7253 47.168 34.8223 46.0711 34.8223 44.718V39.2273C34.8223 37.8742 33.7253 36.7773 32.3722 36.7773H23.3133ZM23.2723 38.459C22.8857 38.459 22.5723 38.7724 22.5723 39.159V44.7863C22.5723 45.1729 22.8857 45.4863 23.2723 45.4863H32.4132C32.7999 45.4863 33.1133 45.1729 33.1133 44.7863V39.159C33.1133 38.7724 32.7999 38.459 32.4132 38.459H23.2723Z" fill="url(#paint33_linear_7747_10101)"/>
<path fill-rule="evenodd" clip-rule="evenodd" d="M23.3133 36.7773C21.9602 36.7773 20.8633 37.8742 20.8633 39.2273V44.718C20.8633 46.0711 21.9602 47.168 23.3133 47.168H32.3722C33.7253 47.168 34.8223 46.0711 34.8223 44.718V39.2273C34.8223 37.8742 33.7253 36.7773 32.3722 36.7773H23.3133ZM23.2723 38.459C22.8857 38.459 22.5723 38.7724 22.5723 39.159V44.7863C22.5723 45.1729 22.8857 45.4863 23.2723 45.4863H32.4132C32.7999 45.4863 33.1133 45.1729 33.1133 44.7863V39.159C33.1133 38.7724 32.7999 38.459 32.4132 38.459H23.2723Z" fill="url(#paint34_linear_7747_10101)"/>
<path fill-rule="evenodd" clip-rule="evenodd" d="M23.3133 36.7773C21.9602 36.7773 20.8633 37.8742 20.8633 39.2273V44.718C20.8633 46.0711 21.9602 47.168 23.3133 47.168H32.3722C33.7253 47.168 34.8223 46.0711 34.8223 44.718V39.2273C34.8223 37.8742 33.7253 36.7773 32.3722 36.7773H23.3133ZM23.2723 38.459C22.8857 38.459 22.5723 38.7724 22.5723 39.159V44.7863C22.5723 45.1729 22.8857 45.4863 23.2723 45.4863H32.4132C32.7999 45.4863 33.1133 45.1729 33.1133 44.7863V39.159C33.1133 38.7724 32.7999 38.459 32.4132 38.459H23.2723Z" fill="url(#paint35_linear_7747_10101)"/>
<path fill-rule="evenodd" clip-rule="evenodd" d="M23.3133 36.7773C21.9602 36.7773 20.8633 37.8742 20.8633 39.2273V44.718C20.8633 46.0711 21.9602 47.168 23.3133 47.168H32.3722C33.7253 47.168 34.8223 46.0711 34.8223 44.718V39.2273C34.8223 37.8742 33.7253 36.7773 32.3722 36.7773H23.3133ZM23.2723 38.459C22.8857 38.459 22.5723 38.7724 22.5723 39.159V44.7863C22.5723 45.1729 22.8857 45.4863 23.2723 45.4863H32.4132C32.7999 45.4863 33.1133 45.1729 33.1133 44.7863V39.159C33.1133 38.7724 32.7999 38.459 32.4132 38.459H23.2723Z" fill="url(#paint36_radial_7747_10101)"/>
<path fill-rule="evenodd" clip-rule="evenodd" d="M23.3133 36.7773C21.9602 36.7773 20.8633 37.8742 20.8633 39.2273V44.718C20.8633 46.0711 21.9602 47.168 23.3133 47.168H32.3722C33.7253 47.168 34.8223 46.0711 34.8223 44.718V39.2273C34.8223 37.8742 33.7253 36.7773 32.3722 36.7773H23.3133ZM23.2723 38.459C22.8857 38.459 22.5723 38.7724 22.5723 39.159V44.7863C22.5723 45.1729 22.8857 45.4863 23.2723 45.4863H32.4132C32.7999 45.4863 33.1133 45.1729 33.1133 44.7863V39.159C33.1133 38.7724 32.7999 38.459 32.4132 38.459H23.2723Z" fill="url(#paint37_radial_7747_10101)"/>
<path fill-rule="evenodd" clip-rule="evenodd" d="M23.3133 36.7773C21.9602 36.7773 20.8633 37.8742 20.8633 39.2273V44.718C20.8633 46.0711 21.9602 47.168 23.3133 47.168H32.3722C33.7253 47.168 34.8223 46.0711 34.8223 44.718V39.2273C34.8223 37.8742 33.7253 36.7773 32.3722 36.7773H23.3133ZM23.2723 38.459C22.8857 38.459 22.5723 38.7724 22.5723 39.159V44.7863C22.5723 45.1729 22.8857 45.4863 23.2723 45.4863H32.4132C32.7999 45.4863 33.1133 45.1729 33.1133 44.7863V39.159C33.1133 38.7724 32.7999 38.459 32.4132 38.459H23.2723Z" fill="url(#paint38_radial_7747_10101)"/>
<path d="M3.44531 12.7969C3.44531 10.6223 5.20824 8.85938 7.38281 8.85938H13.125C11.4278 8.85938 9.95633 9.82576 9.23087 11.2383H7.41016C6.68533 11.2383 6.09766 11.8259 6.09766 12.5508V28.4102C6.09766 29.135 6.68533 29.7227 7.41016 29.7227H48.5898C49.3147 29.7227 49.9023 29.135 49.9023 28.4102V12.5508C49.9023 11.8259 49.3147 11.2383 48.5898 11.2383H46.7691C46.0437 9.82576 44.5721 8.85938 42.875 8.85938H48.2891C50.4636 8.85938 52.2266 10.6223 52.2266 12.7969V28.1641C52.2266 30.3387 50.4636 32.1016 48.2891 32.1016H7.38281C5.20824 32.1016 3.44531 30.3387 3.44531 28.1641V12.7969Z" fill="url(#paint39_linear_7747_10101)"/>
<path d="M3.44531 12.7969C3.44531 10.6223 5.20824 8.85938 7.38281 8.85938H13.125C11.4278 8.85938 9.95633 9.82576 9.23087 11.2383H7.41016C6.68533 11.2383 6.09766 11.8259 6.09766 12.5508V28.4102C6.09766 29.135 6.68533 29.7227 7.41016 29.7227H48.5898C49.3147 29.7227 49.9023 29.135 49.9023 28.4102V12.5508C49.9023 11.8259 49.3147 11.2383 48.5898 11.2383H46.7691C46.0437 9.82576 44.5721 8.85938 42.875 8.85938H48.2891C50.4636 8.85938 52.2266 10.6223 52.2266 12.7969V28.1641C52.2266 30.3387 50.4636 32.1016 48.2891 32.1016H7.38281C5.20824 32.1016 3.44531 30.3387 3.44531 28.1641V12.7969Z" fill="url(#paint40_radial_7747_10101)"/>
<path d="M3.44531 12.7969C3.44531 10.6223 5.20824 8.85938 7.38281 8.85938H13.125C11.4278 8.85938 9.95633 9.82576 9.23087 11.2383H7.41016C6.68533 11.2383 6.09766 11.8259 6.09766 12.5508V28.4102C6.09766 29.135 6.68533 29.7227 7.41016 29.7227H48.5898C49.3147 29.7227 49.9023 29.135 49.9023 28.4102V12.5508C49.9023 11.8259 49.3147 11.2383 48.5898 11.2383H46.7691C46.0437 9.82576 44.5721 8.85938 42.875 8.85938H48.2891C50.4636 8.85938 52.2266 10.6223 52.2266 12.7969V28.1641C52.2266 30.3387 50.4636 32.1016 48.2891 32.1016H7.38281C5.20824 32.1016 3.44531 30.3387 3.44531 28.1641V12.7969Z" fill="url(#paint41_linear_7747_10101)"/>
<path d="M3.44531 12.7969C3.44531 10.6223 5.20824 8.85938 7.38281 8.85938H13.125C11.4278 8.85938 9.95633 9.82576 9.23087 11.2383H7.41016C6.68533 11.2383 6.09766 11.8259 6.09766 12.5508V28.4102C6.09766 29.135 6.68533 29.7227 7.41016 29.7227H48.5898C49.3147 29.7227 49.9023 29.135 49.9023 28.4102V12.5508C49.9023 11.8259 49.3147 11.2383 48.5898 11.2383H46.7691C46.0437 9.82576 44.5721 8.85938 42.875 8.85938H48.2891C50.4636 8.85938 52.2266 10.6223 52.2266 12.7969V28.1641C52.2266 30.3387 50.4636 32.1016 48.2891 32.1016H7.38281C5.20824 32.1016 3.44531 30.3387 3.44531 28.1641V12.7969Z" fill="url(#paint42_linear_7747_10101)"/>
<path d="M3.44531 12.7969C3.44531 10.6223 5.20824 8.85938 7.38281 8.85938H13.125C11.4278 8.85938 9.95633 9.82576 9.23087 11.2383H7.41016C6.68533 11.2383 6.09766 11.8259 6.09766 12.5508V28.4102C6.09766 29.135 6.68533 29.7227 7.41016 29.7227H48.5898C49.3147 29.7227 49.9023 29.135 49.9023 28.4102V12.5508C49.9023 11.8259 49.3147 11.2383 48.5898 11.2383H46.7691C46.0437 9.82576 44.5721 8.85938 42.875 8.85938H48.2891C50.4636 8.85938 52.2266 10.6223 52.2266 12.7969V28.1641C52.2266 30.3387 50.4636 32.1016 48.2891 32.1016H7.38281C5.20824 32.1016 3.44531 30.3387 3.44531 28.1641V12.7969Z" fill="url(#paint43_linear_7747_10101)"/>
<path d="M3.44531 12.7969C3.44531 10.6223 5.20824 8.85938 7.38281 8.85938H13.125C11.4278 8.85938 9.95633 9.82576 9.23087 11.2383H7.41016C6.68533 11.2383 6.09766 11.8259 6.09766 12.5508V28.4102C6.09766 29.135 6.68533 29.7227 7.41016 29.7227H48.5898C49.3147 29.7227 49.9023 29.135 49.9023 28.4102V12.5508C49.9023 11.8259 49.3147 11.2383 48.5898 11.2383H46.7691C46.0437 9.82576 44.5721 8.85938 42.875 8.85938H48.2891C50.4636 8.85938 52.2266 10.6223 52.2266 12.7969V28.1641C52.2266 30.3387 50.4636 32.1016 48.2891 32.1016H7.38281C5.20824 32.1016 3.44531 30.3387 3.44531 28.1641V12.7969Z" fill="url(#paint44_linear_7747_10101)"/>
<path d="M3.44531 12.7969C3.44531 10.6223 5.20824 8.85938 7.38281 8.85938H13.125C11.4278 8.85938 9.95633 9.82576 9.23087 11.2383H7.41016C6.68533 11.2383 6.09766 11.8259 6.09766 12.5508V28.4102C6.09766 29.135 6.68533 29.7227 7.41016 29.7227H48.5898C49.3147 29.7227 49.9023 29.135 49.9023 28.4102V12.5508C49.9023 11.8259 49.3147 11.2383 48.5898 11.2383H46.7691C46.0437 9.82576 44.5721 8.85938 42.875 8.85938H48.2891C50.4636 8.85938 52.2266 10.6223 52.2266 12.7969V28.1641C52.2266 30.3387 50.4636 32.1016 48.2891 32.1016H7.38281C5.20824 32.1016 3.44531 30.3387 3.44531 28.1641V12.7969Z" fill="url(#paint45_radial_7747_10101)"/>
<path d="M3.44531 12.7969C3.44531 10.6223 5.20824 8.85938 7.38281 8.85938H13.125C11.4278 8.85938 9.95633 9.82576 9.23087 11.2383H7.41016C6.68533 11.2383 6.09766 11.8259 6.09766 12.5508V28.4102C6.09766 29.135 6.68533 29.7227 7.41016 29.7227H48.5898C49.3147 29.7227 49.9023 29.135 49.9023 28.4102V12.5508C49.9023 11.8259 49.3147 11.2383 48.5898 11.2383H46.7691C46.0437 9.82576 44.5721 8.85938 42.875 8.85938H48.2891C50.4636 8.85938 52.2266 10.6223 52.2266 12.7969V28.1641C52.2266 30.3387 50.4636 32.1016 48.2891 32.1016H7.38281C5.20824 32.1016 3.44531 30.3387 3.44531 28.1641V12.7969Z" fill="url(#paint46_radial_7747_10101)"/>
<path d="M3.44531 12.7969C3.44531 10.6223 5.20824 8.85938 7.38281 8.85938H13.125C11.4278 8.85938 9.95633 9.82576 9.23087 11.2383H7.41016C6.68533 11.2383 6.09766 11.8259 6.09766 12.5508V28.4102C6.09766 29.135 6.68533 29.7227 7.41016 29.7227H48.5898C49.3147 29.7227 49.9023 29.135 49.9023 28.4102V12.5508C49.9023 11.8259 49.3147 11.2383 48.5898 11.2383H46.7691C46.0437 9.82576 44.5721 8.85938 42.875 8.85938H48.2891C50.4636 8.85938 52.2266 10.6223 52.2266 12.7969V28.1641C52.2266 30.3387 50.4636 32.1016 48.2891 32.1016H7.38281C5.20824 32.1016 3.44531 30.3387 3.44531 28.1641V12.7969Z" fill="url(#paint47_radial_7747_10101)"/>
<path d="M3.44531 12.7969C3.44531 10.6223 5.20824 8.85938 7.38281 8.85938H13.125C11.4278 8.85938 9.95633 9.82576 9.23087 11.2383H7.41016C6.68533 11.2383 6.09766 11.8259 6.09766 12.5508V28.4102C6.09766 29.135 6.68533 29.7227 7.41016 29.7227H48.5898C49.3147 29.7227 49.9023 29.135 49.9023 28.4102V12.5508C49.9023 11.8259 49.3147 11.2383 48.5898 11.2383H46.7691C46.0437 9.82576 44.5721 8.85938 42.875 8.85938H48.2891C50.4636 8.85938 52.2266 10.6223 52.2266 12.7969V28.1641C52.2266 30.3387 50.4636 32.1016 48.2891 32.1016H7.38281C5.20824 32.1016 3.44531 30.3387 3.44531 28.1641V12.7969Z" fill="url(#paint48_radial_7747_10101)"/>
<path d="M3.44531 12.7969C3.44531 10.6223 5.20824 8.85938 7.38281 8.85938H13.125C11.4278 8.85938 9.95633 9.82576 9.23087 11.2383H7.41016C6.68533 11.2383 6.09766 11.8259 6.09766 12.5508V28.4102C6.09766 29.135 6.68533 29.7227 7.41016 29.7227H48.5898C49.3147 29.7227 49.9023 29.135 49.9023 28.4102V12.5508C49.9023 11.8259 49.3147 11.2383 48.5898 11.2383H46.7691C46.0437 9.82576 44.5721 8.85938 42.875 8.85938H48.2891C50.4636 8.85938 52.2266 10.6223 52.2266 12.7969V28.1641C52.2266 30.3387 50.4636 32.1016 48.2891 32.1016H7.38281C5.20824 32.1016 3.44531 30.3387 3.44531 28.1641V12.7969Z" fill="url(#paint49_radial_7747_10101)"/>
<path d="M3.44531 12.7969C3.44531 10.6223 5.20824 8.85938 7.38281 8.85938H13.125C11.4278 8.85938 9.95633 9.82576 9.23087 11.2383H7.41016C6.68533 11.2383 6.09766 11.8259 6.09766 12.5508V28.4102C6.09766 29.135 6.68533 29.7227 7.41016 29.7227H48.5898C49.3147 29.7227 49.9023 29.135 49.9023 28.4102V12.5508C49.9023 11.8259 49.3147 11.2383 48.5898 11.2383H46.7691C46.0437 9.82576 44.5721 8.85938 42.875 8.85938H48.2891C50.4636 8.85938 52.2266 10.6223 52.2266 12.7969V28.1641C52.2266 30.3387 50.4636 32.1016 48.2891 32.1016H7.38281C5.20824 32.1016 3.44531 30.3387 3.44531 28.1641V12.7969Z" fill="url(#paint50_radial_7747_10101)"/>
<path d="M3.44531 12.7969C3.44531 10.6223 5.20824 8.85938 7.38281 8.85938H13.125C11.4278 8.85938 9.95633 9.82576 9.23087 11.2383H7.41016C6.68533 11.2383 6.09766 11.8259 6.09766 12.5508V28.4102C6.09766 29.135 6.68533 29.7227 7.41016 29.7227H48.5898C49.3147 29.7227 49.9023 29.135 49.9023 28.4102V12.5508C49.9023 11.8259 49.3147 11.2383 48.5898 11.2383H46.7691C46.0437 9.82576 44.5721 8.85938 42.875 8.85938H48.2891C50.4636 8.85938 52.2266 10.6223 52.2266 12.7969V28.1641C52.2266 30.3387 50.4636 32.1016 48.2891 32.1016H7.38281C5.20824 32.1016 3.44531 30.3387 3.44531 28.1641V12.7969Z" fill="url(#paint51_radial_7747_10101)"/>
<path d="M3.44531 12.7969C3.44531 10.6223 5.20824 8.85938 7.38281 8.85938H13.125C11.4278 8.85938 9.95633 9.82576 9.23087 11.2383H7.41016C6.68533 11.2383 6.09766 11.8259 6.09766 12.5508V28.4102C6.09766 29.135 6.68533 29.7227 7.41016 29.7227H48.5898C49.3147 29.7227 49.9023 29.135 49.9023 28.4102V12.5508C49.9023 11.8259 49.3147 11.2383 48.5898 11.2383H46.7691C46.0437 9.82576 44.5721 8.85938 42.875 8.85938H48.2891C50.4636 8.85938 52.2266 10.6223 52.2266 12.7969V28.1641C52.2266 30.3387 50.4636 32.1016 48.2891 32.1016H7.38281C5.20824 32.1016 3.44531 30.3387 3.44531 28.1641V12.7969Z" fill="url(#paint52_radial_7747_10101)"/>
<path d="M3.44531 12.7969C3.44531 10.6223 5.20824 8.85938 7.38281 8.85938H13.125C11.4278 8.85938 9.95633 9.82576 9.23087 11.2383H7.41016C6.68533 11.2383 6.09766 11.8259 6.09766 12.5508V28.4102C6.09766 29.135 6.68533 29.7227 7.41016 29.7227H48.5898C49.3147 29.7227 49.9023 29.135 49.9023 28.4102V12.5508C49.9023 11.8259 49.3147 11.2383 48.5898 11.2383H46.7691C46.0437 9.82576 44.5721 8.85938 42.875 8.85938H48.2891C50.4636 8.85938 52.2266 10.6223 52.2266 12.7969V28.1641C52.2266 30.3387 50.4636 32.1016 48.2891 32.1016H7.38281C5.20824 32.1016 3.44531 30.3387 3.44531 28.1641V12.7969Z" fill="url(#paint53_radial_7747_10101)"/>
<path d="M13.9102 20.8906C13.9102 19.9241 14.6937 19.1406 15.6602 19.1406H22.7012C23.6677 19.1406 24.4512 19.9241 24.4512 20.8906V22.6406H13.9102V20.8906Z" fill="url(#paint54_linear_7747_10101)"/>
<path d="M13.9102 20.8906C13.9102 19.9241 14.6937 19.1406 15.6602 19.1406H22.7012C23.6677 19.1406 24.4512 19.9241 24.4512 20.8906V22.6406H13.9102V20.8906Z" fill="url(#paint55_linear_7747_10101)"/>
<path d="M13.9102 20.8906C13.9102 19.9241 14.6937 19.1406 15.6602 19.1406H22.7012C23.6677 19.1406 24.4512 19.9241 24.4512 20.8906V22.6406H13.9102V20.8906Z" fill="url(#paint56_linear_7747_10101)"/>
<path d="M13.9102 20.8906C13.9102 19.9241 14.6937 19.1406 15.6602 19.1406H22.7012C23.6677 19.1406 24.4512 19.9241 24.4512 20.8906V22.6406H13.9102V20.8906Z" fill="url(#paint57_linear_7747_10101)"/>
<path d="M13.9102 20.8906C13.9102 19.9241 14.6937 19.1406 15.6602 19.1406H22.7012C23.6677 19.1406 24.4512 19.9241 24.4512 20.8906V22.6406H13.9102V20.8906Z" fill="url(#paint58_linear_7747_10101)"/>
<path d="M13.9102 20.8906C13.9102 19.9241 14.6937 19.1406 15.6602 19.1406H22.7012C23.6677 19.1406 24.4512 19.9241 24.4512 20.8906V22.6406H13.9102V20.8906Z" fill="url(#paint59_linear_7747_10101)"/>
<path d="M13.9102 20.8906C13.9102 19.9241 14.6937 19.1406 15.6602 19.1406H22.7012C23.6677 19.1406 24.4512 19.9241 24.4512 20.8906V22.6406H13.9102V20.8906Z" fill="url(#paint60_linear_7747_10101)"/>
<path d="M22.5664 14.1094C22.5664 13.1429 23.3499 12.3594 24.3164 12.3594H31.3574C32.3239 12.3594 33.1074 13.1429 33.1074 14.1094V15.8594H22.5664V14.1094Z" fill="url(#paint61_linear_7747_10101)"/>
<path d="M22.5664 14.1094C22.5664 13.1429 23.3499 12.3594 24.3164 12.3594H31.3574C32.3239 12.3594 33.1074 13.1429 33.1074 14.1094V15.8594H22.5664V14.1094Z" fill="url(#paint62_linear_7747_10101)"/>
<path d="M22.5664 14.1094C22.5664 13.1429 23.3499 12.3594 24.3164 12.3594H31.3574C32.3239 12.3594 33.1074 13.1429 33.1074 14.1094V15.8594H22.5664V14.1094Z" fill="url(#paint63_linear_7747_10101)"/>
<path d="M22.5664 14.1094C22.5664 13.1429 23.3499 12.3594 24.3164 12.3594H31.3574C32.3239 12.3594 33.1074 13.1429 33.1074 14.1094V15.8594H22.5664V14.1094Z" fill="url(#paint64_linear_7747_10101)"/>
<path d="M22.5664 14.1094C22.5664 13.1429 23.3499 12.3594 24.3164 12.3594H31.3574C32.3239 12.3594 33.1074 13.1429 33.1074 14.1094V15.8594H22.5664V14.1094Z" fill="url(#paint65_linear_7747_10101)"/>
<path d="M22.5664 14.1094C22.5664 13.1429 23.3499 12.3594 24.3164 12.3594H31.3574C32.3239 12.3594 33.1074 13.1429 33.1074 14.1094V15.8594H22.5664V14.1094Z" fill="url(#paint66_linear_7747_10101)"/>
<path d="M31.2461 7.10938C31.2461 6.14288 32.0296 5.35938 32.9961 5.35938H40.0371C41.0036 5.35938 41.7871 6.14288 41.7871 7.10938V8.85938H31.2461V7.10938Z" fill="url(#paint67_linear_7747_10101)"/>
<path d="M31.2461 7.10938C31.2461 6.14288 32.0296 5.35938 32.9961 5.35938H40.0371C41.0036 5.35938 41.7871 6.14288 41.7871 7.10938V8.85938H31.2461V7.10938Z" fill="url(#paint68_linear_7747_10101)"/>
<path d="M31.2461 7.10938C31.2461 6.14288 32.0296 5.35938 32.9961 5.35938H40.0371C41.0036 5.35938 41.7871 6.14288 41.7871 7.10938V8.85938H31.2461V7.10938Z" fill="url(#paint69_linear_7747_10101)"/>
<path d="M31.2461 7.10938C31.2461 6.14288 32.0296 5.35938 32.9961 5.35938H40.0371C41.0036 5.35938 41.7871 6.14288 41.7871 7.10938V8.85938H31.2461V7.10938Z" fill="url(#paint70_linear_7747_10101)"/>
<path d="M31.2461 7.10938C31.2461 6.14288 32.0296 5.35938 32.9961 5.35938H40.0371C41.0036 5.35938 41.7871 6.14288 41.7871 7.10938V8.85938H31.2461V7.10938Z" fill="url(#paint71_linear_7747_10101)"/>
<path d="M31.2461 7.10938C31.2461 6.14288 32.0296 5.35938 32.9961 5.35938H40.0371C41.0036 5.35938 41.7871 6.14288 41.7871 7.10938V8.85938H31.2461V7.10938Z" fill="url(#paint72_linear_7747_10101)"/>
<path d="M31.2461 7.10938C31.2461 6.14288 32.0296 5.35938 32.9961 5.35938H40.0371C41.0036 5.35938 41.7871 6.14288 41.7871 7.10938V8.85938H31.2461V7.10938Z" fill="url(#paint73_linear_7747_10101)"/>
<rect x="22.5703" y="38.459" width="10.541" height="7.02734" rx="0.4" fill="url(#paint74_linear_7747_10101)"/>
<defs>
<linearGradient id="paint0_linear_7747_10101" x1="28" y1="11.2383" x2="28" y2="29.7227" gradientUnits="userSpaceOnUse">
<stop stop-color="#4B3D53"/>
<stop offset="1" stop-color="#321143"/>
</linearGradient>
<linearGradient id="paint1_linear_7747_10101" x1="28" y1="8.85937" x2="28" y2="15.0837" gradientUnits="userSpaceOnUse">
<stop stop-color="#FFD650"/>
<stop offset="1" stop-color="#FFCD4A"/>
</linearGradient>
<linearGradient id="paint2_linear_7747_10101" x1="28" y1="15.2052" x2="28" y2="11.6831" gradientUnits="userSpaceOnUse">
<stop stop-color="#FFBA48"/>
<stop offset="1" stop-color="#FFBA48" stop-opacity="0"/>
</linearGradient>
<radialGradient id="paint3_radial_7747_10101" cx="0" cy="0" r="1" gradientUnits="userSpaceOnUse" gradientTransform="translate(47.5847 12.9676) rotate(180) scale(2.17248 10.2304)">
<stop stop-color="#FFE857"/>
<stop offset="1" stop-color="#FFE857" stop-opacity="0"/>
</radialGradient>
<radialGradient id="paint4_radial_7747_10101" cx="0" cy="0" r="1" gradientUnits="userSpaceOnUse" gradientTransform="translate(47.25 9.48897) rotate(134.482) scale(3.14196 5.31452)">
<stop stop-color="#FFE857"/>
<stop offset="1" stop-color="#FFE857" stop-opacity="0"/>
</radialGradient>
<linearGradient id="paint5_linear_7747_10101" x1="28" y1="8.85938" x2="28" y2="11.018" gradientUnits="userSpaceOnUse">
<stop stop-color="#F9CA4C"/>
<stop offset="1" stop-color="#F9CA4C" stop-opacity="0"/>
</linearGradient>
<linearGradient id="paint6_linear_7747_10101" x1="28" y1="15.8594" x2="28" y2="39.3298" gradientUnits="userSpaceOnUse">
<stop stop-color="#FFDA53"/>
<stop offset="1" stop-color="#FFBA59"/>
</linearGradient>
<linearGradient id="paint7_linear_7747_10101" x1="28" y1="23.4197" x2="28" y2="18.6224" gradientUnits="userSpaceOnUse">
<stop stop-color="#FFBA48"/>
<stop offset="1" stop-color="#FFBA48" stop-opacity="0"/>
</linearGradient>
<radialGradient id="paint8_radial_7747_10101" cx="0" cy="0" r="1" gradientUnits="userSpaceOnUse" gradientTransform="translate(47.25 16.489) rotate(134.482) scale(3.14196 5.31452)">
<stop stop-color="#FFE857"/>
<stop offset="1" stop-color="#FFE857" stop-opacity="0"/>
</radialGradient>
<linearGradient id="paint9_linear_7747_10101" x1="28" y1="15.8594" x2="28" y2="18.2171" gradientUnits="userSpaceOnUse">
<stop offset="0.14252" stop-color="#FFE34A"/>
<stop offset="0.757556" stop-color="#FFE34A" stop-opacity="0.141064"/>
<stop offset="1" stop-color="#FFE34A" stop-opacity="0"/>
</linearGradient>
<radialGradient id="paint10_radial_7747_10101" cx="0" cy="0" r="1" gradientUnits="userSpaceOnUse" gradientTransform="translate(47.5847 19.9676) rotate(180) scale(2.17248 10.2304)">
<stop stop-color="#FFE857"/>
<stop offset="1" stop-color="#FFE857" stop-opacity="0"/>
</radialGradient>
<linearGradient id="paint11_linear_7747_10101" x1="28" y1="22.6406" x2="28" y2="46.1111" gradientUnits="userSpaceOnUse">
<stop stop-color="#FFDA53"/>
<stop offset="1" stop-color="#FFBA59"/>
</linearGradient>
<radialGradient id="paint12_radial_7747_10101" cx="0" cy="0" r="1" gradientUnits="userSpaceOnUse" gradientTransform="translate(47.25 23.2702) rotate(134.482) scale(3.14196 5.31452)">
<stop stop-color="#FFE857"/>
<stop offset="1" stop-color="#FFE857" stop-opacity="0"/>
</radialGradient>
<linearGradient id="paint13_linear_7747_10101" x1="28" y1="22.6406" x2="28" y2="25.1398" gradientUnits="userSpaceOnUse">
<stop stop-color="#FFF151"/>
<stop offset="0.806099" stop-color="#FFF151" stop-opacity="0.117988"/>
<stop offset="1" stop-color="#FFF151" stop-opacity="0"/>
</linearGradient>
<linearGradient id="paint14_linear_7747_10101" x1="7.2719" y1="27.7573" x2="10.0799" y2="27.7573" gradientUnits="userSpaceOnUse">
<stop stop-color="#F49968"/>
<stop offset="1" stop-color="#F49968" stop-opacity="0"/>
</linearGradient>
<radialGradient id="paint15_radial_7747_10101" cx="0" cy="0" r="1" gradientUnits="userSpaceOnUse" gradientTransform="translate(47.5847 26.7488) rotate(180) scale(2.17248 10.2304)">
<stop stop-color="#FFE857"/>
<stop offset="1" stop-color="#FFE857" stop-opacity="0"/>
</radialGradient>
<linearGradient id="paint16_linear_7747_10101" x1="27.8359" y1="28.1641" x2="27.8359" y2="52.2812" gradientUnits="userSpaceOnUse">
<stop stop-color="#5D4A72"/>
<stop offset="1" stop-color="#544862"/>
</linearGradient>
<linearGradient id="paint17_linear_7747_10101" x1="52.5547" y1="49.1094" x2="47.8516" y2="49.1094" gradientUnits="userSpaceOnUse">
<stop offset="0.546512" stop-color="#5D5468"/>
<stop offset="1" stop-color="#5B5069" stop-opacity="0"/>
</linearGradient>
<linearGradient id="paint18_linear_7747_10101" x1="3.44531" y1="44.0781" x2="7.875" y2="44.0781" gradientUnits="userSpaceOnUse">
<stop stop-color="#564F5E"/>
<stop offset="1" stop-color="#564F5E" stop-opacity="0"/>
</linearGradient>
<radialGradient id="paint19_radial_7747_10101" cx="0" cy="0" r="1" gradientUnits="userSpaceOnUse" gradientTransform="translate(22.4219 45.2266) rotate(118.475) scale(2.78316)">
<stop offset="0.320642" stop-color="#443358"/>
<stop offset="0.790773" stop-color="#443358" stop-opacity="0.0801243"/>
<stop offset="1" stop-color="#443358" stop-opacity="0"/>
</radialGradient>
<radialGradient id="paint20_radial_7747_10101" cx="0" cy="0" r="1" gradientUnits="userSpaceOnUse" gradientTransform="translate(22.3358 42.1718) rotate(180) scale(2.72992 6.25109)">
<stop offset="0.513665" stop-color="#443358"/>
<stop offset="0.897191" stop-color="#443358" stop-opacity="0.120277"/>
<stop offset="1" stop-color="#443358" stop-opacity="0"/>
</radialGradient>
<radialGradient id="paint21_radial_7747_10101" cx="0" cy="0" r="1" gradientUnits="userSpaceOnUse" gradientTransform="translate(24.5319 45.8695) rotate(90) scale(2.27332 4.2983)">
<stop offset="0.546218" stop-color="#443358"/>
<stop offset="0.918202" stop-color="#443358" stop-opacity="0.120277"/>
<stop offset="1" stop-color="#443358" stop-opacity="0"/>
</radialGradient>
<radialGradient id="paint22_radial_7747_10101" cx="0" cy="0" r="1" gradientUnits="userSpaceOnUse" gradientTransform="translate(22.2049 38.7875) rotate(-135) scale(2.57355)">
<stop offset="0.417809" stop-color="#443358"/>
<stop offset="0.842466" stop-color="#443358" stop-opacity="0.120277"/>
<stop offset="1" stop-color="#443358" stop-opacity="0"/>
</radialGradient>
<radialGradient id="paint23_radial_7747_10101" cx="0" cy="0" r="1" gradientUnits="userSpaceOnUse" gradientTransform="translate(27.2756 45.7127) rotate(90) scale(2.21453 5.7225)">
<stop offset="0.546218" stop-color="#443358"/>
<stop offset="0.918202" stop-color="#443358" stop-opacity="0.120277"/>
<stop offset="1" stop-color="#443358" stop-opacity="0"/>
</radialGradient>
<radialGradient id="paint24_radial_7747_10101" cx="0" cy="0" r="1" gradientUnits="userSpaceOnUse" gradientTransform="translate(29.2889 45.4086) rotate(90) scale(2.80019 6.81474)">
<stop offset="0.596299" stop-color="#443358"/>
<stop offset="0.918202" stop-color="#443358" stop-opacity="0.120277"/>
<stop offset="1" stop-color="#443358" stop-opacity="0"/>
</radialGradient>
<radialGradient id="paint25_radial_7747_10101" cx="0" cy="0" r="1" gradientUnits="userSpaceOnUse" gradientTransform="translate(31.6709 44.8648) rotate(90) scale(3.29523)">
<stop offset="0.596299" stop-color="#443358"/>
<stop offset="0.918202" stop-color="#443358" stop-opacity="0.120277"/>
<stop offset="1" stop-color="#443358" stop-opacity="0"/>
</radialGradient>
<linearGradient id="paint26_linear_7747_10101" x1="27.8428" y1="36.7773" x2="27.8428" y2="47.168" gradientUnits="userSpaceOnUse">
<stop stop-color="#8B6DC5"/>
<stop offset="1" stop-color="#8466BE"/>
</linearGradient>
<linearGradient id="paint27_linear_7747_10101" x1="27.8428" y1="36.7773" x2="27.8428" y2="37.4114" gradientUnits="userSpaceOnUse">
<stop offset="0.276042" stop-color="#927CCA"/>
<stop offset="1" stop-color="#927CCA" stop-opacity="0"/>
</linearGradient>
<linearGradient id="paint28_linear_7747_10101" x1="34.8223" y1="42.2199" x2="34.2796" y2="42.2199" gradientUnits="userSpaceOnUse">
<stop offset="0.276042" stop-color="#927CCA"/>
<stop offset="1" stop-color="#927CCA" stop-opacity="0"/>
</linearGradient>
<linearGradient id="paint29_linear_7747_10101" x1="34.4864" y1="37.6665" x2="33.6865" y2="38.483" gradientUnits="userSpaceOnUse">
<stop offset="0.276042" stop-color="#927CCA"/>
<stop offset="1" stop-color="#927CCA" stop-opacity="0"/>
</linearGradient>
<radialGradient id="paint30_radial_7747_10101" cx="0" cy="0" r="1" gradientUnits="userSpaceOnUse" gradientTransform="translate(23.3746 44.8964) rotate(-156.666) scale(1.02646 1.1246)">
<stop offset="0.276042" stop-color="#927CCA"/>
<stop offset="1" stop-color="#927CCA" stop-opacity="0"/>
</radialGradient>
<radialGradient id="paint31_radial_7747_10101" cx="0" cy="0" r="1" gradientUnits="userSpaceOnUse" gradientTransform="translate(26.9357 45.5879) rotate(0.164495) scale(4.64143 0.434916)">
<stop stop-color="#927CCA"/>
<stop offset="1" stop-color="#927CCA" stop-opacity="0"/>
</radialGradient>
<radialGradient id="paint32_radial_7747_10101" cx="0" cy="0" r="1" gradientUnits="userSpaceOnUse" gradientTransform="translate(22.6579 42.4851) rotate(-89.0546) scale(3.60457 0.647185)">
<stop stop-color="#927CCA"/>
<stop offset="1" stop-color="#927CCA" stop-opacity="0"/>
</radialGradient>
<linearGradient id="paint33_linear_7747_10101" x1="28.0761" y1="36.6369" x2="28.0761" y2="36.9078" gradientUnits="userSpaceOnUse">
<stop stop-color="#927CCA"/>
<stop offset="1" stop-color="#927CCA" stop-opacity="0"/>
</linearGradient>
<linearGradient id="paint34_linear_7747_10101" x1="27.8428" y1="47.3995" x2="27.8428" y2="46.1661" gradientUnits="userSpaceOnUse">
<stop stop-color="#884BD4"/>
<stop offset="1" stop-color="#884BD4" stop-opacity="0"/>
</linearGradient>
<linearGradient id="paint35_linear_7747_10101" x1="19.9309" y1="44.5143" x2="21.7261" y2="44.4099" gradientUnits="userSpaceOnUse">
<stop stop-color="#884BD4"/>
<stop offset="1" stop-color="#884BD4" stop-opacity="0"/>
</linearGradient>
<radialGradient id="paint36_radial_7747_10101" cx="0" cy="0" r="1" gradientUnits="userSpaceOnUse" gradientTransform="translate(27.1692 39.3601) rotate(-2.22396) scale(4.74885 1.98025)">
<stop stop-color="#884BD4"/>
<stop offset="1" stop-color="#884BD4" stop-opacity="0"/>
</radialGradient>
<radialGradient id="paint37_radial_7747_10101" cx="0" cy="0" r="1" gradientUnits="userSpaceOnUse" gradientTransform="translate(24.9396 39.1301) rotate(7.53483) scale(3.15499 1.31562)">
<stop stop-color="#884BD4"/>
<stop offset="1" stop-color="#884BD4" stop-opacity="0"/>
</radialGradient>
<radialGradient id="paint38_radial_7747_10101" cx="0" cy="0" r="1" gradientUnits="userSpaceOnUse" gradientTransform="translate(31.7291 39.7338) rotate(58.8972) scale(2.4269 2.35981)">
<stop stop-color="#884BD4"/>
<stop offset="1" stop-color="#884BD4" stop-opacity="0"/>
</radialGradient>
<linearGradient id="paint39_linear_7747_10101" x1="27.8359" y1="8.85938" x2="27.8359" y2="26.1953" gradientUnits="userSpaceOnUse">
<stop stop-color="#63567E"/>
<stop offset="1" stop-color="#6C6695"/>
</linearGradient>
<radialGradient id="paint40_radial_7747_10101" cx="0" cy="0" r="1" gradientUnits="userSpaceOnUse" gradientTransform="translate(49.5565 18.7092) rotate(-1.33642) scale(0.856869 11.6968)">
<stop stop-color="#62557A"/>
<stop offset="1" stop-color="#62557A" stop-opacity="0"/>
</radialGradient>
<linearGradient id="paint41_linear_7747_10101" x1="21.0063" y1="29.1793" x2="21.0063" y2="30.5379" gradientUnits="userSpaceOnUse">
<stop offset="0.320301" stop-color="#62557A" stop-opacity="0"/>
<stop offset="0.423766" stop-color="#62557A"/>
<stop offset="0.883131" stop-color="#62557A" stop-opacity="0.193762"/>
<stop offset="1" stop-color="#62557A" stop-opacity="0"/>
</linearGradient>
<linearGradient id="paint42_linear_7747_10101" x1="3.20429" y1="20.4665" x2="4.47823" y2="20.4665" gradientUnits="userSpaceOnUse">
<stop offset="0.288462" stop-color="#62557A"/>
<stop offset="0.720716" stop-color="#62557A" stop-opacity="0.193762"/>
<stop offset="1" stop-color="#62557A" stop-opacity="0"/>
</linearGradient>
<linearGradient id="paint43_linear_7747_10101" x1="27.8359" y1="32.1016" x2="27.8359" y2="31.459" gradientUnits="userSpaceOnUse">
<stop offset="0.234043" stop-color="#736DA0"/>
<stop offset="0.648936" stop-color="#736DA0" stop-opacity="0.223404"/>
<stop offset="1" stop-color="#736DA0" stop-opacity="0"/>
</linearGradient>
<linearGradient id="paint44_linear_7747_10101" x1="52.3128" y1="19.3029" x2="51.6878" y2="19.3029" gradientUnits="userSpaceOnUse">
<stop offset="0.272571" stop-color="#736DA0"/>
<stop offset="0.792317" stop-color="#736DA0" stop-opacity="0.223404"/>
<stop offset="1" stop-color="#736DA0" stop-opacity="0"/>
</linearGradient>
<radialGradient id="paint45_radial_7747_10101" cx="0" cy="0" r="1" gradientUnits="userSpaceOnUse" gradientTransform="translate(6.19745 18.0108) rotate(-90) scale(6.9081 0.768117)">
<stop stop-color="#736DA0"/>
<stop offset="1" stop-color="#736DA0" stop-opacity="0"/>
</radialGradient>
<radialGradient id="paint46_radial_7747_10101" cx="0" cy="0" r="1" gradientUnits="userSpaceOnUse" gradientTransform="translate(6.19745 27.3899) rotate(-90) scale(9.05454 0.651998)">
<stop offset="0.383361" stop-color="#736DA0"/>
<stop offset="1" stop-color="#736DA0" stop-opacity="0"/>
</radialGradient>
<radialGradient id="paint47_radial_7747_10101" cx="0" cy="0" r="1" gradientUnits="userSpaceOnUse" gradientTransform="translate(8.44247 12.6242) rotate(-18.1153) scale(4.67324 2.50556)">
<stop stop-color="#736DA0"/>
<stop offset="1" stop-color="#736DA0" stop-opacity="0"/>
</radialGradient>
<radialGradient id="paint48_radial_7747_10101" cx="0" cy="0" r="1" gradientUnits="userSpaceOnUse" gradientTransform="translate(47.0052 11.2213) rotate(-1.39394) scale(2.42817 0.62134)">
<stop stop-color="#736DA0"/>
<stop offset="1" stop-color="#736DA0" stop-opacity="0"/>
</radialGradient>
<radialGradient id="paint49_radial_7747_10101" cx="0" cy="0" r="1" gradientUnits="userSpaceOnUse" gradientTransform="translate(51.6286 29.449) rotate(180) scale(3.72646 7.82117)">
<stop offset="0.610489" stop-color="#6C6695"/>
<stop offset="1" stop-color="#6C6695" stop-opacity="0"/>
</radialGradient>
<radialGradient id="paint50_radial_7747_10101" cx="0" cy="0" r="1" gradientUnits="userSpaceOnUse" gradientTransform="translate(4.26837 29.449) scale(4.17504 8.76267)">
<stop offset="0.54103" stop-color="#6C6695"/>
<stop offset="1" stop-color="#6C6695" stop-opacity="0"/>
</radialGradient>
<radialGradient id="paint51_radial_7747_10101" cx="0" cy="0" r="1" gradientUnits="userSpaceOnUse" gradientTransform="translate(7.59042 28.4145) rotate(-37.6964) scale(2.00834)">
<stop offset="0.494792" stop-color="#62557A"/>
<stop offset="1" stop-color="#62557A" stop-opacity="0"/>
</radialGradient>
<radialGradient id="paint52_radial_7747_10101" cx="0" cy="0" r="1" gradientUnits="userSpaceOnUse" gradientTransform="translate(48.698 28.4654) rotate(-124.795) scale(1.70131)">
<stop offset="0.614078" stop-color="#62557A"/>
<stop offset="1" stop-color="#62557A" stop-opacity="0"/>
</radialGradient>
<radialGradient id="paint53_radial_7747_10101" cx="0" cy="0" r="1" gradientUnits="userSpaceOnUse" gradientTransform="translate(49.9016 25.7261) scale(0.584227 3.51565)">
<stop stop-color="#62557A"/>
<stop offset="0.621455" stop-color="#62557A" stop-opacity="0.273237"/>
<stop offset="1" stop-color="#62557A" stop-opacity="0"/>
</radialGradient>
<linearGradient id="paint54_linear_7747_10101" x1="21.3818" y1="19.1406" x2="19.1807" y2="22.6406" gradientUnits="userSpaceOnUse">
<stop stop-color="#FF416D"/>
<stop offset="1" stop-color="#FF3A66"/>
</linearGradient>
<linearGradient id="paint55_linear_7747_10101" x1="19.1807" y1="19.1406" x2="19.1807" y2="19.663" gradientUnits="userSpaceOnUse">
<stop stop-color="#FD4843"/>
<stop offset="1" stop-color="#FD4843" stop-opacity="0"/>
</linearGradient>
<linearGradient id="paint56_linear_7747_10101" x1="13.9102" y1="21.3816" x2="14.426" y2="21.3816" gradientUnits="userSpaceOnUse">
<stop stop-color="#FD4843"/>
<stop offset="1" stop-color="#FD4843" stop-opacity="0"/>
</linearGradient>
<linearGradient id="paint57_linear_7747_10101" x1="14.4568" y1="19.8037" x2="14.6414" y2="20.0498" gradientUnits="userSpaceOnUse">
<stop stop-color="#FD4843"/>
<stop offset="1" stop-color="#FD4843" stop-opacity="0"/>
</linearGradient>
<linearGradient id="paint58_linear_7747_10101" x1="19.1807" y1="22.6406" x2="19.1807" y2="22.1684" gradientUnits="userSpaceOnUse">
<stop offset="0.567708" stop-color="#FF4075"/>
<stop offset="1" stop-color="#FF4075" stop-opacity="0"/>
</linearGradient>
<linearGradient id="paint59_linear_7747_10101" x1="24.4512" y1="21.7962" x2="24.105" y2="21.7962" gradientUnits="userSpaceOnUse">
<stop offset="0.567708" stop-color="#FF4075"/>
<stop offset="1" stop-color="#FF4075" stop-opacity="0"/>
</linearGradient>
<linearGradient id="paint60_linear_7747_10101" x1="24.4512" y1="19.7752" x2="23.791" y2="20.2853" gradientUnits="userSpaceOnUse">
<stop offset="0.567708" stop-color="#FF4075"/>
<stop offset="1" stop-color="#FF4075" stop-opacity="0"/>
</linearGradient>
<linearGradient id="paint61_linear_7747_10101" x1="29.0947" y1="12.3594" x2="27.8369" y2="15.8594" gradientUnits="userSpaceOnUse">
<stop stop-color="#4794D7"/>
<stop offset="1" stop-color="#4482CA"/>
</linearGradient>
<linearGradient id="paint62_linear_7747_10101" x1="27.8369" y1="12.3594" x2="27.8369" y2="12.7692" gradientUnits="userSpaceOnUse">
<stop stop-color="#4580C4"/>
<stop offset="1" stop-color="#4580C4" stop-opacity="0"/>
</linearGradient>
<linearGradient id="paint63_linear_7747_10101" x1="22.5664" y1="14.486" x2="23.0185" y2="14.486" gradientUnits="userSpaceOnUse">
<stop offset="0.552083" stop-color="#4580C4"/>
<stop offset="1" stop-color="#4580C4" stop-opacity="0"/>
</linearGradient>
<linearGradient id="paint64_linear_7747_10101" x1="23.0789" y1="12.6875" x2="23.5847" y2="13.3232" gradientUnits="userSpaceOnUse">
<stop stop-color="#4580C4"/>
<stop offset="0.771469" stop-color="#4580C4" stop-opacity="0"/>
</linearGradient>
<linearGradient id="paint65_linear_7747_10101" x1="27.8369" y1="15.9831" x2="27.8369" y2="15.4053" gradientUnits="userSpaceOnUse">
<stop stop-color="#4C9CD9"/>
<stop offset="1" stop-color="#4C9CD9" stop-opacity="0"/>
</linearGradient>
<linearGradient id="paint66_linear_7747_10101" x1="33.2128" y1="15.0627" x2="32.5925" y2="15.0627" gradientUnits="userSpaceOnUse">
<stop stop-color="#4C9CD9"/>
<stop offset="1" stop-color="#4C9CD9" stop-opacity="0"/>
</linearGradient>
<linearGradient id="paint67_linear_7747_10101" x1="37.7334" y1="4.75781" x2="36.5166" y2="8.85938" gradientUnits="userSpaceOnUse">
<stop stop-color="#4EDC8E"/>
<stop offset="1" stop-color="#54C877"/>
</linearGradient>
<linearGradient id="paint68_linear_7747_10101" x1="36.5166" y1="5.19952" x2="36.5166" y2="5.8" gradientUnits="userSpaceOnUse">
<stop stop-color="#3DB669"/>
<stop offset="1" stop-color="#3DB669" stop-opacity="0"/>
</linearGradient>
<linearGradient id="paint69_linear_7747_10101" x1="31.2461" y1="7.36834" x2="31.7509" y2="7.36834" gradientUnits="userSpaceOnUse">
<stop stop-color="#3DB669"/>
<stop offset="1" stop-color="#3DB669" stop-opacity="0"/>
</linearGradient>
<linearGradient id="paint70_linear_7747_10101" x1="31.9351" y1="5.73149" x2="32.3034" y2="6.24301" gradientUnits="userSpaceOnUse">
<stop stop-color="#3DB669"/>
<stop offset="0.666419" stop-color="#3DB669" stop-opacity="0.223739"/>
<stop offset="1" stop-color="#3DB669" stop-opacity="0"/>
</linearGradient>
<linearGradient id="paint71_linear_7747_10101" x1="36.5166" y1="9.32221" x2="36.5166" y2="8.40944" gradientUnits="userSpaceOnUse">
<stop stop-color="#59E79A"/>
<stop offset="1" stop-color="#59E79A" stop-opacity="0"/>
</linearGradient>
<linearGradient id="paint72_linear_7747_10101" x1="41.9189" y1="7.54601" x2="41.4385" y2="7.54601" gradientUnits="userSpaceOnUse">
<stop stop-color="#59E79A"/>
<stop offset="1" stop-color="#59E79A" stop-opacity="0"/>
</linearGradient>
<linearGradient id="paint73_linear_7747_10101" x1="42.0267" y1="6.13319" x2="41.186" y2="6.8338" gradientUnits="userSpaceOnUse">
<stop stop-color="#59E79A"/>
<stop offset="1" stop-color="#59E79A" stop-opacity="0"/>
</linearGradient>
<linearGradient id="paint74_linear_7747_10101" x1="32.209" y1="39.1016" x2="26.084" y2="45.4863" gradientUnits="userSpaceOnUse">
<stop stop-color="#DECBF4"/>
<stop offset="1" stop-color="#CCBFDC"/>
</linearGradient>
</defs>
</svg>
