<svg width="23" height="20" viewBox="0 0 23 20" fill="none" xmlns="http://www.w3.org/2000/svg">
<path d="M6.83301 5H9.58301M6.83301 9H9.58301M6.83301 13H9.58301M13.083 5H15.833M13.083 9H15.833M13.083 13H15.833M19.333 19V4.2C19.333 3.0799 19.333 2.51984 19.115 2.09202C18.9233 1.71569 18.6173 1.40973 18.241 1.21799C17.8132 1 17.2531 1 16.133 1H6.53301C5.4129 1 4.85285 1 4.42503 1.21799C4.0487 1.40973 3.74274 1.71569 3.55099 2.09202C3.33301 2.51984 3.33301 3.0799 3.33301 4.2V19M21.333 19H1.33301" stroke="black" stroke-width="1.4" stroke-linecap="round" stroke-linejoin="round"/>
</svg>
