<svg width="14" height="13" viewBox="0 0 14 13" fill="none" xmlns="http://www.w3.org/2000/svg">
<path d="M4 0.5H8.73333C10.2268 0.5 10.9735 0.5 11.544 0.790649C12.0457 1.04631 12.4537 1.45426 12.7093 1.95603C13 2.52646 13 3.27319 13 4.76667V9.5M3.13333 12.5H8.53333C9.28007 12.5 9.65344 12.5 9.93865 12.3547C10.1895 12.2268 10.3935 12.0229 10.5213 11.772C10.6667 11.4868 10.6667 11.1134 10.6667 10.3667V4.96667C10.6667 4.21993 10.6667 3.84656 10.5213 3.56135C10.3935 3.31046 10.1895 3.10649 9.93865 2.97866C9.65344 2.83333 9.28007 2.83333 8.53333 2.83333H3.13333C2.3866 2.83333 2.01323 2.83333 1.72801 2.97866C1.47713 3.10649 1.27316 3.31046 1.14532 3.56135C1 3.84656 1 4.21993 1 4.96667V10.3667C1 11.1134 1 11.4868 1.14532 11.772C1.27316 12.0229 1.47713 12.2268 1.72801 12.3547C2.01323 12.5 2.3866 12.5 3.13333 12.5Z" stroke="#575757" stroke-linecap="round" stroke-linejoin="round"/>
</svg>
