<svg width="25" height="24" viewBox="0 0 25 24" fill="none" xmlns="http://www.w3.org/2000/svg">
<path d="M12.75 1.50195L21 6.75195L12.75 11.252L3.75 6.75195L12.75 1.50195Z" fill="#34F3FF"/>
<path d="M12.5 2.50253V12.0025M12.5 12.0025L21 7.28024M12.5 12.0025L4 7.28024M12.5 12.0025V21.5025M21 16.7247L13.277 12.4342C12.9934 12.2766 12.8516 12.1979 12.7015 12.167C12.5685 12.1397 12.4315 12.1397 12.2986 12.167C12.1484 12.1979 12.0066 12.2767 11.723 12.4342L4 16.7248M21.5 16.0611V7.94397C21.5 7.60133 21.5 7.43001 21.4495 7.27721C21.4049 7.14203 21.3318 7.01795 21.2354 6.91326C21.1263 6.79492 20.9766 6.71172 20.677 6.54532L13.277 2.43421C12.9934 2.27665 12.8516 2.19787 12.7015 2.16699C12.5685 2.13965 12.4315 2.13965 12.2986 2.16699C12.1484 2.19787 12.0066 2.27665 11.723 2.43421L4.32297 6.54532C4.02345 6.71172 3.87369 6.79492 3.76463 6.91326C3.66816 7.01795 3.59515 7.14203 3.55048 7.27721C3.5 7.43001 3.5 7.60133 3.5 7.94397V16.0611C3.5 16.4037 3.5 16.575 3.55048 16.7278C3.59515 16.863 3.66816 16.9871 3.76463 17.0918C3.87369 17.2101 4.02345 17.2933 4.32297 17.4597L11.723 21.5708C12.0066 21.7284 12.1484 21.8072 12.2986 21.8381C12.4315 21.8654 12.5685 21.8654 12.7015 21.8381C12.8516 21.8072 12.9934 21.7284 13.277 21.5708L20.677 17.4597C20.9766 17.2933 21.1263 17.2101 21.2354 17.0918C21.3318 16.9871 21.4049 16.863 21.4495 16.7278C21.5 16.575 21.5 16.4037 21.5 16.0611Z" stroke="black" stroke-width="1.2" stroke-linecap="round" stroke-linejoin="round"/>
</svg>
