<svg width="16" height="16" viewBox="0 0 16 16" fill="none" xmlns="http://www.w3.org/2000/svg">
<g clip-path="url(#clip0_766_3908)">
<path fill-rule="evenodd" clip-rule="evenodd" d="M3.18406 0.00583595L3.18559 0.00605258L3.18791 0.00638586L3.19487 0.0074098L3.21789 0.0109387C3.23715 0.0139683 3.26417 0.0183835 3.29808 0.0243387C3.36587 0.0362399 3.46155 0.0543468 3.57836 0.07992C3.8112 0.130893 4.13212 0.212425 4.48563 0.335339C5.05369 0.53285 5.77254 0.859613 6.32515 1.39108C7.02026 1.12508 7.81433 0.997293 8.59226 0.99352L8.60246 0.99344L8.61506 0.993447L8.62766 0.99344L8.63786 0.99352C9.41579 0.997293 10.2099 1.12508 10.905 1.39108C11.4576 0.859613 12.1765 0.53285 12.7445 0.335339C13.098 0.212425 13.4189 0.130893 13.6518 0.07992C13.7686 0.0543468 13.8643 0.0362399 13.9321 0.0243387C13.966 0.0183835 13.993 0.0139683 14.0123 0.0109387L14.0353 0.0074098L14.0422 0.00638586L14.0445 0.00605258L14.0461 0.00583595C14.345 -0.0362375 14.6277 0.153173 14.7017 0.445113C14.8813 1.15451 14.8567 1.91659 14.7189 2.58284C14.6229 3.04661 14.4652 3.49702 14.2563 3.8707C14.8565 4.62535 15.339 5.6372 15.3336 6.64209C15.3242 8.41247 14.7467 9.60753 13.7861 10.3775C13.112 10.9179 12.2924 11.2121 11.4665 11.3856C11.4937 11.4468 11.5189 11.5091 11.542 11.5722C11.6801 11.9504 11.7382 12.3529 11.7129 12.7545V15.4105C11.7129 15.7361 11.4483 16 11.1219 16C10.7955 16 10.5309 15.7361 10.5309 15.4105V12.7349C10.5309 12.7211 10.5314 12.7073 10.5324 12.6936C10.5496 12.4498 10.5151 12.2051 10.4313 11.9755C10.3475 11.7459 10.2162 11.5365 10.0459 11.361C9.89019 11.2004 9.83893 10.9657 9.91346 10.7551C9.98799 10.5443 10.1756 10.3938 10.3979 10.3662C11.4581 10.2348 12.3843 9.98867 13.0457 9.45853C13.6728 8.95593 14.1437 8.12973 14.1517 6.63583C14.1557 5.86619 13.6939 4.95992 13.0864 4.32305C12.8794 4.10608 12.8685 3.76879 13.0609 3.53891C13.2493 3.31387 13.4493 2.88601 13.5613 2.34463C13.632 2.0024 13.6619 1.64179 13.6406 1.29497C13.4884 1.33469 13.3156 1.38529 13.1336 1.44858C12.5137 1.66413 11.8827 1.99427 11.5297 2.45801C11.3577 2.68393 11.0489 2.75567 10.7945 2.62877C10.2054 2.33477 9.42386 2.17406 8.61506 2.17239C7.80626 2.17406 7.02479 2.33477 6.4356 2.62877C6.18128 2.75567 5.8724 2.68393 5.70045 2.45801C5.3475 1.99427 4.7165 1.66413 4.09656 1.44858C3.91452 1.38529 3.74175 1.33469 3.58954 1.29497C3.56825 1.64179 3.59811 2.0024 3.6689 2.34463C3.78089 2.88601 3.98086 3.31387 4.16925 3.53891C4.36169 3.76879 4.35073 4.10608 4.14375 4.32305C3.5362 4.95992 3.07439 5.86619 3.07849 6.63583C3.08644 8.12973 3.55733 8.95593 4.18445 9.45853C4.84585 9.98867 5.77201 10.2348 6.83226 10.3662C7.05459 10.3938 7.24212 10.5443 7.31666 10.7551C7.39126 10.9657 7.33992 11.2004 7.18419 11.361C7.01392 11.5365 6.88266 11.7459 6.79879 11.9755C6.71499 12.2051 6.68052 12.4498 6.69772 12.6936C6.69872 12.7073 6.69919 12.7211 6.69919 12.7349V15.4105C6.69919 15.7361 6.43459 16 6.1082 16C5.7818 16 5.51721 15.7361 5.51721 15.4105V13.6577C4.88743 13.7522 4.34859 13.7213 3.87703 13.5905C3.28785 13.4269 2.85248 13.1209 2.50645 12.8009C2.33589 12.6432 2.18472 12.4799 2.05096 12.3316C2.01629 12.2931 1.98333 12.2563 1.95159 12.2209C1.85558 12.1137 1.77061 12.0188 1.68262 11.9281C1.44988 11.6883 1.28312 11.5739 1.11471 11.5318C0.798065 11.4528 0.60559 11.1327 0.684798 10.8169C0.764005 10.5011 1.08491 10.3091 1.40155 10.3881C1.89845 10.5121 2.25618 10.8241 2.53187 11.1081C2.63801 11.2175 2.74494 11.3369 2.84455 11.4482C2.87364 11.4807 2.90211 11.5125 2.92974 11.5431C3.05777 11.6851 3.17999 11.8161 3.30999 11.9363C3.56509 12.1721 3.83961 12.3563 4.19384 12.4547C4.51189 12.5429 4.93299 12.5725 5.51349 12.4626C5.52483 12.1592 5.58357 11.8587 5.68817 11.5722C5.71122 11.5091 5.73641 11.4468 5.76368 11.3856C4.93771 11.2121 4.11816 10.9179 3.44406 10.3775C2.48339 9.60753 1.90595 8.41247 1.89651 6.64209C1.89116 5.6372 2.37365 4.62535 2.97387 3.8707C2.76496 3.49702 2.60722 3.04661 2.51129 2.58284C2.37349 1.91659 2.34879 1.15451 2.5285 0.445113C2.60246 0.153173 2.88513 -0.0362375 3.18406 0.00583595Z" fill="black"/>
</g>
<defs>
<clipPath id="clip0_766_3908">
<rect width="16" height="16" fill="white"/>
</clipPath>
</defs>
</svg>
