<svg width="56" height="56" viewBox="0 0 56 56" fill="none" xmlns="http://www.w3.org/2000/svg">
<path d="M12.9531 14C8.12065 14 4.20312 17.929 4.20312 22.7757V31.5239C4.20312 37.3399 8.90411 42.0547 14.7031 42.0547H18.9926C21.578 42.0547 23.9529 40.6296 25.1694 38.3482L26.0691 36.6608C26.5671 35.7269 27.5372 35.1439 28.5932 35.1439C29.6425 35.1439 30.6077 35.7198 31.1085 36.6446L32.0523 38.3877C33.2757 40.6471 35.6385 42.0547 38.2079 42.0547H42.5391C48.3381 42.0547 53.0391 37.3399 53.0391 31.5239V22.7757C53.0391 17.929 49.1215 14 44.2891 14H12.9531Z" fill="url(#paint0_linear_7747_10010)"/>
<path d="M12.9531 14C8.12065 14 4.20312 17.929 4.20312 22.7757V31.5239C4.20312 37.3399 8.90411 42.0547 14.7031 42.0547H18.9926C21.578 42.0547 23.9529 40.6296 25.1694 38.3482L26.0691 36.6608C26.5671 35.7269 27.5372 35.1439 28.5932 35.1439C29.6425 35.1439 30.6077 35.7198 31.1085 36.6446L32.0523 38.3877C33.2757 40.6471 35.6385 42.0547 38.2079 42.0547H42.5391C48.3381 42.0547 53.0391 37.3399 53.0391 31.5239V22.7757C53.0391 17.929 49.1215 14 44.2891 14H12.9531Z" fill="url(#paint1_radial_7747_10010)"/>
<path d="M12.9531 14C8.12065 14 4.20312 17.929 4.20312 22.7757V31.5239C4.20312 37.3399 8.90411 42.0547 14.7031 42.0547H18.9926C21.578 42.0547 23.9529 40.6296 25.1694 38.3482L26.0691 36.6608C26.5671 35.7269 27.5372 35.1439 28.5932 35.1439C29.6425 35.1439 30.6077 35.7198 31.1085 36.6446L32.0523 38.3877C33.2757 40.6471 35.6385 42.0547 38.2079 42.0547H42.5391C48.3381 42.0547 53.0391 37.3399 53.0391 31.5239V22.7757C53.0391 17.929 49.1215 14 44.2891 14H12.9531Z" fill="url(#paint2_linear_7747_10010)"/>
<path d="M12.9531 14C8.12065 14 4.20312 17.929 4.20312 22.7757V31.5239C4.20312 37.3399 8.90411 42.0547 14.7031 42.0547H18.9926C21.578 42.0547 23.9529 40.6296 25.1694 38.3482L26.0691 36.6608C26.5671 35.7269 27.5372 35.1439 28.5932 35.1439C29.6425 35.1439 30.6077 35.7198 31.1085 36.6446L32.0523 38.3877C33.2757 40.6471 35.6385 42.0547 38.2079 42.0547H42.5391C48.3381 42.0547 53.0391 37.3399 53.0391 31.5239V22.7757C53.0391 17.929 49.1215 14 44.2891 14H12.9531Z" fill="url(#paint3_linear_7747_10010)"/>
<path d="M12.9531 14C8.12065 14 4.20312 17.929 4.20312 22.7757V31.5239C4.20312 37.3399 8.90411 42.0547 14.7031 42.0547H18.9926C21.578 42.0547 23.9529 40.6296 25.1694 38.3482L26.0691 36.6608C26.5671 35.7269 27.5372 35.1439 28.5932 35.1439C29.6425 35.1439 30.6077 35.7198 31.1085 36.6446L32.0523 38.3877C33.2757 40.6471 35.6385 42.0547 38.2079 42.0547H42.5391C48.3381 42.0547 53.0391 37.3399 53.0391 31.5239V22.7757C53.0391 17.929 49.1215 14 44.2891 14H12.9531Z" fill="url(#paint4_linear_7747_10010)"/>
<path d="M12.9531 14C8.12065 14 4.20312 17.929 4.20312 22.7757V31.5239C4.20312 37.3399 8.90411 42.0547 14.7031 42.0547H18.9926C21.578 42.0547 23.9529 40.6296 25.1694 38.3482L26.0691 36.6608C26.5671 35.7269 27.5372 35.1439 28.5932 35.1439C29.6425 35.1439 30.6077 35.7198 31.1085 36.6446L32.0523 38.3877C33.2757 40.6471 35.6385 42.0547 38.2079 42.0547H42.5391C48.3381 42.0547 53.0391 37.3399 53.0391 31.5239V22.7757C53.0391 17.929 49.1215 14 44.2891 14H12.9531Z" fill="url(#paint5_linear_7747_10010)"/>
<path d="M12.9531 14C8.12065 14 4.20312 17.929 4.20312 22.7757V31.5239C4.20312 37.3399 8.90411 42.0547 14.7031 42.0547H18.9926C21.578 42.0547 23.9529 40.6296 25.1694 38.3482L26.0691 36.6608C26.5671 35.7269 27.5372 35.1439 28.5932 35.1439C29.6425 35.1439 30.6077 35.7198 31.1085 36.6446L32.0523 38.3877C33.2757 40.6471 35.6385 42.0547 38.2079 42.0547H42.5391C48.3381 42.0547 53.0391 37.3399 53.0391 31.5239V22.7757C53.0391 17.929 49.1215 14 44.2891 14H12.9531Z" fill="url(#paint6_radial_7747_10010)"/>
<path d="M12.9531 14C8.12065 14 4.20312 17.929 4.20312 22.7757V31.5239C4.20312 37.3399 8.90411 42.0547 14.7031 42.0547H18.9926C21.578 42.0547 23.9529 40.6296 25.1694 38.3482L26.0691 36.6608C26.5671 35.7269 27.5372 35.1439 28.5932 35.1439C29.6425 35.1439 30.6077 35.7198 31.1085 36.6446L32.0523 38.3877C33.2757 40.6471 35.6385 42.0547 38.2079 42.0547H42.5391C48.3381 42.0547 53.0391 37.3399 53.0391 31.5239V22.7757C53.0391 17.929 49.1215 14 44.2891 14H12.9531Z" fill="url(#paint7_radial_7747_10010)" fill-opacity="0.8"/>
<path d="M12.9531 14C8.12065 14 4.20312 17.929 4.20312 22.7757V31.5239C4.20312 37.3399 8.90411 42.0547 14.7031 42.0547H18.9926C21.578 42.0547 23.9529 40.6296 25.1694 38.3482L26.0691 36.6608C26.5671 35.7269 27.5372 35.1439 28.5932 35.1439C29.6425 35.1439 30.6077 35.7198 31.1085 36.6446L32.0523 38.3877C33.2757 40.6471 35.6385 42.0547 38.2079 42.0547H42.5391C48.3381 42.0547 53.0391 37.3399 53.0391 31.5239V22.7757C53.0391 17.929 49.1215 14 44.2891 14H12.9531Z" fill="url(#paint8_linear_7747_10010)"/>
<path d="M12.9531 14C8.12065 14 4.20312 17.929 4.20312 22.7757V31.5239C4.20312 37.3399 8.90411 42.0547 14.7031 42.0547H18.9926C21.578 42.0547 23.9529 40.6296 25.1694 38.3482L26.0691 36.6608C26.5671 35.7269 27.5372 35.1439 28.5932 35.1439C29.6425 35.1439 30.6077 35.7198 31.1085 36.6446L32.0523 38.3877C33.2757 40.6471 35.6385 42.0547 38.2079 42.0547H42.5391C48.3381 42.0547 53.0391 37.3399 53.0391 31.5239V22.7757C53.0391 17.929 49.1215 14 44.2891 14H12.9531Z" fill="url(#paint9_linear_7747_10010)"/>
<path d="M12.9531 14C8.12065 14 4.20312 17.929 4.20312 22.7757V31.5239C4.20312 37.3399 8.90411 42.0547 14.7031 42.0547H18.9926C21.578 42.0547 23.9529 40.6296 25.1694 38.3482L26.0691 36.6608C26.5671 35.7269 27.5372 35.1439 28.5932 35.1439C29.6425 35.1439 30.6077 35.7198 31.1085 36.6446L32.0523 38.3877C33.2757 40.6471 35.6385 42.0547 38.2079 42.0547H42.5391C48.3381 42.0547 53.0391 37.3399 53.0391 31.5239V22.7757C53.0391 17.929 49.1215 14 44.2891 14H12.9531Z" fill="url(#paint10_linear_7747_10010)"/>
<path d="M12.9531 14C8.12065 14 4.20312 17.929 4.20312 22.7757V31.5239C4.20312 37.3399 8.90411 42.0547 14.7031 42.0547H18.9926C21.578 42.0547 23.9529 40.6296 25.1694 38.3482L26.0691 36.6608C26.5671 35.7269 27.5372 35.1439 28.5932 35.1439C29.6425 35.1439 30.6077 35.7198 31.1085 36.6446L32.0523 38.3877C33.2757 40.6471 35.6385 42.0547 38.2079 42.0547H42.5391C48.3381 42.0547 53.0391 37.3399 53.0391 31.5239V22.7757C53.0391 17.929 49.1215 14 44.2891 14H12.9531Z" fill="url(#paint11_radial_7747_10010)"/>
<path d="M12.9531 14C8.12065 14 4.20312 17.929 4.20312 22.7757V31.5239C4.20312 37.3399 8.90411 42.0547 14.7031 42.0547H18.9926C21.578 42.0547 23.9529 40.6296 25.1694 38.3482L26.0691 36.6608C26.5671 35.7269 27.5372 35.1439 28.5932 35.1439C29.6425 35.1439 30.6077 35.7198 31.1085 36.6446L32.0523 38.3877C33.2757 40.6471 35.6385 42.0547 38.2079 42.0547H42.5391C48.3381 42.0547 53.0391 37.3399 53.0391 31.5239V22.7757C53.0391 17.929 49.1215 14 44.2891 14H12.9531Z" fill="url(#paint12_radial_7747_10010)"/>
<path d="M12.9531 14C8.12065 14 4.20312 17.929 4.20312 22.7757V31.5239C4.20312 37.3399 8.90411 42.0547 14.7031 42.0547H18.9926C21.578 42.0547 23.9529 40.6296 25.1694 38.3482L26.0691 36.6608C26.5671 35.7269 27.5372 35.1439 28.5932 35.1439C29.6425 35.1439 30.6077 35.7198 31.1085 36.6446L32.0523 38.3877C33.2757 40.6471 35.6385 42.0547 38.2079 42.0547H42.5391C48.3381 42.0547 53.0391 37.3399 53.0391 31.5239V22.7757C53.0391 17.929 49.1215 14 44.2891 14H12.9531Z" fill="url(#paint13_radial_7747_10010)" fill-opacity="0.9"/>
<path d="M12.9531 14C8.12065 14 4.20312 17.929 4.20312 22.7757V31.5239C4.20312 37.3399 8.90411 42.0547 14.7031 42.0547H18.9926C21.578 42.0547 23.9529 40.6296 25.1694 38.3482L26.0691 36.6608C26.5671 35.7269 27.5372 35.1439 28.5932 35.1439C29.6425 35.1439 30.6077 35.7198 31.1085 36.6446L32.0523 38.3877C33.2757 40.6471 35.6385 42.0547 38.2079 42.0547H42.5391C48.3381 42.0547 53.0391 37.3399 53.0391 31.5239V22.7757C53.0391 17.929 49.1215 14 44.2891 14H12.9531Z" fill="url(#paint14_radial_7747_10010)" fill-opacity="0.9"/>
<path d="M12.9531 14C8.12065 14 4.20312 17.929 4.20312 22.7757V31.5239C4.20312 37.3399 8.90411 42.0547 14.7031 42.0547H18.9926C21.578 42.0547 23.9529 40.6296 25.1694 38.3482L26.0691 36.6608C26.5671 35.7269 27.5372 35.1439 28.5932 35.1439C29.6425 35.1439 30.6077 35.7198 31.1085 36.6446L32.0523 38.3877C33.2757 40.6471 35.6385 42.0547 38.2079 42.0547H42.5391C48.3381 42.0547 53.0391 37.3399 53.0391 31.5239V22.7757C53.0391 17.929 49.1215 14 44.2891 14H12.9531Z" fill="url(#paint15_linear_7747_10010)"/>
<path d="M12.9531 14C8.12065 14 4.20312 17.929 4.20312 22.7757V31.5239C4.20312 37.3399 8.90411 42.0547 14.7031 42.0547H18.9926C21.578 42.0547 23.9529 40.6296 25.1694 38.3482L26.0691 36.6608C26.5671 35.7269 27.5372 35.1439 28.5932 35.1439C29.6425 35.1439 30.6077 35.7198 31.1085 36.6446L32.0523 38.3877C33.2757 40.6471 35.6385 42.0547 38.2079 42.0547H42.5391C48.3381 42.0547 53.0391 37.3399 53.0391 31.5239V22.7757C53.0391 17.929 49.1215 14 44.2891 14H12.9531Z" fill="url(#paint16_linear_7747_10010)"/>
<path d="M12.9531 14C8.12065 14 4.20312 17.929 4.20312 22.7757V31.5239C4.20312 37.3399 8.90411 42.0547 14.7031 42.0547H18.9926C21.578 42.0547 23.9529 40.6296 25.1694 38.3482L26.0691 36.6608C26.5671 35.7269 27.5372 35.1439 28.5932 35.1439C29.6425 35.1439 30.6077 35.7198 31.1085 36.6446L32.0523 38.3877C33.2757 40.6471 35.6385 42.0547 38.2079 42.0547H42.5391C48.3381 42.0547 53.0391 37.3399 53.0391 31.5239V22.7757C53.0391 17.929 49.1215 14 44.2891 14H12.9531Z" fill="url(#paint17_linear_7747_10010)"/>
<path d="M13.3906 18.2383C8.31649 18.2383 4.20312 22.3516 4.20312 27.4258V29.6625C4.20312 34.3017 7.96396 38.0625 12.6031 38.0625H19.455C21.8716 38.0625 24.0752 36.6802 25.127 34.5045L25.8184 33.0744C26.3382 31.9401 27.346 31.2129 28.5938 31.2129C29.8415 31.2129 30.8357 31.9401 31.3555 33.0744L32.0569 34.5171C33.1113 36.6859 35.3112 38.0625 37.7228 38.0625H44.6391C49.2782 38.0625 53.0391 34.3017 53.0391 29.6625V27.4258C53.0391 22.3516 48.9257 18.2383 43.8516 18.2383H13.3906Z" fill="url(#paint18_linear_7747_10010)"/>
<path d="M13.3906 18.2383C8.31649 18.2383 4.20312 22.3516 4.20312 27.4258V29.6625C4.20312 34.3017 7.96396 38.0625 12.6031 38.0625H19.455C21.8716 38.0625 24.0752 36.6802 25.127 34.5045L25.8184 33.0744C26.3382 31.9401 27.346 31.2129 28.5938 31.2129C29.8415 31.2129 30.8357 31.9401 31.3555 33.0744L32.0569 34.5171C33.1113 36.6859 35.3112 38.0625 37.7228 38.0625H44.6391C49.2782 38.0625 53.0391 34.3017 53.0391 29.6625V27.4258C53.0391 22.3516 48.9257 18.2383 43.8516 18.2383H13.3906Z" fill="url(#paint19_radial_7747_10010)"/>
<path d="M13.3906 18.2383C8.31649 18.2383 4.20312 22.3516 4.20312 27.4258V29.6625C4.20312 34.3017 7.96396 38.0625 12.6031 38.0625H19.455C21.8716 38.0625 24.0752 36.6802 25.127 34.5045L25.8184 33.0744C26.3382 31.9401 27.346 31.2129 28.5938 31.2129C29.8415 31.2129 30.8357 31.9401 31.3555 33.0744L32.0569 34.5171C33.1113 36.6859 35.3112 38.0625 37.7228 38.0625H44.6391C49.2782 38.0625 53.0391 34.3017 53.0391 29.6625V27.4258C53.0391 22.3516 48.9257 18.2383 43.8516 18.2383H13.3906Z" fill="url(#paint20_radial_7747_10010)"/>
<path d="M13.3906 18.2383C8.31649 18.2383 4.20312 22.3516 4.20312 27.4258V29.6625C4.20312 34.3017 7.96396 38.0625 12.6031 38.0625H19.455C21.8716 38.0625 24.0752 36.6802 25.127 34.5045L25.8184 33.0744C26.3382 31.9401 27.346 31.2129 28.5938 31.2129C29.8415 31.2129 30.8357 31.9401 31.3555 33.0744L32.0569 34.5171C33.1113 36.6859 35.3112 38.0625 37.7228 38.0625H44.6391C49.2782 38.0625 53.0391 34.3017 53.0391 29.6625V27.4258C53.0391 22.3516 48.9257 18.2383 43.8516 18.2383H13.3906Z" fill="url(#paint21_radial_7747_10010)"/>
<path d="M13.3906 18.2383C8.31649 18.2383 4.20312 22.3516 4.20312 27.4258V29.6625C4.20312 34.3017 7.96396 38.0625 12.6031 38.0625H19.455C21.8716 38.0625 24.0752 36.6802 25.127 34.5045L25.8184 33.0744C26.3382 31.9401 27.346 31.2129 28.5938 31.2129C29.8415 31.2129 30.8357 31.9401 31.3555 33.0744L32.0569 34.5171C33.1113 36.6859 35.3112 38.0625 37.7228 38.0625H44.6391C49.2782 38.0625 53.0391 34.3017 53.0391 29.6625V27.4258C53.0391 22.3516 48.9257 18.2383 43.8516 18.2383H13.3906Z" fill="url(#paint22_radial_7747_10010)" fill-opacity="0.9"/>
<path d="M13.3906 18.2383C8.31649 18.2383 4.20312 22.3516 4.20312 27.4258V29.6625C4.20312 34.3017 7.96396 38.0625 12.6031 38.0625H19.455C21.8716 38.0625 24.0752 36.6802 25.127 34.5045L25.8184 33.0744C26.3382 31.9401 27.346 31.2129 28.5938 31.2129C29.8415 31.2129 30.8357 31.9401 31.3555 33.0744L32.0569 34.5171C33.1113 36.6859 35.3112 38.0625 37.7228 38.0625H44.6391C49.2782 38.0625 53.0391 34.3017 53.0391 29.6625V27.4258C53.0391 22.3516 48.9257 18.2383 43.8516 18.2383H13.3906Z" fill="url(#paint23_radial_7747_10010)" fill-opacity="0.9"/>
<path d="M13.3906 18.2383C8.31649 18.2383 4.20312 22.3516 4.20312 27.4258V29.6625C4.20312 34.3017 7.96396 38.0625 12.6031 38.0625H19.455C21.8716 38.0625 24.0752 36.6802 25.127 34.5045L25.8184 33.0744C26.3382 31.9401 27.346 31.2129 28.5938 31.2129C29.8415 31.2129 30.8357 31.9401 31.3555 33.0744L32.0569 34.5171C33.1113 36.6859 35.3112 38.0625 37.7228 38.0625H44.6391C49.2782 38.0625 53.0391 34.3017 53.0391 29.6625V27.4258C53.0391 22.3516 48.9257 18.2383 43.8516 18.2383H13.3906Z" fill="url(#paint24_linear_7747_10010)"/>
<path d="M13.3906 18.2383C8.31649 18.2383 4.20312 22.3516 4.20312 27.4258V29.6625C4.20312 34.3017 7.96396 38.0625 12.6031 38.0625H19.455C21.8716 38.0625 24.0752 36.6802 25.127 34.5045L25.8184 33.0744C26.3382 31.9401 27.346 31.2129 28.5938 31.2129C29.8415 31.2129 30.8357 31.9401 31.3555 33.0744L32.0569 34.5171C33.1113 36.6859 35.3112 38.0625 37.7228 38.0625H44.6391C49.2782 38.0625 53.0391 34.3017 53.0391 29.6625V27.4258C53.0391 22.3516 48.9257 18.2383 43.8516 18.2383H13.3906Z" fill="url(#paint25_linear_7747_10010)"/>
<path d="M13.3906 18.2383C8.31649 18.2383 4.20312 22.3516 4.20312 27.4258V29.6625C4.20312 34.3017 7.96396 38.0625 12.6031 38.0625H19.455C21.8716 38.0625 24.0752 36.6802 25.127 34.5045L25.8184 33.0744C26.3382 31.9401 27.346 31.2129 28.5938 31.2129C29.8415 31.2129 30.8357 31.9401 31.3555 33.0744L32.0569 34.5171C33.1113 36.6859 35.3112 38.0625 37.7228 38.0625H44.6391C49.2782 38.0625 53.0391 34.3017 53.0391 29.6625V27.4258C53.0391 22.3516 48.9257 18.2383 43.8516 18.2383H13.3906Z" fill="url(#paint26_linear_7747_10010)"/>
<path d="M13.3906 18.2383C8.31649 18.2383 4.20312 22.3516 4.20312 27.4258V29.6625C4.20312 34.3017 7.96396 38.0625 12.6031 38.0625H19.455C21.8716 38.0625 24.0752 36.6802 25.127 34.5045L25.8184 33.0744C26.3382 31.9401 27.346 31.2129 28.5938 31.2129C29.8415 31.2129 30.8357 31.9401 31.3555 33.0744L32.0569 34.5171C33.1113 36.6859 35.3112 38.0625 37.7228 38.0625H44.6391C49.2782 38.0625 53.0391 34.3017 53.0391 29.6625V27.4258C53.0391 22.3516 48.9257 18.2383 43.8516 18.2383H13.3906Z" fill="url(#paint27_linear_7747_10010)" fill-opacity="0.8"/>
<path d="M13.3906 18.2383C8.31649 18.2383 4.20312 22.3516 4.20312 27.4258V29.6625C4.20312 34.3017 7.96396 38.0625 12.6031 38.0625H19.455C21.8716 38.0625 24.0752 36.6802 25.127 34.5045L25.8184 33.0744C26.3382 31.9401 27.346 31.2129 28.5938 31.2129C29.8415 31.2129 30.8357 31.9401 31.3555 33.0744L32.0569 34.5171C33.1113 36.6859 35.3112 38.0625 37.7228 38.0625H44.6391C49.2782 38.0625 53.0391 34.3017 53.0391 29.6625V27.4258C53.0391 22.3516 48.9257 18.2383 43.8516 18.2383H13.3906Z" fill="url(#paint28_linear_7747_10010)" fill-opacity="0.8"/>
<path d="M13.3906 18.2383C8.31649 18.2383 4.20312 22.3516 4.20312 27.4258V29.6625C4.20312 34.3017 7.96396 38.0625 12.6031 38.0625H19.455C21.8716 38.0625 24.0752 36.6802 25.127 34.5045L25.8184 33.0744C26.3382 31.9401 27.346 31.2129 28.5938 31.2129C29.8415 31.2129 30.8357 31.9401 31.3555 33.0744L32.0569 34.5171C33.1113 36.6859 35.3112 38.0625 37.7228 38.0625H44.6391C49.2782 38.0625 53.0391 34.3017 53.0391 29.6625V27.4258C53.0391 22.3516 48.9257 18.2383 43.8516 18.2383H13.3906Z" fill="url(#paint29_linear_7747_10010)" fill-opacity="0.8"/>
<path d="M13.3906 18.2383C8.31649 18.2383 4.20312 22.3516 4.20312 27.4258V29.6625C4.20312 34.3017 7.96396 38.0625 12.6031 38.0625H19.455C21.8716 38.0625 24.0752 36.6802 25.127 34.5045L25.8184 33.0744C26.3382 31.9401 27.346 31.2129 28.5938 31.2129C29.8415 31.2129 30.8357 31.9401 31.3555 33.0744L32.0569 34.5171C33.1113 36.6859 35.3112 38.0625 37.7228 38.0625H44.6391C49.2782 38.0625 53.0391 34.3017 53.0391 29.6625V27.4258C53.0391 22.3516 48.9257 18.2383 43.8516 18.2383H13.3906Z" fill="url(#paint30_linear_7747_10010)" fill-opacity="0.8"/>
<path d="M13.3906 18.2383C8.31649 18.2383 4.20312 22.3516 4.20312 27.4258V29.6625C4.20312 34.3017 7.96396 38.0625 12.6031 38.0625H19.455C21.8716 38.0625 24.0752 36.6802 25.127 34.5045L25.8184 33.0744C26.3382 31.9401 27.346 31.2129 28.5938 31.2129C29.8415 31.2129 30.8357 31.9401 31.3555 33.0744L32.0569 34.5171C33.1113 36.6859 35.3112 38.0625 37.7228 38.0625H44.6391C49.2782 38.0625 53.0391 34.3017 53.0391 29.6625V27.4258C53.0391 22.3516 48.9257 18.2383 43.8516 18.2383H13.3906Z" fill="url(#paint31_linear_7747_10010)" fill-opacity="0.8"/>
<path d="M13.3906 18.2383C8.31649 18.2383 4.20312 22.3516 4.20312 27.4258V29.6625C4.20312 34.3017 7.96396 38.0625 12.6031 38.0625H19.455C21.8716 38.0625 24.0752 36.6802 25.127 34.5045L25.8184 33.0744C26.3382 31.9401 27.346 31.2129 28.5938 31.2129C29.8415 31.2129 30.8357 31.9401 31.3555 33.0744L32.0569 34.5171C33.1113 36.6859 35.3112 38.0625 37.7228 38.0625H44.6391C49.2782 38.0625 53.0391 34.3017 53.0391 29.6625V27.4258C53.0391 22.3516 48.9257 18.2383 43.8516 18.2383H13.3906Z" fill="url(#paint32_linear_7747_10010)" fill-opacity="0.8"/>
<path d="M13.3906 18.2383C8.31649 18.2383 4.20312 22.3516 4.20312 27.4258V29.6625C4.20312 34.3017 7.96396 38.0625 12.6031 38.0625H19.455C21.8716 38.0625 24.0752 36.6802 25.127 34.5045L25.8184 33.0744C26.3382 31.9401 27.346 31.2129 28.5938 31.2129C29.8415 31.2129 30.8357 31.9401 31.3555 33.0744L32.0569 34.5171C33.1113 36.6859 35.3112 38.0625 37.7228 38.0625H44.6391C49.2782 38.0625 53.0391 34.3017 53.0391 29.6625V27.4258C53.0391 22.3516 48.9257 18.2383 43.8516 18.2383H13.3906Z" fill="url(#paint33_radial_7747_10010)"/>
<path d="M13.3906 18.2383C8.31649 18.2383 4.20312 22.3516 4.20312 27.4258V29.6625C4.20312 34.3017 7.96396 38.0625 12.6031 38.0625H19.455C21.8716 38.0625 24.0752 36.6802 25.127 34.5045L25.8184 33.0744C26.3382 31.9401 27.346 31.2129 28.5938 31.2129C29.8415 31.2129 30.8357 31.9401 31.3555 33.0744L32.0569 34.5171C33.1113 36.6859 35.3112 38.0625 37.7228 38.0625H44.6391C49.2782 38.0625 53.0391 34.3017 53.0391 29.6625V27.4258C53.0391 22.3516 48.9257 18.2383 43.8516 18.2383H13.3906Z" fill="url(#paint34_radial_7747_10010)"/>
<path d="M46.5361 21.5826C47.1905 20.9282 48.2514 20.9282 48.9058 21.5826C49.5602 22.237 49.5602 23.298 48.9058 23.9524L37.4465 35.4117C36.7921 36.0661 35.7311 36.0661 35.0767 35.4117C34.4223 34.7573 34.4223 33.6963 35.0767 33.0419L46.5361 21.5826Z" fill="url(#paint35_linear_7747_10010)"/>
<path d="M20.5439 21.5826C21.1983 20.9282 22.2593 20.9282 22.9136 21.5826C23.568 22.237 23.568 23.298 22.9136 23.9524L11.4543 35.4117C10.7999 36.0661 9.73894 36.0661 9.08455 35.4117C8.43015 34.7573 8.43015 33.6963 9.08455 33.0419L20.5439 21.5826Z" fill="url(#paint36_linear_7747_10010)"/>
<path d="M8.62311 10.6721C8.51561 11.0896 8.15058 11.401 7.7191 11.6167C6.4959 12.04 5.52972 12.4471 4.73025 12.8423C4.0225 13.1922 4.02933 14.2978 4.73938 14.643C5.56901 15.0463 6.61063 15.4332 7.76746 15.8917C8.0785 16.015 8.51807 16.3634 8.62749 16.7916C8.96469 18.1111 9.42344 19.508 9.9286 20.7976C10.3208 21.7986 11.2902 21.7979 11.6843 20.7976C12.1958 19.4991 12.5845 18.0965 13.0231 16.7619C13.1281 16.3499 13.4388 16.0241 13.8396 15.8821C14.9228 15.4984 15.9669 15.0654 16.818 14.6905C17.6128 14.3405 17.6292 13.204 16.8443 12.8321C16.0062 12.4351 14.9637 11.9753 13.8344 11.565C13.4369 11.4205 13.1312 11.1158 12.9899 10.6831C12.5139 9.22526 12.2123 7.98927 11.7066 6.70571C11.3125 5.70541 10.278 5.7362 9.88397 6.7365C9.38016 8.01532 9.02843 9.28821 8.62311 10.6721Z" fill="url(#paint37_linear_7747_10010)"/>
<path d="M8.62311 10.6721C8.51561 11.0896 8.15058 11.401 7.7191 11.6167C6.4959 12.04 5.52972 12.4471 4.73025 12.8423C4.0225 13.1922 4.02933 14.2978 4.73938 14.643C5.56901 15.0463 6.61063 15.4332 7.76746 15.8917C8.0785 16.015 8.51807 16.3634 8.62749 16.7916C8.96469 18.1111 9.42344 19.508 9.9286 20.7976C10.3208 21.7986 11.2902 21.7979 11.6843 20.7976C12.1958 19.4991 12.5845 18.0965 13.0231 16.7619C13.1281 16.3499 13.4388 16.0241 13.8396 15.8821C14.9228 15.4984 15.9669 15.0654 16.818 14.6905C17.6128 14.3405 17.6292 13.204 16.8443 12.8321C16.0062 12.4351 14.9637 11.9753 13.8344 11.565C13.4369 11.4205 13.1312 11.1158 12.9899 10.6831C12.5139 9.22526 12.2123 7.98927 11.7066 6.70571C11.3125 5.70541 10.278 5.7362 9.88397 6.7365C9.38016 8.01532 9.02843 9.28821 8.62311 10.6721Z" fill="url(#paint38_linear_7747_10010)"/>
<path d="M8.62311 10.6721C8.51561 11.0896 8.15058 11.401 7.7191 11.6167C6.4959 12.04 5.52972 12.4471 4.73025 12.8423C4.0225 13.1922 4.02933 14.2978 4.73938 14.643C5.56901 15.0463 6.61063 15.4332 7.76746 15.8917C8.0785 16.015 8.51807 16.3634 8.62749 16.7916C8.96469 18.1111 9.42344 19.508 9.9286 20.7976C10.3208 21.7986 11.2902 21.7979 11.6843 20.7976C12.1958 19.4991 12.5845 18.0965 13.0231 16.7619C13.1281 16.3499 13.4388 16.0241 13.8396 15.8821C14.9228 15.4984 15.9669 15.0654 16.818 14.6905C17.6128 14.3405 17.6292 13.204 16.8443 12.8321C16.0062 12.4351 14.9637 11.9753 13.8344 11.565C13.4369 11.4205 13.1312 11.1158 12.9899 10.6831C12.5139 9.22526 12.2123 7.98927 11.7066 6.70571C11.3125 5.70541 10.278 5.7362 9.88397 6.7365C9.38016 8.01532 9.02843 9.28821 8.62311 10.6721Z" fill="url(#paint39_radial_7747_10010)"/>
<path d="M8.62311 10.6721C8.51561 11.0896 8.15058 11.401 7.7191 11.6167C6.4959 12.04 5.52972 12.4471 4.73025 12.8423C4.0225 13.1922 4.02933 14.2978 4.73938 14.643C5.56901 15.0463 6.61063 15.4332 7.76746 15.8917C8.0785 16.015 8.51807 16.3634 8.62749 16.7916C8.96469 18.1111 9.42344 19.508 9.9286 20.7976C10.3208 21.7986 11.2902 21.7979 11.6843 20.7976C12.1958 19.4991 12.5845 18.0965 13.0231 16.7619C13.1281 16.3499 13.4388 16.0241 13.8396 15.8821C14.9228 15.4984 15.9669 15.0654 16.818 14.6905C17.6128 14.3405 17.6292 13.204 16.8443 12.8321C16.0062 12.4351 14.9637 11.9753 13.8344 11.565C13.4369 11.4205 13.1312 11.1158 12.9899 10.6831C12.5139 9.22526 12.2123 7.98927 11.7066 6.70571C11.3125 5.70541 10.278 5.7362 9.88397 6.7365C9.38016 8.01532 9.02843 9.28821 8.62311 10.6721Z" fill="url(#paint40_radial_7747_10010)"/>
<path d="M8.62311 10.6721C8.51561 11.0896 8.15058 11.401 7.7191 11.6167C6.4959 12.04 5.52972 12.4471 4.73025 12.8423C4.0225 13.1922 4.02933 14.2978 4.73938 14.643C5.56901 15.0463 6.61063 15.4332 7.76746 15.8917C8.0785 16.015 8.51807 16.3634 8.62749 16.7916C8.96469 18.1111 9.42344 19.508 9.9286 20.7976C10.3208 21.7986 11.2902 21.7979 11.6843 20.7976C12.1958 19.4991 12.5845 18.0965 13.0231 16.7619C13.1281 16.3499 13.4388 16.0241 13.8396 15.8821C14.9228 15.4984 15.9669 15.0654 16.818 14.6905C17.6128 14.3405 17.6292 13.204 16.8443 12.8321C16.0062 12.4351 14.9637 11.9753 13.8344 11.565C13.4369 11.4205 13.1312 11.1158 12.9899 10.6831C12.5139 9.22526 12.2123 7.98927 11.7066 6.70571C11.3125 5.70541 10.278 5.7362 9.88397 6.7365C9.38016 8.01532 9.02843 9.28821 8.62311 10.6721Z" fill="url(#paint41_radial_7747_10010)"/>
<path d="M8.62311 10.6721C8.51561 11.0896 8.15058 11.401 7.7191 11.6167C6.4959 12.04 5.52972 12.4471 4.73025 12.8423C4.0225 13.1922 4.02933 14.2978 4.73938 14.643C5.56901 15.0463 6.61063 15.4332 7.76746 15.8917C8.0785 16.015 8.51807 16.3634 8.62749 16.7916C8.96469 18.1111 9.42344 19.508 9.9286 20.7976C10.3208 21.7986 11.2902 21.7979 11.6843 20.7976C12.1958 19.4991 12.5845 18.0965 13.0231 16.7619C13.1281 16.3499 13.4388 16.0241 13.8396 15.8821C14.9228 15.4984 15.9669 15.0654 16.818 14.6905C17.6128 14.3405 17.6292 13.204 16.8443 12.8321C16.0062 12.4351 14.9637 11.9753 13.8344 11.565C13.4369 11.4205 13.1312 11.1158 12.9899 10.6831C12.5139 9.22526 12.2123 7.98927 11.7066 6.70571C11.3125 5.70541 10.278 5.7362 9.88397 6.7365C9.38016 8.01532 9.02843 9.28821 8.62311 10.6721Z" fill="url(#paint42_radial_7747_10010)"/>
<path d="M8.62311 10.6721C8.51561 11.0896 8.15058 11.401 7.7191 11.6167C6.4959 12.04 5.52972 12.4471 4.73025 12.8423C4.0225 13.1922 4.02933 14.2978 4.73938 14.643C5.56901 15.0463 6.61063 15.4332 7.76746 15.8917C8.0785 16.015 8.51807 16.3634 8.62749 16.7916C8.96469 18.1111 9.42344 19.508 9.9286 20.7976C10.3208 21.7986 11.2902 21.7979 11.6843 20.7976C12.1958 19.4991 12.5845 18.0965 13.0231 16.7619C13.1281 16.3499 13.4388 16.0241 13.8396 15.8821C14.9228 15.4984 15.9669 15.0654 16.818 14.6905C17.6128 14.3405 17.6292 13.204 16.8443 12.8321C16.0062 12.4351 14.9637 11.9753 13.8344 11.565C13.4369 11.4205 13.1312 11.1158 12.9899 10.6831C12.5139 9.22526 12.2123 7.98927 11.7066 6.70571C11.3125 5.70541 10.278 5.7362 9.88397 6.7365C9.38016 8.01532 9.02843 9.28821 8.62311 10.6721Z" fill="url(#paint43_radial_7747_10010)"/>
<path d="M8.62311 10.6721C8.51561 11.0896 8.15058 11.401 7.7191 11.6167C6.4959 12.04 5.52972 12.4471 4.73025 12.8423C4.0225 13.1922 4.02933 14.2978 4.73938 14.643C5.56901 15.0463 6.61063 15.4332 7.76746 15.8917C8.0785 16.015 8.51807 16.3634 8.62749 16.7916C8.96469 18.1111 9.42344 19.508 9.9286 20.7976C10.3208 21.7986 11.2902 21.7979 11.6843 20.7976C12.1958 19.4991 12.5845 18.0965 13.0231 16.7619C13.1281 16.3499 13.4388 16.0241 13.8396 15.8821C14.9228 15.4984 15.9669 15.0654 16.818 14.6905C17.6128 14.3405 17.6292 13.204 16.8443 12.8321C16.0062 12.4351 14.9637 11.9753 13.8344 11.565C13.4369 11.4205 13.1312 11.1158 12.9899 10.6831C12.5139 9.22526 12.2123 7.98927 11.7066 6.70571C11.3125 5.70541 10.278 5.7362 9.88397 6.7365C9.38016 8.01532 9.02843 9.28821 8.62311 10.6721Z" fill="url(#paint44_radial_7747_10010)"/>
<path d="M8.62311 10.6721C8.51561 11.0896 8.15058 11.401 7.7191 11.6167C6.4959 12.04 5.52972 12.4471 4.73025 12.8423C4.0225 13.1922 4.02933 14.2978 4.73938 14.643C5.56901 15.0463 6.61063 15.4332 7.76746 15.8917C8.0785 16.015 8.51807 16.3634 8.62749 16.7916C8.96469 18.1111 9.42344 19.508 9.9286 20.7976C10.3208 21.7986 11.2902 21.7979 11.6843 20.7976C12.1958 19.4991 12.5845 18.0965 13.0231 16.7619C13.1281 16.3499 13.4388 16.0241 13.8396 15.8821C14.9228 15.4984 15.9669 15.0654 16.818 14.6905C17.6128 14.3405 17.6292 13.204 16.8443 12.8321C16.0062 12.4351 14.9637 11.9753 13.8344 11.565C13.4369 11.4205 13.1312 11.1158 12.9899 10.6831C12.5139 9.22526 12.2123 7.98927 11.7066 6.70571C11.3125 5.70541 10.278 5.7362 9.88397 6.7365C9.38016 8.01532 9.02843 9.28821 8.62311 10.6721Z" fill="url(#paint45_radial_7747_10010)"/>
<path d="M8.62311 10.6721C8.51561 11.0896 8.15058 11.401 7.7191 11.6167C6.4959 12.04 5.52972 12.4471 4.73025 12.8423C4.0225 13.1922 4.02933 14.2978 4.73938 14.643C5.56901 15.0463 6.61063 15.4332 7.76746 15.8917C8.0785 16.015 8.51807 16.3634 8.62749 16.7916C8.96469 18.1111 9.42344 19.508 9.9286 20.7976C10.3208 21.7986 11.2902 21.7979 11.6843 20.7976C12.1958 19.4991 12.5845 18.0965 13.0231 16.7619C13.1281 16.3499 13.4388 16.0241 13.8396 15.8821C14.9228 15.4984 15.9669 15.0654 16.818 14.6905C17.6128 14.3405 17.6292 13.204 16.8443 12.8321C16.0062 12.4351 14.9637 11.9753 13.8344 11.565C13.4369 11.4205 13.1312 11.1158 12.9899 10.6831C12.5139 9.22526 12.2123 7.98927 11.7066 6.70571C11.3125 5.70541 10.278 5.7362 9.88397 6.7365C9.38016 8.01532 9.02843 9.28821 8.62311 10.6721Z" fill="url(#paint46_radial_7747_10010)"/>
<path d="M8.62311 10.6721C8.51561 11.0896 8.15058 11.401 7.7191 11.6167C6.4959 12.04 5.52972 12.4471 4.73025 12.8423C4.0225 13.1922 4.02933 14.2978 4.73938 14.643C5.56901 15.0463 6.61063 15.4332 7.76746 15.8917C8.0785 16.015 8.51807 16.3634 8.62749 16.7916C8.96469 18.1111 9.42344 19.508 9.9286 20.7976C10.3208 21.7986 11.2902 21.7979 11.6843 20.7976C12.1958 19.4991 12.5845 18.0965 13.0231 16.7619C13.1281 16.3499 13.4388 16.0241 13.8396 15.8821C14.9228 15.4984 15.9669 15.0654 16.818 14.6905C17.6128 14.3405 17.6292 13.204 16.8443 12.8321C16.0062 12.4351 14.9637 11.9753 13.8344 11.565C13.4369 11.4205 13.1312 11.1158 12.9899 10.6831C12.5139 9.22526 12.2123 7.98927 11.7066 6.70571C11.3125 5.70541 10.278 5.7362 9.88397 6.7365C9.38016 8.01532 9.02843 9.28821 8.62311 10.6721Z" fill="url(#paint47_radial_7747_10010)"/>
<path d="M8.62311 10.6721C8.51561 11.0896 8.15058 11.401 7.7191 11.6167C6.4959 12.04 5.52972 12.4471 4.73025 12.8423C4.0225 13.1922 4.02933 14.2978 4.73938 14.643C5.56901 15.0463 6.61063 15.4332 7.76746 15.8917C8.0785 16.015 8.51807 16.3634 8.62749 16.7916C8.96469 18.1111 9.42344 19.508 9.9286 20.7976C10.3208 21.7986 11.2902 21.7979 11.6843 20.7976C12.1958 19.4991 12.5845 18.0965 13.0231 16.7619C13.1281 16.3499 13.4388 16.0241 13.8396 15.8821C14.9228 15.4984 15.9669 15.0654 16.818 14.6905C17.6128 14.3405 17.6292 13.204 16.8443 12.8321C16.0062 12.4351 14.9637 11.9753 13.8344 11.565C13.4369 11.4205 13.1312 11.1158 12.9899 10.6831C12.5139 9.22526 12.2123 7.98927 11.7066 6.70571C11.3125 5.70541 10.278 5.7362 9.88397 6.7365C9.38016 8.01532 9.02843 9.28821 8.62311 10.6721Z" fill="url(#paint48_radial_7747_10010)"/>
<path d="M8.62311 10.6721C8.51561 11.0896 8.15058 11.401 7.7191 11.6167C6.4959 12.04 5.52972 12.4471 4.73025 12.8423C4.0225 13.1922 4.02933 14.2978 4.73938 14.643C5.56901 15.0463 6.61063 15.4332 7.76746 15.8917C8.0785 16.015 8.51807 16.3634 8.62749 16.7916C8.96469 18.1111 9.42344 19.508 9.9286 20.7976C10.3208 21.7986 11.2902 21.7979 11.6843 20.7976C12.1958 19.4991 12.5845 18.0965 13.0231 16.7619C13.1281 16.3499 13.4388 16.0241 13.8396 15.8821C14.9228 15.4984 15.9669 15.0654 16.818 14.6905C17.6128 14.3405 17.6292 13.204 16.8443 12.8321C16.0062 12.4351 14.9637 11.9753 13.8344 11.565C13.4369 11.4205 13.1312 11.1158 12.9899 10.6831C12.5139 9.22526 12.2123 7.98927 11.7066 6.70571C11.3125 5.70541 10.278 5.7362 9.88397 6.7365C9.38016 8.01532 9.02843 9.28821 8.62311 10.6721Z" fill="url(#paint49_radial_7747_10010)"/>
<path d="M8.62311 10.6721C8.51561 11.0896 8.15058 11.401 7.7191 11.6167C6.4959 12.04 5.52972 12.4471 4.73025 12.8423C4.0225 13.1922 4.02933 14.2978 4.73938 14.643C5.56901 15.0463 6.61063 15.4332 7.76746 15.8917C8.0785 16.015 8.51807 16.3634 8.62749 16.7916C8.96469 18.1111 9.42344 19.508 9.9286 20.7976C10.3208 21.7986 11.2902 21.7979 11.6843 20.7976C12.1958 19.4991 12.5845 18.0965 13.0231 16.7619C13.1281 16.3499 13.4388 16.0241 13.8396 15.8821C14.9228 15.4984 15.9669 15.0654 16.818 14.6905C17.6128 14.3405 17.6292 13.204 16.8443 12.8321C16.0062 12.4351 14.9637 11.9753 13.8344 11.565C13.4369 11.4205 13.1312 11.1158 12.9899 10.6831C12.5139 9.22526 12.2123 7.98927 11.7066 6.70571C11.3125 5.70541 10.278 5.7362 9.88397 6.7365C9.38016 8.01532 9.02843 9.28821 8.62311 10.6721Z" fill="url(#paint50_radial_7747_10010)"/>
<path d="M22.7223 8.79152C22.6578 9.04202 22.4388 9.22888 22.1799 9.35833C21.446 9.61226 20.8663 9.85654 20.3866 10.0937C19.9619 10.3036 19.966 10.967 20.3921 11.1741C20.8898 11.4161 21.5148 11.6482 22.2089 11.9233C22.3955 11.9973 22.6593 12.2063 22.7249 12.4632C22.9272 13.255 23.2025 14.0931 23.5056 14.8668C23.7409 15.4675 24.3226 15.467 24.559 14.8668C24.8659 14.0877 25.0991 13.2462 25.3623 12.4455C25.4253 12.1982 25.6117 12.0027 25.8522 11.9176C26.5021 11.6873 27.1286 11.4275 27.6392 11.2026C28.1161 10.9926 28.1259 10.3107 27.655 10.0876C27.1522 9.84933 26.5267 9.57346 25.8491 9.32726C25.6106 9.2406 25.4271 9.05773 25.3424 8.79814C25.0568 7.92343 24.8758 7.18184 24.5724 6.41171C24.336 5.81153 23.7153 5.83 23.4788 6.43018C23.1765 7.19747 22.9655 7.96121 22.7223 8.79152Z" fill="url(#paint51_linear_7747_10010)"/>
<path d="M22.7223 8.79152C22.6578 9.04202 22.4388 9.22888 22.1799 9.35833C21.446 9.61226 20.8663 9.85654 20.3866 10.0937C19.9619 10.3036 19.966 10.967 20.3921 11.1741C20.8898 11.4161 21.5148 11.6482 22.2089 11.9233C22.3955 11.9973 22.6593 12.2063 22.7249 12.4632C22.9272 13.255 23.2025 14.0931 23.5056 14.8668C23.7409 15.4675 24.3226 15.467 24.559 14.8668C24.8659 14.0877 25.0991 13.2462 25.3623 12.4455C25.4253 12.1982 25.6117 12.0027 25.8522 11.9176C26.5021 11.6873 27.1286 11.4275 27.6392 11.2026C28.1161 10.9926 28.1259 10.3107 27.655 10.0876C27.1522 9.84933 26.5267 9.57346 25.8491 9.32726C25.6106 9.2406 25.4271 9.05773 25.3424 8.79814C25.0568 7.92343 24.8758 7.18184 24.5724 6.41171C24.336 5.81153 23.7153 5.83 23.4788 6.43018C23.1765 7.19747 22.9655 7.96121 22.7223 8.79152Z" fill="url(#paint52_linear_7747_10010)"/>
<path d="M22.7223 8.79152C22.6578 9.04202 22.4388 9.22888 22.1799 9.35833C21.446 9.61226 20.8663 9.85654 20.3866 10.0937C19.9619 10.3036 19.966 10.967 20.3921 11.1741C20.8898 11.4161 21.5148 11.6482 22.2089 11.9233C22.3955 11.9973 22.6593 12.2063 22.7249 12.4632C22.9272 13.255 23.2025 14.0931 23.5056 14.8668C23.7409 15.4675 24.3226 15.467 24.559 14.8668C24.8659 14.0877 25.0991 13.2462 25.3623 12.4455C25.4253 12.1982 25.6117 12.0027 25.8522 11.9176C26.5021 11.6873 27.1286 11.4275 27.6392 11.2026C28.1161 10.9926 28.1259 10.3107 27.655 10.0876C27.1522 9.84933 26.5267 9.57346 25.8491 9.32726C25.6106 9.2406 25.4271 9.05773 25.3424 8.79814C25.0568 7.92343 24.8758 7.18184 24.5724 6.41171C24.336 5.81153 23.7153 5.83 23.4788 6.43018C23.1765 7.19747 22.9655 7.96121 22.7223 8.79152Z" fill="url(#paint53_radial_7747_10010)"/>
<path d="M22.7223 8.79152C22.6578 9.04202 22.4388 9.22888 22.1799 9.35833C21.446 9.61226 20.8663 9.85654 20.3866 10.0937C19.9619 10.3036 19.966 10.967 20.3921 11.1741C20.8898 11.4161 21.5148 11.6482 22.2089 11.9233C22.3955 11.9973 22.6593 12.2063 22.7249 12.4632C22.9272 13.255 23.2025 14.0931 23.5056 14.8668C23.7409 15.4675 24.3226 15.467 24.559 14.8668C24.8659 14.0877 25.0991 13.2462 25.3623 12.4455C25.4253 12.1982 25.6117 12.0027 25.8522 11.9176C26.5021 11.6873 27.1286 11.4275 27.6392 11.2026C28.1161 10.9926 28.1259 10.3107 27.655 10.0876C27.1522 9.84933 26.5267 9.57346 25.8491 9.32726C25.6106 9.2406 25.4271 9.05773 25.3424 8.79814C25.0568 7.92343 24.8758 7.18184 24.5724 6.41171C24.336 5.81153 23.7153 5.83 23.4788 6.43018C23.1765 7.19747 22.9655 7.96121 22.7223 8.79152Z" fill="url(#paint54_radial_7747_10010)"/>
<path d="M22.7223 8.79152C22.6578 9.04202 22.4388 9.22888 22.1799 9.35833C21.446 9.61226 20.8663 9.85654 20.3866 10.0937C19.9619 10.3036 19.966 10.967 20.3921 11.1741C20.8898 11.4161 21.5148 11.6482 22.2089 11.9233C22.3955 11.9973 22.6593 12.2063 22.7249 12.4632C22.9272 13.255 23.2025 14.0931 23.5056 14.8668C23.7409 15.4675 24.3226 15.467 24.559 14.8668C24.8659 14.0877 25.0991 13.2462 25.3623 12.4455C25.4253 12.1982 25.6117 12.0027 25.8522 11.9176C26.5021 11.6873 27.1286 11.4275 27.6392 11.2026C28.1161 10.9926 28.1259 10.3107 27.655 10.0876C27.1522 9.84933 26.5267 9.57346 25.8491 9.32726C25.6106 9.2406 25.4271 9.05773 25.3424 8.79814C25.0568 7.92343 24.8758 7.18184 24.5724 6.41171C24.336 5.81153 23.7153 5.83 23.4788 6.43018C23.1765 7.19747 22.9655 7.96121 22.7223 8.79152Z" fill="url(#paint55_radial_7747_10010)"/>
<path d="M22.7223 8.79152C22.6578 9.04202 22.4388 9.22888 22.1799 9.35833C21.446 9.61226 20.8663 9.85654 20.3866 10.0937C19.9619 10.3036 19.966 10.967 20.3921 11.1741C20.8898 11.4161 21.5148 11.6482 22.2089 11.9233C22.3955 11.9973 22.6593 12.2063 22.7249 12.4632C22.9272 13.255 23.2025 14.0931 23.5056 14.8668C23.7409 15.4675 24.3226 15.467 24.559 14.8668C24.8659 14.0877 25.0991 13.2462 25.3623 12.4455C25.4253 12.1982 25.6117 12.0027 25.8522 11.9176C26.5021 11.6873 27.1286 11.4275 27.6392 11.2026C28.1161 10.9926 28.1259 10.3107 27.655 10.0876C27.1522 9.84933 26.5267 9.57346 25.8491 9.32726C25.6106 9.2406 25.4271 9.05773 25.3424 8.79814C25.0568 7.92343 24.8758 7.18184 24.5724 6.41171C24.336 5.81153 23.7153 5.83 23.4788 6.43018C23.1765 7.19747 22.9655 7.96121 22.7223 8.79152Z" fill="url(#paint56_radial_7747_10010)"/>
<path d="M22.7223 8.79152C22.6578 9.04202 22.4388 9.22888 22.1799 9.35833C21.446 9.61226 20.8663 9.85654 20.3866 10.0937C19.9619 10.3036 19.966 10.967 20.3921 11.1741C20.8898 11.4161 21.5148 11.6482 22.2089 11.9233C22.3955 11.9973 22.6593 12.2063 22.7249 12.4632C22.9272 13.255 23.2025 14.0931 23.5056 14.8668C23.7409 15.4675 24.3226 15.467 24.559 14.8668C24.8659 14.0877 25.0991 13.2462 25.3623 12.4455C25.4253 12.1982 25.6117 12.0027 25.8522 11.9176C26.5021 11.6873 27.1286 11.4275 27.6392 11.2026C28.1161 10.9926 28.1259 10.3107 27.655 10.0876C27.1522 9.84933 26.5267 9.57346 25.8491 9.32726C25.6106 9.2406 25.4271 9.05773 25.3424 8.79814C25.0568 7.92343 24.8758 7.18184 24.5724 6.41171C24.336 5.81153 23.7153 5.83 23.4788 6.43018C23.1765 7.19747 22.9655 7.96121 22.7223 8.79152Z" fill="url(#paint57_radial_7747_10010)"/>
<path d="M22.7223 8.79152C22.6578 9.04202 22.4388 9.22888 22.1799 9.35833C21.446 9.61226 20.8663 9.85654 20.3866 10.0937C19.9619 10.3036 19.966 10.967 20.3921 11.1741C20.8898 11.4161 21.5148 11.6482 22.2089 11.9233C22.3955 11.9973 22.6593 12.2063 22.7249 12.4632C22.9272 13.255 23.2025 14.0931 23.5056 14.8668C23.7409 15.4675 24.3226 15.467 24.559 14.8668C24.8659 14.0877 25.0991 13.2462 25.3623 12.4455C25.4253 12.1982 25.6117 12.0027 25.8522 11.9176C26.5021 11.6873 27.1286 11.4275 27.6392 11.2026C28.1161 10.9926 28.1259 10.3107 27.655 10.0876C27.1522 9.84933 26.5267 9.57346 25.8491 9.32726C25.6106 9.2406 25.4271 9.05773 25.3424 8.79814C25.0568 7.92343 24.8758 7.18184 24.5724 6.41171C24.336 5.81153 23.7153 5.83 23.4788 6.43018C23.1765 7.19747 22.9655 7.96121 22.7223 8.79152Z" fill="url(#paint58_radial_7747_10010)"/>
<path d="M22.7223 8.79152C22.6578 9.04202 22.4388 9.22888 22.1799 9.35833C21.446 9.61226 20.8663 9.85654 20.3866 10.0937C19.9619 10.3036 19.966 10.967 20.3921 11.1741C20.8898 11.4161 21.5148 11.6482 22.2089 11.9233C22.3955 11.9973 22.6593 12.2063 22.7249 12.4632C22.9272 13.255 23.2025 14.0931 23.5056 14.8668C23.7409 15.4675 24.3226 15.467 24.559 14.8668C24.8659 14.0877 25.0991 13.2462 25.3623 12.4455C25.4253 12.1982 25.6117 12.0027 25.8522 11.9176C26.5021 11.6873 27.1286 11.4275 27.6392 11.2026C28.1161 10.9926 28.1259 10.3107 27.655 10.0876C27.1522 9.84933 26.5267 9.57346 25.8491 9.32726C25.6106 9.2406 25.4271 9.05773 25.3424 8.79814C25.0568 7.92343 24.8758 7.18184 24.5724 6.41171C24.336 5.81153 23.7153 5.83 23.4788 6.43018C23.1765 7.19747 22.9655 7.96121 22.7223 8.79152Z" fill="url(#paint59_radial_7747_10010)"/>
<path d="M22.7223 8.79152C22.6578 9.04202 22.4388 9.22888 22.1799 9.35833C21.446 9.61226 20.8663 9.85654 20.3866 10.0937C19.9619 10.3036 19.966 10.967 20.3921 11.1741C20.8898 11.4161 21.5148 11.6482 22.2089 11.9233C22.3955 11.9973 22.6593 12.2063 22.7249 12.4632C22.9272 13.255 23.2025 14.0931 23.5056 14.8668C23.7409 15.4675 24.3226 15.467 24.559 14.8668C24.8659 14.0877 25.0991 13.2462 25.3623 12.4455C25.4253 12.1982 25.6117 12.0027 25.8522 11.9176C26.5021 11.6873 27.1286 11.4275 27.6392 11.2026C28.1161 10.9926 28.1259 10.3107 27.655 10.0876C27.1522 9.84933 26.5267 9.57346 25.8491 9.32726C25.6106 9.2406 25.4271 9.05773 25.3424 8.79814C25.0568 7.92343 24.8758 7.18184 24.5724 6.41171C24.336 5.81153 23.7153 5.83 23.4788 6.43018C23.1765 7.19747 22.9655 7.96121 22.7223 8.79152Z" fill="url(#paint60_radial_7747_10010)"/>
<path d="M22.7223 8.79152C22.6578 9.04202 22.4388 9.22888 22.1799 9.35833C21.446 9.61226 20.8663 9.85654 20.3866 10.0937C19.9619 10.3036 19.966 10.967 20.3921 11.1741C20.8898 11.4161 21.5148 11.6482 22.2089 11.9233C22.3955 11.9973 22.6593 12.2063 22.7249 12.4632C22.9272 13.255 23.2025 14.0931 23.5056 14.8668C23.7409 15.4675 24.3226 15.467 24.559 14.8668C24.8659 14.0877 25.0991 13.2462 25.3623 12.4455C25.4253 12.1982 25.6117 12.0027 25.8522 11.9176C26.5021 11.6873 27.1286 11.4275 27.6392 11.2026C28.1161 10.9926 28.1259 10.3107 27.655 10.0876C27.1522 9.84933 26.5267 9.57346 25.8491 9.32726C25.6106 9.2406 25.4271 9.05773 25.3424 8.79814C25.0568 7.92343 24.8758 7.18184 24.5724 6.41171C24.336 5.81153 23.7153 5.83 23.4788 6.43018C23.1765 7.19747 22.9655 7.96121 22.7223 8.79152Z" fill="url(#paint61_radial_7747_10010)"/>
<path d="M22.7223 8.79152C22.6578 9.04202 22.4388 9.22888 22.1799 9.35833C21.446 9.61226 20.8663 9.85654 20.3866 10.0937C19.9619 10.3036 19.966 10.967 20.3921 11.1741C20.8898 11.4161 21.5148 11.6482 22.2089 11.9233C22.3955 11.9973 22.6593 12.2063 22.7249 12.4632C22.9272 13.255 23.2025 14.0931 23.5056 14.8668C23.7409 15.4675 24.3226 15.467 24.559 14.8668C24.8659 14.0877 25.0991 13.2462 25.3623 12.4455C25.4253 12.1982 25.6117 12.0027 25.8522 11.9176C26.5021 11.6873 27.1286 11.4275 27.6392 11.2026C28.1161 10.9926 28.1259 10.3107 27.655 10.0876C27.1522 9.84933 26.5267 9.57346 25.8491 9.32726C25.6106 9.2406 25.4271 9.05773 25.3424 8.79814C25.0568 7.92343 24.8758 7.18184 24.5724 6.41171C24.336 5.81153 23.7153 5.83 23.4788 6.43018C23.1765 7.19747 22.9655 7.96121 22.7223 8.79152Z" fill="url(#paint62_radial_7747_10010)"/>
<path d="M22.7223 8.79152C22.6578 9.04202 22.4388 9.22888 22.1799 9.35833C21.446 9.61226 20.8663 9.85654 20.3866 10.0937C19.9619 10.3036 19.966 10.967 20.3921 11.1741C20.8898 11.4161 21.5148 11.6482 22.2089 11.9233C22.3955 11.9973 22.6593 12.2063 22.7249 12.4632C22.9272 13.255 23.2025 14.0931 23.5056 14.8668C23.7409 15.4675 24.3226 15.467 24.559 14.8668C24.8659 14.0877 25.0991 13.2462 25.3623 12.4455C25.4253 12.1982 25.6117 12.0027 25.8522 11.9176C26.5021 11.6873 27.1286 11.4275 27.6392 11.2026C28.1161 10.9926 28.1259 10.3107 27.655 10.0876C27.1522 9.84933 26.5267 9.57346 25.8491 9.32726C25.6106 9.2406 25.4271 9.05773 25.3424 8.79814C25.0568 7.92343 24.8758 7.18184 24.5724 6.41171C24.336 5.81153 23.7153 5.83 23.4788 6.43018C23.1765 7.19747 22.9655 7.96121 22.7223 8.79152Z" fill="url(#paint63_radial_7747_10010)"/>
<path d="M22.7223 8.79152C22.6578 9.04202 22.4388 9.22888 22.1799 9.35833C21.446 9.61226 20.8663 9.85654 20.3866 10.0937C19.9619 10.3036 19.966 10.967 20.3921 11.1741C20.8898 11.4161 21.5148 11.6482 22.2089 11.9233C22.3955 11.9973 22.6593 12.2063 22.7249 12.4632C22.9272 13.255 23.2025 14.0931 23.5056 14.8668C23.7409 15.4675 24.3226 15.467 24.559 14.8668C24.8659 14.0877 25.0991 13.2462 25.3623 12.4455C25.4253 12.1982 25.6117 12.0027 25.8522 11.9176C26.5021 11.6873 27.1286 11.4275 27.6392 11.2026C28.1161 10.9926 28.1259 10.3107 27.655 10.0876C27.1522 9.84933 26.5267 9.57346 25.8491 9.32726C25.6106 9.2406 25.4271 9.05773 25.3424 8.79814C25.0568 7.92343 24.8758 7.18184 24.5724 6.41171C24.336 5.81153 23.7153 5.83 23.4788 6.43018C23.1765 7.19747 22.9655 7.96121 22.7223 8.79152Z" fill="url(#paint64_radial_7747_10010)"/>
<defs>
<linearGradient id="paint0_linear_7747_10010" x1="28.6211" y1="14" x2="28.6211" y2="42.0547" gradientUnits="userSpaceOnUse">
<stop stop-color="#48C1FF"/>
<stop offset="1" stop-color="#3CA0F8"/>
</linearGradient>
<radialGradient id="paint1_radial_7747_10010" cx="0" cy="0" r="1" gradientUnits="userSpaceOnUse" gradientTransform="translate(6.28125 23.4063) rotate(-54.8148) scale(9.3009 16.1904)">
<stop stop-color="#3B95D7"/>
<stop offset="1" stop-color="#3B95D7" stop-opacity="0"/>
</radialGradient>
<linearGradient id="paint2_linear_7747_10010" x1="28.6211" y1="43.9587" x2="28.6211" y2="16.9014" gradientUnits="userSpaceOnUse">
<stop offset="0.0807694" stop-color="#4273D8"/>
<stop offset="0.177538" stop-color="#48BFFF" stop-opacity="0"/>
</linearGradient>
<linearGradient id="paint3_linear_7747_10010" x1="54.48" y1="28.0273" x2="37.8648" y2="28.0273" gradientUnits="userSpaceOnUse">
<stop offset="0.0683751" stop-color="#4273D8"/>
<stop offset="0.207364" stop-color="#48BFFF" stop-opacity="0"/>
</linearGradient>
<linearGradient id="paint4_linear_7747_10010" x1="5.29537" y1="14" x2="10.7322" y2="19.0462" gradientUnits="userSpaceOnUse">
<stop offset="0.43176" stop-color="#54AAD9"/>
<stop offset="0.839269" stop-color="#48BFFF" stop-opacity="0"/>
</linearGradient>
<linearGradient id="paint5_linear_7747_10010" x1="28.6211" y1="12.2574" x2="28.6211" y2="16.9014" gradientUnits="userSpaceOnUse">
<stop offset="0.43176" stop-color="#54AAD9"/>
<stop offset="0.839269" stop-color="#48BFFF" stop-opacity="0"/>
</linearGradient>
<radialGradient id="paint6_radial_7747_10010" cx="0" cy="0" r="1" gradientUnits="userSpaceOnUse" gradientTransform="translate(49.8233 17.6752) rotate(136.142) scale(2.1113 5.04023)">
<stop stop-color="#6DEDFF" stop-opacity="0.67"/>
<stop offset="0.757865" stop-color="#6DE1FF" stop-opacity="0"/>
</radialGradient>
<radialGradient id="paint7_radial_7747_10010" cx="0" cy="0" r="1" gradientUnits="userSpaceOnUse" gradientTransform="translate(47.6973 16.3004) rotate(120.256) scale(1.49378 3.56605)">
<stop stop-color="#6DEDFF" stop-opacity="0.67"/>
<stop offset="0.757865" stop-color="#6DE1FF" stop-opacity="0"/>
</radialGradient>
<linearGradient id="paint8_linear_7747_10010" x1="50.1742" y1="13.276" x2="46.7005" y2="18.5558" gradientUnits="userSpaceOnUse">
<stop offset="0.396962" stop-color="#54AAD9"/>
<stop offset="0.80454" stop-color="#48BFFF" stop-opacity="0"/>
</linearGradient>
<linearGradient id="paint9_linear_7747_10010" x1="51.7164" y1="41.6265" x2="35.4252" y2="14.994" gradientUnits="userSpaceOnUse">
<stop offset="0.0807694" stop-color="#4273D8"/>
<stop offset="0.144771" stop-color="#4384E2" stop-opacity="0"/>
</linearGradient>
<linearGradient id="paint10_linear_7747_10010" x1="55.0039" y1="35.9171" x2="33.7751" y2="23.9297" gradientUnits="userSpaceOnUse">
<stop offset="0.0807694" stop-color="#4273D8"/>
<stop offset="0.144771" stop-color="#4384E2" stop-opacity="0"/>
</linearGradient>
<radialGradient id="paint11_radial_7747_10010" cx="0" cy="0" r="1" gradientUnits="userSpaceOnUse" gradientTransform="translate(28.6211 40.9152) scale(6.88673 12.4211)">
<stop offset="0.487422" stop-color="#4273D8"/>
<stop offset="0.672011" stop-color="#48BFFF" stop-opacity="0"/>
</radialGradient>
<radialGradient id="paint12_radial_7747_10010" cx="0" cy="0" r="1" gradientUnits="userSpaceOnUse" gradientTransform="translate(28.6211 41.256) rotate(-0.305019) scale(6.55221 7.41945)">
<stop offset="0.631806" stop-color="#4273D8"/>
<stop offset="0.834599" stop-color="#4377DA" stop-opacity="0"/>
</radialGradient>
<radialGradient id="paint13_radial_7747_10010" cx="0" cy="0" r="1" gradientUnits="userSpaceOnUse" gradientTransform="translate(28.6211 41.2348) scale(11.7319 6.82267)">
<stop offset="0.422666" stop-color="#4273D8"/>
<stop offset="0.561732" stop-color="#4377DA" stop-opacity="0"/>
</radialGradient>
<radialGradient id="paint14_radial_7747_10010" cx="0" cy="0" r="1" gradientUnits="userSpaceOnUse" gradientTransform="translate(28.6211 44.1501) scale(14.5407 8.45613)">
<stop offset="0.49841" stop-color="#4273D8"/>
<stop offset="0.734736" stop-color="#4377DA" stop-opacity="0"/>
</radialGradient>
<linearGradient id="paint15_linear_7747_10010" x1="1.30506" y1="29.6209" x2="11.5774" y2="29.6209" gradientUnits="userSpaceOnUse">
<stop offset="0.304903" stop-color="#4995D4"/>
<stop offset="0.74841" stop-color="#4995D4" stop-opacity="0"/>
</linearGradient>
<linearGradient id="paint16_linear_7747_10010" x1="7.14073" y1="45.5949" x2="16.097" y2="22.7162" gradientUnits="userSpaceOnUse">
<stop offset="0.167872" stop-color="#4273D8"/>
<stop offset="0.286137" stop-color="#4273D8" stop-opacity="0"/>
</linearGradient>
<linearGradient id="paint17_linear_7747_10010" x1="0.849155" y1="39.7586" x2="16.097" y2="22.7162" gradientUnits="userSpaceOnUse">
<stop offset="0.167872" stop-color="#4273D8"/>
<stop offset="0.286137" stop-color="#4273D8" stop-opacity="0"/>
</linearGradient>
<linearGradient id="paint18_linear_7747_10010" x1="43.7422" y1="18.5391" x2="33.1875" y2="34.1797" gradientUnits="userSpaceOnUse">
<stop stop-color="#4ED3FF"/>
<stop offset="1" stop-color="#47CAFF"/>
</linearGradient>
<radialGradient id="paint19_radial_7747_10010" cx="0" cy="0" r="1" gradientUnits="userSpaceOnUse" gradientTransform="translate(26.0234 28.1504) scale(27.0156 24.4593)">
<stop offset="0.937247" stop-color="#5DE3FF" stop-opacity="0"/>
<stop offset="1" stop-color="#5DE3FF"/>
</radialGradient>
<radialGradient id="paint20_radial_7747_10010" cx="0" cy="0" r="1" gradientUnits="userSpaceOnUse" gradientTransform="translate(28.6211 37.2573) scale(6.36659 9.03532)">
<stop offset="0.609482" stop-color="#36B4FF"/>
<stop offset="0.804108" stop-color="#36B4FF" stop-opacity="0"/>
</radialGradient>
<radialGradient id="paint21_radial_7747_10010" cx="0" cy="0" r="1" gradientUnits="userSpaceOnUse" gradientTransform="translate(28.6211 37.4981) rotate(-0.659866) scale(7.38188 4.98503)">
<stop offset="0.631806" stop-color="#36B4FF"/>
<stop offset="0.834599" stop-color="#36B4FF" stop-opacity="0"/>
</radialGradient>
<radialGradient id="paint22_radial_7747_10010" cx="0" cy="0" r="1" gradientUnits="userSpaceOnUse" gradientTransform="translate(28.6211 37.4832) rotate(-0.109857) scale(10.0706 6.56382)">
<stop offset="0.420688" stop-color="#36B4FF"/>
<stop offset="0.622225" stop-color="#36B4FF" stop-opacity="0"/>
</radialGradient>
<radialGradient id="paint23_radial_7747_10010" cx="0" cy="0" r="1" gradientUnits="userSpaceOnUse" gradientTransform="translate(28.6211 39.5432) rotate(-0.432197) scale(13.3184 5.47302)">
<stop offset="0.638397" stop-color="#36B4FF"/>
<stop offset="0.734736" stop-color="#36B4FF" stop-opacity="0"/>
</radialGradient>
<linearGradient id="paint24_linear_7747_10010" x1="28.6211" y1="39.408" x2="28.6211" y2="20.2885" gradientUnits="userSpaceOnUse">
<stop offset="0.0807694" stop-color="#38B6FF"/>
<stop offset="0.129096" stop-color="#38B6FF" stop-opacity="0"/>
</linearGradient>
<linearGradient id="paint25_linear_7747_10010" x1="28.6211" y1="16.6805" x2="28.6211" y2="36.3706" gradientUnits="userSpaceOnUse">
<stop offset="0.0661489" stop-color="#38B6FF"/>
<stop offset="0.161572" stop-color="#38B6FF" stop-opacity="0"/>
</linearGradient>
<linearGradient id="paint26_linear_7747_10010" x1="2.47728" y1="36.3706" x2="20.9092" y2="36.3706" gradientUnits="userSpaceOnUse">
<stop offset="0.0661489" stop-color="#31AEF7"/>
<stop offset="0.170986" stop-color="#38B6FF" stop-opacity="0"/>
</linearGradient>
<linearGradient id="paint27_linear_7747_10010" x1="6.48436" y1="37.2881" x2="16.0715" y2="28.1504" gradientUnits="userSpaceOnUse">
<stop offset="0.114658" stop-color="#38B6FF"/>
<stop offset="0.220392" stop-color="#38B6FF" stop-opacity="0"/>
</linearGradient>
<linearGradient id="paint28_linear_7747_10010" x1="6.87067" y1="19.995" x2="16.0715" y2="28.1504" gradientUnits="userSpaceOnUse">
<stop offset="0.0661489" stop-color="#38B6FF"/>
<stop offset="0.164361" stop-color="#38B6FF" stop-opacity="0"/>
</linearGradient>
<linearGradient id="paint29_linear_7747_10010" x1="50.0069" y1="19.0628" x2="42.2541" y2="31.8692" gradientUnits="userSpaceOnUse">
<stop offset="0.0661489" stop-color="#38B6FF"/>
<stop offset="0.164361" stop-color="#38B6FF" stop-opacity="0"/>
</linearGradient>
<linearGradient id="paint30_linear_7747_10010" x1="54.8002" y1="25.7148" x2="42.2541" y2="31.8692" gradientUnits="userSpaceOnUse">
<stop offset="0.0661489" stop-color="#38B6FF"/>
<stop offset="0.164361" stop-color="#38B6FF" stop-opacity="0"/>
</linearGradient>
<linearGradient id="paint31_linear_7747_10010" x1="49.9835" y1="38.0625" x2="42.2541" y2="31.8692" gradientUnits="userSpaceOnUse">
<stop offset="0.0951087" stop-color="#38B6FF"/>
<stop offset="0.164361" stop-color="#38B6FF" stop-opacity="0"/>
</linearGradient>
<linearGradient id="paint32_linear_7747_10010" x1="46.3567" y1="39.2018" x2="42.2541" y2="31.8692" gradientUnits="userSpaceOnUse">
<stop offset="0.0951087" stop-color="#38B6FF"/>
<stop offset="0.226388" stop-color="#38B6FF" stop-opacity="0"/>
</linearGradient>
<radialGradient id="paint33_radial_7747_10010" cx="0" cy="0" r="1" gradientUnits="userSpaceOnUse" gradientTransform="translate(47.6688 22.9864) rotate(131.554) scale(3.27656 3.98771)">
<stop offset="0.794473" stop-color="#4ED3FF"/>
<stop offset="0.910076" stop-color="#4ED3FF" stop-opacity="0"/>
</radialGradient>
<radialGradient id="paint34_radial_7747_10010" cx="0" cy="0" r="1" gradientUnits="userSpaceOnUse" gradientTransform="translate(9.46974 33.2183) rotate(-48.4604) scale(3.55165 4.91763)">
<stop offset="0.641595" stop-color="#48CBFF"/>
<stop offset="0.910076" stop-color="#48CBFF" stop-opacity="0"/>
</radialGradient>
<linearGradient id="paint35_linear_7747_10010" x1="48.826" y1="22.4735" x2="34.9491" y2="35.9025" gradientUnits="userSpaceOnUse">
<stop stop-color="#FBFFFF"/>
<stop offset="1" stop-color="#58C7FF"/>
<stop offset="1" stop-color="#5BC9FF"/>
</linearGradient>
<linearGradient id="paint36_linear_7747_10010" x1="23.0116" y1="21.8173" x2="8.95691" y2="35.9025" gradientUnits="userSpaceOnUse">
<stop stop-color="#FAFFFF"/>
<stop offset="1" stop-color="#58C7FF"/>
</linearGradient>
<linearGradient id="paint37_linear_7747_10010" x1="15.1255" y1="10.7763" x2="8.13814" y2="18.132" gradientUnits="userSpaceOnUse">
<stop stop-color="#FFDA72"/>
<stop offset="1" stop-color="#F7A967"/>
</linearGradient>
<linearGradient id="paint38_linear_7747_10010" x1="10.8134" y1="22.7536" x2="10.8134" y2="14.6686" gradientUnits="userSpaceOnUse">
<stop stop-color="#FDA071"/>
<stop offset="1" stop-color="#FDA071" stop-opacity="0"/>
</linearGradient>
<radialGradient id="paint39_radial_7747_10010" cx="0" cy="0" r="1" gradientUnits="userSpaceOnUse" gradientTransform="translate(15.7376 16.4276) rotate(-113.707) scale(2.23629 5.11533)">
<stop stop-color="#EF7B54"/>
<stop offset="0.746285" stop-color="#EF7B54" stop-opacity="0.131386"/>
<stop offset="1" stop-color="#EF7B54" stop-opacity="0"/>
</radialGradient>
<radialGradient id="paint40_radial_7747_10010" cx="0" cy="0" r="1" gradientUnits="userSpaceOnUse" gradientTransform="translate(8.84738 20.4341) rotate(-24.6417) scale(2.78464 7.96925)">
<stop stop-color="#EF7B54"/>
<stop offset="0.501931" stop-color="#EF7B54" stop-opacity="0.462921"/>
<stop offset="0.802968" stop-color="#EF7B54" stop-opacity="0.131386"/>
<stop offset="1" stop-color="#EF7B54" stop-opacity="0"/>
</radialGradient>
<radialGradient id="paint41_radial_7747_10010" cx="0" cy="0" r="1" gradientUnits="userSpaceOnUse" gradientTransform="translate(4.73762 12.1205) rotate(21.5226) scale(6.89725 10.3823)">
<stop stop-color="#CD9943" stop-opacity="0.71"/>
<stop offset="0.801992" stop-color="#CD9943" stop-opacity="0.127511"/>
<stop offset="1" stop-color="#CD9943" stop-opacity="0"/>
</radialGradient>
<radialGradient id="paint42_radial_7747_10010" cx="0" cy="0" r="1" gradientUnits="userSpaceOnUse" gradientTransform="translate(5.73685 16.002) rotate(-50.3009) scale(4.45262 9.53426)">
<stop stop-color="#CD9943" stop-opacity="0.79"/>
<stop offset="0.767589" stop-color="#CD9943" stop-opacity="0.127511"/>
<stop offset="1" stop-color="#CD9943" stop-opacity="0"/>
</radialGradient>
<radialGradient id="paint43_radial_7747_10010" cx="0" cy="0" r="1" gradientUnits="userSpaceOnUse" gradientTransform="translate(7.70941 8.60974) rotate(13.4957) scale(3.52093 6.49781)">
<stop stop-color="#CD9943"/>
<stop offset="0.767589" stop-color="#CD9943" stop-opacity="0.127511"/>
<stop offset="1" stop-color="#CD9943" stop-opacity="0"/>
</radialGradient>
<radialGradient id="paint44_radial_7747_10010" cx="0" cy="0" r="1" gradientUnits="userSpaceOnUse" gradientTransform="translate(9.99223 5.36715) rotate(41.9335) scale(1.93591 8.62665)">
<stop stop-color="#CD9943" stop-opacity="0.85"/>
<stop offset="0.760417" stop-color="#CD9943" stop-opacity="0.127511"/>
<stop offset="1" stop-color="#CD9943" stop-opacity="0"/>
</radialGradient>
<radialGradient id="paint45_radial_7747_10010" cx="0" cy="0" r="1" gradientUnits="userSpaceOnUse" gradientTransform="translate(13.075 10.4374) rotate(155.008) scale(1.21807 2.53986)">
<stop stop-color="#FFE675"/>
<stop offset="0.65382" stop-color="#FFE675" stop-opacity="0.185004"/>
<stop offset="0.813038" stop-color="#FFE675" stop-opacity="0.107811"/>
<stop offset="1" stop-color="#FFE675" stop-opacity="0"/>
</radialGradient>
<radialGradient id="paint46_radial_7747_10010" cx="0" cy="0" r="1" gradientUnits="userSpaceOnUse" gradientTransform="translate(14.1126 11.5147) rotate(117.168) scale(1.00626 2.18216)">
<stop stop-color="#FFE675"/>
<stop offset="0.6685" stop-color="#FFE675" stop-opacity="0.185004"/>
<stop offset="0.831795" stop-color="#FFE675" stop-opacity="0.0637278"/>
<stop offset="1" stop-color="#FFE675" stop-opacity="0"/>
</radialGradient>
<radialGradient id="paint47_radial_7747_10010" cx="0" cy="0" r="1" gradientUnits="userSpaceOnUse" gradientTransform="translate(16.4181 12.5394) rotate(113.405) scale(1.10012 2.8111)">
<stop stop-color="#FFE675"/>
<stop offset="0.721175" stop-color="#FFE675" stop-opacity="0.185004"/>
<stop offset="1" stop-color="#FFE675" stop-opacity="0"/>
</radialGradient>
<radialGradient id="paint48_radial_7747_10010" cx="0" cy="0" r="1" gradientUnits="userSpaceOnUse" gradientTransform="translate(17.4334 13.1802) rotate(154.938) scale(1.03648 2.64847)">
<stop stop-color="#FFE675"/>
<stop offset="0.721175" stop-color="#FFE675" stop-opacity="0.185004"/>
<stop offset="1" stop-color="#FFE675" stop-opacity="0"/>
</radialGradient>
<radialGradient id="paint49_radial_7747_10010" cx="0" cy="0" r="1" gradientUnits="userSpaceOnUse" gradientTransform="translate(12.2664 8.17323) rotate(165.272) scale(0.893345 3.85317)">
<stop offset="0.131615" stop-color="#FFE675"/>
<stop offset="0.665228" stop-color="#FFE675" stop-opacity="0.185004"/>
<stop offset="0.813948" stop-color="#FFE675" stop-opacity="0.0520478"/>
<stop offset="1" stop-color="#FFE675" stop-opacity="0"/>
</radialGradient>
<radialGradient id="paint50_radial_7747_10010" cx="0" cy="0" r="1" gradientUnits="userSpaceOnUse" gradientTransform="translate(11.6582 6.49609) rotate(147.095) scale(0.876529 3.78064)">
<stop offset="0.164689" stop-color="#FFE675"/>
<stop offset="0.719375" stop-color="#FFE675" stop-opacity="0.185004"/>
<stop offset="1" stop-color="#FFE675" stop-opacity="0"/>
</radialGradient>
<linearGradient id="paint51_linear_7747_10010" x1="26.6238" y1="8.85407" x2="22.4313" y2="13.2675" gradientUnits="userSpaceOnUse">
<stop stop-color="#FFDA72"/>
<stop offset="1" stop-color="#F7A967"/>
</linearGradient>
<linearGradient id="paint52_linear_7747_10010" x1="24.0365" y1="16.0404" x2="24.0365" y2="11.1894" gradientUnits="userSpaceOnUse">
<stop stop-color="#FDA071"/>
<stop offset="1" stop-color="#FDA071" stop-opacity="0"/>
</linearGradient>
<radialGradient id="paint53_radial_7747_10010" cx="0" cy="0" r="1" gradientUnits="userSpaceOnUse" gradientTransform="translate(26.991 12.2448) rotate(-113.707) scale(1.34177 3.0692)">
<stop stop-color="#EF7B54"/>
<stop offset="0.746285" stop-color="#EF7B54" stop-opacity="0.131386"/>
<stop offset="1" stop-color="#EF7B54" stop-opacity="0"/>
</radialGradient>
<radialGradient id="paint54_radial_7747_10010" cx="0" cy="0" r="1" gradientUnits="userSpaceOnUse" gradientTransform="translate(22.8569 14.6488) rotate(-24.6417) scale(1.67078 4.78155)">
<stop stop-color="#EF7B54"/>
<stop offset="0.501931" stop-color="#EF7B54" stop-opacity="0.462921"/>
<stop offset="0.802968" stop-color="#EF7B54" stop-opacity="0.131386"/>
<stop offset="1" stop-color="#EF7B54" stop-opacity="0"/>
</radialGradient>
<radialGradient id="paint55_radial_7747_10010" cx="0" cy="0" r="1" gradientUnits="userSpaceOnUse" gradientTransform="translate(20.391 9.66057) rotate(21.5226) scale(4.13835 6.22937)">
<stop stop-color="#CD9943" stop-opacity="0.71"/>
<stop offset="0.801992" stop-color="#CD9943" stop-opacity="0.127511"/>
<stop offset="1" stop-color="#CD9943" stop-opacity="0"/>
</radialGradient>
<radialGradient id="paint56_radial_7747_10010" cx="0" cy="0" r="1" gradientUnits="userSpaceOnUse" gradientTransform="translate(20.9905 11.9895) rotate(-50.3009) scale(2.67157 5.72055)">
<stop stop-color="#CD9943" stop-opacity="0.79"/>
<stop offset="0.767589" stop-color="#CD9943" stop-opacity="0.127511"/>
<stop offset="1" stop-color="#CD9943" stop-opacity="0"/>
</radialGradient>
<radialGradient id="paint57_radial_7747_10010" cx="0" cy="0" r="1" gradientUnits="userSpaceOnUse" gradientTransform="translate(22.1741 7.55412) rotate(13.4957) scale(2.11256 3.89869)">
<stop stop-color="#CD9943"/>
<stop offset="0.767589" stop-color="#CD9943" stop-opacity="0.127511"/>
<stop offset="1" stop-color="#CD9943" stop-opacity="0"/>
</radialGradient>
<radialGradient id="paint58_radial_7747_10010" cx="0" cy="0" r="1" gradientUnits="userSpaceOnUse" gradientTransform="translate(23.5438 5.60857) rotate(41.9335) scale(1.16155 5.17599)">
<stop stop-color="#CD9943" stop-opacity="0.85"/>
<stop offset="0.760417" stop-color="#CD9943" stop-opacity="0.127511"/>
<stop offset="1" stop-color="#CD9943" stop-opacity="0"/>
</radialGradient>
<radialGradient id="paint59_radial_7747_10010" cx="0" cy="0" r="1" gradientUnits="userSpaceOnUse" gradientTransform="translate(25.3934 8.65073) rotate(155.008) scale(0.730839 1.52391)">
<stop stop-color="#FFE675"/>
<stop offset="0.65382" stop-color="#FFE675" stop-opacity="0.185004"/>
<stop offset="0.813038" stop-color="#FFE675" stop-opacity="0.107811"/>
<stop offset="1" stop-color="#FFE675" stop-opacity="0"/>
</radialGradient>
<radialGradient id="paint60_radial_7747_10010" cx="0" cy="0" r="1" gradientUnits="userSpaceOnUse" gradientTransform="translate(26.016 9.29713) rotate(117.168) scale(0.603756 1.30929)">
<stop stop-color="#FFE675"/>
<stop offset="0.6685" stop-color="#FFE675" stop-opacity="0.185004"/>
<stop offset="0.831795" stop-color="#FFE675" stop-opacity="0.0637278"/>
<stop offset="1" stop-color="#FFE675" stop-opacity="0"/>
</radialGradient>
<radialGradient id="paint61_radial_7747_10010" cx="0" cy="0" r="1" gradientUnits="userSpaceOnUse" gradientTransform="translate(27.3993 9.91193) rotate(113.405) scale(0.66007 1.68666)">
<stop stop-color="#FFE675"/>
<stop offset="0.721175" stop-color="#FFE675" stop-opacity="0.185004"/>
<stop offset="1" stop-color="#FFE675" stop-opacity="0"/>
</radialGradient>
<radialGradient id="paint62_radial_7747_10010" cx="0" cy="0" r="1" gradientUnits="userSpaceOnUse" gradientTransform="translate(28.0085 10.2964) rotate(154.938) scale(0.621885 1.58909)">
<stop stop-color="#FFE675"/>
<stop offset="0.721175" stop-color="#FFE675" stop-opacity="0.185004"/>
<stop offset="1" stop-color="#FFE675" stop-opacity="0"/>
</radialGradient>
<radialGradient id="paint63_radial_7747_10010" cx="0" cy="0" r="1" gradientUnits="userSpaceOnUse" gradientTransform="translate(24.9083 7.29222) rotate(165.272) scale(0.536007 2.3119)">
<stop offset="0.131615" stop-color="#FFE675"/>
<stop offset="0.665228" stop-color="#FFE675" stop-opacity="0.185004"/>
<stop offset="0.813948" stop-color="#FFE675" stop-opacity="0.0520478"/>
<stop offset="1" stop-color="#FFE675" stop-opacity="0"/>
</radialGradient>
<radialGradient id="paint64_radial_7747_10010" cx="0" cy="0" r="1" gradientUnits="userSpaceOnUse" gradientTransform="translate(24.5434 6.28594) rotate(147.095) scale(0.525918 2.26839)">
<stop offset="0.164689" stop-color="#FFE675"/>
<stop offset="0.719375" stop-color="#FFE675" stop-opacity="0.185004"/>
<stop offset="1" stop-color="#FFE675" stop-opacity="0"/>
</radialGradient>
</defs>
</svg>
