<svg width="60" height="60" viewBox="0 0 60 60" fill="none" xmlns="http://www.w3.org/2000/svg">
<path d="M48.1481 48.4641V49.1857M47.5092 40.6219L47.429 40.3157C47.3488 40.0023 47.3051 39.6743 47.3051 39.3463C47.3051 38.841 47.4074 38.346 47.5985 37.8886M44.9289 37.4438L45.1548 37.2252C45.3808 36.9992 45.6432 36.7951 45.9275 36.6347C46.3124 36.4106 46.7803 36.2717 47.2383 36.2021M46.4013 33.617L46.7001 33.6972C47.0208 33.7847 47.3197 33.9159 47.604 34.0763C48.0289 34.3245 48.398 34.6505 48.6945 35.0317M50.4394 32.9829L50.5196 33.289C50.5998 33.6025 50.6435 33.9305 50.6435 34.2585C50.6435 34.799 50.5264 35.3277 50.3089 35.8114M53.0198 36.1609L52.7938 36.3796C52.5678 36.6056 52.3054 36.8097 52.0212 36.97C51.5273 37.2576 50.9798 37.4272 50.4156 37.4697M51.5474 39.9877L51.2485 39.9075C50.9278 39.8201 50.6289 39.6889 50.3447 39.5285C49.8664 39.2491 49.4589 38.8714 49.1462 38.4271M48.6945 35.0317C48.7511 35.0261 48.8085 35.0232 48.8666 35.0232C49.4721 35.0232 50.0042 35.3373 50.3089 35.8114M48.6945 35.0317C48.0109 35.0999 47.4457 35.5699 47.2383 36.2021M47.2383 36.2021C47.1831 36.3702 47.1533 36.5499 47.1533 36.7365C47.1533 37.1801 47.3219 37.5843 47.5985 37.8886M47.5985 37.8886C47.9119 38.2333 48.364 38.4498 48.8666 38.4498C48.9618 38.4498 49.0552 38.442 49.1462 38.4271M49.1462 38.4271C49.7087 38.3348 50.179 37.9684 50.4156 37.4697M50.4156 37.4697C50.5209 37.2474 50.5799 36.9988 50.5799 36.7365C50.5799 36.3957 50.4804 36.0782 50.3089 35.8114M47.5092 30.2509L47.429 29.9448C47.3488 29.6314 47.3051 29.3034 47.3051 28.9753C47.3051 28.4701 47.4074 27.9751 47.5985 27.5176M44.9289 27.0729L45.1548 26.8542C45.3808 26.6283 45.6432 26.4242 45.9275 26.2638C46.3124 26.0397 46.7803 25.9008 47.2383 25.8311M46.4013 23.2461L46.7001 23.3263C47.0208 23.4138 47.3197 23.545 47.604 23.7053C48.0289 23.9536 48.398 24.2795 48.6945 24.6608M50.4394 22.612L50.5196 22.9181C50.5998 23.2315 50.6435 23.5595 50.6435 23.8876C50.6435 24.428 50.5264 24.9568 50.3089 25.4404M53.0198 25.79L52.7938 26.0087C52.5678 26.2346 52.3054 26.4387 52.0212 26.5991C51.5273 26.8867 50.9798 27.0563 50.4156 27.0987M51.5474 29.6168L51.2485 29.5366C50.9278 29.4491 50.6289 29.3179 50.3447 29.1576C49.8664 28.8782 49.4589 28.5004 49.1462 28.0562M48.6945 24.6608C48.7511 24.6552 48.8085 24.6523 48.8666 24.6523C49.4721 24.6523 50.0042 24.9663 50.3089 25.4404M48.6945 24.6608C48.0109 24.729 47.4457 25.199 47.2383 25.8311M47.2383 25.8311C47.1831 25.9993 47.1533 26.1789 47.1533 26.3656C47.1533 26.8091 47.3219 27.2134 47.5985 27.5176M47.5985 27.5176C47.9119 27.8624 48.364 28.0789 48.8666 28.0789C48.9618 28.0789 49.0552 28.0711 49.1462 28.0562M49.1462 28.0562C49.7087 27.9638 50.179 27.5975 50.4156 27.0987M50.4156 27.0987C50.5209 26.8765 50.5799 26.6279 50.5799 26.3656C50.5799 26.0248 50.4804 25.7073 50.3089 25.4404M47.2466 20.0444L47.1664 19.7382C47.0862 19.4248 47.0425 19.0968 47.0425 18.7688C47.0425 18.2636 47.1448 17.7686 47.3358 17.3111M44.6662 16.8663L44.8922 16.6477C45.1182 16.4217 45.3806 16.2176 45.6648 16.0572C46.0497 15.8331 46.5176 15.6942 46.9757 15.6246M46.1386 13.0396L46.4375 13.1197C46.7582 13.2072 47.0571 13.3384 47.3413 13.4988C47.7663 13.747 48.1354 14.073 48.4318 14.4542M50.1768 12.4054L50.257 12.7115C50.3371 13.025 50.3809 13.353 50.3809 13.681C50.3809 14.2215 50.2638 14.7502 50.0463 15.2339M52.7571 15.5834L52.5312 15.8021C52.3052 16.0281 52.0428 16.2322 51.7585 16.3925C51.2647 16.6801 50.7172 16.8497 50.1529 16.8922M51.2847 19.4102L50.9859 19.3301C50.6652 19.2426 50.3663 19.1114 50.082 18.951C49.6038 18.6717 49.1963 18.2939 48.8835 17.8496M48.4318 14.4542C48.4884 14.4486 48.5459 14.4457 48.604 14.4457C49.2094 14.4457 49.7416 14.7598 50.0463 15.2339M48.4318 14.4542C47.7483 14.5224 47.183 14.9924 46.9757 15.6246M46.9757 15.6246C46.9205 15.7927 46.8907 15.9724 46.8907 16.159C46.8907 16.6026 47.0592 17.0068 47.3358 17.3111M47.3358 17.3111C47.6492 17.6558 48.1013 17.8723 48.604 17.8723C48.6992 17.8723 48.7926 17.8645 48.8835 17.8496M48.8835 17.8496C49.4461 17.7573 49.9164 17.3909 50.1529 16.8922M50.1529 16.8922C50.2583 16.6699 50.3173 16.4213 50.3173 16.159C50.3173 15.8182 50.2178 15.5007 50.0463 15.2339M16.91 37.8886V42.4626M16.91 37.8886H19.5417M16.91 37.8886H3.82812V35.3915M16.91 42.4626H24.8843M16.91 42.4626H13.7673V44.4648H27.7127V42.4626H24.8843M24.8843 42.4626V37.8886M24.8843 37.8886H22.1344M24.8843 37.8886H37.9265V35.3915M19.5417 37.8886C19.5417 37.8886 19.2274 41.0484 20.7988 41.0484C22.3701 41.0484 22.1344 37.8886 22.1344 37.8886M19.5417 37.8886H22.1344M37.9265 35.3915V14.4457H3.82812V35.3915M37.9265 35.3915H3.82812M39.7865 50.4894H8.3504C7.84742 50.4894 7.44285 50.0849 7.44285 49.5819C7.44285 49.0789 7.84742 48.6743 8.3504 48.6743H39.7865C40.2894 48.6743 40.694 49.0789 40.694 49.5819C40.6831 50.0849 40.2785 50.4894 39.7865 50.4894ZM11.2041 48.6845H9.01728V47.766C9.01728 47.4489 9.2797 47.1865 9.59679 47.1865H10.6246C10.9417 47.1865 11.2041 47.4489 11.2041 47.766V48.6845ZM14.3468 48.6845H12.16V47.766C12.16 47.4489 12.4224 47.1865 12.7395 47.1865H13.7673C14.0844 47.1865 14.3468 47.4489 14.3468 47.766V48.6845ZM17.4896 48.6845H15.3027V47.766C15.3027 47.4489 15.5651 47.1865 15.8822 47.1865H16.91C17.2271 47.1865 17.4896 47.4489 17.4896 47.766V48.6845ZM32.5746 48.6845H30.3877V47.766C30.3877 47.4489 30.6501 47.1865 30.9672 47.1865H31.995C32.3121 47.1865 32.5746 47.4489 32.5746 47.766V48.6845ZM35.9719 48.6845H33.7851V47.766C33.7851 47.4489 34.0475 47.1865 34.3646 47.1865H35.3924C35.7095 47.1865 35.9719 47.4489 35.9719 47.766V48.6845ZM39.0786 48.6743H36.8918V47.7559C36.8918 47.4388 37.1542 47.1763 37.4713 47.1763H38.4991C38.8162 47.1763 39.0786 47.4388 39.0786 47.7559V48.6743ZM29.1529 48.6845H19.0383V47.766C19.0383 47.4489 19.3008 47.1865 19.6179 47.1865H28.5734C28.8905 47.1865 29.1529 47.4489 29.1529 47.766V48.6845ZM45.7428 50.6295C45.7428 49.3064 46.8143 48.2349 48.1374 48.2349C49.4604 48.2349 50.532 49.3064 50.532 50.6295H45.7428ZM55.6437 42.9571H42.1533C41.6722 42.9571 41.2785 42.5634 41.2785 42.0823V10.8103C41.2785 10.3292 41.6722 9.93555 42.1533 9.93555H55.6437C56.1248 9.93555 56.5185 10.3292 56.5185 10.8103V42.0823C56.5185 42.5634 56.1248 42.9571 55.6437 42.9571ZM42.8499 42.934H55.0963V44.4648H42.8499V42.934ZM53.0564 36.8021C53.0564 39.0565 51.2289 40.884 48.9745 40.884C46.7202 40.884 44.8926 39.0565 44.8926 36.8021C44.8926 34.5477 46.7202 32.7202 48.9745 32.7202C51.2289 32.7202 53.0564 34.5477 53.0564 36.8021ZM53.0564 26.4311C53.0564 28.6855 51.2289 30.513 48.9745 30.513C46.7202 30.513 44.8926 28.6855 44.8926 26.4311C44.8926 24.1768 46.7202 22.3492 48.9745 22.3492C51.2289 22.3492 53.0564 24.1768 53.0564 26.4311ZM52.7938 16.2246C52.7938 18.479 50.9663 20.3065 48.7119 20.3065C46.4575 20.3065 44.63 18.479 44.63 16.2246C44.63 13.9702 46.4575 12.1427 48.7119 12.1427C50.9663 12.1427 52.7938 13.9702 52.7938 16.2246Z" stroke="#B720FF" stroke-miterlimit="10" stroke-linecap="round" stroke-linejoin="round"/>
</svg>
