<svg width="60" height="60" viewBox="0 0 60 60" fill="none" xmlns="http://www.w3.org/2000/svg">
<path d="M5.91379 42.2862V14.5724C5.91379 13.704 6.61779 13 7.48621 13H27.3379M5.91379 42.2862H22.8172M5.91379 42.2862H2.24518C1.66732 42.2862 1.2869 42.8887 1.53534 43.4104L1.8984 44.1728C2.55028 45.5418 3.93134 46.4138 5.44757 46.4138H53.0287C54.2983 46.4138 55.4897 45.8007 56.2276 44.7676L57.112 43.5294C57.4837 43.009 57.1117 42.2862 56.4722 42.2862H52.1034M52.1034 42.2862V14.5724C52.1034 13.704 51.3995 13 50.531 13H30.4828M52.1034 42.2862H35.5931M22.8172 42.2862L23.3861 43.424C23.5193 43.6904 23.7916 43.8586 24.0893 43.8586H34.1746C34.4457 43.8586 34.6976 43.719 34.8413 43.4891L35.5931 42.2862M22.8172 42.2862H35.5931M27.3379 13L27.731 14.769H30.0897L30.4828 13M27.3379 13H30.4828M14.169 21.0586H25.1759M14.169 23.4172H20.2621M21.6379 23.4172H24.3897M26.5517 21.0586H29.3034M25.9621 23.4172H32.0552M14.169 25.3828H16.9207M18.6897 25.3828H21.4414M23.2103 25.3828H25.9621M13.9724 27.5448H24.9793M26.5517 27.5448H29.3034M14.169 34.2276H25.1759M14.169 31.869H20.2621M21.6379 31.869H24.3897M26.5517 34.2276H29.3034M25.9621 31.869H32.0552M14.169 29.9034H16.9207M18.6897 29.9034H21.4414M23.2103 29.9034H25.9621M9.45172 16.7345H48.5655V38.9448H9.45172V16.7345Z" stroke="#3CD377" stroke-linecap="round" stroke-linejoin="round"/>
</svg>
