<svg width="56" height="56" viewBox="0 0 56 56" fill="none" xmlns="http://www.w3.org/2000/svg">
<path d="M15.6987 12.6777C11.0164 16.288 10.3985 20.2702 10.4773 22.748C10.6044 24.9859 10.8853 26.5417 11.1078 27.7742L11.1311 27.903C11.3926 29.3536 10.8103 30.7666 9.73048 31.6612L8.60673 32.5922C8.52954 32.6561 8.50569 32.7644 8.54885 32.8549L10.6686 37.2977L7.90453 38.6164L5.78483 34.1736C5.13738 32.8166 5.49511 31.1931 6.65297 30.2339L7.77672 29.3029C8.06145 29.067 8.17003 28.7396 8.11716 28.4463L8.09243 28.3093C7.9874 27.7279 7.47284 24.1798 7.44133 22.8505C7.39526 20.9068 7.51931 15.4198 11.5287 10.7773C16.2045 5.36328 23.601 3.64062 27.9213 3.64062C32.5287 3.64062 39.7949 5.36328 44.4707 10.7773C48.4801 15.4198 48.6042 20.9068 48.5581 22.8505C48.6244 24.0891 48.012 27.7279 47.907 28.3093L47.8823 28.4463C47.8294 28.7396 47.938 29.067 48.2227 29.3029L49.3465 30.2339C50.5043 31.1931 50.8621 32.8166 50.2146 34.1736L48.0949 38.6164L45.3309 37.2977L47.4506 32.8549C47.4937 32.7644 47.4699 32.6561 47.3927 32.5922L46.269 31.6612C45.1891 30.7666 44.6068 29.3536 44.8684 27.903L44.8916 27.7742C45.1142 26.5417 45.3951 24.9862 45.5221 22.7482C45.6009 20.2705 44.9831 16.288 40.3008 12.6777C35.3828 8.8856 30.0404 8.57617 27.9213 8.57617C25.8022 8.57617 20.6167 8.8856 15.6987 12.6777Z" fill="url(#paint0_radial_7260_27128)"/>
<path d="M15.6987 12.6777C11.0164 16.288 10.3985 20.2702 10.4773 22.748C10.6044 24.9859 10.8853 26.5417 11.1078 27.7742L11.1311 27.903C11.3926 29.3536 10.8103 30.7666 9.73048 31.6612L8.60673 32.5922C8.52954 32.6561 8.50569 32.7644 8.54885 32.8549L10.6686 37.2977L7.90453 38.6164L5.78483 34.1736C5.13738 32.8166 5.49511 31.1931 6.65297 30.2339L7.77672 29.3029C8.06145 29.067 8.17003 28.7396 8.11716 28.4463L8.09243 28.3093C7.9874 27.7279 7.47284 24.1798 7.44133 22.8505C7.39526 20.9068 7.51931 15.4198 11.5287 10.7773C16.2045 5.36328 23.601 3.64062 27.9213 3.64062C32.5287 3.64062 39.7949 5.36328 44.4707 10.7773C48.4801 15.4198 48.6042 20.9068 48.5581 22.8505C48.6244 24.0891 48.012 27.7279 47.907 28.3093L47.8823 28.4463C47.8294 28.7396 47.938 29.067 48.2227 29.3029L49.3465 30.2339C50.5043 31.1931 50.8621 32.8166 50.2146 34.1736L48.0949 38.6164L45.3309 37.2977L47.4506 32.8549C47.4937 32.7644 47.4699 32.6561 47.3927 32.5922L46.269 31.6612C45.1891 30.7666 44.6068 29.3536 44.8684 27.903L44.8916 27.7742C45.1142 26.5417 45.3951 24.9862 45.5221 22.7482C45.6009 20.2705 44.9831 16.288 40.3008 12.6777C35.3828 8.8856 30.0404 8.57617 27.9213 8.57617C25.8022 8.57617 20.6167 8.8856 15.6987 12.6777Z" fill="url(#paint1_radial_7260_27128)"/>
<path d="M15.6987 12.6777C11.0164 16.288 10.3985 20.2702 10.4773 22.748C10.6044 24.9859 10.8853 26.5417 11.1078 27.7742L11.1311 27.903C11.3926 29.3536 10.8103 30.7666 9.73048 31.6612L8.60673 32.5922C8.52954 32.6561 8.50569 32.7644 8.54885 32.8549L10.6686 37.2977L7.90453 38.6164L5.78483 34.1736C5.13738 32.8166 5.49511 31.1931 6.65297 30.2339L7.77672 29.3029C8.06145 29.067 8.17003 28.7396 8.11716 28.4463L8.09243 28.3093C7.9874 27.7279 7.47284 24.1798 7.44133 22.8505C7.39526 20.9068 7.51931 15.4198 11.5287 10.7773C16.2045 5.36328 23.601 3.64062 27.9213 3.64062C32.5287 3.64062 39.7949 5.36328 44.4707 10.7773C48.4801 15.4198 48.6042 20.9068 48.5581 22.8505C48.6244 24.0891 48.012 27.7279 47.907 28.3093L47.8823 28.4463C47.8294 28.7396 47.938 29.067 48.2227 29.3029L49.3465 30.2339C50.5043 31.1931 50.8621 32.8166 50.2146 34.1736L48.0949 38.6164L45.3309 37.2977L47.4506 32.8549C47.4937 32.7644 47.4699 32.6561 47.3927 32.5922L46.269 31.6612C45.1891 30.7666 44.6068 29.3536 44.8684 27.903L44.8916 27.7742C45.1142 26.5417 45.3951 24.9862 45.5221 22.7482C45.6009 20.2705 44.9831 16.288 40.3008 12.6777C35.3828 8.8856 30.0404 8.57617 27.9213 8.57617C25.8022 8.57617 20.6167 8.8856 15.6987 12.6777Z" fill="url(#paint2_radial_7260_27128)"/>
<path d="M15.6987 12.6777C11.0164 16.288 10.3985 20.2702 10.4773 22.748C10.6044 24.9859 10.8853 26.5417 11.1078 27.7742L11.1311 27.903C11.3926 29.3536 10.8103 30.7666 9.73048 31.6612L8.60673 32.5922C8.52954 32.6561 8.50569 32.7644 8.54885 32.8549L10.6686 37.2977L7.90453 38.6164L5.78483 34.1736C5.13738 32.8166 5.49511 31.1931 6.65297 30.2339L7.77672 29.3029C8.06145 29.067 8.17003 28.7396 8.11716 28.4463L8.09243 28.3093C7.9874 27.7279 7.47284 24.1798 7.44133 22.8505C7.39526 20.9068 7.51931 15.4198 11.5287 10.7773C16.2045 5.36328 23.601 3.64062 27.9213 3.64062C32.5287 3.64062 39.7949 5.36328 44.4707 10.7773C48.4801 15.4198 48.6042 20.9068 48.5581 22.8505C48.6244 24.0891 48.012 27.7279 47.907 28.3093L47.8823 28.4463C47.8294 28.7396 47.938 29.067 48.2227 29.3029L49.3465 30.2339C50.5043 31.1931 50.8621 32.8166 50.2146 34.1736L48.0949 38.6164L45.3309 37.2977L47.4506 32.8549C47.4937 32.7644 47.4699 32.6561 47.3927 32.5922L46.269 31.6612C45.1891 30.7666 44.6068 29.3536 44.8684 27.903L44.8916 27.7742C45.1142 26.5417 45.3951 24.9862 45.5221 22.7482C45.6009 20.2705 44.9831 16.288 40.3008 12.6777C35.3828 8.8856 30.0404 8.57617 27.9213 8.57617C25.8022 8.57617 20.6167 8.8856 15.6987 12.6777Z" fill="url(#paint3_radial_7260_27128)"/>
<path d="M15.6987 12.6777C11.0164 16.288 10.3985 20.2702 10.4773 22.748C10.6044 24.9859 10.8853 26.5417 11.1078 27.7742L11.1311 27.903C11.3926 29.3536 10.8103 30.7666 9.73048 31.6612L8.60673 32.5922C8.52954 32.6561 8.50569 32.7644 8.54885 32.8549L10.6686 37.2977L7.90453 38.6164L5.78483 34.1736C5.13738 32.8166 5.49511 31.1931 6.65297 30.2339L7.77672 29.3029C8.06145 29.067 8.17003 28.7396 8.11716 28.4463L8.09243 28.3093C7.9874 27.7279 7.47284 24.1798 7.44133 22.8505C7.39526 20.9068 7.51931 15.4198 11.5287 10.7773C16.2045 5.36328 23.601 3.64062 27.9213 3.64062C32.5287 3.64062 39.7949 5.36328 44.4707 10.7773C48.4801 15.4198 48.6042 20.9068 48.5581 22.8505C48.6244 24.0891 48.012 27.7279 47.907 28.3093L47.8823 28.4463C47.8294 28.7396 47.938 29.067 48.2227 29.3029L49.3465 30.2339C50.5043 31.1931 50.8621 32.8166 50.2146 34.1736L48.0949 38.6164L45.3309 37.2977L47.4506 32.8549C47.4937 32.7644 47.4699 32.6561 47.3927 32.5922L46.269 31.6612C45.1891 30.7666 44.6068 29.3536 44.8684 27.903L44.8916 27.7742C45.1142 26.5417 45.3951 24.9862 45.5221 22.7482C45.6009 20.2705 44.9831 16.288 40.3008 12.6777C35.3828 8.8856 30.0404 8.57617 27.9213 8.57617C25.8022 8.57617 20.6167 8.8856 15.6987 12.6777Z" fill="url(#paint4_radial_7260_27128)"/>
<path d="M15.6987 12.6777C11.0164 16.288 10.3985 20.2702 10.4773 22.748C10.6044 24.9859 10.8853 26.5417 11.1078 27.7742L11.1311 27.903C11.3926 29.3536 10.8103 30.7666 9.73048 31.6612L8.60673 32.5922C8.52954 32.6561 8.50569 32.7644 8.54885 32.8549L10.6686 37.2977L7.90453 38.6164L5.78483 34.1736C5.13738 32.8166 5.49511 31.1931 6.65297 30.2339L7.77672 29.3029C8.06145 29.067 8.17003 28.7396 8.11716 28.4463L8.09243 28.3093C7.9874 27.7279 7.47284 24.1798 7.44133 22.8505C7.39526 20.9068 7.51931 15.4198 11.5287 10.7773C16.2045 5.36328 23.601 3.64062 27.9213 3.64062C32.5287 3.64062 39.7949 5.36328 44.4707 10.7773C48.4801 15.4198 48.6042 20.9068 48.5581 22.8505C48.6244 24.0891 48.012 27.7279 47.907 28.3093L47.8823 28.4463C47.8294 28.7396 47.938 29.067 48.2227 29.3029L49.3465 30.2339C50.5043 31.1931 50.8621 32.8166 50.2146 34.1736L48.0949 38.6164L45.3309 37.2977L47.4506 32.8549C47.4937 32.7644 47.4699 32.6561 47.3927 32.5922L46.269 31.6612C45.1891 30.7666 44.6068 29.3536 44.8684 27.903L44.8916 27.7742C45.1142 26.5417 45.3951 24.9862 45.5221 22.7482C45.6009 20.2705 44.9831 16.288 40.3008 12.6777C35.3828 8.8856 30.0404 8.57617 27.9213 8.57617C25.8022 8.57617 20.6167 8.8856 15.6987 12.6777Z" fill="url(#paint5_radial_7260_27128)"/>
<path d="M15.6987 12.6777C11.0164 16.288 10.3985 20.2702 10.4773 22.748C10.6044 24.9859 10.8853 26.5417 11.1078 27.7742L11.1311 27.903C11.3926 29.3536 10.8103 30.7666 9.73048 31.6612L8.60673 32.5922C8.52954 32.6561 8.50569 32.7644 8.54885 32.8549L10.6686 37.2977L7.90453 38.6164L5.78483 34.1736C5.13738 32.8166 5.49511 31.1931 6.65297 30.2339L7.77672 29.3029C8.06145 29.067 8.17003 28.7396 8.11716 28.4463L8.09243 28.3093C7.9874 27.7279 7.47284 24.1798 7.44133 22.8505C7.39526 20.9068 7.51931 15.4198 11.5287 10.7773C16.2045 5.36328 23.601 3.64062 27.9213 3.64062C32.5287 3.64062 39.7949 5.36328 44.4707 10.7773C48.4801 15.4198 48.6042 20.9068 48.5581 22.8505C48.6244 24.0891 48.012 27.7279 47.907 28.3093L47.8823 28.4463C47.8294 28.7396 47.938 29.067 48.2227 29.3029L49.3465 30.2339C50.5043 31.1931 50.8621 32.8166 50.2146 34.1736L48.0949 38.6164L45.3309 37.2977L47.4506 32.8549C47.4937 32.7644 47.4699 32.6561 47.3927 32.5922L46.269 31.6612C45.1891 30.7666 44.6068 29.3536 44.8684 27.903L44.8916 27.7742C45.1142 26.5417 45.3951 24.9862 45.5221 22.7482C45.6009 20.2705 44.9831 16.288 40.3008 12.6777C35.3828 8.8856 30.0404 8.57617 27.9213 8.57617C25.8022 8.57617 20.6167 8.8856 15.6987 12.6777Z" fill="url(#paint6_linear_7260_27128)"/>
<path d="M15.6987 12.6777C11.0164 16.288 10.3985 20.2702 10.4773 22.748C10.6044 24.9859 10.8853 26.5417 11.1078 27.7742L11.1311 27.903C11.3926 29.3536 10.8103 30.7666 9.73048 31.6612L8.60673 32.5922C8.52954 32.6561 8.50569 32.7644 8.54885 32.8549L10.6686 37.2977L7.90453 38.6164L5.78483 34.1736C5.13738 32.8166 5.49511 31.1931 6.65297 30.2339L7.77672 29.3029C8.06145 29.067 8.17003 28.7396 8.11716 28.4463L8.09243 28.3093C7.9874 27.7279 7.47284 24.1798 7.44133 22.8505C7.39526 20.9068 7.51931 15.4198 11.5287 10.7773C16.2045 5.36328 23.601 3.64062 27.9213 3.64062C32.5287 3.64062 39.7949 5.36328 44.4707 10.7773C48.4801 15.4198 48.6042 20.9068 48.5581 22.8505C48.6244 24.0891 48.012 27.7279 47.907 28.3093L47.8823 28.4463C47.8294 28.7396 47.938 29.067 48.2227 29.3029L49.3465 30.2339C50.5043 31.1931 50.8621 32.8166 50.2146 34.1736L48.0949 38.6164L45.3309 37.2977L47.4506 32.8549C47.4937 32.7644 47.4699 32.6561 47.3927 32.5922L46.269 31.6612C45.1891 30.7666 44.6068 29.3536 44.8684 27.903L44.8916 27.7742C45.1142 26.5417 45.3951 24.9862 45.5221 22.7482C45.6009 20.2705 44.9831 16.288 40.3008 12.6777C35.3828 8.8856 30.0404 8.57617 27.9213 8.57617C25.8022 8.57617 20.6167 8.8856 15.6987 12.6777Z" fill="url(#paint7_linear_7260_27128)"/>
<path d="M15.6987 12.6777C11.0164 16.288 10.3985 20.2702 10.4773 22.748C10.6044 24.9859 10.8853 26.5417 11.1078 27.7742L11.1311 27.903C11.3926 29.3536 10.8103 30.7666 9.73048 31.6612L8.60673 32.5922C8.52954 32.6561 8.50569 32.7644 8.54885 32.8549L10.6686 37.2977L7.90453 38.6164L5.78483 34.1736C5.13738 32.8166 5.49511 31.1931 6.65297 30.2339L7.77672 29.3029C8.06145 29.067 8.17003 28.7396 8.11716 28.4463L8.09243 28.3093C7.9874 27.7279 7.47284 24.1798 7.44133 22.8505C7.39526 20.9068 7.51931 15.4198 11.5287 10.7773C16.2045 5.36328 23.601 3.64062 27.9213 3.64062C32.5287 3.64062 39.7949 5.36328 44.4707 10.7773C48.4801 15.4198 48.6042 20.9068 48.5581 22.8505C48.6244 24.0891 48.012 27.7279 47.907 28.3093L47.8823 28.4463C47.8294 28.7396 47.938 29.067 48.2227 29.3029L49.3465 30.2339C50.5043 31.1931 50.8621 32.8166 50.2146 34.1736L48.0949 38.6164L45.3309 37.2977L47.4506 32.8549C47.4937 32.7644 47.4699 32.6561 47.3927 32.5922L46.269 31.6612C45.1891 30.7666 44.6068 29.3536 44.8684 27.903L44.8916 27.7742C45.1142 26.5417 45.3951 24.9862 45.5221 22.7482C45.6009 20.2705 44.9831 16.288 40.3008 12.6777C35.3828 8.8856 30.0404 8.57617 27.9213 8.57617C25.8022 8.57617 20.6167 8.8856 15.6987 12.6777Z" fill="url(#paint8_linear_7260_27128)"/>
<path d="M15.6987 12.6777C11.0164 16.288 10.3985 20.2702 10.4773 22.748C10.6044 24.9859 10.8853 26.5417 11.1078 27.7742L11.1311 27.903C11.3926 29.3536 10.8103 30.7666 9.73048 31.6612L8.60673 32.5922C8.52954 32.6561 8.50569 32.7644 8.54885 32.8549L10.6686 37.2977L7.90453 38.6164L5.78483 34.1736C5.13738 32.8166 5.49511 31.1931 6.65297 30.2339L7.77672 29.3029C8.06145 29.067 8.17003 28.7396 8.11716 28.4463L8.09243 28.3093C7.9874 27.7279 7.47284 24.1798 7.44133 22.8505C7.39526 20.9068 7.51931 15.4198 11.5287 10.7773C16.2045 5.36328 23.601 3.64062 27.9213 3.64062C32.5287 3.64062 39.7949 5.36328 44.4707 10.7773C48.4801 15.4198 48.6042 20.9068 48.5581 22.8505C48.6244 24.0891 48.012 27.7279 47.907 28.3093L47.8823 28.4463C47.8294 28.7396 47.938 29.067 48.2227 29.3029L49.3465 30.2339C50.5043 31.1931 50.8621 32.8166 50.2146 34.1736L48.0949 38.6164L45.3309 37.2977L47.4506 32.8549C47.4937 32.7644 47.4699 32.6561 47.3927 32.5922L46.269 31.6612C45.1891 30.7666 44.6068 29.3536 44.8684 27.903L44.8916 27.7742C45.1142 26.5417 45.3951 24.9862 45.5221 22.7482C45.6009 20.2705 44.9831 16.288 40.3008 12.6777C35.3828 8.8856 30.0404 8.57617 27.9213 8.57617C25.8022 8.57617 20.6167 8.8856 15.6987 12.6777Z" fill="url(#paint9_linear_7260_27128)"/>
<path d="M15.6987 12.6777C11.0164 16.288 10.3985 20.2702 10.4773 22.748C10.6044 24.9859 10.8853 26.5417 11.1078 27.7742L11.1311 27.903C11.3926 29.3536 10.8103 30.7666 9.73048 31.6612L8.60673 32.5922C8.52954 32.6561 8.50569 32.7644 8.54885 32.8549L10.6686 37.2977L7.90453 38.6164L5.78483 34.1736C5.13738 32.8166 5.49511 31.1931 6.65297 30.2339L7.77672 29.3029C8.06145 29.067 8.17003 28.7396 8.11716 28.4463L8.09243 28.3093C7.9874 27.7279 7.47284 24.1798 7.44133 22.8505C7.39526 20.9068 7.51931 15.4198 11.5287 10.7773C16.2045 5.36328 23.601 3.64062 27.9213 3.64062C32.5287 3.64062 39.7949 5.36328 44.4707 10.7773C48.4801 15.4198 48.6042 20.9068 48.5581 22.8505C48.6244 24.0891 48.012 27.7279 47.907 28.3093L47.8823 28.4463C47.8294 28.7396 47.938 29.067 48.2227 29.3029L49.3465 30.2339C50.5043 31.1931 50.8621 32.8166 50.2146 34.1736L48.0949 38.6164L45.3309 37.2977L47.4506 32.8549C47.4937 32.7644 47.4699 32.6561 47.3927 32.5922L46.269 31.6612C45.1891 30.7666 44.6068 29.3536 44.8684 27.903L44.8916 27.7742C45.1142 26.5417 45.3951 24.9862 45.5221 22.7482C45.6009 20.2705 44.9831 16.288 40.3008 12.6777C35.3828 8.8856 30.0404 8.57617 27.9213 8.57617C25.8022 8.57617 20.6167 8.8856 15.6987 12.6777Z" fill="url(#paint10_radial_7260_27128)"/>
<path d="M15.6987 12.6777C11.0164 16.288 10.3985 20.2702 10.4773 22.748C10.6044 24.9859 10.8853 26.5417 11.1078 27.7742L11.1311 27.903C11.3926 29.3536 10.8103 30.7666 9.73048 31.6612L8.60673 32.5922C8.52954 32.6561 8.50569 32.7644 8.54885 32.8549L10.6686 37.2977L7.90453 38.6164L5.78483 34.1736C5.13738 32.8166 5.49511 31.1931 6.65297 30.2339L7.77672 29.3029C8.06145 29.067 8.17003 28.7396 8.11716 28.4463L8.09243 28.3093C7.9874 27.7279 7.47284 24.1798 7.44133 22.8505C7.39526 20.9068 7.51931 15.4198 11.5287 10.7773C16.2045 5.36328 23.601 3.64062 27.9213 3.64062C32.5287 3.64062 39.7949 5.36328 44.4707 10.7773C48.4801 15.4198 48.6042 20.9068 48.5581 22.8505C48.6244 24.0891 48.012 27.7279 47.907 28.3093L47.8823 28.4463C47.8294 28.7396 47.938 29.067 48.2227 29.3029L49.3465 30.2339C50.5043 31.1931 50.8621 32.8166 50.2146 34.1736L48.0949 38.6164L45.3309 37.2977L47.4506 32.8549C47.4937 32.7644 47.4699 32.6561 47.3927 32.5922L46.269 31.6612C45.1891 30.7666 44.6068 29.3536 44.8684 27.903L44.8916 27.7742C45.1142 26.5417 45.3951 24.9862 45.5221 22.7482C45.6009 20.2705 44.9831 16.288 40.3008 12.6777C35.3828 8.8856 30.0404 8.57617 27.9213 8.57617C25.8022 8.57617 20.6167 8.8856 15.6987 12.6777Z" fill="url(#paint11_radial_7260_27128)"/>
<path d="M15.6987 12.6777C11.0164 16.288 10.3985 20.2702 10.4773 22.748C10.6044 24.9859 10.8853 26.5417 11.1078 27.7742L11.1311 27.903C11.3926 29.3536 10.8103 30.7666 9.73048 31.6612L8.60673 32.5922C8.52954 32.6561 8.50569 32.7644 8.54885 32.8549L10.6686 37.2977L7.90453 38.6164L5.78483 34.1736C5.13738 32.8166 5.49511 31.1931 6.65297 30.2339L7.77672 29.3029C8.06145 29.067 8.17003 28.7396 8.11716 28.4463L8.09243 28.3093C7.9874 27.7279 7.47284 24.1798 7.44133 22.8505C7.39526 20.9068 7.51931 15.4198 11.5287 10.7773C16.2045 5.36328 23.601 3.64062 27.9213 3.64062C32.5287 3.64062 39.7949 5.36328 44.4707 10.7773C48.4801 15.4198 48.6042 20.9068 48.5581 22.8505C48.6244 24.0891 48.012 27.7279 47.907 28.3093L47.8823 28.4463C47.8294 28.7396 47.938 29.067 48.2227 29.3029L49.3465 30.2339C50.5043 31.1931 50.8621 32.8166 50.2146 34.1736L48.0949 38.6164L45.3309 37.2977L47.4506 32.8549C47.4937 32.7644 47.4699 32.6561 47.3927 32.5922L46.269 31.6612C45.1891 30.7666 44.6068 29.3536 44.8684 27.903L44.8916 27.7742C45.1142 26.5417 45.3951 24.9862 45.5221 22.7482C45.6009 20.2705 44.9831 16.288 40.3008 12.6777C35.3828 8.8856 30.0404 8.57617 27.9213 8.57617C25.8022 8.57617 20.6167 8.8856 15.6987 12.6777Z" fill="url(#paint12_radial_7260_27128)" fill-opacity="0.4"/>
<path d="M15.6987 12.6777C11.0164 16.288 10.3985 20.2702 10.4773 22.748C10.6044 24.9859 10.8853 26.5417 11.1078 27.7742L11.1311 27.903C11.3926 29.3536 10.8103 30.7666 9.73048 31.6612L8.60673 32.5922C8.52954 32.6561 8.50569 32.7644 8.54885 32.8549L10.6686 37.2977L7.90453 38.6164L5.78483 34.1736C5.13738 32.8166 5.49511 31.1931 6.65297 30.2339L7.77672 29.3029C8.06145 29.067 8.17003 28.7396 8.11716 28.4463L8.09243 28.3093C7.9874 27.7279 7.47284 24.1798 7.44133 22.8505C7.39526 20.9068 7.51931 15.4198 11.5287 10.7773C16.2045 5.36328 23.601 3.64062 27.9213 3.64062C32.5287 3.64062 39.7949 5.36328 44.4707 10.7773C48.4801 15.4198 48.6042 20.9068 48.5581 22.8505C48.6244 24.0891 48.012 27.7279 47.907 28.3093L47.8823 28.4463C47.8294 28.7396 47.938 29.067 48.2227 29.3029L49.3465 30.2339C50.5043 31.1931 50.8621 32.8166 50.2146 34.1736L48.0949 38.6164L45.3309 37.2977L47.4506 32.8549C47.4937 32.7644 47.4699 32.6561 47.3927 32.5922L46.269 31.6612C45.1891 30.7666 44.6068 29.3536 44.8684 27.903L44.8916 27.7742C45.1142 26.5417 45.3951 24.9862 45.5221 22.7482C45.6009 20.2705 44.9831 16.288 40.3008 12.6777C35.3828 8.8856 30.0404 8.57617 27.9213 8.57617C25.8022 8.57617 20.6167 8.8856 15.6987 12.6777Z" fill="url(#paint13_radial_7260_27128)" fill-opacity="0.7"/>
<path d="M15.6987 12.6777C11.0164 16.288 10.3985 20.2702 10.4773 22.748C10.6044 24.9859 10.8853 26.5417 11.1078 27.7742L11.1311 27.903C11.3926 29.3536 10.8103 30.7666 9.73048 31.6612L8.60673 32.5922C8.52954 32.6561 8.50569 32.7644 8.54885 32.8549L10.6686 37.2977L7.90453 38.6164L5.78483 34.1736C5.13738 32.8166 5.49511 31.1931 6.65297 30.2339L7.77672 29.3029C8.06145 29.067 8.17003 28.7396 8.11716 28.4463L8.09243 28.3093C7.9874 27.7279 7.47284 24.1798 7.44133 22.8505C7.39526 20.9068 7.51931 15.4198 11.5287 10.7773C16.2045 5.36328 23.601 3.64062 27.9213 3.64062C32.5287 3.64062 39.7949 5.36328 44.4707 10.7773C48.4801 15.4198 48.6042 20.9068 48.5581 22.8505C48.6244 24.0891 48.012 27.7279 47.907 28.3093L47.8823 28.4463C47.8294 28.7396 47.938 29.067 48.2227 29.3029L49.3465 30.2339C50.5043 31.1931 50.8621 32.8166 50.2146 34.1736L48.0949 38.6164L45.3309 37.2977L47.4506 32.8549C47.4937 32.7644 47.4699 32.6561 47.3927 32.5922L46.269 31.6612C45.1891 30.7666 44.6068 29.3536 44.8684 27.903L44.8916 27.7742C45.1142 26.5417 45.3951 24.9862 45.5221 22.7482C45.6009 20.2705 44.9831 16.288 40.3008 12.6777C35.3828 8.8856 30.0404 8.57617 27.9213 8.57617C25.8022 8.57617 20.6167 8.8856 15.6987 12.6777Z" fill="url(#paint14_radial_7260_27128)" fill-opacity="0.7"/>
<path d="M15.6987 12.6777C11.0164 16.288 10.3985 20.2702 10.4773 22.748C10.6044 24.9859 10.8853 26.5417 11.1078 27.7742L11.1311 27.903C11.3926 29.3536 10.8103 30.7666 9.73048 31.6612L8.60673 32.5922C8.52954 32.6561 8.50569 32.7644 8.54885 32.8549L10.6686 37.2977L7.90453 38.6164L5.78483 34.1736C5.13738 32.8166 5.49511 31.1931 6.65297 30.2339L7.77672 29.3029C8.06145 29.067 8.17003 28.7396 8.11716 28.4463L8.09243 28.3093C7.9874 27.7279 7.47284 24.1798 7.44133 22.8505C7.39526 20.9068 7.51931 15.4198 11.5287 10.7773C16.2045 5.36328 23.601 3.64062 27.9213 3.64062C32.5287 3.64062 39.7949 5.36328 44.4707 10.7773C48.4801 15.4198 48.6042 20.9068 48.5581 22.8505C48.6244 24.0891 48.012 27.7279 47.907 28.3093L47.8823 28.4463C47.8294 28.7396 47.938 29.067 48.2227 29.3029L49.3465 30.2339C50.5043 31.1931 50.8621 32.8166 50.2146 34.1736L48.0949 38.6164L45.3309 37.2977L47.4506 32.8549C47.4937 32.7644 47.4699 32.6561 47.3927 32.5922L46.269 31.6612C45.1891 30.7666 44.6068 29.3536 44.8684 27.903L44.8916 27.7742C45.1142 26.5417 45.3951 24.9862 45.5221 22.7482C45.6009 20.2705 44.9831 16.288 40.3008 12.6777C35.3828 8.8856 30.0404 8.57617 27.9213 8.57617C25.8022 8.57617 20.6167 8.8856 15.6987 12.6777Z" fill="url(#paint15_radial_7260_27128)" fill-opacity="0.7"/>
<path d="M6.5094 39.2411C6.2642 38.434 6.62954 37.5669 7.37835 37.1787L13.1261 34.1988C13.8977 33.7987 14.8436 34.1911 15.1054 35.0198L19.4989 48.923C19.762 49.7558 19.2067 50.6237 18.3402 50.7337L11.7763 51.5669C10.93 51.6743 10.1295 51.1558 9.8815 50.3396L6.5094 39.2411Z" fill="url(#paint16_linear_7260_27128)"/>
<path d="M6.5094 39.2411C6.2642 38.434 6.62954 37.5669 7.37835 37.1787L13.1261 34.1988C13.8977 33.7987 14.8436 34.1911 15.1054 35.0198L19.4989 48.923C19.762 49.7558 19.2067 50.6237 18.3402 50.7337L11.7763 51.5669C10.93 51.6743 10.1295 51.1558 9.8815 50.3396L6.5094 39.2411Z" fill="url(#paint17_linear_7260_27128)"/>
<path d="M6.5094 39.2411C6.2642 38.434 6.62954 37.5669 7.37835 37.1787L13.1261 34.1988C13.8977 33.7987 14.8436 34.1911 15.1054 35.0198L19.4989 48.923C19.762 49.7558 19.2067 50.6237 18.3402 50.7337L11.7763 51.5669C10.93 51.6743 10.1295 51.1558 9.8815 50.3396L6.5094 39.2411Z" fill="url(#paint18_radial_7260_27128)"/>
<path d="M6.5094 39.2411C6.2642 38.434 6.62954 37.5669 7.37835 37.1787L13.1261 34.1988C13.8977 33.7987 14.8436 34.1911 15.1054 35.0198L19.4989 48.923C19.762 49.7558 19.2067 50.6237 18.3402 50.7337L11.7763 51.5669C10.93 51.6743 10.1295 51.1558 9.8815 50.3396L6.5094 39.2411Z" fill="url(#paint19_linear_7260_27128)"/>
<path d="M6.5094 39.2411C6.2642 38.434 6.62954 37.5669 7.37835 37.1787L13.1261 34.1988C13.8977 33.7987 14.8436 34.1911 15.1054 35.0198L19.4989 48.923C19.762 49.7558 19.2067 50.6237 18.3402 50.7337L11.7763 51.5669C10.93 51.6743 10.1295 51.1558 9.8815 50.3396L6.5094 39.2411Z" fill="url(#paint20_linear_7260_27128)"/>
<path d="M49.4613 39.2411C49.7065 38.434 49.3412 37.5669 48.5924 37.1787L42.8446 34.1988C42.073 33.7987 41.1271 34.1911 40.8653 35.0198L36.4719 48.923C36.2087 49.7558 36.764 50.6237 37.6305 50.7337L44.1944 51.5669C45.0407 51.6743 45.8412 51.1558 46.0892 50.3396L49.4613 39.2411Z" fill="url(#paint21_linear_7260_27128)"/>
<path d="M49.4613 39.2411C49.7065 38.434 49.3412 37.5669 48.5924 37.1787L42.8446 34.1988C42.073 33.7987 41.1271 34.1911 40.8653 35.0198L36.4719 48.923C36.2087 49.7558 36.764 50.6237 37.6305 50.7337L44.1944 51.5669C45.0407 51.6743 45.8412 51.1558 46.0892 50.3396L49.4613 39.2411Z" fill="url(#paint22_linear_7260_27128)"/>
<path d="M49.4613 39.2411C49.7065 38.434 49.3412 37.5669 48.5924 37.1787L42.8446 34.1988C42.073 33.7987 41.1271 34.1911 40.8653 35.0198L36.4719 48.923C36.2087 49.7558 36.764 50.6237 37.6305 50.7337L44.1944 51.5669C45.0407 51.6743 45.8412 51.1558 46.0892 50.3396L49.4613 39.2411Z" fill="url(#paint23_radial_7260_27128)"/>
<path d="M49.4613 39.2411C49.7065 38.434 49.3412 37.5669 48.5924 37.1787L42.8446 34.1988C42.073 33.7987 41.1271 34.1911 40.8653 35.0198L36.4719 48.923C36.2087 49.7558 36.764 50.6237 37.6305 50.7337L44.1944 51.5669C45.0407 51.6743 45.8412 51.1558 46.0892 50.3396L49.4613 39.2411Z" fill="url(#paint24_radial_7260_27128)"/>
<path d="M49.4613 39.2411C49.7065 38.434 49.3412 37.5669 48.5924 37.1787L42.8446 34.1988C42.073 33.7987 41.1271 34.1911 40.8653 35.0198L36.4719 48.923C36.2087 49.7558 36.764 50.6237 37.6305 50.7337L44.1944 51.5669C45.0407 51.6743 45.8412 51.1558 46.0892 50.3396L49.4613 39.2411Z" fill="url(#paint25_linear_7260_27128)" fill-opacity="0.8"/>
<path d="M11.3176 34.4793C11.0947 33.7389 11.5143 32.9581 12.2546 32.7352L16.341 31.5051C17.0813 31.2822 17.8622 31.7018 18.0851 32.4421L23.1845 49.3824C23.4074 50.1228 22.9879 50.9036 22.2475 51.1265L18.1612 52.3566C17.4208 52.5795 16.6399 52.16 16.4171 51.4196L11.3176 34.4793Z" fill="url(#paint26_linear_7260_27128)"/>
<path d="M11.3176 34.4793C11.0947 33.7389 11.5143 32.9581 12.2546 32.7352L16.341 31.5051C17.0813 31.2822 17.8622 31.7018 18.0851 32.4421L23.1845 49.3824C23.4074 50.1228 22.9879 50.9036 22.2475 51.1265L18.1612 52.3566C17.4208 52.5795 16.6399 52.16 16.4171 51.4196L11.3176 34.4793Z" fill="url(#paint27_radial_7260_27128)"/>
<path d="M11.3176 34.4793C11.0947 33.7389 11.5143 32.9581 12.2546 32.7352L16.341 31.5051C17.0813 31.2822 17.8622 31.7018 18.0851 32.4421L23.1845 49.3824C23.4074 50.1228 22.9879 50.9036 22.2475 51.1265L18.1612 52.3566C17.4208 52.5795 16.6399 52.16 16.4171 51.4196L11.3176 34.4793Z" fill="url(#paint28_radial_7260_27128)"/>
<path d="M11.3176 34.4793C11.0947 33.7389 11.5143 32.9581 12.2546 32.7352L16.341 31.5051C17.0813 31.2822 17.8622 31.7018 18.0851 32.4421L23.1845 49.3824C23.4074 50.1228 22.9879 50.9036 22.2475 51.1265L18.1612 52.3566C17.4208 52.5795 16.6399 52.16 16.4171 51.4196L11.3176 34.4793Z" fill="url(#paint29_linear_7260_27128)"/>
<path d="M44.325 34.4793C44.5478 33.7389 44.1283 32.9581 43.3879 32.7352L39.3016 31.5051C38.5612 31.2822 37.7804 31.7018 37.5575 32.4421L32.458 49.3824C32.2352 50.1228 32.6547 50.9036 33.3951 51.1265L37.4814 52.3566C38.2218 52.5795 39.0027 52.16 39.2255 51.4196L44.325 34.4793Z" fill="url(#paint30_linear_7260_27128)"/>
<path d="M44.325 34.4793C44.5478 33.7389 44.1283 32.9581 43.3879 32.7352L39.3016 31.5051C38.5612 31.2822 37.7804 31.7018 37.5575 32.4421L32.458 49.3824C32.2352 50.1228 32.6547 50.9036 33.3951 51.1265L37.4814 52.3566C38.2218 52.5795 39.0027 52.16 39.2255 51.4196L44.325 34.4793Z" fill="url(#paint31_linear_7260_27128)"/>
<path d="M44.325 34.4793C44.5478 33.7389 44.1283 32.9581 43.3879 32.7352L39.3016 31.5051C38.5612 31.2822 37.7804 31.7018 37.5575 32.4421L32.458 49.3824C32.2352 50.1228 32.6547 50.9036 33.3951 51.1265L37.4814 52.3566C38.2218 52.5795 39.0027 52.16 39.2255 51.4196L44.325 34.4793Z" fill="url(#paint32_radial_7260_27128)"/>
<path d="M44.325 34.4793C44.5478 33.7389 44.1283 32.9581 43.3879 32.7352L39.3016 31.5051C38.5612 31.2822 37.7804 31.7018 37.5575 32.4421L32.458 49.3824C32.2352 50.1228 32.6547 50.9036 33.3951 51.1265L37.4814 52.3566C38.2218 52.5795 39.0027 52.16 39.2255 51.4196L44.325 34.4793Z" fill="url(#paint33_radial_7260_27128)"/>
<path d="M10.4795 22.7499C10.4008 20.2722 11.0187 16.2899 15.7009 12.6797C20.6189 8.88756 25.8044 8.57813 27.9235 8.57813C30.0427 8.57813 35.385 8.88756 40.303 12.6797C44.9853 16.2899 45.6031 20.2724 45.5244 22.7502C45.3973 24.9882 45.1164 26.5437 44.8938 27.7762L44.8706 27.9049C44.6611 29.0671 44.9932 30.2052 45.6888 31.0718L46.8549 24.6275C46.8849 24.4762 46.9125 24.3236 46.9375 24.1709C47.0547 23.4535 47.1152 22.7209 47.1152 21.9766C47.1152 13.127 38.5579 5.95312 28.002 5.95312C17.446 5.95312 8.88867 13.127 8.88867 21.9766C8.88867 22.7303 8.95076 23.472 9.07088 24.1981L9.06641 24.1982L10.3215 31.0638C11.0128 30.1981 11.3422 29.0635 11.1333 27.9049L11.1101 27.7762C10.8875 26.5436 10.6066 24.9879 10.4795 22.7499Z" fill="url(#paint34_linear_7260_27128)"/>
<path d="M10.4795 22.7499C10.4008 20.2722 11.0187 16.2899 15.7009 12.6797C20.6189 8.88756 25.8044 8.57813 27.9235 8.57813C30.0427 8.57813 35.385 8.88756 40.303 12.6797C44.9853 16.2899 45.6031 20.2724 45.5244 22.7502C45.3973 24.9882 45.1164 26.5437 44.8938 27.7762L44.8706 27.9049C44.6611 29.0671 44.9932 30.2052 45.6888 31.0718L46.8549 24.6275C46.8849 24.4762 46.9125 24.3236 46.9375 24.1709C47.0547 23.4535 47.1152 22.7209 47.1152 21.9766C47.1152 13.127 38.5579 5.95312 28.002 5.95312C17.446 5.95312 8.88867 13.127 8.88867 21.9766C8.88867 22.7303 8.95076 23.472 9.07088 24.1981L9.06641 24.1982L10.3215 31.0638C11.0128 30.1981 11.3422 29.0635 11.1333 27.9049L11.1101 27.7762C10.8875 26.5436 10.6066 24.9879 10.4795 22.7499Z" fill="url(#paint35_radial_7260_27128)"/>
<path d="M10.4795 22.7499C10.4008 20.2722 11.0187 16.2899 15.7009 12.6797C20.6189 8.88756 25.8044 8.57813 27.9235 8.57813C30.0427 8.57813 35.385 8.88756 40.303 12.6797C44.9853 16.2899 45.6031 20.2724 45.5244 22.7502C45.3973 24.9882 45.1164 26.5437 44.8938 27.7762L44.8706 27.9049C44.6611 29.0671 44.9932 30.2052 45.6888 31.0718L46.8549 24.6275C46.8849 24.4762 46.9125 24.3236 46.9375 24.1709C47.0547 23.4535 47.1152 22.7209 47.1152 21.9766C47.1152 13.127 38.5579 5.95312 28.002 5.95312C17.446 5.95312 8.88867 13.127 8.88867 21.9766C8.88867 22.7303 8.95076 23.472 9.07088 24.1981L9.06641 24.1982L10.3215 31.0638C11.0128 30.1981 11.3422 29.0635 11.1333 27.9049L11.1101 27.7762C10.8875 26.5436 10.6066 24.9879 10.4795 22.7499Z" fill="url(#paint36_linear_7260_27128)"/>
<path d="M10.4795 22.7499C10.4008 20.2722 11.0187 16.2899 15.7009 12.6797C20.6189 8.88756 25.8044 8.57813 27.9235 8.57813C30.0427 8.57813 35.385 8.88756 40.303 12.6797C44.9853 16.2899 45.6031 20.2724 45.5244 22.7502C45.3973 24.9882 45.1164 26.5437 44.8938 27.7762L44.8706 27.9049C44.6611 29.0671 44.9932 30.2052 45.6888 31.0718L46.8549 24.6275C46.8849 24.4762 46.9125 24.3236 46.9375 24.1709C47.0547 23.4535 47.1152 22.7209 47.1152 21.9766C47.1152 13.127 38.5579 5.95312 28.002 5.95312C17.446 5.95312 8.88867 13.127 8.88867 21.9766C8.88867 22.7303 8.95076 23.472 9.07088 24.1981L9.06641 24.1982L10.3215 31.0638C11.0128 30.1981 11.3422 29.0635 11.1333 27.9049L11.1101 27.7762C10.8875 26.5436 10.6066 24.9879 10.4795 22.7499Z" fill="url(#paint37_radial_7260_27128)"/>
<path d="M10.4795 22.7499C10.4008 20.2722 11.0187 16.2899 15.7009 12.6797C20.6189 8.88756 25.8044 8.57813 27.9235 8.57813C30.0427 8.57813 35.385 8.88756 40.303 12.6797C44.9853 16.2899 45.6031 20.2724 45.5244 22.7502C45.3973 24.9882 45.1164 26.5437 44.8938 27.7762L44.8706 27.9049C44.6611 29.0671 44.9932 30.2052 45.6888 31.0718L46.8549 24.6275C46.8849 24.4762 46.9125 24.3236 46.9375 24.1709C47.0547 23.4535 47.1152 22.7209 47.1152 21.9766C47.1152 13.127 38.5579 5.95312 28.002 5.95312C17.446 5.95312 8.88867 13.127 8.88867 21.9766C8.88867 22.7303 8.95076 23.472 9.07088 24.1981L9.06641 24.1982L10.3215 31.0638C11.0128 30.1981 11.3422 29.0635 11.1333 27.9049L11.1101 27.7762C10.8875 26.5436 10.6066 24.9879 10.4795 22.7499Z" fill="url(#paint38_radial_7260_27128)" fill-opacity="0.6"/>
<path d="M10.4795 22.7499C10.4008 20.2722 11.0187 16.2899 15.7009 12.6797C20.6189 8.88756 25.8044 8.57813 27.9235 8.57813C30.0427 8.57813 35.385 8.88756 40.303 12.6797C44.9853 16.2899 45.6031 20.2724 45.5244 22.7502C45.3973 24.9882 45.1164 26.5437 44.8938 27.7762L44.8706 27.9049C44.6611 29.0671 44.9932 30.2052 45.6888 31.0718L46.8549 24.6275C46.8849 24.4762 46.9125 24.3236 46.9375 24.1709C47.0547 23.4535 47.1152 22.7209 47.1152 21.9766C47.1152 13.127 38.5579 5.95312 28.002 5.95312C17.446 5.95312 8.88867 13.127 8.88867 21.9766C8.88867 22.7303 8.95076 23.472 9.07088 24.1981L9.06641 24.1982L10.3215 31.0638C11.0128 30.1981 11.3422 29.0635 11.1333 27.9049L11.1101 27.7762C10.8875 26.5436 10.6066 24.9879 10.4795 22.7499Z" fill="url(#paint39_radial_7260_27128)" fill-opacity="0.6"/>
<defs>
<radialGradient id="paint0_radial_7260_27128" cx="0" cy="0" r="1" gradientUnits="userSpaceOnUse" gradientTransform="translate(41.3324 7.842) rotate(114.311) scale(29.6369 40.9929)">
<stop stop-color="#DADADB"/>
<stop offset="1" stop-color="#B9B5BD"/>
</radialGradient>
<radialGradient id="paint1_radial_7260_27128" cx="0" cy="0" r="1" gradientUnits="userSpaceOnUse" gradientTransform="translate(5.46484 18.9107) rotate(19.2062) scale(16.8203 56.1369)">
<stop offset="0.095751" stop-color="#969499"/>
<stop offset="1" stop-color="#969499" stop-opacity="0"/>
</radialGradient>
<radialGradient id="paint2_radial_7260_27128" cx="0" cy="0" r="1" gradientUnits="userSpaceOnUse" gradientTransform="translate(10.4279 35.984) rotate(-117.087) scale(5.35641 1.79149)">
<stop offset="0.256074" stop-color="#C6C4C9"/>
<stop offset="1" stop-color="#C6C4C9" stop-opacity="0"/>
</radialGradient>
<radialGradient id="paint3_radial_7260_27128" cx="0" cy="0" r="1" gradientUnits="userSpaceOnUse" gradientTransform="translate(10.2094 36.2752) rotate(-117.35) scale(3.5657 1.02578)">
<stop offset="0.166979" stop-color="#8D8D8F"/>
<stop offset="1" stop-color="#8D8D8F" stop-opacity="0"/>
</radialGradient>
<radialGradient id="paint4_radial_7260_27128" cx="0" cy="0" r="1" gradientUnits="userSpaceOnUse" gradientTransform="translate(10.7219 30.8805) rotate(140.43) scale(2.95241 0.849348)">
<stop offset="0.166979" stop-color="#8D8D8F"/>
<stop offset="1" stop-color="#8D8D8F" stop-opacity="0"/>
</radialGradient>
<radialGradient id="paint5_radial_7260_27128" cx="0" cy="0" r="1" gradientUnits="userSpaceOnUse" gradientTransform="translate(39.1139 14.251) rotate(-54.3815) scale(6.00075 11.6866)">
<stop offset="0.56676" stop-color="#EBEBED"/>
<stop offset="1" stop-color="#EBEBED" stop-opacity="0"/>
</radialGradient>
<linearGradient id="paint6_linear_7260_27128" x1="48.7973" y1="37.4765" x2="47.4139" y2="32.6712" gradientUnits="userSpaceOnUse">
<stop offset="0.326903" stop-color="#B1B0B4"/>
<stop offset="1" stop-color="#B1B0B4" stop-opacity="0"/>
</linearGradient>
<linearGradient id="paint7_linear_7260_27128" x1="1.20923" y1="35.2595" x2="6.99148" y2="30.7399" gradientUnits="userSpaceOnUse">
<stop offset="0.425383" stop-color="#807D84"/>
<stop offset="0.760683" stop-color="#807D84" stop-opacity="0"/>
</linearGradient>
<linearGradient id="paint8_linear_7260_27128" x1="2.33769" y1="30.7456" x2="8.62025" y2="30.5385" gradientUnits="userSpaceOnUse">
<stop offset="0.425383" stop-color="#807D84"/>
<stop offset="0.698452" stop-color="#868389" stop-opacity="0"/>
</linearGradient>
<linearGradient id="paint9_linear_7260_27128" x1="51.5702" y1="37.3328" x2="47.1719" y2="35.2714" gradientUnits="userSpaceOnUse">
<stop offset="0.425383" stop-color="#807D84"/>
<stop offset="0.698452" stop-color="#868389" stop-opacity="0"/>
</linearGradient>
<radialGradient id="paint10_radial_7260_27128" cx="0" cy="0" r="1" gradientUnits="userSpaceOnUse" gradientTransform="translate(46.5505 34.7405) rotate(115.894) scale(2.31462 0.784683)">
<stop offset="0.166979" stop-color="#8D8D8F"/>
<stop offset="1" stop-color="#8D8D8F" stop-opacity="0"/>
</radialGradient>
<radialGradient id="paint11_radial_7260_27128" cx="0" cy="0" r="1" gradientUnits="userSpaceOnUse" gradientTransform="translate(46.4084 32.1156) rotate(-122.969) scale(2.21671 1.28112)">
<stop offset="0.166979" stop-color="#8D8D8F"/>
<stop offset="1" stop-color="#8D8D8F" stop-opacity="0"/>
</radialGradient>
<radialGradient id="paint12_radial_7260_27128" cx="0" cy="0" r="1" gradientUnits="userSpaceOnUse" gradientTransform="translate(44.2641 25.8602) rotate(12.8474) scale(9.97745 5.76637)">
<stop offset="0.166979" stop-color="#8D8D8F" stop-opacity="0.65"/>
<stop offset="1" stop-color="#8D8D8F" stop-opacity="0"/>
</radialGradient>
<radialGradient id="paint13_radial_7260_27128" cx="0" cy="0" r="1" gradientUnits="userSpaceOnUse" gradientTransform="translate(49.4117 31.907) rotate(74.1855) scale(2.87122 0.952986)">
<stop stop-color="white" stop-opacity="0.39"/>
<stop offset="0.662201" stop-color="#BAB8BC" stop-opacity="0"/>
</radialGradient>
<radialGradient id="paint14_radial_7260_27128" cx="0" cy="0" r="1" gradientUnits="userSpaceOnUse" gradientTransform="translate(48.4092 30.4842) rotate(47.5018) scale(3.14616 1.21775)">
<stop stop-color="white" stop-opacity="0.39"/>
<stop offset="0.662201" stop-color="#BAB8BC" stop-opacity="0"/>
</radialGradient>
<radialGradient id="paint15_radial_7260_27128" cx="0" cy="0" r="1" gradientUnits="userSpaceOnUse" gradientTransform="translate(47.4653 29.1113) rotate(70.8294) scale(2.6752 0.90508)">
<stop stop-color="white" stop-opacity="0.39"/>
<stop offset="0.662201" stop-color="#BAB8BC" stop-opacity="0"/>
</radialGradient>
<linearGradient id="paint16_linear_7260_27128" x1="8.8617" y1="37.5068" x2="12.9991" y2="51.5809" gradientUnits="userSpaceOnUse">
<stop stop-color="#A6A0AA"/>
<stop offset="1" stop-color="#9D94A2"/>
</linearGradient>
<linearGradient id="paint17_linear_7260_27128" x1="14.2634" y1="51.5809" x2="12.9991" y2="47.1714" gradientUnits="userSpaceOnUse">
<stop stop-color="#998E9E"/>
<stop offset="1" stop-color="#998E9E" stop-opacity="0"/>
</linearGradient>
<radialGradient id="paint18_radial_7260_27128" cx="0" cy="0" r="1" gradientUnits="userSpaceOnUse" gradientTransform="translate(6.43359 38.6005) rotate(75.1074) scale(15.6184 1.86)">
<stop stop-color="#817F83"/>
<stop offset="1" stop-color="#817F83" stop-opacity="0"/>
</radialGradient>
<linearGradient id="paint19_linear_7260_27128" x1="7.93201" y1="34.9912" x2="10.2836" y2="40.5146" gradientUnits="userSpaceOnUse">
<stop stop-color="#7F7E80"/>
<stop offset="1" stop-color="#7F7E80" stop-opacity="0"/>
</linearGradient>
<linearGradient id="paint20_linear_7260_27128" x1="14.9742" y1="42.2553" x2="12.2496" y2="43.1438" gradientUnits="userSpaceOnUse">
<stop offset="0.181858" stop-color="#807D84"/>
<stop offset="1" stop-color="#807D84" stop-opacity="0"/>
</linearGradient>
<linearGradient id="paint21_linear_7260_27128" x1="47.5281" y1="36.413" x2="42.9716" y2="51.5809" gradientUnits="userSpaceOnUse">
<stop stop-color="#BAB9BC"/>
<stop offset="1" stop-color="#9F96A4"/>
</linearGradient>
<linearGradient id="paint22_linear_7260_27128" x1="40.6921" y1="51.5809" x2="44.0281" y2="46.2021" gradientUnits="userSpaceOnUse">
<stop stop-color="#9A8F9F"/>
<stop offset="1" stop-color="#9A8F9F" stop-opacity="0"/>
</linearGradient>
<radialGradient id="paint23_radial_7260_27128" cx="0" cy="0" r="1" gradientUnits="userSpaceOnUse" gradientTransform="translate(48.4304 39.7763) rotate(106.376) scale(6.49798 1.19229)">
<stop stop-color="#C7C6C8"/>
<stop offset="1" stop-color="#BAB8BC" stop-opacity="0"/>
</radialGradient>
<radialGradient id="paint24_radial_7260_27128" cx="0" cy="0" r="1" gradientUnits="userSpaceOnUse" gradientTransform="translate(41.4578 39.6943) rotate(19.7468) scale(6.79821 4.4806)">
<stop stop-color="#C1BFC3"/>
<stop offset="1" stop-color="#C1BFC3" stop-opacity="0"/>
</radialGradient>
<linearGradient id="paint25_linear_7260_27128" x1="48.7117" y1="35.4565" x2="42.9716" y2="47.1714" gradientUnits="userSpaceOnUse">
<stop stop-color="#9B999F"/>
<stop offset="0.226369" stop-color="#998E9E" stop-opacity="0"/>
</linearGradient>
<linearGradient id="paint26_linear_7260_27128" x1="13.9482" y1="32.2036" x2="20.5107" y2="54.0786" gradientUnits="userSpaceOnUse">
<stop stop-color="#B7B6B8"/>
<stop offset="0.321101" stop-color="#D9D5DD"/>
<stop offset="0.681651" stop-color="#D9D5DD"/>
<stop offset="1" stop-color="#CDC1D4"/>
</linearGradient>
<radialGradient id="paint27_radial_7260_27128" cx="0" cy="0" r="1" gradientUnits="userSpaceOnUse" gradientTransform="translate(10.831 33.0239) rotate(72.755) scale(29.1462 2.41462)">
<stop stop-color="#A4A2A6"/>
<stop offset="1" stop-color="#C5BACF" stop-opacity="0"/>
</radialGradient>
<radialGradient id="paint28_radial_7260_27128" cx="0" cy="0" r="1" gradientUnits="userSpaceOnUse" gradientTransform="translate(20.1826 39.5864) rotate(162.646) scale(1.83346 16.9008)">
<stop offset="0.261566" stop-color="#F6F4F7"/>
<stop offset="1" stop-color="#E6E1EA" stop-opacity="0"/>
</radialGradient>
<linearGradient id="paint29_linear_7260_27128" x1="21.249" y1="42.2114" x2="20.3193" y2="42.4575" gradientUnits="userSpaceOnUse">
<stop offset="0.133145" stop-color="#DBD9DE"/>
<stop offset="1" stop-color="#DBD9DE" stop-opacity="0"/>
</linearGradient>
<linearGradient id="paint30_linear_7260_27128" x1="42.6603" y1="32.0396" x2="35.1682" y2="54.4614" gradientUnits="userSpaceOnUse">
<stop stop-color="#DAD9DB"/>
<stop offset="0.399322" stop-color="#DEDDE1"/>
<stop offset="0.961979" stop-color="#C7B9CF"/>
</linearGradient>
<linearGradient id="paint31_linear_7260_27128" x1="41.8947" y1="31.8208" x2="40.7463" y2="35.4849" gradientUnits="userSpaceOnUse">
<stop offset="0.10868" stop-color="#C9C9CA"/>
<stop offset="1" stop-color="#C9C9CA" stop-opacity="0"/>
</linearGradient>
<radialGradient id="paint32_radial_7260_27128" cx="0" cy="0" r="1" gradientUnits="userSpaceOnUse" gradientTransform="translate(35.6603 37.8911) rotate(15.7807) scale(2.61415 27.9259)">
<stop offset="0.205252" stop-color="#A4A3A6"/>
<stop offset="1" stop-color="#CECAD3" stop-opacity="0"/>
</radialGradient>
<radialGradient id="paint33_radial_7260_27128" cx="0" cy="0" r="1" gradientUnits="userSpaceOnUse" gradientTransform="translate(42.4143 38.1099) rotate(105.977) scale(6.85462 1.09306)">
<stop offset="0.151268" stop-color="#F5F3F7"/>
<stop offset="1" stop-color="#E8E4EC" stop-opacity="0"/>
</radialGradient>
<linearGradient id="paint34_linear_7260_27128" x1="10.6696" y1="29.7422" x2="30.4665" y2="4.36719" gradientUnits="userSpaceOnUse">
<stop stop-color="#CDCBCF"/>
<stop offset="1" stop-color="#BEB5C7"/>
</linearGradient>
<radialGradient id="paint35_radial_7260_27128" cx="0" cy="0" r="1" gradientUnits="userSpaceOnUse" gradientTransform="translate(39.5993 15.0313) rotate(-88.0363) scale(9.57594 29.4608)">
<stop offset="0.172043" stop-color="#AFA7B6"/>
<stop offset="1" stop-color="#AFA7B6" stop-opacity="0"/>
</radialGradient>
<linearGradient id="paint36_linear_7260_27128" x1="46.0524" y1="31.0718" x2="40.0368" y2="16.3438" gradientUnits="userSpaceOnUse">
<stop stop-color="#9B99A0"/>
<stop offset="1" stop-color="#9B99A0" stop-opacity="0"/>
</linearGradient>
<radialGradient id="paint37_radial_7260_27128" cx="0" cy="0" r="1" gradientUnits="userSpaceOnUse" gradientTransform="translate(10.9747 31.0718) rotate(-88.4467) scale(4.88613 7.43589)">
<stop stop-color="#A5A2A9"/>
<stop offset="1" stop-color="#A5A2A9" stop-opacity="0"/>
</radialGradient>
<radialGradient id="paint38_radial_7260_27128" cx="0" cy="0" r="1" gradientUnits="userSpaceOnUse" gradientTransform="translate(27.3758 20.5275) rotate(85.479) scale(17.795 23.0402)">
<stop offset="0.725954" stop-color="#BBB2C2" stop-opacity="0"/>
<stop offset="0.817984" stop-color="white" stop-opacity="0.4"/>
</radialGradient>
<radialGradient id="paint39_radial_7260_27128" cx="0" cy="0" r="1" gradientUnits="userSpaceOnUse" gradientTransform="translate(43.6981 27.7943) rotate(-61.9589) scale(17.3346 8.60336)">
<stop offset="0.166979" stop-color="#8D8E8F" stop-opacity="0.94"/>
<stop offset="1" stop-color="#8D8D8F" stop-opacity="0"/>
</radialGradient>
</defs>
</svg>
