<svg width="16" height="16" viewBox="0 0 16 16" fill="none" xmlns="http://www.w3.org/2000/svg">
<path d="M8.00016 14.6673C11.6821 14.6673 14.6668 11.6826 14.6668 8.00065C14.6668 4.31875 11.6821 1.33398 8.00016 1.33398C4.31826 1.33398 1.3335 4.31875 1.3335 8.00065C1.3335 11.6826 4.31826 14.6673 8.00016 14.6673Z" stroke="black" stroke-linecap="round" stroke-linejoin="round"/>
<path fill-rule="evenodd" clip-rule="evenodd" d="M7.99788 6.04592C7.33143 5.26678 6.22008 5.0572 5.38506 5.77066C4.55004 6.48411 4.43249 7.67698 5.08823 8.52079C5.50824 9.06125 6.58389 10.0635 7.30299 10.7142C7.54195 10.9305 7.66144 11.0386 7.80455 11.082C7.92758 11.1192 8.06818 11.1192 8.19121 11.082C8.33432 11.0386 8.45381 10.9305 8.69277 10.7142C9.41187 10.0635 10.4875 9.06125 10.9075 8.52079C11.5633 7.67698 11.4601 6.47661 10.6107 5.77066C9.76133 5.0647 8.66433 5.26678 7.99788 6.04592Z" stroke="black" stroke-linecap="round" stroke-linejoin="round"/>
</svg>
