<svg width="20" height="20" viewBox="0 0 20 20" fill="none" xmlns="http://www.w3.org/2000/svg">
<path d="M9.99967 10.8327C10.4599 10.8327 10.833 10.4596 10.833 9.99935C10.833 9.53911 10.4599 9.16602 9.99967 9.16602C9.53944 9.16602 9.16634 9.53911 9.16634 9.99935C9.16634 10.4596 9.53944 10.8327 9.99967 10.8327Z" stroke="black" stroke-width="1.4" stroke-linecap="round" stroke-linejoin="round"/>
<path d="M15.833 10.8327C16.2932 10.8327 16.6663 10.4596 16.6663 9.99935C16.6663 9.53911 16.2932 9.16602 15.833 9.16602C15.3728 9.16602 14.9997 9.53911 14.9997 9.99935C14.9997 10.4596 15.3728 10.8327 15.833 10.8327Z" stroke="black" stroke-width="1.4" stroke-linecap="round" stroke-linejoin="round"/>
<path d="M4.16634 10.8327C4.62658 10.8327 4.99967 10.4596 4.99967 9.99935C4.99967 9.53911 4.62658 9.16602 4.16634 9.16602C3.7061 9.16602 3.33301 9.53911 3.33301 9.99935C3.33301 10.4596 3.7061 10.8327 4.16634 10.8327Z" stroke="black" stroke-width="1.4" stroke-linecap="round" stroke-linejoin="round"/>
</svg>
