<svg width="32" height="32" viewBox="0 0 32 32" fill="none" xmlns="http://www.w3.org/2000/svg">
<rect x="6.3" y="1.3" width="19.4" height="20.4" rx="2.7" fill="#C7AEE8" stroke="black" stroke-width="0.6"/>
<rect x="5.08906" y="2.67109" width="21.5053" height="15.9789" rx="2.7" fill="#C7AEE8" stroke="black" stroke-width="0.6"/>
<rect x="4.4" y="5.13828" width="22.8842" height="24.4632" rx="2.6" fill="#F79CFF"/>
<rect x="4.4" y="5.13828" width="22.8842" height="24.4632" rx="2.6" stroke="black" stroke-width="0.8"/>
<path fill-rule="evenodd" clip-rule="evenodd" d="M15.842 11.2728C15.1514 10.4527 13.9999 10.2321 13.1346 10.9831C12.2694 11.7341 12.1476 12.9897 12.8271 13.878C13.5065 14.7662 15.842 16.8392 15.842 16.8392C15.842 16.8392 18.1775 14.7662 18.8569 13.878C19.5364 12.9897 19.4295 11.7262 18.5494 10.9831C17.6693 10.24 16.5326 10.4527 15.842 11.2728Z" fill="#F79CFF"/>
<path d="M12.8838 24.2076H18.8049M10.9102 20.5234H20.7786M15.842 11.2728C15.1514 10.4527 13.9999 10.2321 13.1346 10.9831C12.2694 11.7341 12.1476 12.9897 12.8271 13.878C13.5065 14.7662 15.842 16.8392 15.842 16.8392C15.842 16.8392 18.1775 14.7662 18.8569 13.878C19.5364 12.9897 19.4295 11.7262 18.5494 10.9831C17.6693 10.24 16.5326 10.4527 15.842 11.2728Z" stroke="black" stroke-linecap="round" stroke-linejoin="round"/>
<path fill-rule="evenodd" clip-rule="evenodd" d="M15.8383 11.2728C15.1477 10.4527 13.9962 10.2321 13.1309 10.9831C12.2657 11.7341 12.1439 12.9897 12.8234 13.878C13.5028 14.7662 15.8383 16.8392 15.8383 16.8392C15.8383 16.8392 18.1738 14.7662 18.8532 13.878C19.5327 12.9897 19.4258 11.7262 18.5457 10.9831C17.6656 10.24 16.5289 10.4527 15.8383 11.2728Z" fill="white" stroke="black" stroke-linecap="round" stroke-linejoin="round"/>
</svg>
