<svg width="25" height="24" viewBox="0 0 25 24" fill="none" xmlns="http://www.w3.org/2000/svg">
<path d="M16.7 21H7.43137C6.82555 21 6.52265 21 6.38238 20.8802C6.26068 20.7763 6.19609 20.6203 6.20865 20.4608C6.22312 20.2769 6.43731 20.0627 6.86569 19.6343L15.3686 11.1314C15.7646 10.7354 15.9627 10.5373 16.191 10.4632C16.3918 10.3979 16.6082 10.3979 16.809 10.4632C17.0373 10.5373 17.2354 10.7354 17.6314 11.1314L21.5 15V16.2M16.7 21C18.3802 21 19.2202 21 19.862 20.673C20.4265 20.3854 20.8854 19.9265 21.173 19.362C21.5 18.7202 21.5 17.8802 21.5 16.2M16.7 21H8.3C6.61984 21 5.77976 21 5.13803 20.673C4.57354 20.3854 4.1146 19.9265 3.82698 19.362C3.5 18.7202 3.5 17.8802 3.5 16.2V7.8C3.5 6.11984 3.5 5.27976 3.82698 4.63803C4.1146 4.07354 4.57354 3.6146 5.13803 3.32698C5.77976 3 6.61984 3 8.3 3H16.7C18.3802 3 19.2202 3 19.862 3.32698C20.4265 3.6146 20.8854 4.07354 21.173 4.63803C21.5 5.27976 21.5 6.11984 21.5 7.8V16.2M11 8.5C11 9.60457 10.1046 10.5 9 10.5C7.89543 10.5 7 9.60457 7 8.5C7 7.39543 7.89543 6.5 9 6.5C10.1046 6.5 11 7.39543 11 8.5Z" stroke="black" stroke-width="2" stroke-linecap="round" stroke-linejoin="round"/>
</svg>
