<svg width="16" height="16" viewBox="0 0 16 16" fill="none" xmlns="http://www.w3.org/2000/svg">
<path fill-rule="evenodd" clip-rule="evenodd" d="M2.05907 0.333008C0.92188 0.333008 0 1.25947 0 2.40233C0 3.54518 0.92188 4.47165 2.05907 4.47165C3.19627 4.47165 4.11815 3.54518 4.11815 2.40233C4.11815 1.25947 3.19627 0.333008 2.05907 0.333008ZM1.14768 2.40233C1.14768 1.89647 1.55573 1.4864 2.05907 1.4864C2.56242 1.4864 2.97047 1.89647 2.97047 2.40233C2.97047 2.90818 2.56242 3.31826 2.05907 3.31826C1.55573 3.31826 1.14768 2.90818 1.14768 2.40233Z" fill="black"/>
<path fill-rule="evenodd" clip-rule="evenodd" d="M10.9705 4.81088C9.63652 4.81088 8.35726 5.34342 7.41406 6.29134C6.47082 7.23928 5.94092 8.52488 5.94092 9.86548V15.0897C5.94092 15.4081 6.19784 15.6663 6.51476 15.6663H9.48519C9.80212 15.6663 10.0591 15.4081 10.0591 15.0897V9.86548C10.0591 9.62254 10.1551 9.38954 10.326 9.21781C10.4969 9.04601 10.7287 8.94954 10.9705 8.94954C11.2122 8.94954 11.444 9.04601 11.6149 9.21781C11.7859 9.38954 11.8819 9.62254 11.8819 9.86548V15.0897C11.8819 15.4081 12.1388 15.6663 12.4557 15.6663H15.4261C15.7431 15.6663 16 15.4081 16 15.0897V9.86548C16 8.52488 15.4701 7.23928 14.5269 6.29134C13.5837 5.34342 12.3044 4.81088 10.9705 4.81088ZM10.9705 5.96428C9.94092 5.96428 8.95359 6.3753 8.22559 7.10688C7.49759 7.83854 7.08859 8.83081 7.08859 9.86548V14.5129H8.91139V9.86548C8.91139 9.31661 9.12832 8.79028 9.51446 8.40221C9.90059 8.01414 10.4243 7.79614 10.9705 7.79614C11.5165 7.79614 12.0403 8.01414 12.4265 8.40221C12.8126 8.79028 13.0295 9.31661 13.0295 9.86548V14.5129H14.8523V9.86548C14.8523 8.83081 14.4433 7.83854 13.7153 7.10688C12.9873 6.3753 12 5.96428 10.9705 5.96428Z" fill="black"/>
<path fill-rule="evenodd" clip-rule="evenodd" d="M0 6.13389C0 5.81539 0.256917 5.55719 0.57384 5.55719H3.54431C3.86123 5.55719 4.11815 5.81539 4.11815 6.13389V15.0897C4.11815 15.4081 3.86123 15.6663 3.54431 15.6663H0.57384C0.256917 15.6663 0 15.4081 0 15.0897V6.13389ZM1.14768 6.7106V14.5129H2.97047V6.7106H1.14768Z" fill="black"/>
</svg>
