<svg width="56" height="56" viewBox="0 0 56 56" fill="none" xmlns="http://www.w3.org/2000/svg">
<rect x="24.4727" y="7.32812" width="7.05469" height="11.0469" fill="url(#paint0_linear_7747_10055)"/>
<rect x="24.4727" y="7.32812" width="7.05469" height="11.0469" fill="url(#paint1_radial_7747_10055)"/>
<rect x="24.4727" y="7.32812" width="7.05469" height="11.0469" fill="url(#paint2_radial_7747_10055)"/>
<rect x="24.4727" y="7.32812" width="7.05469" height="11.0469" fill="url(#paint3_linear_7747_10055)"/>
<path d="M22.75 6.20436C22.75 4.69929 24.0744 3.53797 25.5666 3.73466L36.7888 5.21385C37.6585 5.32849 38.3086 6.06991 38.3086 6.94715C38.3086 7.9127 37.5259 8.69543 36.5603 8.69543H25.2411C23.8653 8.69543 22.75 7.58014 22.75 6.20436Z" fill="#FF9294"/>
<path d="M22.75 6.20436C22.75 4.69929 24.0744 3.53797 25.5666 3.73466L36.7888 5.21385C37.6585 5.32849 38.3086 6.06991 38.3086 6.94715C38.3086 7.9127 37.5259 8.69543 36.5603 8.69543H25.2411C23.8653 8.69543 22.75 7.58014 22.75 6.20436Z" fill="url(#paint4_linear_7747_10055)"/>
<path d="M22.75 6.20436C22.75 4.69929 24.0744 3.53797 25.5666 3.73466L36.7888 5.21385C37.6585 5.32849 38.3086 6.06991 38.3086 6.94715C38.3086 7.9127 37.5259 8.69543 36.5603 8.69543H25.2411C23.8653 8.69543 22.75 7.58014 22.75 6.20436Z" fill="url(#paint5_linear_7747_10055)"/>
<path d="M22.75 6.20436C22.75 4.69929 24.0744 3.53797 25.5666 3.73466L36.7888 5.21385C37.6585 5.32849 38.3086 6.06991 38.3086 6.94715C38.3086 7.9127 37.5259 8.69543 36.5603 8.69543H25.2411C23.8653 8.69543 22.75 7.58014 22.75 6.20436Z" fill="url(#paint6_radial_7747_10055)"/>
<path d="M12.3594 23.9641C12.3594 17.5852 17.5305 12.4141 23.9094 12.4141H32.0906C38.4695 12.4141 43.6406 17.5852 43.6406 23.9641V46.9219C43.6406 49.8214 41.2901 52.1719 38.3906 52.1719H17.6094C14.7099 52.1719 12.3594 49.8214 12.3594 46.9219V23.9641Z" fill="url(#paint7_linear_7747_10055)"/>
<path d="M12.3594 23.9641C12.3594 17.5852 17.5305 12.4141 23.9094 12.4141H32.0906C38.4695 12.4141 43.6406 17.5852 43.6406 23.9641V46.9219C43.6406 49.8214 41.2901 52.1719 38.3906 52.1719H17.6094C14.7099 52.1719 12.3594 49.8214 12.3594 46.9219V23.9641Z" fill="url(#paint8_linear_7747_10055)"/>
<path d="M12.3594 23.9641C12.3594 17.5852 17.5305 12.4141 23.9094 12.4141H32.0906C38.4695 12.4141 43.6406 17.5852 43.6406 23.9641V46.9219C43.6406 49.8214 41.2901 52.1719 38.3906 52.1719H17.6094C14.7099 52.1719 12.3594 49.8214 12.3594 46.9219V23.9641Z" fill="url(#paint9_radial_7747_10055)" fill-opacity="0.95"/>
<path d="M12.3594 23.9641C12.3594 17.5852 17.5305 12.4141 23.9094 12.4141H32.0906C38.4695 12.4141 43.6406 17.5852 43.6406 23.9641V46.9219C43.6406 49.8214 41.2901 52.1719 38.3906 52.1719H17.6094C14.7099 52.1719 12.3594 49.8214 12.3594 46.9219V23.9641Z" fill="url(#paint10_radial_7747_10055)"/>
<path d="M12.3594 23.9641C12.3594 17.5852 17.5305 12.4141 23.9094 12.4141H32.0906C38.4695 12.4141 43.6406 17.5852 43.6406 23.9641V46.9219C43.6406 49.8214 41.2901 52.1719 38.3906 52.1719H17.6094C14.7099 52.1719 12.3594 49.8214 12.3594 46.9219V23.9641Z" fill="url(#paint11_linear_7747_10055)"/>
<path d="M12.3594 23.9641C12.3594 17.5852 17.5305 12.4141 23.9094 12.4141H32.0906C38.4695 12.4141 43.6406 17.5852 43.6406 23.9641V46.9219C43.6406 49.8214 41.2901 52.1719 38.3906 52.1719H17.6094C14.7099 52.1719 12.3594 49.8214 12.3594 46.9219V23.9641Z" fill="url(#paint12_radial_7747_10055)" fill-opacity="0.4"/>
<path d="M12.3594 23.9641C12.3594 17.5852 17.5305 12.4141 23.9094 12.4141H32.0906C38.4695 12.4141 43.6406 17.5852 43.6406 23.9641V46.9219C43.6406 49.8214 41.2901 52.1719 38.3906 52.1719H17.6094C14.7099 52.1719 12.3594 49.8214 12.3594 46.9219V23.9641Z" fill="url(#paint13_linear_7747_10055)"/>
<path d="M21.8754 33.4488L26.702 23.5167C27.0078 22.9798 27.3787 22.6406 27.8777 22.6406C28.4109 22.6406 28.7913 22.9755 29.0959 23.5167L34.1796 33.7038L34.1718 33.7037C34.6812 34.6758 34.9694 35.7821 34.9694 36.9557C34.9694 40.8305 31.8283 43.9717 27.9535 43.9717C24.0786 43.9717 20.9375 40.8305 20.9375 36.9557C20.9375 35.7417 21.2459 34.5996 21.7885 33.6037L21.8308 33.5271C21.8456 33.5009 21.8604 33.4748 21.8754 33.4488Z" fill="url(#paint14_linear_7747_10055)" fill-opacity="0.79"/>
<path d="M21.8754 33.4488L26.702 23.5167C27.0078 22.9798 27.3787 22.6406 27.8777 22.6406C28.4109 22.6406 28.7913 22.9755 29.0959 23.5167L34.1796 33.7038L34.1718 33.7037C34.6812 34.6758 34.9694 35.7821 34.9694 36.9557C34.9694 40.8305 31.8283 43.9717 27.9535 43.9717C24.0786 43.9717 20.9375 40.8305 20.9375 36.9557C20.9375 35.7417 21.2459 34.5996 21.7885 33.6037L21.8308 33.5271C21.8456 33.5009 21.8604 33.4748 21.8754 33.4488Z" fill="url(#paint15_radial_7747_10055)"/>
<path d="M21.8754 33.4488L26.702 23.5167C27.0078 22.9798 27.3787 22.6406 27.8777 22.6406C28.4109 22.6406 28.7913 22.9755 29.0959 23.5167L34.1796 33.7038L34.1718 33.7037C34.6812 34.6758 34.9694 35.7821 34.9694 36.9557C34.9694 40.8305 31.8283 43.9717 27.9535 43.9717C24.0786 43.9717 20.9375 40.8305 20.9375 36.9557C20.9375 35.7417 21.2459 34.5996 21.7885 33.6037L21.8308 33.5271C21.8456 33.5009 21.8604 33.4748 21.8754 33.4488Z" fill="url(#paint16_radial_7747_10055)"/>
<defs>
<linearGradient id="paint0_linear_7747_10055" x1="29.6953" y1="11.4844" x2="24.4727" y2="11.4844" gradientUnits="userSpaceOnUse">
<stop stop-color="#FF878D"/>
<stop offset="1" stop-color="#CF696E"/>
</linearGradient>
<radialGradient id="paint1_radial_7747_10055" cx="0" cy="0" r="1" gradientUnits="userSpaceOnUse" gradientTransform="translate(27.3984 12.8516) rotate(-83.0317) scale(4.9585 9.13049)">
<stop offset="0.582289" stop-color="#D6606B" stop-opacity="0"/>
<stop offset="0.94733" stop-color="#B9535B"/>
</radialGradient>
<radialGradient id="paint2_radial_7747_10055" cx="0" cy="0" r="1" gradientUnits="userSpaceOnUse" gradientTransform="translate(29.2578 12.8516) rotate(-90) scale(3.99219 1.1141)">
<stop stop-color="#FF8B93"/>
<stop offset="1" stop-color="#FF8B93" stop-opacity="0"/>
</radialGradient>
<linearGradient id="paint3_linear_7747_10055" x1="24.4727" y1="11.8511" x2="31.5273" y2="11.8511" gradientUnits="userSpaceOnUse">
<stop offset="0.0298773" stop-color="#D16470" stop-opacity="0"/>
<stop offset="0.27706" stop-color="#D16470"/>
<stop offset="0.672553" stop-color="#D16470" stop-opacity="0"/>
<stop offset="1" stop-color="#D16470" stop-opacity="0"/>
</linearGradient>
<linearGradient id="paint4_linear_7747_10055" x1="33.25" y1="8.69543" x2="33.3047" y2="6.20416" gradientUnits="userSpaceOnUse">
<stop stop-color="#F56E7B"/>
<stop offset="1" stop-color="#F56E7B" stop-opacity="0"/>
</linearGradient>
<linearGradient id="paint5_linear_7747_10055" x1="22.75" y1="6.672" x2="25.7578" y2="6.672" gradientUnits="userSpaceOnUse">
<stop offset="0.127273" stop-color="#D47F84"/>
<stop offset="1" stop-color="#D47F84" stop-opacity="0"/>
</linearGradient>
<radialGradient id="paint6_radial_7747_10055" cx="0" cy="0" r="1" gradientUnits="userSpaceOnUse" gradientTransform="translate(37.625 6.20416) rotate(180) scale(1.39453 0.58709)">
<stop offset="0.309858" stop-color="#FFABB2"/>
<stop offset="1" stop-color="#FFABB2" stop-opacity="0"/>
</radialGradient>
<linearGradient id="paint7_linear_7747_10055" x1="41.7266" y1="35.6562" x2="22.9141" y2="35.7656" gradientUnits="userSpaceOnUse">
<stop stop-color="#FFDFDD"/>
<stop offset="1" stop-color="#ECACB9"/>
</linearGradient>
<linearGradient id="paint8_linear_7747_10055" x1="28" y1="12.4141" x2="28" y2="21.4375" gradientUnits="userSpaceOnUse">
<stop stop-color="#FAC5BC"/>
<stop offset="1" stop-color="#FAC5BC" stop-opacity="0"/>
</linearGradient>
<radialGradient id="paint9_radial_7747_10055" cx="0" cy="0" r="1" gradientUnits="userSpaceOnUse" gradientTransform="translate(43.6406 46.6546) rotate(-124.537) scale(41.5661 31.6056)">
<stop offset="0.77593" stop-color="#CE9D9E" stop-opacity="0"/>
<stop offset="1" stop-color="#CE9D9E"/>
</radialGradient>
<radialGradient id="paint10_radial_7747_10055" cx="0" cy="0" r="1" gradientUnits="userSpaceOnUse" gradientTransform="translate(36.6953 18.5937) rotate(180) scale(12.7969 10.3594)">
<stop stop-color="#FFF3EB"/>
<stop offset="1" stop-color="#FFE1E2" stop-opacity="0"/>
</radialGradient>
<linearGradient id="paint11_linear_7747_10055" x1="46.3203" y1="43.8594" x2="40.6328" y2="43.8594" gradientUnits="userSpaceOnUse">
<stop offset="0.153846" stop-color="#FFC6C4"/>
<stop offset="1" stop-color="#FFC6C4" stop-opacity="0"/>
</linearGradient>
<radialGradient id="paint12_radial_7747_10055" cx="0" cy="0" r="1" gradientUnits="userSpaceOnUse" gradientTransform="translate(23.1516 34.7937) rotate(77.7339) scale(22.8213 17.9557)">
<stop offset="0.141218" stop-color="#E9A1B1" stop-opacity="0"/>
<stop offset="0.357266" stop-color="#E9A1B1"/>
<stop offset="0.708971" stop-color="#E9A1B1" stop-opacity="0"/>
</radialGradient>
<linearGradient id="paint13_linear_7747_10055" x1="32.6484" y1="52.1719" x2="32.6484" y2="47.5781" gradientUnits="userSpaceOnUse">
<stop stop-color="#C675AE"/>
<stop offset="1" stop-color="#E693B9" stop-opacity="0"/>
</linearGradient>
<linearGradient id="paint14_linear_7747_10055" x1="38.3625" y1="33.3061" x2="20.9375" y2="37.7336" gradientUnits="userSpaceOnUse">
<stop stop-color="#FFF5FF"/>
<stop offset="0.507741" stop-color="#FFE8FF"/>
<stop offset="0.822917" stop-color="#FFD6F2"/>
<stop offset="1" stop-color="#EFC4DF"/>
</linearGradient>
<radialGradient id="paint15_radial_7747_10055" cx="0" cy="0" r="1" gradientUnits="userSpaceOnUse" gradientTransform="translate(25.3721 27.7946) rotate(84.9576) scale(9.92341 6.52778)">
<stop stop-color="#FFD4EE"/>
<stop offset="1" stop-color="#FFD4EE" stop-opacity="0"/>
</radialGradient>
<radialGradient id="paint16_radial_7747_10055" cx="0" cy="0" r="1" gradientUnits="userSpaceOnUse" gradientTransform="translate(34.9693 36.985) rotate(90) scale(11.1944 7.36386)">
<stop stop-color="#FFF3FF"/>
<stop offset="0.76819" stop-color="#FFF3FF" stop-opacity="0"/>
</radialGradient>
</defs>
</svg>
