<svg width="60" height="60" viewBox="0 0 60 60" fill="none" xmlns="http://www.w3.org/2000/svg">
<path d="M15.4231 23.3803L13.7479 24.8462M15.4231 23.3803L17.0983 24.8462M15.4231 23.3803V30.2906M11.8632 12.0726V10.8162H13.5385V12.0726M11.8632 13.3291V14.5855H13.5385V13.3291M16.8889 12.0726V10.8162H15.2137V12.0726M15.2137 13.3291V14.5855H16.8889V13.3291M20.2393 12.0726V10.8162H18.5641V12.0726M18.5641 13.3291V14.5855H20.2393V13.3291M9.97863 12.7009H10.3974M11.3397 38.0385H9.76923V35.1068H12.9103V38.0385H11.3397ZM11.3397 38.0385V40.1325M49.3462 42.0171V46.8333C49.3462 52.5291 45.7863 55 41.5983 55C37.4103 55 27.359 55 19.4017 55C11.4444 55 11.5142 48.7179 11.3397 45.5769V40.1325M49.3462 42.0171H50.812L51.349 30.9188M49.3462 42.0171H47.8803L47.5223 30.9188M51.349 30.9188L51.4402 29.0342H49.4509M51.349 30.9188H47.5223M51.349 30.9188H52.6966M47.5223 30.9188L47.4615 29.0342H49.4509M47.5223 30.9188H45.9957M49.4509 29.0342V25.6838M39.7137 42.0171H41.1795L41.7165 30.9188M39.7137 42.0171H38.2479L37.8899 30.9188M39.7137 42.0171C39.7137 42.0171 39.7137 44.1111 39.7137 46.2051C39.5288 47.6844 39.5043 49.3462 35.1068 49.3462C30.7094 49.3462 29.6624 49.3462 24.6368 49.3462C19.6111 49.3462 19.297 45.2977 19.297 43.2735V40.1325M41.7165 30.9188L41.8077 29.0342H39.8184M41.7165 30.9188H37.8899M41.7165 30.9188H43.0641M37.8899 30.9188L37.8291 29.0342H39.8184M37.8899 30.9188H36.3632M39.8184 29.0342V25.6838M19.297 38.0385H17.7265V35.1068H20.8675V38.0385H19.297ZM19.297 38.0385V40.1325M11.3397 40.1325H9.17415C7.42112 40.1325 6 38.7114 6 36.9583V9.17415C6 7.42112 7.42112 6 9.17415 6H21.4626C23.2156 6 24.6368 7.42112 24.6368 9.17415V36.9583C24.6368 38.7114 23.2156 40.1325 21.4626 40.1325H19.297M11.3397 40.1325H19.297M8.72222 18.1453V19.8205H11.235V18.1453H8.72222ZM19.6111 18.1453V19.8205H22.1239V18.1453H19.6111ZM20.8675 26.9402C20.8675 29.9471 18.43 32.3846 15.4231 32.3846C12.4162 32.3846 9.97863 29.9471 9.97863 26.9402C9.97863 23.9333 12.4162 21.4957 15.4231 21.4957C18.43 21.4957 20.8675 23.9333 20.8675 26.9402ZM9.62912 9.14103H21.217C21.7179 9.14103 22.1239 9.54706 22.1239 10.0479V15.1444C22.1239 15.6452 21.7179 16.0513 21.217 16.0513H9.62912C9.12826 16.0513 8.72222 15.6452 8.72222 15.1444V10.0479C8.72222 9.54706 9.12826 9.14103 9.62912 9.14103Z" stroke="#FD9800" stroke-linecap="round" stroke-linejoin="round"/>
<path d="M38.0381 12.0729H39.2945M50.8116 13.3294H52.068M50.1834 24.4276H51.4398M42.6449 25.4747H43.9013M45.4718 15.0046V13.5388M45.4718 15.0046H47.0947M45.4718 15.0046H43.849M47.0947 15.0046H48.7176V16.6274M47.0947 15.0046V13.5388M43.849 15.0046H42.2261V16.6274M43.849 15.0046V13.5388M48.7176 18.2503H49.974M48.7176 18.2503V16.6274M48.7176 18.2503V19.8732M48.7176 16.6274H49.974M48.7176 19.8732V21.496H47.0947M48.7176 19.8732H49.974M42.2261 16.6274H40.7603M42.2261 16.6274V18.2503M42.2261 18.2503H40.7603M42.2261 18.2503V19.8732M42.2261 19.8732V21.496H43.849M42.2261 19.8732H40.7603M43.849 21.496V22.7524M43.849 21.496H45.4718M45.4718 21.496V22.7524M45.4718 21.496H47.0947M47.0947 21.496V22.7524M36.5723 9.76953V27.1499H54.162V9.76953H51.4398L50.3928 11.0259L49.3458 9.76953H36.5723Z" stroke="#FD9800" stroke-linecap="round" stroke-linejoin="round"/>
</svg>
