<svg width="20" height="20" viewBox="0 0 20 20" fill="none" xmlns="http://www.w3.org/2000/svg">
<g filter="url(#filter0_i_7167_23272)">
<path d="M2.77539 13.0508C2.77539 9.08123 5.99334 5.86328 9.96289 5.86328H10.3145C14.284 5.86328 17.502 9.08124 17.502 13.0508V13.2295C17.502 16.2671 15.0395 18.7295 12.002 18.7295H8.27539C5.23783 18.7295 2.77539 16.2671 2.77539 13.2295V13.0508Z" fill="#D9D9D9"/>
<path d="M2.77539 13.0508C2.77539 9.08123 5.99334 5.86328 9.96289 5.86328H10.3145C14.284 5.86328 17.502 9.08124 17.502 13.0508V13.2295C17.502 16.2671 15.0395 18.7295 12.002 18.7295H8.27539C5.23783 18.7295 2.77539 16.2671 2.77539 13.2295V13.0508Z" fill="url(#paint0_radial_7167_23272)"/>
</g>
<path d="M7.60113 2.93451C7.89515 3.43523 8.32293 4.07753 8.87297 4.60449L10.1401 5L11.4072 4.60449C11.9572 4.07753 12.385 3.43523 12.679 2.93451C12.8306 2.67632 12.7257 2.34678 12.4589 2.21098C12.2585 2.10897 12.0235 2.1574 11.8291 2.27062C11.3906 2.52611 11.1374 2.22492 10.7504 1.6333C10.5558 1.33583 10.2591 1.31998 10.1401 1.31836C10.0211 1.31998 9.7243 1.33583 9.52971 1.6333C9.14273 2.22492 8.88949 2.52611 8.45099 2.27062C8.25667 2.1574 8.02167 2.10897 7.82124 2.21098C7.55438 2.34678 7.44952 2.67632 7.60113 2.93451Z" fill="url(#paint1_linear_7167_23272)"/>
<path d="M7.60113 2.93451C7.89515 3.43523 8.32293 4.07753 8.87297 4.60449L10.1401 5L11.4072 4.60449C11.9572 4.07753 12.385 3.43523 12.679 2.93451C12.8306 2.67632 12.7257 2.34678 12.4589 2.21098C12.2585 2.10897 12.0235 2.1574 11.8291 2.27062C11.3906 2.52611 11.1374 2.22492 10.7504 1.6333C10.5558 1.33583 10.2591 1.31998 10.1401 1.31836C10.0211 1.31998 9.7243 1.33583 9.52971 1.6333C9.14273 2.22492 8.88949 2.52611 8.45099 2.27062C8.25667 2.1574 8.02167 2.10897 7.82124 2.21098C7.55438 2.34678 7.44952 2.67632 7.60113 2.93451Z" fill="url(#paint2_linear_7167_23272)"/>
<path d="M7.60113 2.93451C7.89515 3.43523 8.32293 4.07753 8.87297 4.60449L10.1401 5L11.4072 4.60449C11.9572 4.07753 12.385 3.43523 12.679 2.93451C12.8306 2.67632 12.7257 2.34678 12.4589 2.21098C12.2585 2.10897 12.0235 2.1574 11.8291 2.27062C11.3906 2.52611 11.1374 2.22492 10.7504 1.6333C10.5558 1.33583 10.2591 1.31998 10.1401 1.31836C10.0211 1.31998 9.7243 1.33583 9.52971 1.6333C9.14273 2.22492 8.88949 2.52611 8.45099 2.27062C8.25667 2.1574 8.02167 2.10897 7.82124 2.21098C7.55438 2.34678 7.44952 2.67632 7.60113 2.93451Z" fill="url(#paint3_linear_7167_23272)"/>
<path d="M7.60113 2.93451C7.89515 3.43523 8.32293 4.07753 8.87297 4.60449L10.1401 5L11.4072 4.60449C11.9572 4.07753 12.385 3.43523 12.679 2.93451C12.8306 2.67632 12.7257 2.34678 12.4589 2.21098C12.2585 2.10897 12.0235 2.1574 11.8291 2.27062C11.3906 2.52611 11.1374 2.22492 10.7504 1.6333C10.5558 1.33583 10.2591 1.31998 10.1401 1.31836C10.0211 1.31998 9.7243 1.33583 9.52971 1.6333C9.14273 2.22492 8.88949 2.52611 8.45099 2.27062C8.25667 2.1574 8.02167 2.10897 7.82124 2.21098C7.55438 2.34678 7.44952 2.67632 7.60113 2.93451Z" fill="url(#paint4_linear_7167_23272)"/>
<path d="M7.60113 2.93451C7.89515 3.43523 8.32293 4.07753 8.87297 4.60449L10.1401 5L11.4072 4.60449C11.9572 4.07753 12.385 3.43523 12.679 2.93451C12.8306 2.67632 12.7257 2.34678 12.4589 2.21098C12.2585 2.10897 12.0235 2.1574 11.8291 2.27062C11.3906 2.52611 11.1374 2.22492 10.7504 1.6333C10.5558 1.33583 10.2591 1.31998 10.1401 1.31836C10.0211 1.31998 9.7243 1.33583 9.52971 1.6333C9.14273 2.22492 8.88949 2.52611 8.45099 2.27062C8.25667 2.1574 8.02167 2.10897 7.82124 2.21098C7.55438 2.34678 7.44952 2.67632 7.60113 2.93451Z" fill="url(#paint5_radial_7167_23272)"/>
<path d="M7.60113 2.93451C7.89515 3.43523 8.32293 4.07753 8.87297 4.60449L10.1401 5L11.4072 4.60449C11.9572 4.07753 12.385 3.43523 12.679 2.93451C12.8306 2.67632 12.7257 2.34678 12.4589 2.21098C12.2585 2.10897 12.0235 2.1574 11.8291 2.27062C11.3906 2.52611 11.1374 2.22492 10.7504 1.6333C10.5558 1.33583 10.2591 1.31998 10.1401 1.31836C10.0211 1.31998 9.7243 1.33583 9.52971 1.6333C9.14273 2.22492 8.88949 2.52611 8.45099 2.27062C8.25667 2.1574 8.02167 2.10897 7.82124 2.21098C7.55438 2.34678 7.44952 2.67632 7.60113 2.93451Z" fill="url(#paint6_radial_7167_23272)"/>
<path d="M7.60113 2.93451C7.89515 3.43523 8.32293 4.07753 8.87297 4.60449L10.1401 5L11.4072 4.60449C11.9572 4.07753 12.385 3.43523 12.679 2.93451C12.8306 2.67632 12.7257 2.34678 12.4589 2.21098C12.2585 2.10897 12.0235 2.1574 11.8291 2.27062C11.3906 2.52611 11.1374 2.22492 10.7504 1.6333C10.5558 1.33583 10.2591 1.31998 10.1401 1.31836C10.0211 1.31998 9.7243 1.33583 9.52971 1.6333C9.14273 2.22492 8.88949 2.52611 8.45099 2.27062C8.25667 2.1574 8.02167 2.10897 7.82124 2.21098C7.55438 2.34678 7.44952 2.67632 7.60113 2.93451Z" fill="url(#paint7_radial_7167_23272)"/>
<path d="M7.60113 2.93451C7.89515 3.43523 8.32293 4.07753 8.87297 4.60449L10.1401 5L11.4072 4.60449C11.9572 4.07753 12.385 3.43523 12.679 2.93451C12.8306 2.67632 12.7257 2.34678 12.4589 2.21098C12.2585 2.10897 12.0235 2.1574 11.8291 2.27062C11.3906 2.52611 11.1374 2.22492 10.7504 1.6333C10.5558 1.33583 10.2591 1.31998 10.1401 1.31836C10.0211 1.31998 9.7243 1.33583 9.52971 1.6333C9.14273 2.22492 8.88949 2.52611 8.45099 2.27062C8.25667 2.1574 8.02167 2.10897 7.82124 2.21098C7.55438 2.34678 7.44952 2.67632 7.60113 2.93451Z" fill="url(#paint8_radial_7167_23272)"/>
<path d="M10.5009 8.91016C10.5009 8.63401 10.2771 8.41016 10.0009 8.41016C9.72477 8.41016 9.50092 8.63401 9.50092 8.91016V9.38203C9.50092 9.49386 9.42606 9.5907 9.32161 9.63063C9.14843 9.69682 8.97551 9.78864 8.8166 9.90759C8.41822 10.2058 8.09378 10.6882 8.09378 11.3613C8.09378 12.0239 8.39236 12.504 8.79791 12.8116C9.18426 13.1048 9.65061 13.2317 10.0231 13.2655C10.1741 13.2793 10.3995 13.3194 10.5863 13.4372C10.7476 13.5389 10.9085 13.7135 10.9425 14.0873C10.975 14.445 10.8297 14.6573 10.6401 14.8018C10.4212 14.9687 10.1671 15.0215 10.1026 15.0215C9.95198 15.0215 9.69384 15.0015 9.4756 14.8831C9.29183 14.7833 9.09376 14.5944 9.05274 14.1343C9.02822 13.8593 8.78537 13.6562 8.51032 13.6807C8.23527 13.7052 8.03217 13.9481 8.05669 14.2231C8.12798 15.0228 8.52561 15.5052 8.99858 15.762C9.10301 15.8186 9.20865 15.863 9.31176 15.8978C9.42122 15.9347 9.50092 16.0336 9.50092 16.1491V16.5762C9.50092 16.8523 9.72477 17.0762 10.0009 17.0762C10.2771 17.0762 10.5009 16.8523 10.5009 16.5762V16.1536C10.5009 16.0406 10.5772 15.943 10.6832 15.904C10.8711 15.8347 11.0672 15.7336 11.2463 15.5971C11.6618 15.2804 12.0072 14.753 11.9384 13.9967C11.8747 13.2963 11.5235 12.8749 11.1133 12.6162C10.7286 12.3735 10.3072 12.2935 10.0977 12.2744C9.52995 12.245 9.09378 11.9316 9.09378 11.3613C9.09378 11.0481 9.21803 10.8181 9.40232 10.6802C9.78275 10.3579 10.4298 10.4017 10.7354 10.8068C10.8706 10.986 10.9312 11.1836 10.9449 11.3613C10.966 11.6366 11.2042 11.8561 11.4795 11.835C11.7549 11.8138 11.9602 11.5983 11.939 11.323C11.9169 11.0352 11.8217 10.6141 11.5308 10.2285C11.3408 9.97671 10.9818 9.73528 10.6866 9.61373C10.5802 9.56989 10.5009 9.47045 10.5009 9.3553V8.91016Z" fill="#CD823A"/>
<path d="M10.6259 8.84766C10.6259 8.57151 10.4021 8.34766 10.1259 8.34766C9.84977 8.34766 9.62592 8.57151 9.62592 8.84766V9.31953C9.62592 9.43136 9.55106 9.5282 9.44661 9.56813C9.27343 9.63432 9.10051 9.72614 8.9416 9.84509C8.54322 10.1433 8.21878 10.6257 8.21878 11.2988C8.21878 11.9614 8.51736 12.4415 8.92291 12.7491C9.30926 13.0423 9.77561 13.1692 10.1481 13.203C10.2991 13.2168 10.5245 13.2569 10.7113 13.3747C10.8726 13.4764 11.0335 13.651 11.0675 14.0248C11.1 14.3825 10.9547 14.5948 10.7651 14.7393C10.5462 14.9062 10.2921 14.959 10.2276 14.959C10.077 14.959 9.81884 14.939 9.6006 14.8206C9.41683 14.7208 9.21876 14.5319 9.17774 14.0718C9.15322 13.7968 8.91037 13.5937 8.63532 13.6182C8.36027 13.6427 8.15717 13.8856 8.18169 14.1606C8.25298 14.9603 8.65061 15.4427 9.12358 15.6995C9.22801 15.7561 9.33365 15.8005 9.43676 15.8353C9.54622 15.8722 9.62592 15.9711 9.62592 16.0866V16.5137C9.62592 16.7898 9.84977 17.0137 10.1259 17.0137C10.4021 17.0137 10.6259 16.7898 10.6259 16.5137V16.0911C10.6259 15.9781 10.7022 15.8805 10.8082 15.8415C10.9961 15.7722 11.1922 15.6711 11.3713 15.5346C11.7868 15.2179 12.1322 14.6905 12.0634 13.9342C11.9997 13.2338 11.6485 12.8124 11.2383 12.5537C10.8536 12.311 10.4322 12.231 10.2227 12.2119C9.65495 12.1825 9.21878 11.8691 9.21878 11.2988C9.21878 10.9856 9.34303 10.7556 9.52732 10.6177C9.90775 10.2954 10.5548 10.3392 10.8604 10.7443C10.9956 10.9235 11.0562 11.1211 11.0699 11.2988C11.091 11.5741 11.3292 11.7936 11.6045 11.7725C11.8799 11.7513 12.0852 11.5358 12.064 11.2605C12.0419 10.9727 11.9467 10.5516 11.6558 10.166C11.4658 9.91421 11.1068 9.67278 10.8116 9.55123C10.7052 9.50739 10.6259 9.40795 10.6259 9.2928V8.84766Z" fill="white"/>
<rect x="8.33203" y="4.60547" width="3.58398" height="1.31836" rx="0.656738" fill="url(#paint9_linear_7167_23272)"/>
<rect x="8.33203" y="4.60547" width="3.58398" height="1.31836" rx="0.656738" fill="url(#paint10_linear_7167_23272)"/>
<rect x="8.33203" y="4.60547" width="3.58398" height="1.31836" rx="0.656738" fill="url(#paint11_linear_7167_23272)"/>
<defs>
<filter id="filter0_i_7167_23272" x="2.77539" y="4.61328" width="14.7266" height="14.1172" filterUnits="userSpaceOnUse" color-interpolation-filters="sRGB">
<feFlood flood-opacity="0" result="BackgroundImageFix"/>
<feBlend mode="normal" in="SourceGraphic" in2="BackgroundImageFix" result="shape"/>
<feColorMatrix in="SourceAlpha" type="matrix" values="0 0 0 0 0 0 0 0 0 0 0 0 0 0 0 0 0 0 127 0" result="hardAlpha"/>
<feOffset dy="-1.25"/>
<feGaussianBlur stdDeviation="0.625"/>
<feComposite in2="hardAlpha" operator="arithmetic" k2="-1" k3="1"/>
<feColorMatrix type="matrix" values="0 0 0 0 0 0 0 0 0 0 0 0 0 0 0 0 0 0 0.25 0"/>
<feBlend mode="normal" in2="shape" result="effect1_innerShadow_7167_23272"/>
</filter>
<radialGradient id="paint0_radial_7167_23272" cx="0" cy="0" r="1" gradientUnits="userSpaceOnUse" gradientTransform="translate(8.74951 6.24902) rotate(83.421) scale(10.3935 12.691)">
<stop stop-color="#30DD72"/>
<stop offset="1" stop-color="#21D05F"/>
</radialGradient>
<linearGradient id="paint1_linear_7167_23272" x1="10.9237" y1="2.43164" x2="10.1401" y2="4.60449" gradientUnits="userSpaceOnUse">
<stop stop-color="#F3C048"/>
<stop offset="1" stop-color="#E67A41"/>
</linearGradient>
<linearGradient id="paint2_linear_7167_23272" x1="8.43793" y1="4.6875" x2="9.37543" y2="4.0625" gradientUnits="userSpaceOnUse">
<stop offset="0.18122" stop-color="#CE6226"/>
<stop offset="0.714276" stop-color="#CE6226" stop-opacity="0"/>
</linearGradient>
<linearGradient id="paint3_linear_7167_23272" x1="11.9667" y1="4.8494" x2="11.1928" y2="4.15287" gradientUnits="userSpaceOnUse">
<stop offset="0.18122" stop-color="#CE6226"/>
<stop offset="0.714276" stop-color="#CE6226" stop-opacity="0"/>
</linearGradient>
<linearGradient id="paint4_linear_7167_23272" x1="11.1928" y1="4.77266" x2="11.1928" y2="4.15287" gradientUnits="userSpaceOnUse">
<stop offset="0.18122" stop-color="#CE6226"/>
<stop offset="0.714276" stop-color="#CE6226" stop-opacity="0"/>
</linearGradient>
<radialGradient id="paint5_radial_7167_23272" cx="0" cy="0" r="1" gradientUnits="userSpaceOnUse" gradientTransform="translate(10.3816 2.69719) rotate(97.2161) scale(1.92253 1.95348)">
<stop stop-color="#FFC655"/>
<stop offset="1" stop-color="#FFC655" stop-opacity="0"/>
</radialGradient>
<radialGradient id="paint6_radial_7167_23272" cx="0" cy="0" r="1" gradientUnits="userSpaceOnUse" gradientTransform="translate(11.5629 1.5625) rotate(113.199) scale(2.37993 3.7388)">
<stop offset="0.260708" stop-color="#FFE362"/>
<stop offset="0.439776" stop-color="#FFE362" stop-opacity="0"/>
</radialGradient>
<radialGradient id="paint7_radial_7167_23272" cx="0" cy="0" r="1" gradientUnits="userSpaceOnUse" gradientTransform="translate(11.8128 2.10994) rotate(-17.4129) scale(0.713131 0.361311)">
<stop offset="0.171102" stop-color="#A27425"/>
<stop offset="1" stop-color="#D7AA5D" stop-opacity="0"/>
</radialGradient>
<radialGradient id="paint8_radial_7167_23272" cx="0" cy="0" r="1" gradientUnits="userSpaceOnUse" gradientTransform="translate(9.64788 1.42874) rotate(81.873) scale(2.98448 4.48078)">
<stop stop-color="#30DD72"/>
<stop offset="1" stop-color="#21D05F"/>
</radialGradient>
<linearGradient id="paint9_linear_7167_23272" x1="10.124" y1="4.70529" x2="10.124" y2="5.74867" gradientUnits="userSpaceOnUse">
<stop stop-color="#FFD425"/>
<stop offset="1" stop-color="#FFAD24"/>
</linearGradient>
<linearGradient id="paint10_linear_7167_23272" x1="10.124" y1="4.70529" x2="10.124" y2="5.74867" gradientUnits="userSpaceOnUse">
<stop stop-color="#FFD425"/>
<stop offset="1" stop-color="#FFAD24"/>
</linearGradient>
<linearGradient id="paint11_linear_7167_23272" x1="10.9944" y1="5.92383" x2="10.9944" y2="5.69217" gradientUnits="userSpaceOnUse">
<stop offset="0.893939" stop-color="#CC8139"/>
<stop offset="1" stop-color="#CC8139" stop-opacity="0"/>
</linearGradient>
</defs>
</svg>
