<svg width="24" height="24" viewBox="0 0 24 24" fill="none" xmlns="http://www.w3.org/2000/svg">
<path d="M6.22491 8.77569L6.87876 8.12184L8.18645 7.79492L9.82106 8.12184H10.4749V9.10261L9.16722 11.718L5.24414 11.3911L6.22491 8.77569Z" fill="#F79CFF"/>
<path d="M15.5959 16.094L15.3084 16.9729L14.2899 17.8559L12.6842 18.3035L12.101 18.5992L11.6575 17.7244L11.641 14.8004L15.3083 12.7L15.5959 16.094Z" fill="#F79CFF"/>
<path d="M11.7821 14.3335L9.16667 11.7182M11.7821 14.3335C12.9998 13.8704 14.1681 13.2863 15.2692 12.59M11.7821 14.3335V18.6925C11.7821 18.6925 14.4236 18.213 15.2692 16.9489C16.2108 15.5366 15.2692 12.59 15.2692 12.59M9.16667 11.7182C9.63059 10.5146 10.2147 9.36089 10.9103 8.27457C11.9261 6.65041 13.3405 5.31313 15.019 4.38994C16.6976 3.46674 18.5844 2.98833 20.5 3.00022C20.5 5.3715 19.82 9.53868 15.2692 12.59M9.16667 11.7182H4.80769C4.80769 11.7182 5.28718 9.07663 6.55128 8.23098C7.96359 7.28945 10.9103 8.23098 10.9103 8.23098M5.24359 15.6412C3.9359 16.7397 3.5 20.0002 3.5 20.0002C3.5 20.0002 6.76051 19.5643 7.85897 18.2566C8.47795 17.5243 8.46923 16.3997 7.78051 15.7197C7.44165 15.3963 6.99528 15.2094 6.52707 15.1949C6.05886 15.1804 5.60179 15.3394 5.24359 15.6412Z" stroke="black" stroke-width="1.2" stroke-linecap="round" stroke-linejoin="round"/>
</svg>
