<svg width="14" height="13" viewBox="0 0 14 13" fill="none" xmlns="http://www.w3.org/2000/svg">
<path d="M1 3.7C1 2.5799 1 2.01984 1.21799 1.59202C1.40973 1.21569 1.71569 0.909734 2.09202 0.717987C2.51984 0.5 3.0799 0.5 4.2 0.5H9.8C10.9201 0.5 11.4802 0.5 11.908 0.717987C12.2843 0.909734 12.5903 1.21569 12.782 1.59202C13 2.01984 13 2.5799 13 3.7V9.3C13 10.4201 13 10.9802 12.782 11.408C12.5903 11.7843 12.2843 12.0903 11.908 12.282C11.4802 12.5 10.9201 12.5 9.8 12.5H4.2C3.0799 12.5 2.51984 12.5 2.09202 12.282C1.71569 12.0903 1.40973 11.7843 1.21799 11.408C1 10.9802 1 10.4201 1 9.3V3.7Z" fill="#FFA000"/>
<path d="M9.00012 8.50004V4.50004H5.00012" fill="#FFA000"/>
<path d="M9.00012 8.50004V4.50004M9.00012 4.50004H5.00012M9.00012 4.50004L5.00012 8.49996M4.2 12.5H9.8C10.9201 12.5 11.4802 12.5 11.908 12.282C12.2843 12.0903 12.5903 11.7843 12.782 11.408C13 10.9802 13 10.4201 13 9.3V3.7C13 2.5799 13 2.01984 12.782 1.59202C12.5903 1.21569 12.2843 0.909734 11.908 0.717987C11.4802 0.5 10.9201 0.5 9.8 0.5H4.2C3.0799 0.5 2.51984 0.5 2.09202 0.717987C1.71569 0.909734 1.40973 1.21569 1.21799 1.59202C1 2.01984 1 2.5799 1 3.7V9.3C1 10.4201 1 10.9802 1.21799 11.408C1.40973 11.7843 1.71569 12.0903 2.09202 12.282C2.51984 12.5 3.0799 12.5 4.2 12.5Z" stroke="white" stroke-width="0.75" stroke-linecap="round" stroke-linejoin="round"/>
</svg>
