<svg width="56" height="56" viewBox="0 0 56 56" fill="none" xmlns="http://www.w3.org/2000/svg">
<path d="M31.646 15.75H24.3461C19.1992 15.75 15.0391 19.9214 15.0391 25.057V26.5372H40.9642V25.057C40.953 19.9214 36.7817 15.75 31.646 15.75Z" fill="#D99A64"/>
<path d="M31.646 15.75H24.3461C19.1992 15.75 15.0391 19.9214 15.0391 25.057V26.5372H40.9642V25.057C40.953 19.9214 36.7817 15.75 31.646 15.75Z" fill="url(#paint0_radial_7747_10021)"/>
<g filter="url(#filter0_f_7747_10021)">
<path d="M27.7345 22.9905C28.2114 22.9905 28.5979 22.604 28.5979 22.1271C28.5979 21.6502 28.2114 21.2637 27.7345 21.2637C27.2577 21.2637 26.8711 21.6502 26.8711 22.1271C26.8711 22.604 27.2577 22.9905 27.7345 22.9905Z" fill="#E5A671"/>
</g>
<path d="M27.9884 22.7542C28.4653 22.7542 28.8518 22.3676 28.8518 21.8908C28.8518 21.4139 28.4653 21.0273 27.9884 21.0273C27.5116 21.0273 27.125 21.4139 27.125 21.8908C27.125 22.3676 27.5116 22.7542 27.9884 22.7542Z" fill="url(#paint1_radial_7747_10021)"/>
<g filter="url(#filter1_f_7747_10021)">
<path d="M21.6902 22.1263C22.2116 22.1263 22.6343 21.7006 22.6343 21.1755C22.6343 20.6503 22.2116 20.2246 21.6902 20.2246C21.1688 20.2246 20.7461 20.6503 20.7461 21.1755C20.7461 21.7006 21.1688 22.1263 21.6902 22.1263Z" fill="#DE9B64"/>
</g>
<path d="M22.2658 21.7698C22.7426 21.7698 23.1292 21.3832 23.1292 20.9064C23.1292 20.4295 22.7426 20.043 22.2658 20.043C21.7889 20.043 21.4023 20.4295 21.4023 20.9064C21.4023 21.3832 21.7889 21.7698 22.2658 21.7698Z" fill="url(#paint2_radial_7747_10021)"/>
<g filter="url(#filter2_f_7747_10021)">
<path d="M33.4728 21.8929C33.9497 21.8929 34.3362 21.5063 34.3362 21.0294C34.3362 20.5526 33.9497 20.166 33.4728 20.166C32.9959 20.166 32.6094 20.5526 32.6094 21.0294C32.6094 21.5063 32.9959 21.8929 33.4728 21.8929Z" fill="#F4B982"/>
</g>
<path d="M33.7228 21.7698C34.1997 21.7698 34.5862 21.3832 34.5862 20.9064C34.5862 20.4295 34.1997 20.043 33.7228 20.043C33.2459 20.043 32.8594 20.4295 32.8594 20.9064C32.8594 21.3832 33.2459 21.7698 33.7228 21.7698Z" fill="url(#paint3_radial_7747_10021)"/>
<g filter="url(#filter3_f_7747_10021)">
<path d="M24.8152 19.5247C25.3366 19.5247 25.7593 19.099 25.7593 18.5739C25.7593 18.0488 25.3366 17.623 24.8152 17.623C24.2938 17.623 23.8711 18.0488 23.8711 18.5739C23.8711 19.099 24.2938 19.5247 24.8152 19.5247Z" fill="#DE9D64"/>
</g>
<path d="M25.2697 19.3499C25.7465 19.3499 26.1331 18.9633 26.1331 18.4865C26.1331 18.0096 25.7465 17.623 25.2697 17.623C24.7928 17.623 24.4062 18.0096 24.4062 18.4865C24.4062 18.9633 24.7928 19.3499 25.2697 19.3499Z" fill="url(#paint4_radial_7747_10021)"/>
<g filter="url(#filter4_f_7747_10021)">
<path d="M30.3009 19.5179C30.7778 19.5179 31.1643 19.1313 31.1643 18.6544C31.1643 18.1776 30.7778 17.791 30.3009 17.791C29.8241 17.791 29.4375 18.1776 29.4375 18.6544C29.4375 19.1313 29.8241 19.5179 30.3009 19.5179Z" fill="#E6A769"/>
</g>
<path d="M30.7228 19.3499C31.1997 19.3499 31.5862 18.9633 31.5862 18.4865C31.5862 18.0096 31.1997 17.623 30.7228 17.623C30.2459 17.623 29.8594 18.0096 29.8594 18.4865C29.8594 18.9633 30.2459 19.3499 30.7228 19.3499Z" fill="url(#paint5_radial_7747_10021)"/>
<path d="M40.7919 26.2773H15.2031V29.8656H40.7919V26.2773Z" fill="url(#paint6_linear_7747_10021)"/>
<path d="M40.7919 26.2773H15.2031V29.8656H40.7919V26.2773Z" fill="url(#paint7_linear_7747_10021)"/>
<path d="M41.0527 36.037H14.9257C13.4904 36.037 12.3242 34.8708 12.3242 33.4355C12.3242 32.0002 13.4904 30.834 14.9257 30.834H41.0527C42.488 30.834 43.6542 32.0002 43.6542 33.4355C43.6542 34.8708 42.488 36.037 41.0527 36.037Z" fill="url(#paint8_linear_7747_10021)"/>
<path d="M41.0527 36.037H14.9257C13.4904 36.037 12.3242 34.8708 12.3242 33.4355C12.3242 32.0002 13.4904 30.834 14.9257 30.834H41.0527C42.488 30.834 43.6542 32.0002 43.6542 33.4355C43.6542 34.8708 42.488 36.037 41.0527 36.037Z" fill="url(#paint9_radial_7747_10021)"/>
<path d="M41.0527 36.037H14.9257C13.4904 36.037 12.3242 34.8708 12.3242 33.4355C12.3242 32.0002 13.4904 30.834 14.9257 30.834H41.0527C42.488 30.834 43.6542 32.0002 43.6542 33.4355C43.6542 34.8708 42.488 36.037 41.0527 36.037Z" fill="url(#paint10_radial_7747_10021)"/>
<g filter="url(#filter5_f_7747_10021)">
<path fill-rule="evenodd" clip-rule="evenodd" d="M20.9092 25.166C22.6765 25.166 24.4207 25.8873 25.2094 26.3085C25.9982 26.7297 26.6187 27.0611 28.0073 27.0611C30.0845 27.0611 36.2966 25.166 38.8357 26.5242C39.6232 26.9454 38.6784 27.0611 40.0595 27.0611L40.4092 28.6571C39.605 28.6571 38.8867 28.4376 37.9132 27.917L37.891 27.9051C37.1035 27.4839 36.4864 27.1538 35.1053 27.1538C33.725 27.1538 33.1077 27.4834 32.3187 27.9048L32.2951 27.9174C31.3193 28.4385 30.1611 29.0488 28.0073 29.0488C25.8534 29.0488 24.6953 28.4385 23.7195 27.9174L23.6958 27.9048C22.9068 27.4834 22.2895 27.1538 20.9092 27.1538C19.5271 27.1538 18.9068 27.4845 18.1153 27.9065L18.0939 27.9179C17.1184 28.438 16.9117 28.6571 15.7578 28.6571C15.7578 28.6571 15.8175 26.7283 16.6051 26.3083C17.5839 25.7865 18.7447 25.166 20.9092 25.166Z" fill="url(#paint11_linear_7747_10021)"/>
<path fill-rule="evenodd" clip-rule="evenodd" d="M20.9092 25.166C22.6765 25.166 24.4207 25.8873 25.2094 26.3085C25.9982 26.7297 26.6187 27.0611 28.0073 27.0611C30.0845 27.0611 36.2966 25.166 38.8357 26.5242C39.6232 26.9454 38.6784 27.0611 40.0595 27.0611L40.4092 28.6571C39.605 28.6571 38.8867 28.4376 37.9132 27.917L37.891 27.9051C37.1035 27.4839 36.4864 27.1538 35.1053 27.1538C33.725 27.1538 33.1077 27.4834 32.3187 27.9048L32.2951 27.9174C31.3193 28.4385 30.1611 29.0488 28.0073 29.0488C25.8534 29.0488 24.6953 28.4385 23.7195 27.9174L23.6958 27.9048C22.9068 27.4834 22.2895 27.1538 20.9092 27.1538C19.5271 27.1538 18.9068 27.4845 18.1153 27.9065L18.0939 27.9179C17.1184 28.438 16.9117 28.6571 15.7578 28.6571C15.7578 28.6571 15.8175 26.7283 16.6051 26.3083C17.5839 25.7865 18.7447 25.166 20.9092 25.166Z" fill="#E0215C"/>
</g>
<path fill-rule="evenodd" clip-rule="evenodd" d="M16.6249 24.9024C17.6004 24.3823 18.7588 23.7715 20.9076 23.7715C23.057 23.7715 24.2129 24.3827 25.187 24.9028L25.2078 24.9139C25.9965 25.3352 26.617 25.6665 28.0056 25.6665C29.3942 25.6665 30.0147 25.3352 30.8034 24.9139L30.8242 24.9028C31.7983 24.3827 32.9542 23.7715 35.1036 23.7715C37.253 23.7715 38.409 24.3827 39.3825 24.9033L39.4047 24.9152C40.1922 25.3364 40.8094 25.6665 42.1904 25.6665C43.0518 25.6665 43.75 26.3648 43.75 27.2261C43.75 28.0874 43.0518 28.7857 42.1904 28.7857C40.041 28.7857 38.8851 28.1745 37.9115 27.6538L37.8894 27.642C37.1019 27.2207 36.4847 26.8906 35.1036 26.8906C33.7234 26.8906 33.1061 27.2203 32.3171 27.6417L32.2934 27.6543C31.3176 28.1753 30.1594 28.7857 28.0056 28.7857C25.8518 28.7857 24.6936 28.1753 23.7178 27.6543L23.6942 27.6417C22.9051 27.2203 22.2878 26.8906 20.9076 26.8906C19.5254 26.8906 18.9052 27.2213 18.1137 27.6433L18.0923 27.6548C17.1168 28.1748 15.9584 28.7857 13.8096 28.7857C12.9482 28.7857 12.25 28.0874 12.25 27.2261C12.25 26.3648 12.9482 25.6665 13.8096 25.6665C15.1917 25.6665 15.812 25.3358 16.6035 24.9138C16.6106 24.91 16.6177 24.9062 16.6249 24.9024Z" fill="url(#paint12_linear_7747_10021)"/>
<path fill-rule="evenodd" clip-rule="evenodd" d="M16.6249 24.9024C17.6004 24.3823 18.7588 23.7715 20.9076 23.7715C23.057 23.7715 24.2129 24.3827 25.187 24.9028L25.2078 24.9139C25.9965 25.3352 26.617 25.6665 28.0056 25.6665C29.3942 25.6665 30.0147 25.3352 30.8034 24.9139L30.8242 24.9028C31.7983 24.3827 32.9542 23.7715 35.1036 23.7715C37.253 23.7715 38.409 24.3827 39.3825 24.9033L39.4047 24.9152C40.1922 25.3364 40.8094 25.6665 42.1904 25.6665C43.0518 25.6665 43.75 26.3648 43.75 27.2261C43.75 28.0874 43.0518 28.7857 42.1904 28.7857C40.041 28.7857 38.8851 28.1745 37.9115 27.6538L37.8894 27.642C37.1019 27.2207 36.4847 26.8906 35.1036 26.8906C33.7234 26.8906 33.1061 27.2203 32.3171 27.6417L32.2934 27.6543C31.3176 28.1753 30.1594 28.7857 28.0056 28.7857C25.8518 28.7857 24.6936 28.1753 23.7178 27.6543L23.6942 27.6417C22.9051 27.2203 22.2878 26.8906 20.9076 26.8906C19.5254 26.8906 18.9052 27.2213 18.1137 27.6433L18.0923 27.6548C17.1168 28.1748 15.9584 28.7857 13.8096 28.7857C12.9482 28.7857 12.25 28.0874 12.25 27.2261C12.25 26.3648 12.9482 25.6665 13.8096 25.6665C15.1917 25.6665 15.812 25.3358 16.6035 24.9138C16.6106 24.91 16.6177 24.9062 16.6249 24.9024Z" fill="url(#paint13_radial_7747_10021)"/>
<path d="M37.8955 41.1509H18.0928C16.5005 41.1509 15.2109 39.8614 15.2109 38.2691V36.0488H40.7997V38.2578C40.7885 39.8614 39.4877 41.1509 37.8955 41.1509Z" fill="url(#paint14_linear_7747_10021)"/>
<path d="M37.8955 41.1509H18.0928C16.5005 41.1509 15.2109 39.8614 15.2109 38.2691V36.0488H40.7997V38.2578C40.7885 39.8614 39.4877 41.1509 37.8955 41.1509Z" fill="url(#paint15_radial_7747_10021)"/>
<path d="M40.7919 29.8691H15.2031V30.8447L23.3552 32.6725C26.4052 33.3565 29.5786 33.3565 32.6286 32.6725L40.7807 30.8447V29.8691H40.7919Z" fill="url(#paint16_linear_7747_10021)"/>
<g filter="url(#filter6_f_7747_10021)">
<path d="M40.2646 30.334C37.782 31.2081 33.5581 32.0334 32.8867 32.1173" stroke="url(#paint17_linear_7747_10021)" stroke-width="0.199809"/>
</g>
<g filter="url(#filter7_f_7747_10021)">
<path d="M15.5439 30.334C18.0266 31.2081 22.2505 32.0334 22.9219 32.1173" stroke="url(#paint18_linear_7747_10021)" stroke-width="0.199809"/>
</g>
<g filter="url(#filter8_f_7747_10021)">
<path d="M23.5898 25.8234C24.429 26.3595 26.7788 27.7465 28.0656 27.7465C29.674 27.7465 34.7913 23.5173 37.8212 25.124C40.129 26.3479 42.0988 26.2779 41.9123 26.3479" stroke="url(#paint19_radial_7747_10021)" stroke-width="0.599426"/>
</g>
<g filter="url(#filter9_f_7747_10021)">
<path d="M18.8322 26.1904C17.1751 27.0565 14.846 28.2009 13.4823 28.5156L13.0977 26.1904C13.0977 26.1904 13.653 26.5519 15.8251 25.5435C18.7622 24.1798 20.3532 23.5854 22.0666 24.1448L23.7275 27.4317C22.6668 26.6974 19.6014 25.7883 18.8322 26.1904Z" fill="url(#paint20_linear_7747_10021)"/>
</g>
<path fill-rule="evenodd" clip-rule="evenodd" d="M28 52.5C41.531 52.5 52.5 41.531 52.5 28C52.5 14.469 41.531 3.5 28 3.5C14.469 3.5 3.5 14.469 3.5 28C3.5 41.531 14.469 52.5 28 52.5ZM47.04 27.8775C47.04 32.0205 45.7056 35.8581 43.4529 38.9895C43.2981 39.2048 42.988 39.2257 42.8005 39.0382L16.7347 12.9895C16.5471 12.8021 16.5679 12.4918 16.7833 12.3369C19.9147 10.0843 23.7521 8.75003 27.895 8.75003C38.4475 8.73253 47.04 17.325 47.04 27.8775ZM8.75 27.8775C8.75 23.7178 10.1004 19.8796 12.3544 16.7481C12.5093 16.5329 12.8195 16.512 13.007 16.6995L39.0721 42.7646C39.2599 42.9524 39.2386 43.2632 39.0226 43.4179C35.8757 45.672 32.0381 47.0225 27.895 47.0225C17.3425 47.0225 8.75 38.43 8.75 27.8775Z" fill="url(#paint21_linear_7747_10021)"/>
<path fill-rule="evenodd" clip-rule="evenodd" d="M28 52.5C41.531 52.5 52.5 41.531 52.5 28C52.5 14.469 41.531 3.5 28 3.5C14.469 3.5 3.5 14.469 3.5 28C3.5 41.531 14.469 52.5 28 52.5ZM47.04 27.8775C47.04 32.0205 45.7056 35.8581 43.4529 38.9895C43.2981 39.2048 42.988 39.2257 42.8005 39.0382L16.7347 12.9895C16.5471 12.8021 16.5679 12.4918 16.7833 12.3369C19.9147 10.0843 23.7521 8.75003 27.895 8.75003C38.4475 8.73253 47.04 17.325 47.04 27.8775ZM8.75 27.8775C8.75 23.7178 10.1004 19.8796 12.3544 16.7481C12.5093 16.5329 12.8195 16.512 13.007 16.6995L39.0721 42.7646C39.2599 42.9524 39.2386 43.2632 39.0226 43.4179C35.8757 45.672 32.0381 47.0225 27.895 47.0225C17.3425 47.0225 8.75 38.43 8.75 27.8775Z" fill="url(#paint22_radial_7747_10021)"/>
<path fill-rule="evenodd" clip-rule="evenodd" d="M28 52.5C41.531 52.5 52.5 41.531 52.5 28C52.5 14.469 41.531 3.5 28 3.5C14.469 3.5 3.5 14.469 3.5 28C3.5 41.531 14.469 52.5 28 52.5ZM47.04 27.8775C47.04 32.0205 45.7056 35.8581 43.4529 38.9895C43.2981 39.2048 42.988 39.2257 42.8005 39.0382L16.7347 12.9895C16.5471 12.8021 16.5679 12.4918 16.7833 12.3369C19.9147 10.0843 23.7521 8.75003 27.895 8.75003C38.4475 8.73253 47.04 17.325 47.04 27.8775ZM8.75 27.8775C8.75 23.7178 10.1004 19.8796 12.3544 16.7481C12.5093 16.5329 12.8195 16.512 13.007 16.6995L39.0721 42.7646C39.2599 42.9524 39.2386 43.2632 39.0226 43.4179C35.8757 45.672 32.0381 47.0225 27.895 47.0225C17.3425 47.0225 8.75 38.43 8.75 27.8775Z" fill="url(#paint23_radial_7747_10021)"/>
<path fill-rule="evenodd" clip-rule="evenodd" d="M28 52.5C41.531 52.5 52.5 41.531 52.5 28C52.5 14.469 41.531 3.5 28 3.5C14.469 3.5 3.5 14.469 3.5 28C3.5 41.531 14.469 52.5 28 52.5ZM47.04 27.8775C47.04 32.0205 45.7056 35.8581 43.4529 38.9895C43.2981 39.2048 42.988 39.2257 42.8005 39.0382L16.7347 12.9895C16.5471 12.8021 16.5679 12.4918 16.7833 12.3369C19.9147 10.0843 23.7521 8.75003 27.895 8.75003C38.4475 8.73253 47.04 17.325 47.04 27.8775ZM8.75 27.8775C8.75 23.7178 10.1004 19.8796 12.3544 16.7481C12.5093 16.5329 12.8195 16.512 13.007 16.6995L39.0721 42.7646C39.2599 42.9524 39.2386 43.2632 39.0226 43.4179C35.8757 45.672 32.0381 47.0225 27.895 47.0225C17.3425 47.0225 8.75 38.43 8.75 27.8775Z" fill="url(#paint24_radial_7747_10021)"/>
<path fill-rule="evenodd" clip-rule="evenodd" d="M28 52.5C41.531 52.5 52.5 41.531 52.5 28C52.5 14.469 41.531 3.5 28 3.5C14.469 3.5 3.5 14.469 3.5 28C3.5 41.531 14.469 52.5 28 52.5ZM47.04 27.8775C47.04 32.0205 45.7056 35.8581 43.4529 38.9895C43.2981 39.2048 42.988 39.2257 42.8005 39.0382L16.7347 12.9895C16.5471 12.8021 16.5679 12.4918 16.7833 12.3369C19.9147 10.0843 23.7521 8.75003 27.895 8.75003C38.4475 8.73253 47.04 17.325 47.04 27.8775ZM8.75 27.8775C8.75 23.7178 10.1004 19.8796 12.3544 16.7481C12.5093 16.5329 12.8195 16.512 13.007 16.6995L39.0721 42.7646C39.2599 42.9524 39.2386 43.2632 39.0226 43.4179C35.8757 45.672 32.0381 47.0225 27.895 47.0225C17.3425 47.0225 8.75 38.43 8.75 27.8775Z" fill="url(#paint25_radial_7747_10021)"/>
<path fill-rule="evenodd" clip-rule="evenodd" d="M28 52.5C41.531 52.5 52.5 41.531 52.5 28C52.5 14.469 41.531 3.5 28 3.5C14.469 3.5 3.5 14.469 3.5 28C3.5 41.531 14.469 52.5 28 52.5ZM47.04 27.8775C47.04 32.0205 45.7056 35.8581 43.4529 38.9895C43.2981 39.2048 42.988 39.2257 42.8005 39.0382L16.7347 12.9895C16.5471 12.8021 16.5679 12.4918 16.7833 12.3369C19.9147 10.0843 23.7521 8.75003 27.895 8.75003C38.4475 8.73253 47.04 17.325 47.04 27.8775ZM8.75 27.8775C8.75 23.7178 10.1004 19.8796 12.3544 16.7481C12.5093 16.5329 12.8195 16.512 13.007 16.6995L39.0721 42.7646C39.2599 42.9524 39.2386 43.2632 39.0226 43.4179C35.8757 45.672 32.0381 47.0225 27.895 47.0225C17.3425 47.0225 8.75 38.43 8.75 27.8775Z" fill="url(#paint26_radial_7747_10021)"/>
<path fill-rule="evenodd" clip-rule="evenodd" d="M28 52.5C41.531 52.5 52.5 41.531 52.5 28C52.5 14.469 41.531 3.5 28 3.5C14.469 3.5 3.5 14.469 3.5 28C3.5 41.531 14.469 52.5 28 52.5ZM47.04 27.8775C47.04 32.0205 45.7056 35.8581 43.4529 38.9895C43.2981 39.2048 42.988 39.2257 42.8005 39.0382L16.7347 12.9895C16.5471 12.8021 16.5679 12.4918 16.7833 12.3369C19.9147 10.0843 23.7521 8.75003 27.895 8.75003C38.4475 8.73253 47.04 17.325 47.04 27.8775ZM8.75 27.8775C8.75 23.7178 10.1004 19.8796 12.3544 16.7481C12.5093 16.5329 12.8195 16.512 13.007 16.6995L39.0721 42.7646C39.2599 42.9524 39.2386 43.2632 39.0226 43.4179C35.8757 45.672 32.0381 47.0225 27.895 47.0225C17.3425 47.0225 8.75 38.43 8.75 27.8775Z" fill="url(#paint27_radial_7747_10021)"/>
<path fill-rule="evenodd" clip-rule="evenodd" d="M28 52.5C41.531 52.5 52.5 41.531 52.5 28C52.5 14.469 41.531 3.5 28 3.5C14.469 3.5 3.5 14.469 3.5 28C3.5 41.531 14.469 52.5 28 52.5ZM47.04 27.8775C47.04 32.0205 45.7056 35.8581 43.4529 38.9895C43.2981 39.2048 42.988 39.2257 42.8005 39.0382L16.7347 12.9895C16.5471 12.8021 16.5679 12.4918 16.7833 12.3369C19.9147 10.0843 23.7521 8.75003 27.895 8.75003C38.4475 8.73253 47.04 17.325 47.04 27.8775ZM8.75 27.8775C8.75 23.7178 10.1004 19.8796 12.3544 16.7481C12.5093 16.5329 12.8195 16.512 13.007 16.6995L39.0721 42.7646C39.2599 42.9524 39.2386 43.2632 39.0226 43.4179C35.8757 45.672 32.0381 47.0225 27.895 47.0225C17.3425 47.0225 8.75 38.43 8.75 27.8775Z" fill="url(#paint28_radial_7747_10021)"/>
<path fill-rule="evenodd" clip-rule="evenodd" d="M28 52.5C41.531 52.5 52.5 41.531 52.5 28C52.5 14.469 41.531 3.5 28 3.5C14.469 3.5 3.5 14.469 3.5 28C3.5 41.531 14.469 52.5 28 52.5ZM47.04 27.8775C47.04 32.0205 45.7056 35.8581 43.4529 38.9895C43.2981 39.2048 42.988 39.2257 42.8005 39.0382L16.7347 12.9895C16.5471 12.8021 16.5679 12.4918 16.7833 12.3369C19.9147 10.0843 23.7521 8.75003 27.895 8.75003C38.4475 8.73253 47.04 17.325 47.04 27.8775ZM8.75 27.8775C8.75 23.7178 10.1004 19.8796 12.3544 16.7481C12.5093 16.5329 12.8195 16.512 13.007 16.6995L39.0721 42.7646C39.2599 42.9524 39.2386 43.2632 39.0226 43.4179C35.8757 45.672 32.0381 47.0225 27.895 47.0225C17.3425 47.0225 8.75 38.43 8.75 27.8775Z" fill="url(#paint29_radial_7747_10021)"/>
<defs>
<filter id="filter0_f_7747_10021" x="26.4715" y="20.8641" width="2.5258" height="2.5258" filterUnits="userSpaceOnUse" color-interpolation-filters="sRGB">
<feFlood flood-opacity="0" result="BackgroundImageFix"/>
<feBlend mode="normal" in="SourceGraphic" in2="BackgroundImageFix" result="shape"/>
<feGaussianBlur stdDeviation="0.199809" result="effect1_foregroundBlur_7747_10021"/>
</filter>
<filter id="filter1_f_7747_10021" x="20.3465" y="19.825" width="2.68595" height="2.70158" filterUnits="userSpaceOnUse" color-interpolation-filters="sRGB">
<feFlood flood-opacity="0" result="BackgroundImageFix"/>
<feBlend mode="normal" in="SourceGraphic" in2="BackgroundImageFix" result="shape"/>
<feGaussianBlur stdDeviation="0.199809" result="effect1_foregroundBlur_7747_10021"/>
</filter>
<filter id="filter2_f_7747_10021" x="32.2098" y="19.7664" width="2.5258" height="2.5258" filterUnits="userSpaceOnUse" color-interpolation-filters="sRGB">
<feFlood flood-opacity="0" result="BackgroundImageFix"/>
<feBlend mode="normal" in="SourceGraphic" in2="BackgroundImageFix" result="shape"/>
<feGaussianBlur stdDeviation="0.199809" result="effect1_foregroundBlur_7747_10021"/>
</filter>
<filter id="filter3_f_7747_10021" x="23.4715" y="17.2234" width="2.68595" height="2.70158" filterUnits="userSpaceOnUse" color-interpolation-filters="sRGB">
<feFlood flood-opacity="0" result="BackgroundImageFix"/>
<feBlend mode="normal" in="SourceGraphic" in2="BackgroundImageFix" result="shape"/>
<feGaussianBlur stdDeviation="0.199809" result="effect1_foregroundBlur_7747_10021"/>
</filter>
<filter id="filter4_f_7747_10021" x="29.0379" y="17.3914" width="2.5258" height="2.5258" filterUnits="userSpaceOnUse" color-interpolation-filters="sRGB">
<feFlood flood-opacity="0" result="BackgroundImageFix"/>
<feBlend mode="normal" in="SourceGraphic" in2="BackgroundImageFix" result="shape"/>
<feGaussianBlur stdDeviation="0.199809" result="effect1_foregroundBlur_7747_10021"/>
</filter>
<filter id="filter5_f_7747_10021" x="15.3582" y="24.7664" width="25.4516" height="4.68205" filterUnits="userSpaceOnUse" color-interpolation-filters="sRGB">
<feFlood flood-opacity="0" result="BackgroundImageFix"/>
<feBlend mode="normal" in="SourceGraphic" in2="BackgroundImageFix" result="shape"/>
<feGaussianBlur stdDeviation="0.199809" result="effect1_foregroundBlur_7747_10021"/>
</filter>
<filter id="filter6_f_7747_10021" x="32.6752" y="30.0404" width="7.82149" height="2.37618" filterUnits="userSpaceOnUse" color-interpolation-filters="sRGB">
<feFlood flood-opacity="0" result="BackgroundImageFix"/>
<feBlend mode="normal" in="SourceGraphic" in2="BackgroundImageFix" result="shape"/>
<feGaussianBlur stdDeviation="0.0999043" result="effect1_foregroundBlur_7747_10021"/>
</filter>
<filter id="filter7_f_7747_10021" x="15.3119" y="30.0404" width="7.82149" height="2.37618" filterUnits="userSpaceOnUse" color-interpolation-filters="sRGB">
<feFlood flood-opacity="0" result="BackgroundImageFix"/>
<feBlend mode="normal" in="SourceGraphic" in2="BackgroundImageFix" result="shape"/>
<feGaussianBlur stdDeviation="0.0999043" result="effect1_foregroundBlur_7747_10021"/>
</filter>
<filter id="filter8_f_7747_10021" x="23.0301" y="24.0613" width="19.5922" height="4.38517" filterUnits="userSpaceOnUse" color-interpolation-filters="sRGB">
<feFlood flood-opacity="0" result="BackgroundImageFix"/>
<feBlend mode="normal" in="SourceGraphic" in2="BackgroundImageFix" result="shape"/>
<feGaussianBlur stdDeviation="0.199809" result="effect1_foregroundBlur_7747_10021"/>
</filter>
<filter id="filter9_f_7747_10021" x="12.698" y="23.5359" width="11.4281" height="5.37931" filterUnits="userSpaceOnUse" color-interpolation-filters="sRGB">
<feFlood flood-opacity="0" result="BackgroundImageFix"/>
<feBlend mode="normal" in="SourceGraphic" in2="BackgroundImageFix" result="shape"/>
<feGaussianBlur stdDeviation="0.199809" result="effect1_foregroundBlur_7747_10021"/>
</filter>
<radialGradient id="paint0_radial_7747_10021" cx="0" cy="0" r="1" gradientUnits="userSpaceOnUse" gradientTransform="translate(37.5712 20.5754) rotate(154.335) scale(17.9228 17.364)">
<stop offset="0.1309" stop-color="#FFD39B"/>
<stop offset="1" stop-color="#FFD39A" stop-opacity="0"/>
</radialGradient>
<radialGradient id="paint1_radial_7747_10021" cx="0" cy="0" r="1" gradientUnits="userSpaceOnUse" gradientTransform="translate(28.4754 21.3926) rotate(124.244) scale(2.39973)">
<stop offset="0.182479" stop-color="#F6E8D9"/>
<stop offset="0.607105" stop-color="#E2CFC1"/>
</radialGradient>
<radialGradient id="paint2_radial_7747_10021" cx="0" cy="0" r="1" gradientUnits="userSpaceOnUse" gradientTransform="translate(22.7527 20.4082) rotate(124.244) scale(2.39973)">
<stop offset="0.182479" stop-color="#F6E8D9"/>
<stop offset="0.607105" stop-color="#E2CFC1"/>
</radialGradient>
<radialGradient id="paint3_radial_7747_10021" cx="0" cy="0" r="1" gradientUnits="userSpaceOnUse" gradientTransform="translate(34.2098 20.4082) rotate(124.244) scale(2.39973)">
<stop offset="0.182479" stop-color="#F6E8D9"/>
<stop offset="0.607105" stop-color="#E2CFC1"/>
</radialGradient>
<radialGradient id="paint4_radial_7747_10021" cx="0" cy="0" r="1" gradientUnits="userSpaceOnUse" gradientTransform="translate(25.7566 17.9883) rotate(124.244) scale(2.39973)">
<stop offset="0.182479" stop-color="#F6E8D9"/>
<stop offset="0.607105" stop-color="#E2CFC1"/>
</radialGradient>
<radialGradient id="paint5_radial_7747_10021" cx="0" cy="0" r="1" gradientUnits="userSpaceOnUse" gradientTransform="translate(31.2098 17.9883) rotate(124.244) scale(2.39973)">
<stop offset="0.182479" stop-color="#F6E8D9"/>
<stop offset="0.607105" stop-color="#E2CFC1"/>
</radialGradient>
<linearGradient id="paint6_linear_7747_10021" x1="15.2031" y1="29.8656" x2="40.7919" y2="29.8656" gradientUnits="userSpaceOnUse">
<stop stop-color="#DD7476"/>
<stop offset="0.0845882" stop-color="#E2565F"/>
<stop offset="0.2431" stop-color="#DE445C"/>
<stop offset="0.508196" stop-color="#D62650"/>
<stop offset="0.784225" stop-color="#EB4A80"/>
<stop offset="0.940004" stop-color="#DB4379"/>
<stop offset="1" stop-color="#D45E85"/>
</linearGradient>
<linearGradient id="paint7_linear_7747_10021" x1="27.9975" y1="30.2242" x2="27.9975" y2="29.1752" gradientUnits="userSpaceOnUse">
<stop offset="0.466666" stop-color="#E72D62"/>
<stop offset="0.846154" stop-color="#E72E64" stop-opacity="0"/>
</linearGradient>
<linearGradient id="paint8_linear_7747_10021" x1="27.9892" y1="30.834" x2="27.9892" y2="36.037" gradientUnits="userSpaceOnUse">
<stop stop-color="#946B52"/>
<stop offset="0.311531" stop-color="#A77A6F"/>
<stop offset="0.660996" stop-color="#98655D"/>
<stop offset="1" stop-color="#86536D"/>
</linearGradient>
<radialGradient id="paint9_radial_7747_10021" cx="0" cy="0" r="1" gradientUnits="userSpaceOnUse" gradientTransform="translate(22.3946 30.4268) rotate(84.2894) scale(6.32536 20.9026)">
<stop stop-color="#6B544C"/>
<stop offset="1" stop-color="#6B544C" stop-opacity="0"/>
</radialGradient>
<radialGradient id="paint10_radial_7747_10021" cx="0" cy="0" r="1" gradientUnits="userSpaceOnUse" gradientTransform="translate(27.9892 35.1823) rotate(90) scale(4.19598 13.1768)">
<stop stop-color="#803E4C"/>
<stop offset="1" stop-color="#824456" stop-opacity="0"/>
</radialGradient>
<linearGradient id="paint11_linear_7747_10021" x1="12.6108" y1="26.5417" x2="43.3114" y2="26.5417" gradientUnits="userSpaceOnUse">
<stop stop-color="#437151"/>
<stop offset="0.507973" stop-color="#619F49"/>
<stop offset="1" stop-color="#79B142"/>
</linearGradient>
<linearGradient id="paint12_linear_7747_10021" x1="12.6092" y1="26.2786" x2="43.3097" y2="26.2786" gradientUnits="userSpaceOnUse">
<stop stop-color="#437151"/>
<stop offset="0.507973" stop-color="#619F49"/>
<stop offset="1" stop-color="#79B142"/>
</linearGradient>
<radialGradient id="paint13_radial_7747_10021" cx="0" cy="0" r="1" gradientUnits="userSpaceOnUse" gradientTransform="translate(13.1686 27.049) rotate(81.8699) scale(1.978 5.47795)">
<stop stop-color="#6C9B83"/>
<stop offset="1" stop-color="#6D9B85" stop-opacity="0"/>
</radialGradient>
<linearGradient id="paint14_linear_7747_10021" x1="28.0053" y1="36.0488" x2="28.0053" y2="41.1509" gradientUnits="userSpaceOnUse">
<stop stop-color="#E18F63"/>
<stop offset="0.380746" stop-color="#E89C6E"/>
<stop offset="0.572642" stop-color="#EA9D75"/>
<stop offset="1" stop-color="#E0819D"/>
</linearGradient>
<radialGradient id="paint15_radial_7747_10021" cx="0" cy="0" r="1" gradientUnits="userSpaceOnUse" gradientTransform="translate(41.2115 37.7816) rotate(90) scale(4.05611 22.8995)">
<stop stop-color="#FFD5AE"/>
<stop offset="1" stop-color="#FFC8A0" stop-opacity="0"/>
</radialGradient>
<linearGradient id="paint16_linear_7747_10021" x1="27.9975" y1="28.8291" x2="27.9975" y2="33.1855" gradientUnits="userSpaceOnUse">
<stop stop-color="#C7850F"/>
<stop offset="0.488297" stop-color="#F0CD2D"/>
<stop offset="1" stop-color="#F7C747"/>
</linearGradient>
<linearGradient id="paint17_linear_7747_10021" x1="31.7678" y1="31.6277" x2="31.9193" y2="29.4101" gradientUnits="userSpaceOnUse">
<stop stop-color="#FFE07A" stop-opacity="0"/>
<stop offset="0.217647" stop-color="#FFE68F"/>
<stop offset="1" stop-color="#FFDB5C"/>
</linearGradient>
<linearGradient id="paint18_linear_7747_10021" x1="24.0408" y1="31.6277" x2="23.8892" y2="29.4101" gradientUnits="userSpaceOnUse">
<stop stop-color="#FFE07A" stop-opacity="0"/>
<stop offset="0.217647" stop-color="#FFE68F"/>
<stop offset="1" stop-color="#FFDB5C"/>
</linearGradient>
<radialGradient id="paint19_radial_7747_10021" cx="0" cy="0" r="1" gradientUnits="userSpaceOnUse" gradientTransform="translate(34.3595 25.124) rotate(15.6949) scale(8.78961 4.24358)">
<stop offset="0.226614" stop-color="#87BE66"/>
<stop offset="1" stop-color="#92C771" stop-opacity="0"/>
</radialGradient>
<linearGradient id="paint20_linear_7747_10021" x1="14.0767" y1="27.3268" x2="23.133" y2="25.9981" gradientUnits="userSpaceOnUse">
<stop stop-color="#66987E"/>
<stop offset="0.457848" stop-color="#66987E" stop-opacity="0.542152"/>
<stop offset="1" stop-color="#66987E" stop-opacity="0"/>
</linearGradient>
<linearGradient id="paint21_linear_7747_10021" x1="49.8217" y1="28" x2="19.0869" y2="28" gradientUnits="userSpaceOnUse">
<stop stop-color="#FF5075"/>
<stop offset="1" stop-color="#FF4B51"/>
</linearGradient>
<radialGradient id="paint22_radial_7747_10021" cx="0" cy="0" r="1" gradientUnits="userSpaceOnUse" gradientTransform="translate(26.4736 30.168) rotate(124.228) scale(28.7163)">
<stop offset="0.90345" stop-color="#FF74A7" stop-opacity="0"/>
<stop offset="0.926991" stop-color="#FF74A7"/>
</radialGradient>
<radialGradient id="paint23_radial_7747_10021" cx="0" cy="0" r="1" gradientUnits="userSpaceOnUse" gradientTransform="translate(29.1401 26.9688) rotate(135.971) scale(26.1745 25.1388)">
<stop offset="0.940798" stop-color="#D52555" stop-opacity="0"/>
<stop offset="1" stop-color="#CB1043"/>
</radialGradient>
<radialGradient id="paint24_radial_7747_10021" cx="0" cy="0" r="1" gradientUnits="userSpaceOnUse" gradientTransform="translate(27.7266 28.2734) rotate(131.082) scale(19.8066 20.3002)">
<stop offset="0.863069" stop-color="#FF74A7" stop-opacity="0"/>
<stop offset="0.946938" stop-color="#FF74A7"/>
<stop offset="1" stop-color="#FF74A7" stop-opacity="0"/>
</radialGradient>
<radialGradient id="paint25_radial_7747_10021" cx="0" cy="0" r="1" gradientUnits="userSpaceOnUse" gradientTransform="translate(28.7109 27.2344) rotate(131.539) scale(19.2153 19.6942)">
<stop offset="0.863069" stop-color="#D52555" stop-opacity="0"/>
<stop offset="0.946938" stop-color="#D52555"/>
<stop offset="1" stop-color="#D52555" stop-opacity="0"/>
</radialGradient>
<radialGradient id="paint26_radial_7747_10021" cx="0" cy="0" r="1" gradientUnits="userSpaceOnUse" gradientTransform="translate(29.0938 25.4297) rotate(44.7708) scale(19.3351 0.888322)">
<stop offset="0.470889" stop-color="#FF74A7"/>
<stop offset="1" stop-color="#FF74A7" stop-opacity="0"/>
</radialGradient>
<radialGradient id="paint27_radial_7747_10021" cx="0" cy="0" r="1" gradientUnits="userSpaceOnUse" gradientTransform="translate(25.375 29.0937) rotate(45.2247) scale(19.7218 0.906088)">
<stop offset="0.470889" stop-color="#D52555" stop-opacity="0.5"/>
<stop offset="1" stop-color="#D52555" stop-opacity="0"/>
</radialGradient>
<radialGradient id="paint28_radial_7747_10021" cx="0" cy="0" r="1" gradientUnits="userSpaceOnUse" gradientTransform="translate(14.3145 14.3008) rotate(133.414) scale(3.14313 5.01861)">
<stop offset="0.70344" stop-color="#FF4B51"/>
<stop offset="1" stop-color="#FF4B51" stop-opacity="0"/>
</radialGradient>
<radialGradient id="paint29_radial_7747_10021" cx="0" cy="0" r="1" gradientUnits="userSpaceOnUse" gradientTransform="translate(41.5078 41.4941) rotate(133.952) scale(3.17146 5.06384)">
<stop offset="0.70344" stop-color="#FF4F6D"/>
<stop offset="1" stop-color="#FF4F6D" stop-opacity="0"/>
</radialGradient>
</defs>
</svg>
