<svg width="20" height="20" viewBox="0 0 20 20" fill="none" xmlns="http://www.w3.org/2000/svg">
<path d="M6.66667 2.5H6.5C5.09987 2.5 4.3998 2.5 3.86502 2.77248C3.39462 3.01217 3.01217 3.39462 2.77248 3.86502C2.5 4.3998 2.5 5.09987 2.5 6.5V6.66667M6.66667 17.5H6.5C5.09987 17.5 4.3998 17.5 3.86502 17.2275C3.39462 16.9878 3.01217 16.6054 2.77248 16.135C2.5 15.6002 2.5 14.9001 2.5 13.5V13.3333M17.5 6.66667V6.5C17.5 5.09987 17.5 4.3998 17.2275 3.86502C16.9878 3.39462 16.6054 3.01217 16.135 2.77248C15.6002 2.5 14.9001 2.5 13.5 2.5H13.3333M17.5 13.3333V13.5C17.5 14.9001 17.5 15.6002 17.2275 16.135C16.9878 16.6054 16.6054 16.9878 16.135 17.2275C15.6002 17.5 14.9001 17.5 13.5 17.5H13.3333" stroke="black" stroke-width="1.16667" stroke-linecap="round" stroke-linejoin="round"/>
<g clip-path="url(#clip0_2166_7227)">
<path d="M10 11.6662L10 12.4303M5.62986 9.99978H5.625M8.06042 12.4303H8.05556M10.0049 14.3748H10M14.3799 9.99978H14.375M5.625 12.4303H6.35417M11.7014 9.99978H12.6736M5.625 14.3748H8.05556M10 5.13867V8.05534M12.7222 14.3748H13.5972C13.8695 14.3748 14.0056 14.3748 14.1096 14.3218C14.201 14.2752 14.2754 14.2008 14.322 14.1094C14.375 14.0054 14.375 13.8693 14.375 13.597V12.722C14.375 12.4498 14.375 12.3136 14.322 12.2096C14.2754 12.1182 14.201 12.0438 14.1096 11.9972C14.0056 11.9442 13.8695 11.9442 13.5972 11.9442H12.7222C12.45 11.9442 12.3139 11.9442 12.2099 11.9972C12.1184 12.0438 12.044 12.1182 11.9974 12.2096C11.9444 12.3136 11.9444 12.4498 11.9444 12.722V13.597C11.9444 13.8693 11.9444 14.0054 11.9974 14.1094C12.044 14.2008 12.1184 14.2752 12.2099 14.3218C12.3139 14.3748 12.45 14.3748 12.7222 14.3748ZM12.7222 8.05534H13.5972C13.8695 8.05534 14.0056 8.05534 14.1096 8.00236C14.201 7.95575 14.2754 7.88139 14.322 7.78992C14.375 7.68593 14.375 7.54981 14.375 7.27756V6.40256C14.375 6.13031 14.375 5.99419 14.322 5.8902C14.2754 5.79874 14.201 5.72437 14.1096 5.67777C14.0056 5.62478 13.8695 5.62478 13.5972 5.62478H12.7222C12.45 5.62478 12.3139 5.62478 12.2099 5.67777C12.1184 5.72437 12.044 5.79874 11.9974 5.8902C11.9444 5.99419 11.9444 6.13031 11.9444 6.40256V7.27756C11.9444 7.54981 11.9444 7.68593 11.9974 7.78992C12.044 7.88139 12.1184 7.95575 12.2099 8.00236C12.3139 8.05534 12.45 8.05534 12.7222 8.05534ZM6.40278 8.05534H7.27778C7.55003 8.05534 7.68615 8.05534 7.79013 8.00236C7.8816 7.95575 7.95597 7.88139 8.00257 7.78992C8.05556 7.68593 8.05556 7.54981 8.05556 7.27756V6.40256C8.05556 6.13031 8.05556 5.99419 8.00257 5.8902C7.95597 5.79874 7.8816 5.72437 7.79013 5.67777C7.68615 5.62478 7.55003 5.62478 7.27778 5.62478H6.40278C6.13053 5.62478 5.99441 5.62478 5.89042 5.67777C5.79895 5.72437 5.72459 5.79874 5.67798 5.8902C5.625 5.99419 5.625 6.13031 5.625 6.40256V7.27756C5.625 7.54981 5.625 7.68593 5.67798 7.78992C5.72459 7.88139 5.79895 7.95575 5.89042 8.00236C5.99441 8.05534 6.13053 8.05534 6.40278 8.05534Z" stroke="black" stroke-width="1.16667" stroke-linecap="round" stroke-linejoin="round"/>
</g>
<path d="M0.833008 10H18.7497" stroke="black" stroke-width="1.16667" stroke-linecap="round"/>
<defs>
<clipPath id="clip0_2166_7227">
<rect width="11.6667" height="11.6667" fill="white" transform="translate(4.16699 4.16602)"/>
</clipPath>
</defs>
</svg>
