<svg width="22" height="22" viewBox="0 0 22 22" fill="none" xmlns="http://www.w3.org/2000/svg">
<rect width="22" height="22" rx="11" fill="#97F8B7"/>
<g clip-path="url(#clip0_10688_7314)">
<path d="M10.9997 17.6673C14.6816 17.6673 17.6663 14.6826 17.6663 11.0007C17.6663 7.31875 14.6816 4.33398 10.9997 4.33398C7.31778 4.33398 4.33301 7.31875 4.33301 11.0007C4.33301 14.6826 7.31778 17.6673 10.9997 17.6673Z" stroke="black" stroke-width="0.933333" stroke-linecap="round" stroke-linejoin="round"/>
<path fill-rule="evenodd" clip-rule="evenodd" d="M10.9974 9.04592C10.3309 8.26678 9.21959 8.0572 8.38457 8.77066C7.54956 9.48411 7.432 10.677 8.08774 11.5208C8.50775 12.0612 9.5834 13.0635 10.3025 13.7142C10.5415 13.9305 10.6609 14.0386 10.8041 14.082C10.9271 14.1192 11.0677 14.1192 11.1907 14.082C11.3338 14.0386 11.4533 13.9305 11.6923 13.7142C12.4114 13.0635 13.487 12.0612 13.907 11.5208C14.5628 10.677 14.4596 9.47661 13.6102 8.77066C12.7608 8.0647 11.6638 8.26678 10.9974 9.04592Z" stroke="black" stroke-width="0.933333" stroke-linecap="round" stroke-linejoin="round"/>
</g>
<defs>
<clipPath id="clip0_10688_7314">
<rect width="16" height="16" fill="white" transform="translate(3 3)"/>
</clipPath>
</defs>
</svg>
