<svg width="23" height="22" viewBox="0 0 23 22" fill="none" xmlns="http://www.w3.org/2000/svg">
<path d="M2.74298 6.48282L7.03102 9.54565C7.25414 9.70503 7.36571 9.78471 7.48247 9.80308C7.58521 9.81923 7.69043 9.80295 7.78348 9.75649C7.88923 9.7037 7.97149 9.59402 8.136 9.37466L9.04211 8.16652C9.08863 8.10448 9.11189 8.07347 9.13923 8.04671C9.16351 8.02295 9.19015 8.00173 9.21873 7.98338C9.25091 7.9627 9.28634 7.94696 9.3572 7.91546L13.2258 6.19609C13.3862 6.12482 13.4663 6.08918 13.5268 6.03352C13.5803 5.9843 13.6224 5.924 13.6502 5.85684C13.6816 5.78091 13.6874 5.69336 13.6991 5.51826L13.9824 1.2694M13.167 12.5L15.783 13.6211C16.0865 13.7512 16.2383 13.8163 16.3187 13.9243C16.3892 14.0191 16.4239 14.1358 16.4166 14.2537C16.4083 14.3881 16.3167 14.5255 16.1335 14.8002L14.9045 16.6438C14.8177 16.774 14.7742 16.8391 14.7169 16.8863C14.6661 16.928 14.6076 16.9593 14.5447 16.9784C14.4736 17 14.3954 17 14.2388 17H12.2436C12.0363 17 11.9326 17 11.8444 16.9653C11.7665 16.9347 11.6975 16.885 11.6438 16.8208C11.583 16.7481 11.5502 16.6497 11.4847 16.453L10.7718 14.3144C10.7331 14.1983 10.7138 14.1403 10.7087 14.0814C10.7042 14.0291 10.7079 13.9764 10.7198 13.9253C10.7331 13.8677 10.7605 13.813 10.8152 13.7036L11.3567 12.6206C11.4667 12.4005 11.5217 12.2905 11.6065 12.2222C11.6811 12.162 11.7715 12.1246 11.8669 12.1143C11.9751 12.1027 12.0918 12.1416 12.3252 12.2194L13.167 12.5ZM21.667 11C21.667 16.5228 17.1898 21 11.667 21C6.14414 21 1.66699 16.5228 1.66699 11C1.66699 5.47715 6.14414 1 11.667 1C17.1898 1 21.667 5.47715 21.667 11Z" stroke="black" stroke-width="1.4" stroke-linecap="round" stroke-linejoin="round"/>
</svg>
