<svg width="25" height="24" viewBox="0 0 25 24" fill="none" xmlns="http://www.w3.org/2000/svg">
<path d="M8 9.5L11 7.5L12.5 9L15.5 8L17.5 9.5V12L12.5 17L8 12V9.5Z" fill="#FFE816"/>
<path d="M12.5 22C18.0228 22 22.5 17.5228 22.5 12C22.5 6.47715 18.0228 2 12.5 2C6.97715 2 2.5 6.47715 2.5 12C2.5 17.5228 6.97715 22 12.5 22Z" stroke="black" stroke-width="1.2" stroke-linecap="round" stroke-linejoin="round"/>
<path fill-rule="evenodd" clip-rule="evenodd" d="M12.4966 9.06791C11.4969 7.8992 9.82987 7.58482 8.57735 8.65501C7.32482 9.72519 7.14848 11.5145 8.1321 12.7802C8.76211 13.5909 10.3756 15.0942 11.4542 16.0704C11.8127 16.3947 11.9919 16.5569 12.2066 16.622C12.3911 16.6779 12.602 16.6779 12.7866 16.622C13.0012 16.5569 13.1805 16.3947 13.5389 16.0704C14.6176 15.0942 16.231 13.5909 16.8611 12.7802C17.8447 11.5145 17.6899 9.71393 16.4158 8.65501C15.1417 7.59608 13.4963 7.8992 12.4966 9.06791Z" stroke="black" stroke-width="1.2" stroke-linecap="round" stroke-linejoin="round"/>
</svg>
