<svg width="60" height="60" viewBox="0 0 60 60" fill="none" xmlns="http://www.w3.org/2000/svg">
<path d="M27.7147 10.8091C27.9505 10.7781 28.2002 10.7618 28.4646 10.7618C32.6648 10.7618 38.4652 12.1369 40.8404 12.8244C42.2154 13.1994 45.0406 14.737 45.3406 17.8872C45.6752 21.3996 45.5621 24.9119 43.1385 25.7629M27.7147 10.8091C27.7772 10.9184 27.7147 10.762 26.9647 9.26186C26.7266 8.78576 26.3941 8.3978 26.0271 8.08598M27.7147 10.8091C26.3802 10.9843 25.4912 11.6278 24.9019 12.4257M26.0271 8.08598C25.2378 7.41532 24.2888 7.09693 23.7768 7.01156C22.6518 6.88655 19.5018 7.7241 15.9015 12.0744C14.8292 13.3701 14.1073 14.9974 13.6388 16.7364M26.0271 8.08598C25.4021 8.16542 22.8394 8.69933 20.0267 12.2621C19.6241 12.7721 19.2675 13.3859 18.9532 14.0754M8.21348 25.5754C8.02562 23.8878 8.02591 22.9502 8.02591 22.9502C7.72589 19.8 9.76782 18.6779 10.6506 18.2624C11.4718 17.876 12.517 17.3278 13.6388 16.7364M8.21348 25.5754V26.7005L10.088 27.0755M8.21348 25.5754C8.5323 24.9374 8.89958 24.034 10.088 23.0431M13.6388 16.7364C15.4133 15.8009 17.3794 14.7574 18.9532 14.0754M18.9532 14.0754C20.2465 13.515 21.2748 13.1988 21.7143 13.3871C21.8653 13.4518 21.989 13.5364 22.0888 13.6367M17.4179 19.6344C16.6269 19.9575 15.6931 20.3103 14.5889 20.7001C13.9743 20.917 13.4234 21.1361 12.9288 21.3557M17.4179 19.6344C20.2803 18.465 21.2736 17.6844 21.7143 16.9498C22.2122 16.1201 22.8569 14.4092 22.0888 13.6367M17.4179 19.6344C17.3497 22.1148 19.9136 27.263 31.4644 26.513M17.4179 19.6344C17.1378 21.3908 16.9886 23.1933 16.9404 24.8252M12.9288 21.3557C11.9794 21.7771 11.2375 22.2003 10.6506 22.6132M12.9288 21.3557C12.8896 22.0276 12.8749 22.6882 12.8793 23.3253M24.9019 12.4257C23.9412 13.7263 23.7767 15.4373 23.7768 16.1996C23.7768 17.5122 23.5893 18.6373 24.9019 21.2625C26.2144 23.8876 29.2771 24.6377 30.7147 24.8252C33.4024 25.2627 39.4528 26.1003 42.1529 25.9503C42.5176 25.93 42.845 25.866 43.1385 25.7629M24.9019 12.4257L22.0888 13.6367M31.4644 26.513C30.8393 27.138 28.5392 28.313 24.3389 28.0129C23.7416 27.9702 23.179 27.8941 22.6513 27.7924M31.4644 26.513C32.2311 26.3426 33.1141 26.327 33.902 26.4311M37.8398 27.8255L35.9647 27.263C35.6577 26.8537 34.8483 26.5561 33.902 26.4311M37.8398 27.8255L43.1385 25.7629M37.8398 27.8255C37.4648 29.5131 35.7771 29.5131 34.8396 28.9506C33.902 28.3881 33.8395 27.2084 33.902 26.4311M16.9404 24.8252C16.8982 26.2547 16.9336 27.5533 17.0265 28.5756L13.2764 28.0129C13.2352 27.7821 13.1951 27.5313 13.1574 27.263M16.9404 24.8252C17.5547 25.6294 19.4684 27.1786 22.6513 27.7924M10.088 27.0755V23.0431M10.088 27.0755L13.1574 27.263M10.088 23.0431C10.258 22.9014 10.4447 22.7579 10.6506 22.6132M13.1574 27.263C13.0053 26.183 12.8898 24.8186 12.8793 23.3253M17.0265 27.4505L22.6513 27.7924M10.6506 22.6132L12.8793 23.3253M28.8099 24.0636C28.6224 23.501 28.9974 22.751 29.7475 22.751C30.4975 22.751 30.8725 23.8761 30.4975 24.2511C30.1225 24.6261 28.9974 24.6261 28.8099 24.0636ZM41.4509 25.3762C41.2634 24.8136 41.6384 24.0636 42.3885 24.0636C43.1385 24.0636 43.5136 25.1887 43.1385 25.5637C42.7635 25.9387 41.6384 25.9387 41.4509 25.3762Z" stroke="#5F5CE5" stroke-linejoin="round"/>
<path d="M13.8088 46.9422L11.1837 46.1922L10.9962 45.4422L11.7462 44.3171L14.9339 45.0671M13.8088 46.9422L14.9339 45.0671M13.8088 46.9422C13.0588 48.6924 10.0586 52.3801 7.80872 51.0675C5.55888 49.7549 8.49626 44.6921 10.6214 43.192V41.987H13.6216M14.9339 45.0671C14.8714 44.8796 14.8964 44.2421 15.4964 43.192M14.9339 45.0671L17.7468 46.1922L18.3093 45.4422L17.3716 44.1296M15.4964 43.192C16.2465 43.642 17.059 44.0046 17.3716 44.1296M15.4964 43.192L17.3716 44.1296M15.4964 43.192C14.9579 42.8744 14.3058 42.461 13.6216 41.987M17.3716 44.1296C17.8717 43.4154 19.0594 41.987 19.8094 41.987M17.3716 44.1296L19.2469 46.7547L20.5595 45.4422L19.8094 41.987M12.1215 33.6289C11.1838 33.6289 9.19605 34.1539 8.74602 36.2541C8.39542 37.8902 11.2087 40.3154 13.6216 41.987M12.1215 33.6289C10.7716 33.9289 11.934 35.504 12.684 36.2541M12.1215 33.6289C12.5606 33.7112 13.3011 33.9382 14.184 34.3574M20.5595 40.3793C20.622 40.1918 20.1845 39.2543 17.9344 37.0041C17.5921 36.6619 17.2427 36.35 16.8926 36.0666M20.5595 40.3793C20.4971 40.6293 20.372 40.9419 18.8719 40.7544C17.9308 40.6367 16.03 39.1905 14.5591 37.9438M20.5595 40.3793C20.622 40.9152 20.5595 41.987 19.8094 41.987M12.684 36.2541C12.809 35.8647 13.284 34.9402 14.184 34.3574M12.684 36.2541C12.9635 36.5335 13.6855 37.2035 14.5591 37.9438M14.184 34.3574C15.0061 34.7477 15.9516 35.3046 16.8926 36.0666M14.5591 37.9438C15.1773 37.3181 16.5094 36.0666 16.8926 36.0666" stroke="#5F5CE5" stroke-linejoin="round"/>
<path d="M45.072 44.4824L46.3979 42.0958L46.0002 41.4328L44.6743 41.1677L42.9506 43.9521M45.072 44.4824L42.9506 43.9521M45.072 44.4824C46.8399 45.1896 51.569 45.6757 52.2318 43.1567C52.8945 40.6377 47.2375 39.1348 44.6741 39.5768L43.822 38.7247L41.7005 40.8461M42.9506 43.9521C42.8622 43.7753 42.3937 43.3422 41.2269 43.0239M42.9506 43.9521L41.7571 46.7366L40.829 46.604L40.5639 45.0128M41.2269 43.0239C41.0148 43.8725 40.6965 44.7034 40.5639 45.0128M41.2269 43.0239L40.5639 45.0128M41.2269 43.0239C41.3831 42.4185 41.5519 41.6651 41.7005 40.8461M40.5639 45.0128C39.7053 44.8614 37.8554 44.6912 37.3251 45.2216M40.5639 45.0128L41.0942 48.1951L39.2379 48.1952L37.3251 45.2216M36.8512 33.8753C37.5142 33.2123 39.2911 32.178 41.0943 33.3448C42.4992 34.2538 42.2247 37.958 41.7005 40.8461M36.8512 33.8753C38.0179 33.133 38.3097 35.0687 38.3097 36.1294M36.8512 33.8753C36.5989 34.2441 36.2358 34.9281 35.9079 35.8489M35.6579 44.6152C35.4811 44.5268 35.1275 43.5545 35.1275 40.3723C35.1275 39.8883 35.1541 39.4207 35.2012 38.9727M35.6579 44.6152C35.8788 44.7479 36.1883 44.8804 37.1164 43.6871C37.6987 42.9384 38.0201 40.5717 38.1787 38.6501M35.6579 44.6152C35.9926 45.0383 36.7947 45.7519 37.3251 45.2216M38.3097 36.1294C37.946 35.9424 36.9565 35.6246 35.9079 35.8489M38.3097 36.1294C38.3097 36.5246 38.2729 37.5089 38.1787 38.6501M35.9079 35.8489C35.6026 36.7062 35.3278 37.7686 35.2012 38.9727M38.1787 38.6501C37.2991 38.6447 35.4722 38.7018 35.2012 38.9727" stroke="#5F5CE5" stroke-linejoin="round"/>
</svg>
