<svg width="56" height="56" viewBox="0 0 56 56" fill="none" xmlns="http://www.w3.org/2000/svg">
<path d="M45.9993 8.10262L42.2164 5.90356L20.1641 46.1426L24.9624 46.673L45.9993 8.10262Z" fill="url(#paint0_linear_7747_10059)"/>
<path d="M45.9993 8.10262L42.2164 5.90356L20.1641 46.1426L24.9624 46.673L45.9993 8.10262Z" fill="url(#paint1_radial_7747_10059)"/>
<path d="M45.9993 8.10262L42.2164 5.90356L20.1641 46.1426L24.9624 46.673L45.9993 8.10262Z" fill="url(#paint2_linear_7747_10059)"/>
<path d="M45.9993 8.10262L42.2164 5.90356L20.1641 46.1426L24.9624 46.673L45.9993 8.10262Z" fill="url(#paint3_radial_7747_10059)"/>
<path d="M45.9993 8.10262L42.2164 5.90356L20.1641 46.1426L24.9624 46.673L45.9993 8.10262Z" fill="url(#paint4_radial_7747_10059)"/>
<path d="M45.9993 8.10262L42.2164 5.90356L20.1641 46.1426L24.9624 46.673L45.9993 8.10262Z" fill="url(#paint5_radial_7747_10059)"/>
<path d="M45.9993 8.10262L42.2164 5.90356L20.1641 46.1426L24.9624 46.673L45.9993 8.10262Z" fill="url(#paint6_linear_7747_10059)"/>
<path d="M45.9993 8.10262L42.2164 5.90356L20.1641 46.1426L24.9624 46.673L45.9993 8.10262Z" fill="url(#paint7_linear_7747_10059)"/>
<path d="M45.9993 8.10262L42.2164 5.90356L20.1641 46.1426L24.9624 46.673L45.9993 8.10262Z" fill="url(#paint8_linear_7747_10059)"/>
<path d="M35.3352 8.10262L31.5524 5.90356L10.2796 45.0625L14.2984 46.673L35.3352 8.10262Z" fill="url(#paint9_linear_7747_10059)"/>
<path d="M35.3352 8.10262L31.5524 5.90356L10.2796 45.0625L14.2984 46.673L35.3352 8.10262Z" fill="url(#paint10_radial_7747_10059)"/>
<path d="M35.3352 8.10262L31.5524 5.90356L10.2796 45.0625L14.2984 46.673L35.3352 8.10262Z" fill="url(#paint11_linear_7747_10059)"/>
<path d="M35.3352 8.10262L31.5524 5.90356L10.2796 45.0625L14.2984 46.673L35.3352 8.10262Z" fill="url(#paint12_radial_7747_10059)"/>
<path d="M35.3352 8.10262L31.5524 5.90356L10.2796 45.0625L14.2984 46.673L35.3352 8.10262Z" fill="url(#paint13_radial_7747_10059)"/>
<path d="M35.3352 8.10262L31.5524 5.90356L10.2796 45.0625L14.2984 46.673L35.3352 8.10262Z" fill="url(#paint14_radial_7747_10059)"/>
<path d="M35.3352 8.10262L31.5524 5.90356L10.2796 45.0625L14.2984 46.673L35.3352 8.10262Z" fill="url(#paint15_linear_7747_10059)"/>
<path d="M35.3352 8.10262L31.5524 5.90356L10.2796 45.0625L14.2984 46.673L35.3352 8.10262Z" fill="url(#paint16_linear_7747_10059)"/>
<path d="M35.3352 8.10262L31.5524 5.90356L10.2796 45.0625L14.2984 46.673L35.3352 8.10262Z" fill="url(#paint17_linear_7747_10059)"/>
<path d="M35.3352 8.10262L31.5524 5.90356L10.2796 45.0625L14.2984 46.673L35.3352 8.10262Z" fill="url(#paint18_linear_7747_10059)"/>
<path d="M21.1341 5.63086L24.9169 7.8299L11.1328 33.1026L10.3164 25.37L21.1341 5.63086Z" fill="url(#paint19_linear_7747_10059)"/>
<path d="M21.1341 5.63086L24.9169 7.8299L11.1328 33.1026L10.3164 25.37L21.1341 5.63086Z" fill="url(#paint20_radial_7747_10059)"/>
<path d="M21.1341 5.63086L24.9169 7.8299L11.1328 33.1026L10.3164 25.37L21.1341 5.63086Z" fill="url(#paint21_linear_7747_10059)"/>
<path d="M21.1341 5.63086L24.9169 7.8299L11.1328 33.1026L10.3164 25.37L21.1341 5.63086Z" fill="url(#paint22_linear_7747_10059)"/>
<path d="M21.1341 5.63086L24.9169 7.8299L11.1328 33.1026L10.3164 25.37L21.1341 5.63086Z" fill="url(#paint23_linear_7747_10059)"/>
<path d="M21.1341 5.63086L24.9169 7.8299L11.1328 33.1026L10.3164 25.37L21.1341 5.63086Z" fill="url(#paint24_linear_7747_10059)"/>
<path d="M21.1341 5.63086L24.9169 7.8299L11.1328 33.1026L10.3164 25.37L21.1341 5.63086Z" fill="url(#paint25_linear_7747_10059)"/>
<path d="M48.5913 13.7598L29.668 48.2893H34.7448L47.4897 24.9222L48.5913 13.7598Z" fill="url(#paint26_linear_7747_10059)"/>
<path d="M48.5913 13.7598L29.668 48.2893H34.7448L47.4897 24.9222L48.5913 13.7598Z" fill="url(#paint27_linear_7747_10059)"/>
<path d="M48.5913 13.7598L29.668 48.2893H34.7448L47.4897 24.9222L48.5913 13.7598Z" fill="url(#paint28_linear_7747_10059)"/>
<path d="M48.5913 13.7598L29.668 48.2893H34.7448L47.4897 24.9222L48.5913 13.7598Z" fill="url(#paint29_radial_7747_10059)"/>
<path d="M48.5913 13.7598L29.668 48.2893H34.7448L47.4897 24.9222L48.5913 13.7598Z" fill="url(#paint30_linear_7747_10059)"/>
<path d="M48.5913 13.7598L29.668 48.2893H34.7448L47.4897 24.9222L48.5913 13.7598Z" fill="url(#paint31_linear_7747_10059)"/>
<path d="M48.5913 13.7598L29.668 48.2893H34.7448L47.4897 24.9222L48.5913 13.7598Z" fill="url(#paint32_linear_7747_10059)"/>
<path d="M48.5913 13.7598L29.668 48.2893H34.7448L47.4897 24.9222L48.5913 13.7598Z" fill="url(#paint33_linear_7747_10059)" fill-opacity="0.6"/>
<path d="M48.5913 13.7598L29.668 48.2893H34.7448L47.4897 24.9222L48.5913 13.7598Z" fill="url(#paint34_linear_7747_10059)" fill-opacity="0.6"/>
<path d="M11.1179 9.41707L14.9008 7.21801L37.3774 48.2337L32.1548 47.9874L11.1179 9.41707Z" fill="url(#paint35_linear_7747_10059)"/>
<path d="M11.1179 9.41707L14.9008 7.21801L37.3774 48.2337L32.1548 47.9874L11.1179 9.41707Z" fill="url(#paint36_linear_7747_10059)"/>
<path d="M11.1179 9.41707L14.9008 7.21801L37.3774 48.2337L32.1548 47.9874L11.1179 9.41707Z" fill="url(#paint37_linear_7747_10059)"/>
<path d="M11.1179 9.41707L14.9008 7.21801L37.3774 48.2337L32.1548 47.9874L11.1179 9.41707Z" fill="url(#paint38_linear_7747_10059)"/>
<path d="M11.1179 9.41707L14.9008 7.21801L37.3774 48.2337L32.1548 47.9874L11.1179 9.41707Z" fill="url(#paint39_linear_7747_10059)"/>
<path d="M20.4031 6.85848L24.1859 4.65942L46.2383 44.8984L41.4399 45.4288L20.4031 6.85848Z" fill="url(#paint40_linear_7747_10059)"/>
<path d="M20.4031 6.85848L24.1859 4.65942L46.2383 44.8984L41.4399 45.4288L20.4031 6.85848Z" fill="url(#paint41_linear_7747_10059)"/>
<path d="M20.4031 6.85848L24.1859 4.65942L46.2383 44.8984L41.4399 45.4288L20.4031 6.85848Z" fill="url(#paint42_linear_7747_10059)"/>
<path d="M20.4031 6.85848L24.1859 4.65942L46.2383 44.8984L41.4399 45.4288L20.4031 6.85848Z" fill="url(#paint43_linear_7747_10059)"/>
<path d="M20.4031 6.85848L24.1859 4.65942L46.2383 44.8984L41.4399 45.4288L20.4031 6.85848Z" fill="url(#paint44_linear_7747_10059)"/>
<path d="M8.92188 24.9163L23.2059 51.1055L28.4284 51.3518L8.92188 15.7559V24.9163Z" fill="url(#paint45_linear_7747_10059)"/>
<path d="M8.92188 24.9163L23.2059 51.1055L28.4284 51.3518L8.92188 15.7559V24.9163Z" fill="url(#paint46_linear_7747_10059)"/>
<path d="M8.92188 24.9163L23.2059 51.1055L28.4284 51.3518L8.92188 15.7559V24.9163Z" fill="url(#paint47_linear_7747_10059)"/>
<path d="M8.92188 24.9163L23.2059 51.1055L28.4284 51.3518L8.92188 15.7559V24.9163Z" fill="url(#paint48_linear_7747_10059)"/>
<path d="M32.3281 9.41223V8.58594H36.8953L45.9283 25.0697L44.5592 31.8375L32.3281 9.41223Z" fill="url(#paint49_linear_7747_10059)"/>
<path d="M32.3281 9.41223V8.58594H36.8953L45.9283 25.0697L44.5592 31.8375L32.3281 9.41223Z" fill="url(#paint50_linear_7747_10059)"/>
<path d="M32.3281 9.41223V8.58594H36.8953L45.9283 25.0697L44.5592 31.8375L32.3281 9.41223Z" fill="url(#paint51_linear_7747_10059)"/>
<path d="M32.3281 9.41223V8.58594H36.8953L45.9283 25.0697L44.5592 31.8375L32.3281 9.41223Z" fill="url(#paint52_linear_7747_10059)"/>
<path d="M32.3281 9.41223V8.58594H36.8953L45.9283 25.0697L44.5592 31.8375L32.3281 9.41223Z" fill="url(#paint53_linear_7747_10059)"/>
<path d="M50.9609 9.37891L45.4922 9.31055L40.4062 49.2051L45.875 49.2734L50.9609 9.37891Z" fill="url(#paint54_linear_7747_10059)"/>
<path d="M50.9609 9.37891L45.4922 9.31055L40.4062 49.2051L45.875 49.2734L50.9609 9.37891Z" fill="url(#paint55_radial_7747_10059)"/>
<path d="M50.9609 9.37891L45.4922 9.31055L40.4062 49.2051L45.875 49.2734L50.9609 9.37891Z" fill="url(#paint56_radial_7747_10059)"/>
<path d="M50.9609 9.37891L45.4922 9.31055L40.4062 49.2051L45.875 49.2734L50.9609 9.37891Z" fill="url(#paint57_linear_7747_10059)"/>
<path d="M50.9609 9.37891L45.4922 9.31055L40.4062 49.2051L45.875 49.2734L50.9609 9.37891Z" fill="url(#paint58_linear_7747_10059)"/>
<path d="M5.01172 7.57422L10.4805 7.50586L15.5664 47.4004L10.0977 47.4688L5.01172 7.57422Z" fill="url(#paint59_linear_7747_10059)"/>
<path d="M5.01172 7.57422L10.4805 7.50586L15.5664 47.4004L10.0977 47.4688L5.01172 7.57422Z" fill="url(#paint60_radial_7747_10059)"/>
<path d="M5.01172 7.57422L10.4805 7.50586L15.5664 47.4004L10.0977 47.4688L5.01172 7.57422Z" fill="url(#paint61_linear_7747_10059)"/>
<path d="M5.01172 7.57422L10.4805 7.50586L15.5664 47.4004L10.0977 47.4688L5.01172 7.57422Z" fill="url(#paint62_linear_7747_10059)"/>
<rect x="3.58203" y="3.55469" width="49.2734" height="6.80859" rx="1.94531" fill="#CCCBCD"/>
<rect x="3.58203" y="3.55469" width="49.2734" height="6.80859" rx="1.94531" fill="url(#paint63_linear_7747_10059)"/>
<rect x="3.58203" y="3.55469" width="49.2734" height="6.80859" rx="1.94531" fill="url(#paint64_linear_7747_10059)"/>
<rect x="3.58203" y="3.55469" width="49.2734" height="6.80859" rx="1.94531" fill="url(#paint65_linear_7747_10059)"/>
<rect x="3.58203" y="3.55469" width="49.2734" height="6.80859" rx="1.94531" fill="url(#paint66_linear_7747_10059)"/>
<rect x="3.58203" y="3.55469" width="49.2734" height="6.80859" rx="1.94531" fill="url(#paint67_linear_7747_10059)"/>
<rect x="3.58203" y="3.55469" width="49.2734" height="6.80859" rx="1.94531" fill="url(#paint68_linear_7747_10059)"/>
<rect x="3.58203" y="3.55469" width="49.2734" height="6.80859" rx="1.94531" fill="url(#paint69_radial_7747_10059)"/>
<rect x="8.66797" y="45.5547" width="39.1016" height="6.80859" rx="1.94531" fill="#CCCBCD"/>
<rect x="8.66797" y="45.5547" width="39.1016" height="6.80859" rx="1.94531" fill="url(#paint70_linear_7747_10059)"/>
<rect x="8.66797" y="45.5547" width="39.1016" height="6.80859" rx="1.94531" fill="url(#paint71_linear_7747_10059)"/>
<rect x="8.66797" y="45.5547" width="39.1016" height="6.80859" rx="1.94531" fill="url(#paint72_linear_7747_10059)"/>
<rect x="8.66797" y="45.5547" width="39.1016" height="6.80859" rx="1.94531" fill="url(#paint73_linear_7747_10059)"/>
<rect x="8.66797" y="45.5547" width="39.1016" height="6.80859" rx="1.94531" fill="url(#paint74_linear_7747_10059)"/>
<rect x="8.66797" y="45.5547" width="39.1016" height="6.80859" rx="1.94531" fill="url(#paint75_linear_7747_10059)"/>
<rect x="8.66797" y="45.5547" width="39.1016" height="6.80859" rx="1.94531" fill="url(#paint76_linear_7747_10059)"/>
<rect x="8.66797" y="45.5547" width="39.1016" height="6.80859" rx="1.94531" fill="url(#paint77_radial_7747_10059)"/>
<defs>
<linearGradient id="paint0_linear_7747_10059" x1="44.1863" y1="6.98498" x2="22.1051" y2="47.2081" gradientUnits="userSpaceOnUse">
<stop stop-color="#B9B3C6"/>
<stop offset="1" stop-color="#D8D3E4"/>
<stop offset="1" stop-color="#D5D2DF"/>
</linearGradient>
<radialGradient id="paint1_radial_7747_10059" cx="0" cy="0" r="1" gradientUnits="userSpaceOnUse" gradientTransform="translate(29.8031 26.1953) rotate(33.6901) scale(4.73229 32.4912)">
<stop stop-color="#E6E2F1"/>
<stop offset="1" stop-color="#E6E2F1" stop-opacity="0"/>
</radialGradient>
<linearGradient id="paint2_linear_7747_10059" x1="42.8187" y1="7.92969" x2="41.3421" y2="14.3828" gradientUnits="userSpaceOnUse">
<stop offset="0.332802" stop-color="#776D8C"/>
<stop offset="1" stop-color="#A7A0B6" stop-opacity="0"/>
</linearGradient>
<radialGradient id="paint3_radial_7747_10059" cx="0" cy="0" r="1" gradientUnits="userSpaceOnUse" gradientTransform="translate(38.5531 19.3594) rotate(154.564) scale(2.48287 15.2558)">
<stop offset="0.231495" stop-color="#847A97"/>
<stop offset="1" stop-color="#D5CFE2" stop-opacity="0"/>
</radialGradient>
<radialGradient id="paint4_radial_7747_10059" cx="0" cy="0" r="1" gradientUnits="userSpaceOnUse" gradientTransform="translate(33.1457 28.1094) rotate(151.238) scale(3.75065 23.0455)">
<stop offset="0.236657" stop-color="#847A97"/>
<stop offset="1" stop-color="#D5CFE2" stop-opacity="0"/>
</radialGradient>
<radialGradient id="paint5_radial_7747_10059" cx="0" cy="0" r="1" gradientUnits="userSpaceOnUse" gradientTransform="translate(27.6703 37.1328) rotate(152.488) scale(2.9597 18.1856)">
<stop offset="0.401951" stop-color="#847A97"/>
<stop offset="1" stop-color="#D5CFE2" stop-opacity="0"/>
</radialGradient>
<linearGradient id="paint6_linear_7747_10059" x1="30.9343" y1="23.0081" x2="32.8634" y2="24.0791" gradientUnits="userSpaceOnUse">
<stop offset="0.65625" stop-color="#A1A0A4"/>
<stop offset="1" stop-color="#A1A0A4" stop-opacity="0"/>
</linearGradient>
<linearGradient id="paint7_linear_7747_10059" x1="38.8935" y1="27.8445" x2="35.6627" y2="26.0675" gradientUnits="userSpaceOnUse">
<stop offset="0.65625" stop-color="#A1A0A4"/>
<stop offset="1" stop-color="#A1A0A4" stop-opacity="0"/>
</linearGradient>
<linearGradient id="paint8_linear_7747_10059" x1="37.5204" y1="28.006" x2="34.7742" y2="26.6329" gradientUnits="userSpaceOnUse">
<stop stop-color="#CBC7D5"/>
<stop offset="1" stop-color="#CBC7D5" stop-opacity="0"/>
</linearGradient>
<linearGradient id="paint9_linear_7747_10059" x1="33.5223" y1="6.98498" x2="12.0772" y2="46.0493" gradientUnits="userSpaceOnUse">
<stop stop-color="#B9B3C6"/>
<stop offset="1" stop-color="#B6B3C0"/>
</linearGradient>
<radialGradient id="paint10_radial_7747_10059" cx="0" cy="0" r="1" gradientUnits="userSpaceOnUse" gradientTransform="translate(29.1468 20.5078) rotate(122.412) scale(20.4055 7.35613)">
<stop stop-color="#D3CDE1"/>
<stop offset="1" stop-color="#D3CDE1" stop-opacity="0"/>
</radialGradient>
<linearGradient id="paint11_linear_7747_10059" x1="32.1753" y1="7.89215" x2="30.6905" y2="14.1616" gradientUnits="userSpaceOnUse">
<stop offset="0.332802" stop-color="#80759B"/>
<stop offset="1" stop-color="#B2AAC4" stop-opacity="0"/>
</linearGradient>
<radialGradient id="paint12_radial_7747_10059" cx="0" cy="0" r="1" gradientUnits="userSpaceOnUse" gradientTransform="translate(28.077 19.017) rotate(155.362) scale(2.43605 15.101)">
<stop offset="0.231495" stop-color="#847A97"/>
<stop offset="1" stop-color="#D5CFE2" stop-opacity="0"/>
</radialGradient>
<radialGradient id="paint13_radial_7747_10059" cx="0" cy="0" r="1" gradientUnits="userSpaceOnUse" gradientTransform="translate(22.812 27.5075) rotate(152.002) scale(3.67406 22.8481)">
<stop offset="0.236657" stop-color="#847A97"/>
<stop offset="1" stop-color="#D5CFE2" stop-opacity="0"/>
</radialGradient>
<radialGradient id="paint14_radial_7747_10059" cx="0" cy="0" r="1" gradientUnits="userSpaceOnUse" gradientTransform="translate(17.4828 36.2647) rotate(153.266) scale(2.90098 18.0192)">
<stop offset="0.401951" stop-color="#847A97"/>
<stop offset="1" stop-color="#D5CFE2" stop-opacity="0"/>
</radialGradient>
<linearGradient id="paint15_linear_7747_10059" x1="13.9984" y1="42.6562" x2="18.5921" y2="40.0312" gradientUnits="userSpaceOnUse">
<stop offset="0.120513" stop-color="#9B98A1"/>
<stop offset="1" stop-color="#9B98A1" stop-opacity="0"/>
</linearGradient>
<linearGradient id="paint16_linear_7747_10059" x1="20.8134" y1="25.127" x2="21.5969" y2="25.5551" gradientUnits="userSpaceOnUse">
<stop stop-color="#949397"/>
<stop offset="1" stop-color="#949397" stop-opacity="0"/>
</linearGradient>
<linearGradient id="paint17_linear_7747_10059" x1="25.7744" y1="27.5808" x2="24.6121" y2="26.9659" gradientUnits="userSpaceOnUse">
<stop stop-color="#949397"/>
<stop offset="1" stop-color="#949397" stop-opacity="0"/>
</linearGradient>
<linearGradient id="paint18_linear_7747_10059" x1="26.2923" y1="26.1436" x2="25.0008" y2="25.4325" gradientUnits="userSpaceOnUse">
<stop stop-color="#A29AB5"/>
<stop offset="1" stop-color="#A29AB5" stop-opacity="0"/>
</linearGradient>
<linearGradient id="paint19_linear_7747_10059" x1="22.5293" y1="10.3913" x2="13.5059" y2="24.9382" gradientUnits="userSpaceOnUse">
<stop stop-color="#A098B3"/>
<stop offset="1" stop-color="#B4AFC0"/>
</linearGradient>
<radialGradient id="paint20_radial_7747_10059" cx="0" cy="0" r="1" gradientUnits="userSpaceOnUse" gradientTransform="translate(18.2791 14.9155) rotate(-27.7185) scale(1.998 5.90805)">
<stop offset="0.191355" stop-color="#868489"/>
<stop offset="1" stop-color="#A49DB7" stop-opacity="0"/>
</radialGradient>
<linearGradient id="paint21_linear_7747_10059" x1="13.4512" y1="25.157" x2="14.9825" y2="24.3913" gradientUnits="userSpaceOnUse">
<stop offset="0.171429" stop-color="#908E95"/>
<stop offset="1" stop-color="#908E95" stop-opacity="0"/>
</linearGradient>
<linearGradient id="paint22_linear_7747_10059" x1="23.295" y1="9.51634" x2="20.5059" y2="12.8523" gradientUnits="userSpaceOnUse">
<stop offset="0.341031" stop-color="#9186A9"/>
<stop offset="1" stop-color="#9186A9" stop-opacity="0"/>
</linearGradient>
<linearGradient id="paint23_linear_7747_10059" x1="14.7547" y1="16.3989" x2="15.6447" y2="16.9281" gradientUnits="userSpaceOnUse">
<stop stop-color="#868588"/>
<stop offset="1" stop-color="#868588" stop-opacity="0"/>
</linearGradient>
<linearGradient id="paint24_linear_7747_10059" x1="18.9935" y1="19.4817" x2="18.3139" y2="19.0966" gradientUnits="userSpaceOnUse">
<stop stop-color="#868588"/>
<stop offset="1" stop-color="#868588" stop-opacity="0"/>
</linearGradient>
<linearGradient id="paint25_linear_7747_10059" x1="18.5573" y1="21.9476" x2="16.9677" y2="20.8708" gradientUnits="userSpaceOnUse">
<stop stop-color="#9F96B2"/>
<stop offset="1" stop-color="#9F96B2" stop-opacity="0"/>
</linearGradient>
<linearGradient id="paint26_linear_7747_10059" x1="44.5714" y1="29.0935" x2="36.1495" y2="44.9529" gradientUnits="userSpaceOnUse">
<stop stop-color="#C2BECE"/>
<stop offset="1" stop-color="#E6E4ED"/>
</linearGradient>
<linearGradient id="paint27_linear_7747_10059" x1="44.2433" y1="32.7576" x2="41.1808" y2="32.1013" gradientUnits="userSpaceOnUse">
<stop offset="0.401219" stop-color="#797487"/>
<stop offset="1" stop-color="#797487" stop-opacity="0"/>
</linearGradient>
<linearGradient id="paint28_linear_7747_10059" x1="44.462" y1="27.3982" x2="42.0558" y2="29.0662" gradientUnits="userSpaceOnUse">
<stop offset="0.643349" stop-color="#726A85"/>
<stop offset="1" stop-color="#726A85" stop-opacity="0"/>
</linearGradient>
<radialGradient id="paint29_radial_7747_10059" cx="0" cy="0" r="1" gradientUnits="userSpaceOnUse" gradientTransform="translate(38.419 38.5818) rotate(151.699) scale(2.01863 11.0265)">
<stop offset="0.330105" stop-color="#857D98"/>
<stop offset="1" stop-color="#BEBAC8" stop-opacity="0"/>
</radialGradient>
<linearGradient id="paint30_linear_7747_10059" x1="39.5963" y1="30.6385" x2="40.2303" y2="31.0246" gradientUnits="userSpaceOnUse">
<stop stop-color="#E5E2EC"/>
<stop offset="1" stop-color="#E5E2EC" stop-opacity="0"/>
</linearGradient>
<linearGradient id="paint31_linear_7747_10059" x1="38.4745" y1="28.8828" x2="40.5716" y2="30.0045" gradientUnits="userSpaceOnUse">
<stop offset="0.291667" stop-color="#8E8A95"/>
<stop offset="1" stop-color="#8E8A95" stop-opacity="0"/>
</linearGradient>
<linearGradient id="paint32_linear_7747_10059" x1="41.5958" y1="37.4175" x2="40.3766" y2="36.7835" gradientUnits="userSpaceOnUse">
<stop offset="0.291667" stop-color="#8E8A95"/>
<stop offset="1" stop-color="#8E8A95" stop-opacity="0"/>
</linearGradient>
<linearGradient id="paint33_linear_7747_10059" x1="38.0844" y1="31.7602" x2="40.5716" y2="32.8332" gradientUnits="userSpaceOnUse">
<stop stop-color="#E8E6F0"/>
<stop offset="1" stop-color="#E8E6F0" stop-opacity="0"/>
</linearGradient>
<linearGradient id="paint34_linear_7747_10059" x1="43.254" y1="34.9303" x2="41.4007" y2="33.9549" gradientUnits="userSpaceOnUse">
<stop stop-color="#E8E6F0"/>
<stop offset="1" stop-color="#E8E6F0" stop-opacity="0"/>
</linearGradient>
<linearGradient id="paint35_linear_7747_10059" x1="13.8891" y1="12.468" x2="35.438" y2="49.2983" gradientUnits="userSpaceOnUse">
<stop stop-color="#ADA8BA"/>
<stop offset="0.453918" stop-color="#CEC8DE"/>
<stop offset="1" stop-color="#D6D3E0"/>
</linearGradient>
<linearGradient id="paint36_linear_7747_10059" x1="12.9309" y1="8.29943" x2="15.134" y2="13.5356" gradientUnits="userSpaceOnUse">
<stop offset="0.264191" stop-color="#867E98"/>
<stop offset="1" stop-color="#867E98" stop-opacity="0"/>
</linearGradient>
<linearGradient id="paint37_linear_7747_10059" x1="35.7078" y1="46.0298" x2="33.1471" y2="42.3212" gradientUnits="userSpaceOnUse">
<stop stop-color="#D0CFD3"/>
<stop offset="1" stop-color="#D0CFD3" stop-opacity="0"/>
</linearGradient>
<linearGradient id="paint38_linear_7747_10059" x1="24.1844" y1="33.4976" x2="25.0661" y2="33.0361" gradientUnits="userSpaceOnUse">
<stop offset="0.135417" stop-color="#A59EB4"/>
<stop offset="1" stop-color="#A59EB4" stop-opacity="0"/>
</linearGradient>
<linearGradient id="paint39_linear_7747_10059" x1="27.4109" y1="29.7719" x2="26.7183" y2="30.1548" gradientUnits="userSpaceOnUse">
<stop offset="0.130208" stop-color="#E8E5F1"/>
<stop offset="1" stop-color="#E8E5F1" stop-opacity="0"/>
</linearGradient>
<linearGradient id="paint40_linear_7747_10059" x1="22.216" y1="5.74084" x2="44.2973" y2="45.964" gradientUnits="userSpaceOnUse">
<stop stop-color="#C5C0D4"/>
<stop offset="0.607326" stop-color="#D8D3E4"/>
</linearGradient>
<linearGradient id="paint41_linear_7747_10059" x1="42.0185" y1="40.3256" x2="39.6911" y2="39.9044" gradientUnits="userSpaceOnUse">
<stop offset="0.1765" stop-color="#8E8A99"/>
<stop offset="1" stop-color="#C7C3D1" stop-opacity="0"/>
</linearGradient>
<linearGradient id="paint42_linear_7747_10059" x1="24.1172" y1="8.20312" x2="24.1172" y2="11.8672" gradientUnits="userSpaceOnUse">
<stop offset="0.470149" stop-color="#978FAC"/>
<stop offset="1" stop-color="#C8C2D8" stop-opacity="0"/>
</linearGradient>
<linearGradient id="paint43_linear_7747_10059" x1="31.1018" y1="26.7935" x2="32.0467" y2="26.2817" gradientUnits="userSpaceOnUse">
<stop offset="0.322917" stop-color="#A9A1BC"/>
<stop offset="1" stop-color="#A9A1BC" stop-opacity="0"/>
</linearGradient>
<linearGradient id="paint44_linear_7747_10059" x1="34.9058" y1="24.0143" x2="34.3999" y2="24.2938" gradientUnits="userSpaceOnUse">
<stop stop-color="#E2DFEB"/>
<stop offset="1" stop-color="#E2DFEB" stop-opacity="0"/>
</linearGradient>
<linearGradient id="paint45_linear_7747_10059" x1="9.9241" y1="22.808" x2="17.0896" y2="41.0519" gradientUnits="userSpaceOnUse">
<stop stop-color="#A19DAC"/>
<stop offset="1" stop-color="#BFBCC7"/>
</linearGradient>
<linearGradient id="paint46_linear_7747_10059" x1="12.3576" y1="28.9846" x2="15.7482" y2="28.8752" gradientUnits="userSpaceOnUse">
<stop offset="0.0467775" stop-color="#8F8D97"/>
<stop offset="1" stop-color="#8F8D97" stop-opacity="0"/>
</linearGradient>
<linearGradient id="paint47_linear_7747_10059" x1="19.5282" y1="33.5539" x2="18.0216" y2="34.351" gradientUnits="userSpaceOnUse">
<stop offset="0.302083" stop-color="#DCD9E5"/>
<stop offset="1" stop-color="#DCD9E5" stop-opacity="0"/>
</linearGradient>
<linearGradient id="paint48_linear_7747_10059" x1="15.7628" y1="39.1856" x2="17.2639" y2="38.3931" gradientUnits="userSpaceOnUse">
<stop offset="0.416667" stop-color="#7F7A89"/>
<stop offset="1" stop-color="#7F7A89" stop-opacity="0"/>
</linearGradient>
<linearGradient id="paint49_linear_7747_10059" x1="36.6403" y1="10.4453" x2="44.5434" y2="24.547" gradientUnits="userSpaceOnUse">
<stop stop-color="#C4BFD1"/>
<stop offset="1" stop-color="#D9D5E2"/>
</linearGradient>
<linearGradient id="paint50_linear_7747_10059" x1="41.3033" y1="16.5604" x2="40.358" y2="17.1023" gradientUnits="userSpaceOnUse">
<stop stop-color="#C7C6CC"/>
<stop offset="1" stop-color="#C7C6CC" stop-opacity="0"/>
</linearGradient>
<linearGradient id="paint51_linear_7747_10059" x1="38.3678" y1="9.54899" x2="38.1913" y2="11.9604" gradientUnits="userSpaceOnUse">
<stop offset="0.323077" stop-color="#7D758C"/>
<stop offset="1" stop-color="#C6C1D3" stop-opacity="0"/>
</linearGradient>
<linearGradient id="paint52_linear_7747_10059" x1="43.9684" y1="28.5469" x2="42.82" y2="28.4922" gradientUnits="userSpaceOnUse">
<stop offset="0.0972856" stop-color="#69676E"/>
<stop offset="1" stop-color="#D9D5E2" stop-opacity="0"/>
</linearGradient>
<linearGradient id="paint53_linear_7747_10059" x1="37.7444" y1="20.002" x2="39.1283" y2="19.2716" gradientUnits="userSpaceOnUse">
<stop offset="0.239583" stop-color="#ACA3BF"/>
<stop offset="1" stop-color="#ACA3BF" stop-opacity="0"/>
</linearGradient>
<linearGradient id="paint54_linear_7747_10059" x1="42.9834" y1="29.292" x2="48.5615" y2="30.0234" gradientUnits="userSpaceOnUse">
<stop offset="0.0818434" stop-color="#B2AEBD"/>
<stop offset="1" stop-color="#D2CEDC"/>
</linearGradient>
<radialGradient id="paint55_radial_7747_10059" cx="0" cy="0" r="1" gradientUnits="userSpaceOnUse" gradientTransform="translate(50.9609 10.2812) rotate(97.8492) scale(38.6433 3.07121)">
<stop stop-color="#CFCBD9"/>
<stop offset="1" stop-color="#CFCBD9" stop-opacity="0"/>
</radialGradient>
<radialGradient id="paint56_radial_7747_10059" cx="0" cy="0" r="1" gradientUnits="userSpaceOnUse" gradientTransform="translate(49.8193 8.75) rotate(155.072) scale(10.3801 2.33993)">
<stop offset="0.330734" stop-color="#797090"/>
<stop offset="1" stop-color="#8C869C" stop-opacity="0"/>
</radialGradient>
<linearGradient id="paint57_linear_7747_10059" x1="41.5614" y1="26.8503" x2="45.1713" y2="27.3316" gradientUnits="userSpaceOnUse">
<stop offset="0.260417" stop-color="#7B7887"/>
<stop offset="1" stop-color="#7C7887" stop-opacity="0"/>
</linearGradient>
<linearGradient id="paint58_linear_7747_10059" x1="50.0572" y1="28.0448" x2="48.1723" y2="27.7932" gradientUnits="userSpaceOnUse">
<stop stop-color="#7B7887"/>
<stop offset="1" stop-color="#7C7887" stop-opacity="0"/>
</linearGradient>
<linearGradient id="paint59_linear_7747_10059" x1="9.0791" y1="34.4531" x2="13.6729" y2="34.0156" gradientUnits="userSpaceOnUse">
<stop offset="0.0818434" stop-color="#B2AEBD"/>
<stop offset="1" stop-color="#D2CEDC"/>
</linearGradient>
<radialGradient id="paint60_radial_7747_10059" cx="0" cy="0" r="1" gradientUnits="userSpaceOnUse" gradientTransform="translate(6.15332 6.94531) rotate(24.928) scale(10.3801 2.33993)">
<stop offset="0.330734" stop-color="#797090"/>
<stop offset="1" stop-color="#8C869C" stop-opacity="0"/>
</radialGradient>
<linearGradient id="paint61_linear_7747_10059" x1="7.30929" y1="27.4873" x2="9.04721" y2="27.2763" gradientUnits="userSpaceOnUse">
<stop stop-color="#7C7887"/>
<stop offset="1" stop-color="#7C7887" stop-opacity="0"/>
</linearGradient>
<linearGradient id="paint62_linear_7747_10059" x1="13.7887" y1="26.8115" x2="12.377" y2="26.9685" gradientUnits="userSpaceOnUse">
<stop stop-color="#7C7887"/>
<stop offset="1" stop-color="#7C7887" stop-opacity="0"/>
</linearGradient>
<linearGradient id="paint63_linear_7747_10059" x1="28.2188" y1="10.3633" x2="28.2188" y2="5.83519" gradientUnits="userSpaceOnUse">
<stop stop-color="#A198B6"/>
<stop offset="1" stop-color="#A198B6" stop-opacity="0"/>
</linearGradient>
<linearGradient id="paint64_linear_7747_10059" x1="52.8555" y1="10.3633" x2="48.9657" y2="6.10911" gradientUnits="userSpaceOnUse">
<stop stop-color="#A198B6"/>
<stop offset="1" stop-color="#A198B6" stop-opacity="0"/>
</linearGradient>
<linearGradient id="paint65_linear_7747_10059" x1="1.02949" y1="9.12224" x2="8.69929" y2="6.95898" gradientUnits="userSpaceOnUse">
<stop stop-color="#A198B6"/>
<stop offset="1" stop-color="#A198B6" stop-opacity="0"/>
</linearGradient>
<linearGradient id="paint66_linear_7747_10059" x1="28.2188" y1="2.37305" x2="28.2188" y2="4.26066" gradientUnits="userSpaceOnUse">
<stop stop-color="#8D82A3"/>
<stop offset="1" stop-color="#8D82A3" stop-opacity="0"/>
</linearGradient>
<linearGradient id="paint67_linear_7747_10059" x1="28.2188" y1="12.3067" x2="28.2188" y2="6.95898" gradientUnits="userSpaceOnUse">
<stop stop-color="#8D82A3"/>
<stop offset="1" stop-color="#8D82A3" stop-opacity="0"/>
</linearGradient>
<linearGradient id="paint68_linear_7747_10059" x1="1.57413" y1="10.3633" x2="5.89124" y2="8.82924" gradientUnits="userSpaceOnUse">
<stop stop-color="#8D82A3"/>
<stop offset="1" stop-color="#8D82A3" stop-opacity="0"/>
</linearGradient>
<radialGradient id="paint69_radial_7747_10059" cx="0" cy="0" r="1" gradientUnits="userSpaceOnUse" gradientTransform="translate(45.0509 7.01089) rotate(180) scale(18.1323 2.84858)">
<stop stop-color="#DFDEE3"/>
<stop offset="1" stop-color="#C8C7CD" stop-opacity="0"/>
</radialGradient>
<linearGradient id="paint70_linear_7747_10059" x1="28.2188" y1="53.264" x2="28.2187" y2="47.2691" gradientUnits="userSpaceOnUse">
<stop offset="0.307292" stop-color="#A198B6"/>
<stop offset="1" stop-color="#A198B6" stop-opacity="0"/>
</linearGradient>
<linearGradient id="paint71_linear_7747_10059" x1="5.68768" y1="49.9666" x2="11.1334" y2="48.959" gradientUnits="userSpaceOnUse">
<stop stop-color="#A198B6"/>
<stop offset="1" stop-color="#A198B6" stop-opacity="0"/>
</linearGradient>
<linearGradient id="paint72_linear_7747_10059" x1="48.5821" y1="50.0221" x2="45.0778" y2="48.959" gradientUnits="userSpaceOnUse">
<stop stop-color="#A198B6"/>
<stop offset="1" stop-color="#A198B6" stop-opacity="0"/>
</linearGradient>
<linearGradient id="paint73_linear_7747_10059" x1="28.2188" y1="40.3251" x2="28.2188" y2="46.0861" gradientUnits="userSpaceOnUse">
<stop offset="0.71875" stop-color="#8D82A3"/>
<stop offset="1" stop-color="#8D82A3" stop-opacity="0"/>
</linearGradient>
<linearGradient id="paint74_linear_7747_10059" x1="7.98324" y1="50.9761" x2="11.3035" y2="48.959" gradientUnits="userSpaceOnUse">
<stop stop-color="#8D82A3"/>
<stop offset="1" stop-color="#8D82A3" stop-opacity="0"/>
</linearGradient>
<linearGradient id="paint75_linear_7747_10059" x1="48.4724" y1="49.2126" x2="45.602" y2="48.1928" gradientUnits="userSpaceOnUse">
<stop stop-color="#8D82A3"/>
<stop offset="1" stop-color="#8D82A3" stop-opacity="0"/>
</linearGradient>
<linearGradient id="paint76_linear_7747_10059" x1="33.1406" y1="52.3633" x2="33.1406" y2="50.75" gradientUnits="userSpaceOnUse">
<stop stop-color="#9881BB"/>
<stop offset="1" stop-color="#A899C7" stop-opacity="0"/>
</linearGradient>
<radialGradient id="paint77_radial_7747_10059" cx="0" cy="0" r="1" gradientUnits="userSpaceOnUse" gradientTransform="translate(39.9928 48.5176) rotate(-179.901) scale(18.607 2.27888)">
<stop offset="0.177083" stop-color="#DFDEE3"/>
<stop offset="1" stop-color="#C8C7CD" stop-opacity="0"/>
</radialGradient>
</defs>
</svg>
